G75*
G70*
%OFA0B0*%
%FSLAX24Y24*%
%IPPOS*%
%LPD*%
%AMOC8*
5,1,8,0,0,1.08239X$1,22.5*
%
%ADD10R,0.0197X0.0197*%
%ADD11R,0.0197X0.0197*%
%ADD12R,0.0087X0.0354*%
%ADD13R,0.0197X0.0335*%
%ADD14C,0.0157*%
%ADD15C,0.0039*%
D10*
X003632Y004453D03*
X003954Y004653D03*
X003632Y004853D03*
X003366Y005060D03*
X002966Y005060D03*
X003954Y005053D03*
D11*
G36*
X004418Y004970D02*
X004556Y004832D01*
X004418Y004694D01*
X004280Y004832D01*
X004418Y004970D01*
G37*
G36*
X004701Y004688D02*
X004839Y004550D01*
X004701Y004412D01*
X004563Y004550D01*
X004701Y004688D01*
G37*
G36*
X002045Y001843D02*
X001895Y001969D01*
X002021Y002119D01*
X002171Y001993D01*
X002045Y001843D01*
G37*
G36*
X002352Y001586D02*
X002202Y001712D01*
X002328Y001862D01*
X002478Y001736D01*
X002352Y001586D01*
G37*
G36*
X002897Y001594D02*
X003089Y001560D01*
X003055Y001368D01*
X002863Y001402D01*
X002897Y001594D01*
G37*
G36*
X003291Y001524D02*
X003483Y001490D01*
X003449Y001298D01*
X003257Y001332D01*
X003291Y001524D01*
G37*
D12*
X003217Y002771D03*
X003374Y002771D03*
X003532Y002771D03*
X003689Y002771D03*
X003847Y002771D03*
X004004Y002771D03*
X004162Y002771D03*
X004319Y002771D03*
X004477Y002771D03*
X004477Y003807D03*
X004319Y003807D03*
X004162Y003807D03*
X004004Y003807D03*
X003847Y003807D03*
X003689Y003807D03*
X003532Y003807D03*
X003374Y003807D03*
X003217Y003807D03*
X003059Y003807D03*
X002902Y003807D03*
X002744Y003807D03*
X002587Y003807D03*
X002429Y003807D03*
X002272Y003807D03*
X002272Y002771D03*
X002429Y002771D03*
X002587Y002771D03*
X002744Y002771D03*
X002902Y002771D03*
X003059Y002771D03*
D13*
X001957Y002998D03*
X001957Y003580D03*
X004792Y003580D03*
X004792Y002998D03*
D14*
X005065Y002868D03*
X004477Y003337D03*
X004320Y003203D03*
X004531Y003551D03*
X005098Y003763D03*
X005260Y003461D03*
X004894Y004211D03*
X004450Y004269D03*
X004212Y004269D03*
X003999Y004198D03*
X003810Y004429D03*
X004141Y004617D03*
X004160Y005040D03*
X002912Y004475D03*
X002738Y004381D03*
X002647Y004589D03*
X002730Y005085D03*
X001886Y004503D03*
X001902Y004079D03*
X001744Y003791D03*
X001587Y003952D03*
X001702Y003336D03*
X001732Y003090D03*
X001775Y002618D03*
X001906Y002109D03*
X002601Y002237D03*
X002780Y002162D03*
X002972Y002137D03*
X003106Y001982D03*
X003313Y001923D03*
X003326Y001646D03*
X003598Y001605D03*
X003807Y001609D03*
X003927Y001782D03*
X003547Y001380D03*
X002801Y001515D03*
X003839Y002291D03*
X003993Y002429D03*
X004155Y002261D03*
D15*
X002033Y001981D02*
X001994Y001981D01*
X001906Y002109D01*
X001881Y002055D01*
X001973Y002012D01*
X001965Y002113D01*
X001906Y002109D01*
X001881Y002055D01*
X001973Y002012D01*
X001965Y002113D01*
X001906Y002109D01*
X001881Y002055D01*
X001973Y002012D01*
X001965Y002113D01*
X001906Y002109D01*
X001881Y002055D01*
X001973Y002012D01*
X001965Y002113D01*
X001906Y002109D01*
X001881Y002055D01*
X001973Y002012D01*
X001965Y002113D01*
X001906Y002109D01*
X001881Y002055D01*
X001973Y002012D01*
X001965Y002113D01*
X001906Y002109D01*
X001881Y002055D01*
X001973Y002012D01*
X001965Y002113D01*
X001906Y002109D01*
X001881Y002055D01*
X001973Y002012D01*
X001965Y002113D01*
X001906Y002109D01*
X001881Y002055D01*
X001973Y002012D01*
X001965Y002113D01*
X001906Y002109D01*
X001881Y002055D01*
X001973Y002012D01*
X001965Y002113D01*
X001906Y002109D01*
X001881Y002055D01*
X001973Y002012D01*
X001965Y002113D01*
X001906Y002109D01*
X001881Y002055D01*
X001973Y002012D01*
X001965Y002113D01*
X001906Y002109D01*
X001881Y002055D01*
X001973Y002012D01*
X001965Y002113D01*
X001906Y002109D01*
X002340Y001734D02*
X002340Y001724D01*
X002549Y001515D01*
X002801Y001515D01*
X002771Y001566D01*
X002801Y001515D01*
X002771Y001463D01*
X002801Y001515D01*
X002771Y001566D01*
X002682Y001515D01*
X002771Y001566D01*
X002801Y001515D01*
X002771Y001463D01*
X002682Y001515D01*
X002771Y001566D01*
X002801Y001515D01*
X002771Y001463D01*
X002801Y001515D01*
X002820Y001459D01*
X002917Y001492D01*
X002839Y001559D01*
X002801Y001515D01*
X002820Y001459D01*
X002917Y001492D01*
X002839Y001559D01*
X002801Y001515D01*
X002820Y001459D01*
X002917Y001492D01*
X002839Y001559D01*
X002801Y001515D01*
X002820Y001459D01*
X002917Y001492D01*
X002839Y001559D01*
X002801Y001515D01*
X002771Y001566D01*
X002682Y001515D01*
X002771Y001463D01*
X002682Y001515D01*
X002771Y001566D01*
X002801Y001515D01*
X002771Y001463D01*
X002801Y001515D01*
X002771Y001463D01*
X002682Y001515D01*
X002771Y001463D01*
X002801Y001515D01*
X002820Y001459D01*
X002917Y001492D01*
X002839Y001559D01*
X002801Y001515D01*
X002820Y001459D01*
X002917Y001492D01*
X002839Y001559D01*
X002801Y001515D01*
X002771Y001566D01*
X002682Y001515D01*
X002771Y001463D01*
X002682Y001515D01*
X002771Y001566D01*
X002801Y001515D01*
X002771Y001463D01*
X002682Y001515D01*
X002771Y001566D01*
X002682Y001515D01*
X002771Y001463D01*
X002682Y001515D01*
X002771Y001566D01*
X002801Y001515D01*
X002771Y001463D01*
X002682Y001515D01*
X002771Y001463D01*
X002801Y001515D01*
X002820Y001459D01*
X002917Y001492D01*
X002839Y001559D01*
X002801Y001515D01*
X002820Y001459D01*
X002917Y001492D01*
X002839Y001559D01*
X002801Y001515D01*
X002820Y001459D01*
X002917Y001492D01*
X002839Y001559D01*
X002801Y001515D01*
X002771Y001566D01*
X002682Y001515D01*
X002771Y001566D01*
X002801Y001515D01*
X002771Y001463D01*
X002682Y001515D01*
X002771Y001566D01*
X002801Y001515D01*
X002820Y001459D01*
X002917Y001492D01*
X002839Y001559D01*
X002801Y001515D01*
X002820Y001459D01*
X002917Y001492D01*
X002839Y001559D01*
X002801Y001515D01*
X002820Y001459D01*
X002917Y001492D01*
X002839Y001559D01*
X002801Y001515D01*
X002820Y001459D01*
X002917Y001492D01*
X002839Y001559D01*
X002801Y001515D01*
X002976Y001481D01*
X003326Y001646D02*
X003376Y001614D01*
X003431Y001701D01*
X003329Y001705D01*
X003326Y001646D01*
X003376Y001614D01*
X003431Y001701D01*
X003329Y001705D01*
X003326Y001646D01*
X003376Y001614D01*
X003431Y001701D01*
X003329Y001705D01*
X003326Y001646D01*
X003376Y001614D01*
X003431Y001701D01*
X003329Y001705D01*
X003326Y001646D01*
X003376Y001614D01*
X003431Y001701D01*
X003329Y001705D01*
X003326Y001646D01*
X003376Y001614D01*
X003431Y001701D01*
X003329Y001705D01*
X003326Y001646D01*
X003376Y001614D01*
X003431Y001701D01*
X003329Y001705D01*
X003326Y001646D01*
X003376Y001614D01*
X003431Y001701D01*
X003329Y001705D01*
X003326Y001646D01*
X003376Y001614D01*
X003431Y001701D01*
X003329Y001705D01*
X003326Y001646D01*
X003376Y001614D01*
X003431Y001701D01*
X003329Y001705D01*
X003326Y001646D01*
X003376Y001614D01*
X003431Y001701D01*
X003329Y001705D01*
X003326Y001646D01*
X003376Y001614D01*
X003431Y001701D01*
X003329Y001705D01*
X003326Y001646D01*
X003376Y001614D01*
X003431Y001701D01*
X003329Y001705D01*
X003326Y001646D01*
X003376Y001646D01*
X003435Y001705D01*
X003471Y001741D01*
X003471Y001944D01*
X003471Y001970D01*
X003374Y002067D01*
X003355Y002086D01*
X003355Y002303D01*
X003324Y002333D01*
X003220Y002437D01*
X003220Y002768D01*
X003217Y002771D01*
X003374Y002771D02*
X003374Y002439D01*
X003443Y002371D01*
X003441Y002116D01*
X003590Y001967D01*
X003590Y001952D01*
X003598Y001605D01*
X003649Y001636D01*
X003596Y001723D01*
X003547Y001633D01*
X003598Y001605D01*
X003547Y001633D01*
X003596Y001723D01*
X003649Y001636D01*
X003598Y001605D01*
X003547Y001633D01*
X003598Y001605D01*
X003649Y001636D01*
X003596Y001723D01*
X003547Y001633D01*
X003596Y001723D01*
X003547Y001633D01*
X003598Y001605D01*
X003547Y001633D01*
X003596Y001723D01*
X003649Y001636D01*
X003598Y001605D01*
X003547Y001633D01*
X003596Y001723D01*
X003649Y001636D01*
X003598Y001605D01*
X003547Y001633D01*
X003596Y001723D01*
X003649Y001636D01*
X003598Y001605D01*
X003547Y001633D01*
X003596Y001723D01*
X003649Y001636D01*
X003598Y001605D01*
X003547Y001633D01*
X003596Y001723D01*
X003649Y001636D01*
X003598Y001605D01*
X003547Y001633D01*
X003596Y001723D01*
X003649Y001636D01*
X003598Y001605D01*
X003649Y001636D01*
X003596Y001723D01*
X003547Y001633D01*
X003598Y001605D01*
X003649Y001636D01*
X003596Y001723D01*
X003547Y001633D01*
X003598Y001605D01*
X003649Y001636D01*
X003596Y001723D01*
X003649Y001636D01*
X003598Y001605D01*
X003749Y001618D02*
X003807Y001609D01*
X003845Y001655D01*
X003765Y001719D01*
X003845Y001655D01*
X003807Y001609D01*
X003845Y001655D01*
X003765Y001719D01*
X003749Y001618D01*
X003807Y001609D01*
X003749Y001618D01*
X003765Y001719D01*
X003845Y001655D01*
X003807Y001609D01*
X003749Y001618D01*
X003765Y001719D01*
X003845Y001655D01*
X003807Y001609D01*
X003749Y001618D01*
X003807Y001609D01*
X003845Y001655D01*
X003765Y001719D01*
X003749Y001618D01*
X003807Y001609D01*
X003845Y001655D01*
X003765Y001719D01*
X003845Y001655D01*
X003807Y001609D01*
X003749Y001618D01*
X003765Y001719D01*
X003845Y001655D01*
X003765Y001719D01*
X003749Y001618D01*
X003807Y001609D01*
X003845Y001655D01*
X003807Y001609D01*
X003749Y001618D01*
X003765Y001719D01*
X003749Y001618D01*
X003765Y001719D01*
X003749Y001618D01*
X003807Y001609D01*
X003845Y001655D01*
X003765Y001719D01*
X003749Y001618D01*
X003807Y001609D01*
X003845Y001655D01*
X003765Y001719D01*
X003749Y001618D01*
X003807Y001609D01*
X003845Y001655D01*
X003765Y001719D01*
X003749Y001618D01*
X003765Y001651D02*
X003765Y001864D01*
X003765Y001937D01*
X003544Y002159D01*
X003544Y002759D01*
X003532Y002771D01*
X003689Y002771D02*
X003689Y002243D01*
X003689Y002147D01*
X003791Y002045D01*
X003927Y001909D01*
X003927Y001782D01*
X003978Y001812D01*
X003927Y001900D01*
X003978Y001812D01*
X003927Y001782D01*
X003876Y001812D01*
X003927Y001782D01*
X003978Y001812D01*
X003927Y001782D01*
X003876Y001812D01*
X003927Y001900D01*
X003876Y001812D01*
X003927Y001900D01*
X003978Y001812D01*
X003927Y001900D01*
X003876Y001812D01*
X003927Y001782D01*
X003876Y001812D01*
X003927Y001900D01*
X003978Y001812D01*
X003927Y001782D01*
X003978Y001812D01*
X003927Y001900D01*
X003876Y001812D01*
X003927Y001782D01*
X003876Y001812D01*
X003927Y001900D01*
X003978Y001812D01*
X003927Y001782D01*
X003978Y001812D01*
X003927Y001900D01*
X003876Y001812D01*
X003927Y001782D01*
X003876Y001812D01*
X003927Y001900D01*
X003978Y001812D01*
X003927Y001782D01*
X003978Y001812D01*
X003927Y001900D01*
X003876Y001812D01*
X003927Y001782D01*
X003978Y001812D01*
X003927Y001900D01*
X003876Y001812D01*
X003927Y001782D01*
X003876Y001812D01*
X003927Y001900D01*
X003978Y001812D01*
X003927Y001782D01*
X003978Y001812D01*
X003927Y001900D01*
X003876Y001812D01*
X003927Y001782D01*
X003765Y001651D02*
X003807Y001609D01*
X003527Y001436D02*
X003547Y001380D01*
X003509Y001335D01*
X003431Y001401D01*
X003527Y001436D01*
X003547Y001380D01*
X003509Y001335D01*
X003431Y001401D01*
X003527Y001436D01*
X003547Y001380D01*
X003509Y001335D01*
X003431Y001401D01*
X003527Y001436D01*
X003547Y001380D01*
X003527Y001436D01*
X003431Y001401D01*
X003509Y001335D01*
X003547Y001380D01*
X003509Y001335D01*
X003547Y001380D01*
X003527Y001436D01*
X003547Y001380D01*
X003509Y001335D01*
X003431Y001401D01*
X003527Y001436D01*
X003547Y001380D01*
X003527Y001436D01*
X003431Y001401D01*
X003509Y001335D01*
X003547Y001380D01*
X003509Y001335D01*
X003431Y001401D01*
X003527Y001436D01*
X003431Y001401D01*
X003509Y001335D01*
X003547Y001380D01*
X003527Y001436D01*
X003431Y001401D01*
X003509Y001335D01*
X003547Y001380D01*
X003527Y001436D01*
X003431Y001401D01*
X003509Y001335D01*
X003431Y001401D01*
X003527Y001436D01*
X003547Y001380D01*
X003509Y001335D01*
X003547Y001380D01*
X003527Y001436D01*
X003431Y001401D01*
X003509Y001335D01*
X003431Y001401D01*
X003527Y001436D01*
X003547Y001380D02*
X003378Y001411D01*
X003370Y001411D01*
X003313Y001923D02*
X003254Y001920D01*
X003248Y002022D01*
X003340Y001976D01*
X003313Y001923D01*
X003248Y001989D01*
X003248Y002264D01*
X003059Y002453D01*
X003059Y002771D01*
X002902Y002771D02*
X002902Y002459D01*
X003106Y002255D01*
X003106Y001982D01*
X003158Y002011D01*
X003106Y002100D01*
X003158Y002011D01*
X003106Y001982D01*
X003055Y002011D01*
X003106Y001982D01*
X003055Y002011D01*
X003106Y002100D01*
X003158Y002011D01*
X003106Y002100D01*
X003055Y002011D01*
X003106Y001982D01*
X003158Y002011D01*
X003106Y001982D01*
X003158Y002011D01*
X003106Y002100D01*
X003158Y002011D01*
X003106Y001982D01*
X003055Y002011D01*
X003106Y002100D01*
X003055Y002011D01*
X003106Y001982D01*
X003158Y002011D01*
X003106Y002100D01*
X003158Y002011D01*
X003106Y001982D01*
X003055Y002011D01*
X003106Y002100D01*
X003055Y002011D01*
X003106Y001982D01*
X003158Y002011D01*
X003106Y002100D01*
X003158Y002011D01*
X003106Y002100D01*
X003055Y002011D01*
X003106Y001982D01*
X003158Y002011D01*
X003106Y001982D01*
X003055Y002011D01*
X003106Y002100D01*
X003158Y002011D01*
X003106Y001982D01*
X003055Y002011D01*
X003106Y001982D01*
X003158Y002011D01*
X003106Y002100D01*
X003055Y002011D01*
X003106Y001982D01*
X003055Y002011D02*
X003106Y002100D01*
X003055Y002011D01*
X003106Y002100D01*
X003055Y002011D01*
X002972Y002137D02*
X002917Y002160D01*
X002957Y002254D01*
X003019Y002173D01*
X002972Y002137D01*
X003019Y002173D01*
X002957Y002254D01*
X002917Y002160D01*
X002972Y002137D01*
X003019Y002173D01*
X002957Y002254D01*
X002917Y002160D01*
X002972Y002137D01*
X003019Y002173D01*
X002957Y002254D01*
X002917Y002160D01*
X002972Y002137D01*
X003019Y002173D01*
X002957Y002254D01*
X002917Y002160D01*
X002972Y002137D01*
X003019Y002173D01*
X002957Y002254D01*
X002917Y002160D01*
X002972Y002137D01*
X003019Y002173D01*
X002957Y002254D01*
X002917Y002160D01*
X002972Y002137D01*
X003019Y002173D01*
X002957Y002254D01*
X002917Y002160D01*
X002972Y002137D01*
X003019Y002173D01*
X002957Y002254D01*
X002917Y002160D01*
X002972Y002137D01*
X003019Y002173D01*
X002957Y002254D01*
X002917Y002160D01*
X002972Y002137D01*
X003019Y002173D01*
X002957Y002254D01*
X002917Y002160D01*
X002972Y002137D01*
X003019Y002173D01*
X002957Y002254D01*
X002917Y002160D01*
X002972Y002137D01*
X003019Y002173D01*
X002957Y002254D01*
X002917Y002160D01*
X002972Y002137D01*
X002972Y002239D01*
X002927Y002284D01*
X002827Y002385D01*
X002746Y002462D01*
X002744Y002771D01*
X002597Y002781D02*
X002582Y002796D01*
X002582Y003061D01*
X002546Y003097D01*
X002228Y003097D01*
X002153Y003022D01*
X002153Y002907D01*
X002154Y002906D01*
X002154Y002762D01*
X002102Y002710D01*
X001830Y002710D01*
X001775Y002654D01*
X001775Y002618D01*
X001833Y002609D01*
X001849Y002710D01*
X001754Y002673D01*
X001775Y002618D01*
X001833Y002609D01*
X001849Y002710D01*
X001754Y002673D01*
X001775Y002618D01*
X001833Y002609D01*
X001849Y002710D01*
X001754Y002673D01*
X001775Y002618D01*
X001833Y002609D01*
X001849Y002710D01*
X001754Y002673D01*
X001775Y002618D01*
X001833Y002609D01*
X001849Y002710D01*
X001754Y002673D01*
X001775Y002618D01*
X001833Y002609D01*
X001849Y002710D01*
X001754Y002673D01*
X001775Y002618D01*
X001833Y002609D01*
X001849Y002710D01*
X001754Y002673D01*
X001775Y002618D01*
X001833Y002609D01*
X001849Y002710D01*
X001754Y002673D01*
X001775Y002618D01*
X001833Y002609D01*
X001849Y002710D01*
X001754Y002673D01*
X001775Y002618D01*
X001833Y002609D01*
X001849Y002710D01*
X001754Y002673D01*
X001775Y002618D01*
X001833Y002609D01*
X001849Y002710D01*
X001754Y002673D01*
X001775Y002618D01*
X001833Y002609D01*
X001849Y002710D01*
X001754Y002673D01*
X001775Y002618D01*
X001833Y002609D01*
X001849Y002710D01*
X001754Y002673D01*
X001775Y002618D01*
X002272Y002575D02*
X002272Y002771D01*
X002429Y002771D02*
X002429Y002591D01*
X002608Y002381D01*
X002696Y002382D01*
X002785Y002295D01*
X002784Y002293D01*
X002784Y002161D01*
X002782Y002162D01*
X002780Y002162D01*
X002832Y002190D01*
X002784Y002280D01*
X002730Y002193D01*
X002780Y002162D01*
X002832Y002190D01*
X002784Y002280D01*
X002730Y002193D01*
X002780Y002162D01*
X002832Y002190D01*
X002784Y002280D01*
X002730Y002193D01*
X002780Y002162D01*
X002832Y002190D01*
X002784Y002280D01*
X002730Y002193D01*
X002780Y002162D01*
X002832Y002190D01*
X002784Y002280D01*
X002730Y002193D01*
X002780Y002162D01*
X002832Y002190D01*
X002784Y002280D01*
X002730Y002193D01*
X002780Y002162D01*
X002832Y002190D01*
X002784Y002280D01*
X002730Y002193D01*
X002780Y002162D01*
X002832Y002190D01*
X002784Y002280D01*
X002730Y002193D01*
X002780Y002162D01*
X002832Y002190D01*
X002784Y002280D01*
X002730Y002193D01*
X002780Y002162D01*
X002832Y002190D01*
X002784Y002280D01*
X002730Y002193D01*
X002780Y002162D01*
X002832Y002190D01*
X002784Y002280D01*
X002730Y002193D01*
X002780Y002162D01*
X002832Y002190D01*
X002784Y002280D01*
X002730Y002193D01*
X002780Y002162D01*
X002832Y002190D01*
X002784Y002280D01*
X002730Y002193D01*
X002780Y002162D01*
X002601Y002237D02*
X002618Y002294D01*
X002520Y002323D01*
X002544Y002223D01*
X002601Y002237D01*
X002618Y002294D01*
X002520Y002323D01*
X002544Y002223D01*
X002601Y002237D01*
X002618Y002294D01*
X002520Y002323D01*
X002544Y002223D01*
X002601Y002237D01*
X002618Y002294D01*
X002520Y002323D01*
X002544Y002223D01*
X002601Y002237D01*
X002618Y002294D01*
X002520Y002323D01*
X002544Y002223D01*
X002601Y002237D01*
X002618Y002294D01*
X002520Y002323D01*
X002544Y002223D01*
X002601Y002237D01*
X002618Y002294D01*
X002520Y002323D01*
X002544Y002223D01*
X002601Y002237D01*
X002618Y002294D01*
X002520Y002323D01*
X002544Y002223D01*
X002601Y002237D01*
X002618Y002294D01*
X002520Y002323D01*
X002544Y002223D01*
X002601Y002237D01*
X002544Y002223D01*
X002520Y002323D01*
X002618Y002294D01*
X002601Y002237D01*
X002618Y002294D01*
X002520Y002323D01*
X002544Y002223D01*
X002601Y002237D01*
X002618Y002294D01*
X002520Y002323D01*
X002544Y002223D01*
X002601Y002237D01*
X002618Y002294D01*
X002520Y002323D01*
X002544Y002223D01*
X002601Y002237D01*
X002429Y002418D01*
X002272Y002575D01*
X002587Y002771D02*
X002597Y002781D01*
X002151Y003238D02*
X003479Y003238D01*
X003498Y003257D01*
X003538Y003297D01*
X003538Y003555D01*
X003538Y003801D01*
X003532Y003807D01*
X003380Y003813D02*
X003362Y003832D01*
X003362Y004391D01*
X003162Y004591D01*
X003068Y004685D01*
X002956Y004685D01*
X002846Y004685D01*
X002647Y004589D01*
X002696Y004556D01*
X002754Y004640D01*
X002652Y004648D01*
X002647Y004589D01*
X002696Y004556D01*
X002754Y004640D01*
X002652Y004648D01*
X002647Y004589D01*
X002696Y004556D01*
X002754Y004640D01*
X002652Y004648D01*
X002647Y004589D01*
X002696Y004556D01*
X002754Y004640D01*
X002652Y004648D01*
X002647Y004589D01*
X002696Y004556D01*
X002754Y004640D01*
X002652Y004648D01*
X002647Y004589D01*
X002696Y004556D01*
X002754Y004640D01*
X002652Y004648D01*
X002647Y004589D01*
X002696Y004556D01*
X002754Y004640D01*
X002652Y004648D01*
X002647Y004589D01*
X002696Y004556D01*
X002754Y004640D01*
X002652Y004648D01*
X002647Y004589D01*
X002696Y004556D01*
X002754Y004640D01*
X002652Y004648D01*
X002647Y004589D01*
X002696Y004556D01*
X002754Y004640D01*
X002652Y004648D01*
X002647Y004589D01*
X002696Y004556D01*
X002754Y004640D01*
X002652Y004648D01*
X002647Y004589D01*
X002696Y004556D01*
X002754Y004640D01*
X002652Y004648D01*
X002647Y004589D01*
X002696Y004556D01*
X002754Y004640D01*
X002652Y004648D01*
X002647Y004589D01*
X002488Y004435D02*
X002431Y004492D01*
X001886Y004503D01*
X001914Y004451D01*
X002004Y004501D01*
X001916Y004554D01*
X001886Y004503D01*
X001914Y004451D01*
X002004Y004501D01*
X001916Y004554D01*
X001886Y004503D01*
X001914Y004451D01*
X002004Y004501D01*
X001916Y004554D01*
X001886Y004503D01*
X001914Y004451D01*
X002004Y004501D01*
X001916Y004554D01*
X001886Y004503D01*
X001914Y004451D01*
X002004Y004501D01*
X001916Y004554D01*
X001886Y004503D01*
X001914Y004451D01*
X002004Y004501D01*
X001916Y004554D01*
X001886Y004503D01*
X001914Y004451D01*
X002004Y004501D01*
X001916Y004554D01*
X001886Y004503D01*
X001914Y004451D01*
X002004Y004501D01*
X001916Y004554D01*
X001886Y004503D01*
X001914Y004451D01*
X002004Y004501D01*
X001916Y004554D01*
X001886Y004503D01*
X001914Y004451D01*
X002004Y004501D01*
X001916Y004554D01*
X001886Y004503D01*
X001914Y004451D01*
X002004Y004501D01*
X001916Y004554D01*
X001886Y004503D01*
X001914Y004451D01*
X002004Y004501D01*
X001916Y004554D01*
X001886Y004503D01*
X001914Y004451D01*
X002004Y004501D01*
X001916Y004554D01*
X001886Y004503D01*
X001794Y004337D02*
X002450Y004337D01*
X002715Y004072D01*
X002744Y004042D01*
X002744Y003807D01*
X002587Y003807D02*
X002587Y004065D01*
X002398Y004253D01*
X001887Y004253D01*
X001859Y004253D01*
X001743Y004138D01*
X001743Y003792D01*
X001744Y003791D01*
X001795Y003821D01*
X001743Y003909D01*
X001693Y003821D01*
X001744Y003791D01*
X001795Y003821D01*
X001743Y003909D01*
X001693Y003821D01*
X001744Y003791D01*
X001795Y003821D01*
X001743Y003909D01*
X001693Y003821D01*
X001744Y003791D01*
X001795Y003821D01*
X001743Y003909D01*
X001693Y003821D01*
X001744Y003791D01*
X001795Y003821D01*
X001743Y003909D01*
X001693Y003821D01*
X001744Y003791D01*
X001795Y003821D01*
X001743Y003909D01*
X001693Y003821D01*
X001744Y003791D01*
X001795Y003821D01*
X001743Y003909D01*
X001693Y003821D01*
X001744Y003791D01*
X001795Y003821D01*
X001743Y003909D01*
X001693Y003821D01*
X001744Y003791D01*
X001795Y003821D01*
X001743Y003909D01*
X001693Y003821D01*
X001744Y003791D01*
X001795Y003821D01*
X001743Y003909D01*
X001693Y003821D01*
X001744Y003791D01*
X001795Y003821D01*
X001743Y003909D01*
X001693Y003821D01*
X001744Y003791D01*
X001795Y003821D01*
X001743Y003909D01*
X001693Y003821D01*
X001744Y003791D01*
X001795Y003821D01*
X001743Y003909D01*
X001693Y003821D01*
X001744Y003791D01*
X001638Y003982D02*
X001587Y003952D01*
X001536Y003982D01*
X001587Y003952D01*
X001638Y003982D01*
X001587Y003952D01*
X001536Y003982D01*
X001587Y004070D01*
X001638Y003982D01*
X001587Y004070D01*
X001536Y003982D01*
X001587Y003952D01*
X001536Y003982D01*
X001587Y004070D01*
X001638Y003982D01*
X001587Y003952D01*
X001638Y003982D01*
X001587Y004070D01*
X001536Y003982D01*
X001587Y003952D01*
X001536Y003982D01*
X001587Y004070D01*
X001536Y003982D01*
X001587Y003952D01*
X001638Y003982D01*
X001587Y004070D01*
X001638Y003982D01*
X001587Y003952D01*
X001536Y003982D01*
X001587Y004070D01*
X001536Y003982D01*
X001587Y003952D01*
X001638Y003982D01*
X001587Y004070D01*
X001536Y003982D01*
X001587Y004070D01*
X001638Y003982D01*
X001587Y003952D01*
X001536Y003982D01*
X001587Y003952D01*
X001638Y003982D01*
X001587Y004070D01*
X001536Y003982D01*
X001587Y004070D01*
X001638Y003982D01*
X001587Y003952D01*
X001536Y003982D01*
X001587Y004070D01*
X001638Y003982D01*
X001587Y003952D01*
X001638Y003982D01*
X001587Y004070D01*
X001638Y003982D01*
X001587Y003952D02*
X001587Y004130D01*
X001794Y004337D01*
X001890Y004137D02*
X001902Y004079D01*
X001958Y004061D01*
X001990Y004158D01*
X001890Y004137D01*
X001902Y004079D01*
X001958Y004061D01*
X001990Y004158D01*
X001890Y004137D01*
X001902Y004079D01*
X001958Y004061D01*
X001990Y004158D01*
X001890Y004137D01*
X001902Y004079D01*
X001958Y004061D01*
X001990Y004158D01*
X001890Y004137D01*
X001902Y004079D01*
X001958Y004061D01*
X001990Y004158D01*
X001890Y004137D01*
X001902Y004079D01*
X001958Y004061D01*
X001990Y004158D01*
X001890Y004137D01*
X001902Y004079D01*
X001958Y004061D01*
X001990Y004158D01*
X001890Y004137D01*
X001902Y004079D01*
X001958Y004061D01*
X001990Y004158D01*
X001890Y004137D01*
X001902Y004079D01*
X001958Y004061D01*
X001990Y004158D01*
X001890Y004137D01*
X001902Y004079D01*
X001958Y004061D01*
X001990Y004158D01*
X001890Y004137D01*
X001902Y004079D01*
X001958Y004061D01*
X001990Y004158D01*
X001890Y004137D01*
X001902Y004079D01*
X001958Y004061D01*
X001990Y004158D01*
X001890Y004137D01*
X001902Y004079D01*
X001958Y004061D01*
X001990Y004158D01*
X001890Y004137D01*
X001902Y004079D02*
X001980Y004158D01*
X002026Y004158D01*
X002080Y004158D01*
X002262Y004158D01*
X002357Y004158D01*
X002429Y004086D01*
X002429Y003828D01*
X002429Y003828D01*
X002429Y003807D01*
X002272Y003807D02*
X002272Y003503D01*
X002174Y003405D01*
X002105Y003336D01*
X001702Y003336D01*
X001732Y003285D01*
X001702Y003336D01*
X001732Y003387D01*
X001820Y003336D01*
X001732Y003285D01*
X001820Y003336D01*
X001732Y003285D01*
X001702Y003336D01*
X001732Y003285D01*
X001820Y003336D01*
X001732Y003387D01*
X001702Y003336D01*
X001732Y003387D01*
X001702Y003336D01*
X001732Y003285D01*
X001702Y003336D01*
X001732Y003387D01*
X001820Y003336D01*
X001732Y003285D01*
X001820Y003336D01*
X001732Y003387D01*
X001820Y003336D01*
X001732Y003285D01*
X001702Y003336D01*
X001732Y003387D01*
X001820Y003336D01*
X001732Y003387D01*
X001702Y003336D01*
X001732Y003285D01*
X001820Y003336D01*
X001732Y003285D01*
X001702Y003336D01*
X001732Y003387D01*
X001820Y003336D01*
X001732Y003387D01*
X001702Y003336D01*
X001732Y003285D01*
X001820Y003336D01*
X001732Y003387D01*
X001702Y003336D01*
X001732Y003285D01*
X001820Y003336D01*
X001732Y003387D01*
X001702Y003336D01*
X001732Y003285D01*
X001820Y003336D01*
X001732Y003387D01*
X001702Y003336D01*
X001732Y003285D01*
X001820Y003336D01*
X001732Y003387D01*
X001702Y003336D01*
X001835Y003238D02*
X002151Y003238D01*
X001835Y003238D02*
X001747Y003151D01*
X001732Y003136D01*
X001732Y003090D01*
X001791Y003091D01*
X001789Y003193D01*
X001702Y003141D01*
X001732Y003090D01*
X001791Y003091D01*
X001789Y003193D01*
X001702Y003141D01*
X001732Y003090D01*
X001791Y003091D01*
X001789Y003193D01*
X001702Y003141D01*
X001732Y003090D01*
X001791Y003091D01*
X001789Y003193D01*
X001702Y003141D01*
X001732Y003090D01*
X001791Y003091D01*
X001789Y003193D01*
X001702Y003141D01*
X001732Y003090D01*
X001791Y003091D01*
X001789Y003193D01*
X001702Y003141D01*
X001732Y003090D01*
X001791Y003091D01*
X001789Y003193D01*
X001702Y003141D01*
X001732Y003090D01*
X001791Y003091D01*
X001789Y003193D01*
X001702Y003141D01*
X001732Y003090D01*
X001791Y003091D01*
X001789Y003193D01*
X001702Y003141D01*
X001732Y003090D01*
X001791Y003091D01*
X001789Y003193D01*
X001702Y003141D01*
X001732Y003090D01*
X001791Y003091D01*
X001789Y003193D01*
X001702Y003141D01*
X001732Y003090D01*
X001791Y003091D01*
X001789Y003193D01*
X001702Y003141D01*
X001732Y003090D01*
X001791Y003091D01*
X001789Y003193D01*
X001702Y003141D01*
X001732Y003090D01*
X002902Y003807D02*
X002909Y003814D01*
X002909Y004014D01*
X002488Y004435D01*
X002738Y004381D02*
X002728Y004323D01*
X002738Y004381D01*
X002753Y004381D01*
X003046Y004088D01*
X003046Y004087D01*
X003059Y003807D01*
X003215Y003824D02*
X003215Y004206D01*
X003215Y004218D01*
X002912Y004475D01*
X002902Y004417D01*
X003002Y004398D01*
X002968Y004495D01*
X002912Y004475D01*
X002902Y004417D01*
X003002Y004398D01*
X002968Y004495D01*
X002912Y004475D01*
X002902Y004417D01*
X003002Y004398D01*
X002968Y004495D01*
X002912Y004475D01*
X002902Y004417D01*
X003002Y004398D01*
X002968Y004495D01*
X002912Y004475D01*
X002902Y004417D01*
X003002Y004398D01*
X002968Y004495D01*
X002912Y004475D01*
X002902Y004417D01*
X003002Y004398D01*
X002968Y004495D01*
X002912Y004475D01*
X002902Y004417D01*
X003002Y004398D01*
X002968Y004495D01*
X002912Y004475D01*
X002902Y004417D01*
X003002Y004398D01*
X002968Y004495D01*
X002912Y004475D01*
X002902Y004417D01*
X003002Y004398D01*
X002968Y004495D01*
X002912Y004475D01*
X002902Y004417D01*
X003002Y004398D01*
X002968Y004495D01*
X002912Y004475D01*
X002902Y004417D01*
X003002Y004398D01*
X002968Y004495D01*
X002912Y004475D01*
X002902Y004417D01*
X003002Y004398D01*
X002968Y004495D01*
X002912Y004475D01*
X002902Y004417D01*
X003002Y004398D01*
X002968Y004495D01*
X002912Y004475D01*
X002793Y004402D02*
X002828Y004306D01*
X002728Y004323D01*
X002828Y004306D01*
X002728Y004323D01*
X002738Y004381D01*
X002793Y004402D01*
X002738Y004381D01*
X002728Y004323D01*
X002828Y004306D01*
X002793Y004402D01*
X002828Y004306D01*
X002793Y004402D01*
X002738Y004381D01*
X002793Y004402D01*
X002828Y004306D01*
X002793Y004402D01*
X002738Y004381D01*
X002793Y004402D01*
X002828Y004306D01*
X002728Y004323D01*
X002738Y004381D01*
X002793Y004402D01*
X002738Y004381D01*
X002728Y004323D01*
X002828Y004306D01*
X002793Y004402D01*
X002738Y004381D01*
X002728Y004323D01*
X002738Y004381D01*
X002728Y004323D01*
X002828Y004306D01*
X002728Y004323D01*
X002738Y004381D01*
X002728Y004323D01*
X002828Y004306D01*
X002728Y004323D01*
X002828Y004306D01*
X002793Y004402D01*
X002738Y004381D01*
X002728Y004323D01*
X002738Y004381D01*
X002793Y004402D01*
X002828Y004306D01*
X002728Y004323D01*
X002828Y004306D01*
X002793Y004402D01*
X002738Y004381D01*
X002793Y004402D01*
X002828Y004306D01*
X002793Y004402D01*
X003215Y003824D02*
X003222Y003817D01*
X003217Y003807D01*
X003374Y003807D02*
X003380Y003813D01*
X003689Y003807D02*
X003696Y004354D01*
X003614Y004436D01*
X003810Y004429D01*
X003783Y004481D01*
X003692Y004433D01*
X003783Y004481D01*
X003810Y004429D01*
X003779Y004379D01*
X003810Y004429D01*
X003783Y004481D01*
X003692Y004433D01*
X003779Y004379D01*
X003810Y004429D01*
X003779Y004379D01*
X003692Y004433D01*
X003783Y004481D01*
X003810Y004429D01*
X003783Y004481D01*
X003692Y004433D01*
X003783Y004481D01*
X003810Y004429D01*
X003779Y004379D01*
X003810Y004429D01*
X003783Y004481D01*
X003692Y004433D01*
X003779Y004379D01*
X003810Y004429D01*
X003783Y004481D01*
X003692Y004433D01*
X003779Y004379D01*
X003692Y004433D01*
X003783Y004481D01*
X003810Y004429D01*
X003779Y004379D01*
X003692Y004433D01*
X003783Y004481D01*
X003810Y004429D01*
X003779Y004379D01*
X003692Y004433D01*
X003779Y004379D01*
X003692Y004433D01*
X003783Y004481D01*
X003810Y004429D01*
X003779Y004379D01*
X003692Y004433D01*
X003779Y004379D01*
X003810Y004429D01*
X003969Y004381D02*
X004090Y004381D01*
X004212Y004269D01*
X004225Y004327D01*
X004125Y004349D01*
X004155Y004251D01*
X004212Y004269D01*
X004225Y004327D01*
X004125Y004349D01*
X004155Y004251D01*
X004212Y004269D01*
X004225Y004327D01*
X004125Y004349D01*
X004155Y004251D01*
X004212Y004269D01*
X004225Y004327D01*
X004125Y004349D01*
X004155Y004251D01*
X004212Y004269D01*
X004225Y004327D01*
X004125Y004349D01*
X004155Y004251D01*
X004212Y004269D01*
X004225Y004327D01*
X004125Y004349D01*
X004155Y004251D01*
X004212Y004269D01*
X004225Y004327D01*
X004125Y004349D01*
X004155Y004251D01*
X004212Y004269D01*
X004225Y004327D01*
X004125Y004349D01*
X004155Y004251D01*
X004212Y004269D01*
X004225Y004327D01*
X004125Y004349D01*
X004155Y004251D01*
X004212Y004269D01*
X004155Y004251D01*
X004125Y004349D01*
X004225Y004327D01*
X004212Y004269D01*
X004225Y004327D01*
X004125Y004349D01*
X004155Y004251D01*
X004212Y004269D01*
X004225Y004327D01*
X004125Y004349D01*
X004155Y004251D01*
X004212Y004269D01*
X004225Y004327D01*
X004125Y004349D01*
X004155Y004251D01*
X004212Y004269D01*
X004349Y004209D02*
X004399Y004298D01*
X004450Y004269D01*
X004399Y004298D01*
X004349Y004209D01*
X004399Y004298D01*
X004450Y004269D01*
X004451Y004210D01*
X004450Y004269D01*
X004399Y004298D01*
X004349Y004209D01*
X004451Y004210D01*
X004450Y004269D01*
X004451Y004210D01*
X004349Y004209D01*
X004399Y004298D01*
X004450Y004269D01*
X004399Y004298D01*
X004349Y004209D01*
X004399Y004298D01*
X004349Y004209D01*
X004451Y004210D01*
X004450Y004269D01*
X004399Y004298D01*
X004450Y004269D01*
X004451Y004210D01*
X004349Y004209D01*
X004399Y004298D01*
X004450Y004269D01*
X004451Y004210D01*
X004349Y004209D01*
X004451Y004210D01*
X004450Y004269D01*
X004399Y004298D01*
X004349Y004209D01*
X004399Y004298D01*
X004450Y004269D01*
X004451Y004210D01*
X004450Y004269D01*
X004451Y004210D01*
X004349Y004209D01*
X004451Y004210D01*
X004349Y004209D01*
X004451Y004210D01*
X004349Y004209D01*
X004399Y004298D01*
X004450Y004269D01*
X004451Y004210D01*
X004349Y004209D01*
X004399Y004298D01*
X004450Y004269D01*
X004451Y004210D01*
X004349Y004209D01*
X004380Y004240D02*
X004409Y004269D01*
X004450Y004269D01*
X004380Y004240D02*
X004168Y004028D01*
X004168Y003820D01*
X004171Y003816D01*
X004167Y003812D01*
X004162Y003807D01*
X004319Y003807D02*
X004322Y003809D01*
X004322Y004061D01*
X004393Y004132D01*
X004815Y004132D01*
X004894Y004211D01*
X004838Y004230D01*
X004806Y004132D01*
X004906Y004154D01*
X004894Y004211D01*
X004838Y004230D01*
X004806Y004132D01*
X004906Y004154D01*
X004894Y004211D01*
X004838Y004230D01*
X004806Y004132D01*
X004906Y004154D01*
X004894Y004211D01*
X004838Y004230D01*
X004806Y004132D01*
X004906Y004154D01*
X004894Y004211D01*
X004838Y004230D01*
X004806Y004132D01*
X004906Y004154D01*
X004894Y004211D01*
X004838Y004230D01*
X004806Y004132D01*
X004906Y004154D01*
X004894Y004211D01*
X004838Y004230D01*
X004806Y004132D01*
X004906Y004154D01*
X004894Y004211D01*
X004838Y004230D01*
X004806Y004132D01*
X004906Y004154D01*
X004894Y004211D01*
X004838Y004230D01*
X004806Y004132D01*
X004906Y004154D01*
X004894Y004211D01*
X004838Y004230D01*
X004806Y004132D01*
X004906Y004154D01*
X004894Y004211D01*
X004838Y004230D01*
X004806Y004132D01*
X004906Y004154D01*
X004894Y004211D01*
X004838Y004230D01*
X004806Y004132D01*
X004906Y004154D01*
X004894Y004211D01*
X004838Y004230D01*
X004806Y004132D01*
X004906Y004154D01*
X004894Y004211D01*
X004701Y004550D02*
X004209Y004550D01*
X004141Y004617D01*
X004136Y004558D01*
X004238Y004550D01*
X004195Y004642D01*
X004141Y004617D01*
X004136Y004558D01*
X004238Y004550D01*
X004195Y004642D01*
X004141Y004617D01*
X004136Y004558D01*
X004238Y004550D01*
X004195Y004642D01*
X004141Y004617D01*
X004136Y004558D01*
X004238Y004550D01*
X004195Y004642D01*
X004141Y004617D01*
X004112Y004668D01*
X004141Y004617D01*
X004112Y004566D01*
X004141Y004617D01*
X004112Y004668D01*
X004023Y004617D01*
X004112Y004668D01*
X004141Y004617D01*
X004112Y004566D01*
X004023Y004617D01*
X004112Y004566D01*
X004141Y004617D01*
X004112Y004668D01*
X004023Y004617D01*
X004112Y004668D01*
X004141Y004617D01*
X004112Y004668D01*
X004023Y004617D01*
X004112Y004668D01*
X004023Y004617D01*
X004112Y004566D01*
X004141Y004617D01*
X004136Y004558D01*
X004238Y004550D01*
X004195Y004642D01*
X004141Y004617D01*
X004136Y004558D01*
X004238Y004550D01*
X004195Y004642D01*
X004141Y004617D01*
X004112Y004566D01*
X004023Y004617D01*
X004112Y004668D01*
X004141Y004617D01*
X004136Y004558D01*
X004238Y004550D01*
X004195Y004642D01*
X004141Y004617D01*
X004136Y004558D01*
X004238Y004550D01*
X004195Y004642D01*
X004141Y004617D01*
X004112Y004566D01*
X004141Y004617D01*
X004112Y004668D01*
X004023Y004617D01*
X004112Y004566D01*
X004141Y004617D01*
X004136Y004558D01*
X004238Y004550D01*
X004195Y004642D01*
X004141Y004617D01*
X004112Y004668D01*
X004023Y004617D01*
X004112Y004668D01*
X004141Y004617D01*
X004112Y004566D01*
X004023Y004617D01*
X004112Y004566D01*
X004023Y004617D01*
X004112Y004566D01*
X004023Y004617D01*
X004112Y004566D01*
X004141Y004617D01*
X004136Y004558D01*
X004238Y004550D01*
X004195Y004642D01*
X004141Y004617D01*
X004136Y004558D01*
X004238Y004550D01*
X004195Y004642D01*
X004141Y004617D01*
X004136Y004558D01*
X004238Y004550D01*
X004195Y004642D01*
X004141Y004617D01*
X004112Y004668D01*
X004023Y004617D01*
X004112Y004566D01*
X004141Y004617D01*
X004136Y004558D01*
X004238Y004550D01*
X004195Y004642D01*
X004141Y004617D01*
X004112Y004668D01*
X004023Y004617D01*
X004112Y004566D01*
X004141Y004617D01*
X003990Y004617D01*
X003954Y004653D01*
X003969Y004381D02*
X003841Y004253D01*
X003841Y004101D01*
X003841Y003813D01*
X003847Y003807D01*
X004004Y003807D02*
X004005Y003897D01*
X003999Y004198D01*
X003948Y004167D01*
X004001Y004080D01*
X004051Y004169D01*
X003999Y004198D01*
X003948Y004167D01*
X004001Y004080D01*
X004051Y004169D01*
X003999Y004198D01*
X003948Y004167D01*
X004001Y004080D01*
X004051Y004169D01*
X003999Y004198D01*
X003948Y004167D01*
X004001Y004080D01*
X004051Y004169D01*
X003999Y004198D01*
X003948Y004167D01*
X004001Y004080D01*
X004051Y004169D01*
X003999Y004198D01*
X003948Y004167D01*
X004001Y004080D01*
X004051Y004169D01*
X003999Y004198D01*
X003948Y004167D01*
X004001Y004080D01*
X004051Y004169D01*
X003999Y004198D01*
X003948Y004167D01*
X004001Y004080D01*
X004051Y004169D01*
X003999Y004198D01*
X003948Y004167D01*
X004001Y004080D01*
X004051Y004169D01*
X003999Y004198D01*
X003948Y004167D01*
X004001Y004080D01*
X004051Y004169D01*
X003999Y004198D01*
X003948Y004167D01*
X004001Y004080D01*
X004051Y004169D01*
X003999Y004198D01*
X003948Y004167D01*
X004001Y004080D01*
X004051Y004169D01*
X003999Y004198D01*
X003948Y004167D01*
X004001Y004080D01*
X004051Y004169D01*
X003999Y004198D01*
X003631Y004453D02*
X003630Y004446D01*
X003626Y004441D01*
X003621Y004437D01*
X003614Y004436D01*
X003632Y004853D02*
X003632Y005053D01*
X003954Y005053D01*
X004011Y005040D01*
X004160Y005040D01*
X004144Y004983D01*
X004243Y004957D01*
X004217Y005056D01*
X004160Y005040D01*
X004217Y005056D01*
X004243Y004957D01*
X004144Y004983D01*
X004160Y005040D01*
X004217Y005056D01*
X004160Y005040D01*
X004130Y005091D01*
X004160Y005040D01*
X004130Y004989D01*
X004160Y005040D01*
X004130Y005091D01*
X004042Y005040D01*
X004130Y004989D01*
X004042Y005040D01*
X004130Y005091D01*
X004160Y005040D01*
X004130Y004989D01*
X004042Y005040D01*
X004130Y004989D01*
X004160Y005040D01*
X004130Y004989D01*
X004042Y005040D01*
X004130Y005091D01*
X004042Y005040D01*
X004130Y004989D01*
X004160Y005040D01*
X004144Y004983D01*
X004243Y004957D01*
X004217Y005056D01*
X004243Y004957D01*
X004217Y005056D01*
X004160Y005040D01*
X004217Y005056D01*
X004243Y004957D01*
X004144Y004983D01*
X004160Y005040D01*
X004130Y005091D01*
X004042Y005040D01*
X004130Y005091D01*
X004160Y005040D01*
X004130Y004989D01*
X004042Y005040D01*
X004130Y004989D01*
X004160Y005040D01*
X004144Y004983D01*
X004243Y004957D01*
X004217Y005056D01*
X004160Y005040D01*
X004144Y004983D01*
X004243Y004957D01*
X004144Y004983D01*
X004160Y005040D01*
X004130Y005091D01*
X004160Y005040D01*
X004130Y004989D01*
X004042Y005040D01*
X004130Y005091D01*
X004160Y005040D01*
X004217Y005056D01*
X004243Y004957D01*
X004217Y005056D01*
X004160Y005040D01*
X004144Y004983D01*
X004243Y004957D01*
X004144Y004983D01*
X004160Y005040D01*
X004130Y005091D01*
X004042Y005040D01*
X004130Y004989D01*
X004160Y005040D01*
X004130Y005091D01*
X004160Y005040D01*
X004130Y004989D01*
X004042Y005040D01*
X004130Y005091D01*
X004042Y005040D01*
X004130Y005091D01*
X004160Y005040D01*
X004144Y004983D01*
X004243Y004957D01*
X004217Y005056D01*
X004160Y005040D01*
X004130Y004989D01*
X004042Y005040D01*
X004130Y005091D01*
X004042Y005040D01*
X004130Y004989D01*
X004160Y005040D01*
X004144Y004983D01*
X004243Y004957D01*
X004217Y005056D01*
X004160Y005040D01*
X004368Y004832D01*
X004418Y004832D01*
X003632Y004853D02*
X003600Y004886D01*
X003632Y005053D02*
X003632Y005060D01*
X003366Y005060D01*
X002966Y005060D02*
X002935Y005091D01*
X002730Y005085D01*
X002761Y005035D01*
X002848Y005089D01*
X002758Y005137D01*
X002730Y005085D01*
X002761Y005035D01*
X002848Y005089D01*
X002758Y005137D01*
X002730Y005085D01*
X002761Y005035D01*
X002848Y005089D01*
X002758Y005137D01*
X002730Y005085D01*
X002761Y005035D01*
X002848Y005089D01*
X002758Y005137D01*
X002730Y005085D01*
X002761Y005035D01*
X002848Y005089D01*
X002758Y005137D01*
X002730Y005085D01*
X002761Y005035D01*
X002848Y005089D01*
X002758Y005137D01*
X002730Y005085D01*
X002761Y005035D01*
X002848Y005089D01*
X002758Y005137D01*
X002730Y005085D01*
X002761Y005035D01*
X002848Y005089D01*
X002758Y005137D01*
X002730Y005085D01*
X002761Y005035D01*
X002848Y005089D01*
X002758Y005137D01*
X002730Y005085D01*
X002761Y005035D01*
X002848Y005089D01*
X002758Y005137D01*
X002730Y005085D01*
X002761Y005035D01*
X002848Y005089D01*
X002758Y005137D01*
X002730Y005085D01*
X002761Y005035D01*
X002848Y005089D01*
X002758Y005137D01*
X002730Y005085D01*
X002761Y005035D01*
X002848Y005089D01*
X002758Y005137D01*
X002730Y005085D01*
X002938Y005060D02*
X002966Y005060D01*
X004477Y003807D02*
X004477Y003605D01*
X004531Y003551D01*
X004563Y003601D01*
X004477Y003656D01*
X004472Y003554D01*
X004531Y003551D01*
X004563Y003601D01*
X004477Y003656D01*
X004472Y003554D01*
X004531Y003551D01*
X004563Y003601D01*
X004477Y003656D01*
X004472Y003554D01*
X004531Y003551D01*
X004563Y003601D01*
X004477Y003656D01*
X004472Y003554D01*
X004531Y003551D01*
X004563Y003601D01*
X004477Y003656D01*
X004472Y003554D01*
X004531Y003551D01*
X004563Y003601D01*
X004477Y003656D01*
X004472Y003554D01*
X004531Y003551D01*
X004563Y003601D01*
X004477Y003656D01*
X004472Y003554D01*
X004531Y003551D01*
X004563Y003601D01*
X004477Y003656D01*
X004472Y003554D01*
X004531Y003551D01*
X004563Y003601D01*
X004477Y003656D01*
X004472Y003554D01*
X004531Y003551D01*
X004563Y003601D01*
X004477Y003656D01*
X004472Y003554D01*
X004531Y003551D01*
X004563Y003601D01*
X004477Y003656D01*
X004472Y003554D01*
X004531Y003551D01*
X004563Y003601D01*
X004477Y003656D01*
X004472Y003554D01*
X004531Y003551D01*
X004563Y003601D01*
X004477Y003656D01*
X004472Y003554D01*
X004531Y003551D01*
X004477Y003337D02*
X004425Y003308D01*
X004477Y003219D01*
X004425Y003308D01*
X004477Y003337D01*
X004528Y003308D01*
X004477Y003337D01*
X004528Y003308D01*
X004477Y003219D01*
X004425Y003308D01*
X004477Y003219D01*
X004528Y003308D01*
X004477Y003337D01*
X004425Y003308D01*
X004477Y003337D01*
X004425Y003308D01*
X004477Y003219D01*
X004425Y003308D01*
X004477Y003337D01*
X004528Y003308D01*
X004477Y003219D01*
X004528Y003308D01*
X004477Y003337D01*
X004425Y003308D01*
X004477Y003219D01*
X004425Y003308D01*
X004477Y003337D01*
X004528Y003308D01*
X004477Y003219D01*
X004528Y003308D01*
X004477Y003337D01*
X004425Y003308D01*
X004477Y003219D01*
X004425Y003308D01*
X004477Y003219D01*
X004528Y003308D01*
X004477Y003337D01*
X004425Y003308D01*
X004477Y003337D01*
X004528Y003308D01*
X004477Y003219D01*
X004425Y003308D01*
X004477Y003337D01*
X004528Y003308D01*
X004477Y003337D01*
X004425Y003308D01*
X004477Y003219D01*
X004528Y003308D01*
X004477Y003337D01*
X004477Y002771D01*
X004477Y002771D01*
X004320Y002772D02*
X004320Y003203D01*
X004269Y003174D01*
X004320Y003085D01*
X004372Y003174D01*
X004320Y003203D01*
X004372Y003174D01*
X004320Y003085D01*
X004269Y003174D01*
X004320Y003203D01*
X004372Y003174D01*
X004320Y003203D01*
X004269Y003174D01*
X004320Y003085D01*
X004372Y003174D01*
X004320Y003085D01*
X004269Y003174D01*
X004320Y003203D01*
X004269Y003174D01*
X004320Y003085D01*
X004372Y003174D01*
X004320Y003203D01*
X004269Y003174D01*
X004320Y003085D01*
X004269Y003174D01*
X004320Y003203D01*
X004372Y003174D01*
X004320Y003085D01*
X004372Y003174D01*
X004320Y003203D01*
X004269Y003174D01*
X004320Y003085D01*
X004269Y003174D01*
X004320Y003203D01*
X004372Y003174D01*
X004320Y003085D01*
X004372Y003174D01*
X004320Y003203D01*
X004269Y003174D01*
X004320Y003085D01*
X004372Y003174D01*
X004320Y003203D01*
X004269Y003174D01*
X004320Y003085D01*
X004269Y003174D01*
X004320Y003203D01*
X004372Y003174D01*
X004320Y003085D01*
X004372Y003174D01*
X004320Y003203D01*
X004269Y003174D01*
X004320Y003085D01*
X004372Y003174D01*
X004320Y003203D01*
X004477Y003219D02*
X004528Y003308D01*
X004477Y003219D01*
X004528Y003308D01*
X004477Y003219D01*
X004320Y002772D02*
X004319Y002771D01*
X004162Y002771D02*
X004162Y002268D01*
X004155Y002261D01*
X004208Y002288D01*
X004162Y002379D01*
X004106Y002294D01*
X004155Y002261D01*
X004208Y002288D01*
X004162Y002379D01*
X004106Y002294D01*
X004155Y002261D01*
X004208Y002288D01*
X004162Y002379D01*
X004106Y002294D01*
X004155Y002261D01*
X004208Y002288D01*
X004162Y002379D01*
X004106Y002294D01*
X004155Y002261D01*
X004208Y002288D01*
X004162Y002379D01*
X004106Y002294D01*
X004155Y002261D01*
X004208Y002288D01*
X004162Y002379D01*
X004106Y002294D01*
X004155Y002261D01*
X004208Y002288D01*
X004162Y002379D01*
X004106Y002294D01*
X004155Y002261D01*
X004208Y002288D01*
X004162Y002379D01*
X004106Y002294D01*
X004155Y002261D01*
X004208Y002288D01*
X004162Y002379D01*
X004106Y002294D01*
X004155Y002261D01*
X004208Y002288D01*
X004162Y002379D01*
X004106Y002294D01*
X004155Y002261D01*
X004208Y002288D01*
X004162Y002379D01*
X004106Y002294D01*
X004155Y002261D01*
X004208Y002288D01*
X004162Y002379D01*
X004106Y002294D01*
X004155Y002261D01*
X004208Y002288D01*
X004162Y002379D01*
X004106Y002294D01*
X004155Y002261D01*
X004044Y002459D02*
X003993Y002429D01*
X004044Y002459D01*
X003993Y002547D01*
X004044Y002459D01*
X003993Y002547D01*
X003942Y002459D01*
X003993Y002429D01*
X003942Y002459D01*
X003993Y002547D01*
X004044Y002459D01*
X003993Y002429D01*
X003942Y002459D01*
X003993Y002547D01*
X003942Y002459D01*
X003993Y002429D01*
X004044Y002459D01*
X003993Y002429D01*
X003942Y002459D01*
X003993Y002547D01*
X004044Y002459D01*
X003993Y002547D01*
X003942Y002459D01*
X003993Y002429D01*
X004044Y002459D01*
X003993Y002429D01*
X003942Y002459D01*
X003993Y002547D01*
X004044Y002459D01*
X003993Y002547D01*
X003942Y002459D01*
X003993Y002429D01*
X004044Y002459D01*
X003993Y002429D01*
X003942Y002459D01*
X003993Y002547D01*
X004044Y002459D01*
X003993Y002547D01*
X003942Y002459D01*
X003993Y002429D01*
X004044Y002459D01*
X003993Y002429D01*
X003942Y002459D01*
X003993Y002429D01*
X004044Y002459D01*
X003993Y002547D01*
X003942Y002459D01*
X003993Y002547D01*
X004044Y002459D01*
X003993Y002429D01*
X003942Y002459D01*
X003993Y002547D01*
X004044Y002459D01*
X003993Y002429D02*
X003993Y002760D01*
X004004Y002771D01*
X003847Y002771D02*
X003847Y002771D01*
X003839Y002291D01*
X003890Y002319D01*
X003841Y002409D01*
X003788Y002321D01*
X003839Y002291D01*
X003890Y002319D01*
X003841Y002409D01*
X003788Y002321D01*
X003839Y002291D01*
X003890Y002319D01*
X003841Y002409D01*
X003788Y002321D01*
X003839Y002291D01*
X003890Y002319D01*
X003841Y002409D01*
X003788Y002321D01*
X003839Y002291D01*
X003890Y002319D01*
X003841Y002409D01*
X003788Y002321D01*
X003839Y002291D01*
X003890Y002319D01*
X003841Y002409D01*
X003788Y002321D01*
X003839Y002291D01*
X003890Y002319D01*
X003841Y002409D01*
X003788Y002321D01*
X003839Y002291D01*
X003890Y002319D01*
X003841Y002409D01*
X003788Y002321D01*
X003839Y002291D01*
X003890Y002319D01*
X003841Y002409D01*
X003788Y002321D01*
X003839Y002291D01*
X003890Y002319D01*
X003841Y002409D01*
X003788Y002321D01*
X003839Y002291D01*
X003890Y002319D01*
X003841Y002409D01*
X003788Y002321D01*
X003839Y002291D01*
X003890Y002319D01*
X003841Y002409D01*
X003788Y002321D01*
X003839Y002291D01*
X003890Y002319D01*
X003841Y002409D01*
X003788Y002321D01*
X003839Y002291D01*
M02*
