G75*
G70*
%OFA0B0*%
%FSLAX24Y24*%
%IPPOS*%
%LPD*%
%AMOC8*
5,1,8,0,0,1.08239X$1,22.5*
%
%ADD10R,0.0257X0.0257*%
%ADD11R,0.0257X0.0257*%
%ADD12R,0.0147X0.0414*%
%ADD13R,0.0257X0.0395*%
D10*
X003632Y004453D03*
X003954Y004653D03*
X003632Y004853D03*
X003366Y005060D03*
X002966Y005060D03*
X003954Y005053D03*
D11*
G36*
X002048Y001801D02*
X001853Y001966D01*
X002018Y002161D01*
X002213Y001996D01*
X002048Y001801D01*
G37*
G36*
X002355Y001544D02*
X002160Y001709D01*
X002325Y001904D01*
X002520Y001739D01*
X002355Y001544D01*
G37*
G36*
X002873Y001629D02*
X003124Y001584D01*
X003079Y001333D01*
X002828Y001378D01*
X002873Y001629D01*
G37*
G36*
X003267Y001559D02*
X003518Y001514D01*
X003473Y001263D01*
X003222Y001308D01*
X003267Y001559D01*
G37*
G36*
X004701Y004731D02*
X004882Y004550D01*
X004701Y004369D01*
X004520Y004550D01*
X004701Y004731D01*
G37*
G36*
X004418Y005013D02*
X004599Y004832D01*
X004418Y004651D01*
X004237Y004832D01*
X004418Y005013D01*
G37*
D12*
X004477Y003807D03*
X004319Y003807D03*
X004162Y003807D03*
X004004Y003807D03*
X003847Y003807D03*
X003689Y003807D03*
X003532Y003807D03*
X003374Y003807D03*
X003217Y003807D03*
X003059Y003807D03*
X002902Y003807D03*
X002744Y003807D03*
X002587Y003807D03*
X002429Y003807D03*
X002272Y003807D03*
X002272Y002771D03*
X002429Y002771D03*
X002587Y002771D03*
X002744Y002771D03*
X002902Y002771D03*
X003059Y002771D03*
X003217Y002771D03*
X003374Y002771D03*
X003532Y002771D03*
X003689Y002771D03*
X003847Y002771D03*
X004004Y002771D03*
X004162Y002771D03*
X004319Y002771D03*
X004477Y002771D03*
D13*
X004792Y002998D03*
X004792Y003580D03*
X001957Y003580D03*
X001957Y002998D03*
M02*
