G75*
G70*
%OFA0B0*%
%FSLAX24Y24*%
%IPPOS*%
%LPD*%
%AMOC8*
5,1,8,0,0,1.08239X$1,22.5*
%
%ADD10C,0.0039*%
%ADD11C,0.0157*%
%ADD12C,0.0160*%
D10*
X001996Y001850D02*
X003029Y001850D01*
X003045Y001834D02*
X003168Y001834D01*
X003181Y001847D01*
X003250Y001778D01*
X003179Y001707D01*
X003179Y001585D01*
X002987Y001585D01*
X002985Y001591D02*
X002959Y001636D01*
X002922Y001673D01*
X002877Y001699D01*
X002827Y001713D01*
X002801Y001713D01*
X002801Y001515D01*
X002801Y001515D01*
X002999Y001515D01*
X002999Y001541D01*
X002985Y001591D01*
X002967Y001623D02*
X003179Y001623D01*
X003179Y001661D02*
X002935Y001661D01*
X002879Y001698D02*
X003179Y001698D01*
X003208Y001736D02*
X002144Y001736D01*
X002193Y001698D02*
X002722Y001698D01*
X002724Y001699D02*
X002679Y001673D01*
X002642Y001636D01*
X002616Y001591D01*
X002602Y001541D01*
X002602Y001515D01*
X002801Y001515D01*
X002801Y001515D01*
X002801Y001713D01*
X002774Y001713D01*
X002724Y001699D01*
X002666Y001661D02*
X002243Y001661D01*
X002292Y001623D02*
X002634Y001623D01*
X002614Y001585D02*
X002341Y001585D01*
X002375Y001559D02*
X001962Y001876D01*
X001896Y001961D01*
X001967Y001961D01*
X002054Y002048D01*
X002054Y002170D01*
X001967Y002256D01*
X001845Y002256D01*
X001758Y002170D01*
X001758Y002141D01*
X001644Y002290D01*
X001503Y002632D01*
X001536Y002599D01*
X001627Y002599D01*
X001627Y002557D01*
X001714Y002470D01*
X001836Y002470D01*
X001923Y002557D01*
X001923Y002595D01*
X001959Y002558D01*
X002082Y002558D01*
X002168Y002645D01*
X002289Y002645D01*
X002288Y002646D02*
X002375Y002559D01*
X002497Y002559D01*
X002583Y002646D01*
X002583Y002717D01*
X002654Y002717D01*
X002741Y002803D01*
X002741Y002926D01*
X002654Y003012D01*
X002532Y003012D01*
X002445Y002926D01*
X002445Y002855D01*
X002375Y002855D01*
X002288Y002768D01*
X002288Y002646D01*
X002288Y002683D02*
X002168Y002683D01*
X002168Y002721D02*
X002288Y002721D01*
X002288Y002759D02*
X002168Y002759D01*
X002168Y002767D02*
X002082Y002854D01*
X001959Y002854D01*
X001873Y002767D01*
X001873Y002729D01*
X001836Y002766D01*
X001744Y002766D01*
X001744Y002807D01*
X001658Y002894D01*
X001536Y002894D01*
X001449Y002807D01*
X001449Y002761D01*
X001445Y002772D01*
X001376Y003289D01*
X001555Y003289D01*
X001555Y003275D02*
X001631Y003198D01*
X001584Y003151D01*
X001584Y003029D01*
X001671Y002942D01*
X001793Y002942D01*
X001873Y003022D01*
X001873Y002948D01*
X001799Y002948D01*
X001837Y002986D02*
X001873Y002986D01*
X001873Y002948D02*
X001959Y002862D01*
X002082Y002862D01*
X002168Y002948D01*
X002468Y002948D01*
X002445Y002910D02*
X002130Y002910D01*
X002092Y002872D02*
X002445Y002872D01*
X002355Y002835D02*
X002101Y002835D01*
X002139Y002797D02*
X002317Y002797D01*
X002168Y002767D02*
X002168Y002645D01*
X002131Y002607D02*
X002327Y002607D01*
X002364Y002569D02*
X002093Y002569D01*
X001948Y002569D02*
X001923Y002569D01*
X001897Y002532D02*
X003223Y002532D01*
X003223Y002512D02*
X003309Y002426D01*
X003431Y002426D01*
X003518Y002512D01*
X003518Y002634D01*
X003431Y002721D01*
X003309Y002721D01*
X003223Y002634D01*
X003223Y002512D01*
X003241Y002494D02*
X001859Y002494D01*
X001690Y002494D02*
X001560Y002494D01*
X001544Y002532D02*
X001653Y002532D01*
X001627Y002569D02*
X001528Y002569D01*
X001527Y002607D02*
X001513Y002607D01*
X001575Y002456D02*
X003279Y002456D01*
X003223Y002569D02*
X002507Y002569D01*
X002545Y002607D02*
X002998Y002607D01*
X003020Y002585D02*
X003142Y002585D01*
X003228Y002672D01*
X003228Y002794D01*
X003142Y002881D01*
X003020Y002881D01*
X002933Y002794D01*
X002933Y002672D01*
X003020Y002585D01*
X002960Y002645D02*
X002583Y002645D01*
X002583Y002683D02*
X002933Y002683D01*
X002933Y002721D02*
X002658Y002721D01*
X002696Y002759D02*
X002933Y002759D01*
X002936Y002797D02*
X002734Y002797D01*
X002741Y002835D02*
X002974Y002835D01*
X003011Y002872D02*
X002741Y002872D01*
X002741Y002910D02*
X004918Y002910D01*
X004918Y002929D02*
X004918Y002806D01*
X005004Y002720D01*
X005126Y002720D01*
X005213Y002806D01*
X005213Y002929D01*
X005126Y003015D01*
X005004Y003015D01*
X004918Y002929D01*
X004937Y002948D02*
X002718Y002948D01*
X002680Y002986D02*
X003589Y002986D01*
X003611Y002964D02*
X003733Y002964D01*
X003820Y003051D01*
X003820Y003173D01*
X003733Y003259D01*
X003611Y003259D01*
X003525Y003173D01*
X003525Y003051D01*
X003611Y002964D01*
X003551Y003024D02*
X002168Y003024D01*
X002168Y003062D02*
X003212Y003062D01*
X003249Y003024D02*
X003371Y003024D01*
X003458Y003111D01*
X003458Y003233D01*
X003371Y003320D01*
X003249Y003320D01*
X003162Y003233D01*
X003162Y003111D01*
X003249Y003024D01*
X003174Y003100D02*
X002139Y003100D01*
X002168Y003071D02*
X002082Y003157D01*
X001959Y003157D01*
X001880Y003077D01*
X001880Y003151D01*
X001803Y003228D01*
X001850Y003275D01*
X001850Y003397D01*
X001763Y003484D01*
X001641Y003484D01*
X001555Y003397D01*
X001555Y003275D01*
X001579Y003251D02*
X001381Y003251D01*
X001386Y003213D02*
X001616Y003213D01*
X001609Y003175D02*
X001391Y003175D01*
X001396Y003137D02*
X001584Y003137D01*
X001584Y003100D02*
X001401Y003100D01*
X001406Y003062D02*
X001584Y003062D01*
X001589Y003024D02*
X001411Y003024D01*
X001416Y002986D02*
X001627Y002986D01*
X001665Y002948D02*
X001421Y002948D01*
X001426Y002910D02*
X001911Y002910D01*
X001949Y002872D02*
X001679Y002872D01*
X001717Y002835D02*
X001940Y002835D01*
X001903Y002797D02*
X001744Y002797D01*
X001843Y002759D02*
X001873Y002759D01*
X002168Y002948D02*
X002168Y003071D01*
X002101Y003137D02*
X003162Y003137D01*
X003162Y003175D02*
X002528Y003175D01*
X002524Y003171D02*
X002611Y003258D01*
X002611Y003381D01*
X002524Y003469D01*
X002429Y003469D01*
X002462Y003501D01*
X002488Y003547D01*
X002496Y003576D01*
X002564Y003576D01*
X002650Y003662D01*
X002650Y003784D01*
X002564Y003871D01*
X002441Y003871D01*
X002379Y003808D01*
X002330Y003822D01*
X002304Y003822D01*
X002304Y003623D01*
X002304Y003425D01*
X002330Y003425D01*
X002367Y003435D01*
X002313Y003381D01*
X002313Y003258D01*
X002400Y003171D01*
X002524Y003171D01*
X002566Y003213D02*
X003162Y003213D01*
X003180Y003251D02*
X002604Y003251D01*
X002611Y003289D02*
X003218Y003289D01*
X003173Y003344D02*
X003296Y003344D01*
X003382Y003431D01*
X003382Y003553D01*
X003317Y003618D01*
X003346Y003646D01*
X003356Y003649D01*
X003401Y003675D01*
X003438Y003712D01*
X003464Y003757D01*
X003478Y003808D01*
X003478Y003834D01*
X003478Y003860D01*
X003464Y003910D01*
X003438Y003956D01*
X003401Y003993D01*
X003356Y004019D01*
X003305Y004032D01*
X003279Y004032D01*
X003253Y004032D01*
X003203Y004019D01*
X003157Y003993D01*
X003121Y003956D01*
X003094Y003910D01*
X003081Y003860D01*
X003081Y003834D01*
X003279Y003834D01*
X003279Y003834D01*
X003279Y004032D01*
X003279Y003834D01*
X003279Y003834D01*
X003081Y003834D01*
X003081Y003808D01*
X003094Y003757D01*
X003121Y003712D01*
X003157Y003675D01*
X003203Y003649D01*
X003225Y003643D01*
X003229Y003639D01*
X003173Y003639D01*
X003087Y003553D01*
X003087Y003431D01*
X003173Y003344D01*
X003153Y003365D02*
X002611Y003365D01*
X002611Y003327D02*
X004235Y003327D01*
X004259Y003351D02*
X004173Y003265D01*
X004173Y003142D01*
X004259Y003056D01*
X004382Y003056D01*
X004468Y003142D01*
X004468Y003189D01*
X004538Y003189D01*
X004624Y003276D01*
X004624Y003376D01*
X004653Y003392D01*
X004689Y003429D01*
X004716Y003474D01*
X004729Y003525D01*
X004729Y003551D01*
X004729Y003577D01*
X004716Y003627D01*
X004689Y003673D01*
X004653Y003710D01*
X004607Y003736D01*
X004557Y003749D01*
X004531Y003749D01*
X004531Y003551D01*
X004729Y003551D01*
X004531Y003551D01*
X004531Y003551D01*
X004531Y003551D01*
X004531Y003749D01*
X004505Y003749D01*
X004454Y003736D01*
X004409Y003710D01*
X004372Y003673D01*
X004346Y003627D01*
X004336Y003591D01*
X004281Y003646D01*
X004159Y003646D01*
X004072Y003560D01*
X004072Y003438D01*
X004159Y003351D01*
X004281Y003351D01*
X004367Y003437D01*
X004367Y003437D01*
X004329Y003398D01*
X004329Y003351D01*
X004259Y003351D01*
X004295Y003365D02*
X004329Y003365D01*
X004333Y003403D02*
X004333Y003403D01*
X004197Y003289D02*
X003402Y003289D01*
X003440Y003251D02*
X003603Y003251D01*
X003565Y003213D02*
X003458Y003213D01*
X003458Y003175D02*
X003527Y003175D01*
X003525Y003137D02*
X003458Y003137D01*
X003446Y003100D02*
X003525Y003100D01*
X003525Y003062D02*
X003409Y003062D01*
X003188Y002835D02*
X004918Y002835D01*
X004918Y002872D02*
X003150Y002872D01*
X003226Y002797D02*
X004927Y002797D01*
X004965Y002759D02*
X003228Y002759D01*
X003228Y002721D02*
X005003Y002721D01*
X005127Y002721D02*
X005283Y002721D01*
X005299Y002759D02*
X005165Y002759D01*
X005203Y002797D02*
X005307Y002797D01*
X005304Y002772D02*
X005104Y002290D01*
X004787Y001876D01*
X004373Y001559D01*
X003891Y001359D01*
X003694Y001333D01*
X003694Y001442D01*
X003669Y001467D01*
X003705Y001503D01*
X003746Y001461D01*
X003868Y001461D01*
X003955Y001548D01*
X003955Y001634D01*
X003988Y001634D01*
X004075Y001721D01*
X004075Y001843D01*
X003988Y001930D01*
X003866Y001930D01*
X003779Y001843D01*
X003779Y001756D01*
X003746Y001756D01*
X003701Y001711D01*
X003660Y001753D01*
X003537Y001753D01*
X003474Y001690D01*
X003474Y001707D01*
X003390Y001791D01*
X003461Y001862D01*
X003461Y001985D01*
X003374Y002071D01*
X003252Y002071D01*
X003239Y002058D01*
X003168Y002129D01*
X003120Y002129D01*
X003120Y002198D01*
X003033Y002284D01*
X002911Y002284D01*
X002889Y002262D01*
X002841Y002310D01*
X002787Y002310D01*
X002786Y002314D01*
X002760Y002359D01*
X002723Y002396D01*
X002678Y002422D01*
X002627Y002435D01*
X002601Y002435D01*
X002575Y002435D01*
X002525Y002422D01*
X002480Y002396D01*
X002443Y002359D01*
X002416Y002314D01*
X002403Y002263D01*
X002403Y002237D01*
X002403Y002211D01*
X002416Y002160D01*
X002443Y002115D01*
X002397Y002115D01*
X002367Y002145D02*
X002453Y002059D01*
X002453Y001936D01*
X002367Y001850D01*
X002244Y001850D01*
X002158Y001936D01*
X002158Y002059D01*
X002244Y002145D01*
X002367Y002145D01*
X002421Y002153D02*
X002054Y002153D01*
X002054Y002115D02*
X002214Y002115D01*
X002176Y002077D02*
X002054Y002077D01*
X002045Y002039D02*
X002158Y002039D01*
X002158Y002001D02*
X002007Y002001D01*
X001970Y001964D02*
X002158Y001964D01*
X002169Y001926D02*
X001924Y001926D01*
X001953Y001888D02*
X002206Y001888D01*
X002095Y001774D02*
X003246Y001774D01*
X003216Y001812D02*
X002045Y001812D01*
X002375Y001559D02*
X002609Y001462D01*
X002602Y001488D01*
X002602Y001515D01*
X002801Y001515D01*
X002999Y001515D01*
X002999Y001488D01*
X002985Y001438D01*
X002959Y001393D01*
X002922Y001356D01*
X002915Y001352D01*
X003374Y001291D01*
X003421Y001297D01*
X003399Y001319D01*
X003399Y001442D01*
X003476Y001519D01*
X003451Y001544D01*
X003451Y001561D01*
X003388Y001498D01*
X003265Y001498D01*
X003179Y001585D01*
X003217Y001547D02*
X002997Y001547D01*
X002999Y001509D02*
X003255Y001509D01*
X003398Y001509D02*
X003467Y001509D01*
X003451Y001547D02*
X003436Y001547D01*
X003429Y001471D02*
X002994Y001471D01*
X002983Y001433D02*
X003399Y001433D01*
X003399Y001395D02*
X002961Y001395D01*
X002924Y001358D02*
X003399Y001358D01*
X003399Y001320D02*
X003157Y001320D01*
X002801Y001515D02*
X002801Y001515D01*
X002801Y001547D02*
X002801Y001547D01*
X002801Y001585D02*
X002801Y001585D01*
X002801Y001623D02*
X002801Y001623D01*
X002801Y001661D02*
X002801Y001661D01*
X002801Y001698D02*
X002801Y001698D01*
X002604Y001547D02*
X002404Y001547D01*
X002495Y001509D02*
X002602Y001509D01*
X002607Y001471D02*
X002587Y001471D01*
X002959Y001921D02*
X003045Y001834D01*
X002992Y001888D02*
X002404Y001888D01*
X002442Y001926D02*
X002959Y001926D01*
X002959Y001921D02*
X002959Y001989D01*
X002911Y001989D01*
X002863Y002037D01*
X002841Y002015D01*
X002719Y002015D01*
X002680Y002053D01*
X002678Y002052D01*
X002627Y002039D01*
X002601Y002039D01*
X002601Y002039D01*
X002601Y002237D01*
X002403Y002237D01*
X002601Y002237D01*
X002601Y002237D01*
X002601Y002237D01*
X002601Y002435D01*
X002601Y002237D01*
X002601Y002237D01*
X002601Y002039D01*
X002575Y002039D01*
X002525Y002052D01*
X002480Y002078D01*
X002443Y002115D01*
X002435Y002077D02*
X002481Y002077D01*
X002453Y002039D02*
X002573Y002039D01*
X002601Y002077D02*
X002601Y002077D01*
X002601Y002115D02*
X002601Y002115D01*
X002601Y002153D02*
X002601Y002153D01*
X002601Y002191D02*
X002601Y002191D01*
X002601Y002229D02*
X002601Y002229D01*
X002601Y002266D02*
X002601Y002266D01*
X002601Y002304D02*
X002601Y002304D01*
X002601Y002342D02*
X002601Y002342D01*
X002601Y002380D02*
X002601Y002380D01*
X002601Y002418D02*
X002601Y002418D01*
X002685Y002418D02*
X003757Y002418D01*
X003778Y002438D02*
X003691Y002352D01*
X003691Y002230D01*
X003778Y002143D01*
X003900Y002143D01*
X003986Y002230D01*
X003986Y002282D01*
X004008Y002282D01*
X004008Y002200D01*
X004094Y002114D01*
X004216Y002114D01*
X004303Y002200D01*
X004303Y002323D01*
X004216Y002409D01*
X004141Y002409D01*
X004141Y002490D01*
X004054Y002577D01*
X003932Y002577D01*
X003846Y002490D01*
X003846Y002438D01*
X003778Y002438D01*
X003846Y002456D02*
X003462Y002456D01*
X003499Y002494D02*
X003849Y002494D01*
X003887Y002532D02*
X003518Y002532D01*
X003518Y002569D02*
X003925Y002569D01*
X004062Y002569D02*
X005220Y002569D01*
X005205Y002532D02*
X004100Y002532D01*
X004138Y002494D02*
X005189Y002494D01*
X005173Y002456D02*
X004141Y002456D01*
X004141Y002418D02*
X005157Y002418D01*
X005142Y002380D02*
X004245Y002380D01*
X004283Y002342D02*
X005126Y002342D01*
X005110Y002304D02*
X004303Y002304D01*
X004303Y002266D02*
X005086Y002266D01*
X005057Y002229D02*
X004303Y002229D01*
X004293Y002191D02*
X005028Y002191D01*
X004999Y002153D02*
X004256Y002153D01*
X004218Y002115D02*
X004970Y002115D01*
X004941Y002077D02*
X003220Y002077D01*
X003182Y002115D02*
X004093Y002115D01*
X004055Y002153D02*
X003910Y002153D01*
X003947Y002191D02*
X004017Y002191D01*
X004008Y002229D02*
X003985Y002229D01*
X003986Y002266D02*
X004008Y002266D01*
X003768Y002153D02*
X003120Y002153D01*
X003120Y002191D02*
X003730Y002191D01*
X003692Y002229D02*
X003089Y002229D01*
X003051Y002266D02*
X003691Y002266D01*
X003691Y002304D02*
X002846Y002304D01*
X002884Y002266D02*
X002893Y002266D01*
X002770Y002342D02*
X003691Y002342D01*
X003719Y002380D02*
X002739Y002380D01*
X002518Y002418D02*
X001591Y002418D01*
X001607Y002380D02*
X002464Y002380D01*
X002433Y002342D02*
X001623Y002342D01*
X001638Y002304D02*
X002414Y002304D01*
X002404Y002266D02*
X001662Y002266D01*
X001691Y002229D02*
X001817Y002229D01*
X001779Y002191D02*
X001720Y002191D01*
X001749Y002153D02*
X001758Y002153D01*
X001995Y002229D02*
X002403Y002229D01*
X002408Y002191D02*
X002033Y002191D01*
X002453Y002001D02*
X002898Y002001D01*
X002959Y001964D02*
X002453Y001964D01*
X002630Y002039D02*
X002694Y002039D01*
X003406Y002039D02*
X004912Y002039D01*
X004883Y002001D02*
X003444Y002001D01*
X003461Y001964D02*
X004854Y001964D01*
X004825Y001926D02*
X003992Y001926D01*
X004030Y001888D02*
X004796Y001888D01*
X004753Y001850D02*
X004068Y001850D01*
X004075Y001812D02*
X004703Y001812D01*
X004654Y001774D02*
X004075Y001774D01*
X004075Y001736D02*
X004605Y001736D01*
X004555Y001698D02*
X004052Y001698D01*
X004014Y001661D02*
X004506Y001661D01*
X004456Y001623D02*
X003955Y001623D01*
X003955Y001585D02*
X004407Y001585D01*
X004345Y001547D02*
X003954Y001547D01*
X003916Y001509D02*
X004253Y001509D01*
X004162Y001471D02*
X003879Y001471D01*
X003879Y001358D02*
X003694Y001358D01*
X003694Y001395D02*
X003979Y001395D01*
X004070Y001433D02*
X003694Y001433D01*
X003673Y001471D02*
X003736Y001471D01*
X003483Y001698D02*
X003474Y001698D01*
X003445Y001736D02*
X003521Y001736D01*
X003448Y001850D02*
X003786Y001850D01*
X003779Y001812D02*
X003411Y001812D01*
X003407Y001774D02*
X003779Y001774D01*
X003726Y001736D02*
X003676Y001736D01*
X003824Y001888D02*
X003461Y001888D01*
X003461Y001926D02*
X003862Y001926D01*
X003518Y002607D02*
X005236Y002607D01*
X005252Y002645D02*
X003507Y002645D01*
X003469Y002683D02*
X005267Y002683D01*
X005304Y002772D02*
X005304Y002772D01*
X005372Y003289D01*
X005358Y003289D01*
X005371Y003296D02*
X005372Y003289D01*
X005371Y003296D02*
X005337Y003277D01*
X005286Y003263D01*
X005260Y003263D01*
X005260Y003461D01*
X005260Y003461D01*
X005062Y003461D01*
X005062Y003435D01*
X005075Y003385D01*
X005102Y003340D01*
X005138Y003303D01*
X005184Y003277D01*
X005234Y003263D01*
X005260Y003263D01*
X005260Y003461D01*
X005260Y003461D01*
X005062Y003461D01*
X005062Y003488D01*
X005075Y003538D01*
X005102Y003583D01*
X005134Y003615D01*
X005036Y003615D01*
X004950Y003702D01*
X004950Y003824D01*
X005036Y003911D01*
X005159Y003911D01*
X005245Y003824D01*
X005245Y003702D01*
X005192Y003648D01*
X005234Y003660D01*
X005260Y003660D01*
X005260Y003461D01*
X005260Y003461D01*
X005260Y003660D01*
X005286Y003660D01*
X005325Y003650D01*
X005304Y003806D01*
X005104Y004288D01*
X004787Y004702D01*
X004373Y005019D01*
X004358Y005025D01*
X004358Y005014D01*
X004345Y004964D01*
X004319Y004919D01*
X004282Y004882D01*
X004236Y004855D01*
X004186Y004842D01*
X004160Y004842D01*
X004160Y005040D01*
X004160Y005040D01*
X004160Y004842D01*
X004134Y004842D01*
X004083Y004855D01*
X004038Y004882D01*
X004001Y004919D01*
X003975Y004964D01*
X003961Y005014D01*
X003961Y005040D01*
X004160Y005040D01*
X004160Y005040D01*
X003961Y005040D01*
X003961Y005066D01*
X003975Y005117D01*
X004001Y005162D01*
X004009Y005170D01*
X003891Y005219D01*
X003374Y005287D01*
X002857Y005219D01*
X002820Y005204D01*
X002878Y005146D01*
X002878Y005024D01*
X002791Y004937D01*
X002669Y004937D01*
X002582Y005024D01*
X002582Y005105D01*
X002375Y005019D01*
X001962Y004702D01*
X001922Y004651D01*
X001947Y004651D01*
X002034Y004564D01*
X002034Y004442D01*
X001947Y004355D01*
X001825Y004355D01*
X001752Y004428D01*
X001644Y004288D01*
X001566Y004100D01*
X001648Y004100D01*
X001735Y004013D01*
X001735Y003939D01*
X001805Y003939D01*
X001892Y003852D01*
X001892Y003730D01*
X001805Y003644D01*
X001683Y003644D01*
X001596Y003730D01*
X001596Y003804D01*
X001526Y003804D01*
X001468Y003863D01*
X001445Y003806D01*
X001376Y003289D01*
X001381Y003327D02*
X001555Y003327D01*
X001555Y003365D02*
X001386Y003365D01*
X001391Y003403D02*
X001560Y003403D01*
X001598Y003440D02*
X001396Y003440D01*
X001401Y003478D02*
X001636Y003478D01*
X001769Y003478D02*
X002168Y003478D01*
X002182Y003464D02*
X002227Y003438D01*
X002277Y003425D01*
X002304Y003425D01*
X002304Y003623D01*
X002304Y003623D01*
X002304Y003623D01*
X002105Y003623D01*
X002105Y003597D01*
X002119Y003547D01*
X002145Y003501D01*
X002182Y003464D01*
X002223Y003440D02*
X001807Y003440D01*
X001845Y003403D02*
X002334Y003403D01*
X002313Y003365D02*
X001850Y003365D01*
X001850Y003327D02*
X002313Y003327D01*
X002313Y003289D02*
X001850Y003289D01*
X001826Y003251D02*
X002320Y003251D01*
X002358Y003213D02*
X001817Y003213D01*
X001855Y003175D02*
X002396Y003175D01*
X002506Y002986D02*
X002168Y002986D01*
X001940Y003137D02*
X001880Y003137D01*
X001880Y003100D02*
X001902Y003100D01*
X001514Y002872D02*
X001431Y002872D01*
X001436Y002835D02*
X001476Y002835D01*
X001449Y002797D02*
X001441Y002797D01*
X001406Y003516D02*
X002136Y003516D01*
X002117Y003554D02*
X001411Y003554D01*
X001416Y003592D02*
X002106Y003592D01*
X002105Y003623D02*
X002304Y003623D01*
X002304Y003623D01*
X002304Y003822D01*
X002277Y003822D01*
X002227Y003808D01*
X002182Y003782D01*
X002145Y003745D01*
X002119Y003700D01*
X002105Y003649D01*
X002105Y003623D01*
X002105Y003630D02*
X001421Y003630D01*
X001426Y003668D02*
X001659Y003668D01*
X001621Y003706D02*
X001431Y003706D01*
X001436Y003743D02*
X001596Y003743D01*
X001596Y003781D02*
X001441Y003781D01*
X001450Y003819D02*
X001511Y003819D01*
X001474Y003857D02*
X001466Y003857D01*
X001664Y004084D02*
X001754Y004084D01*
X001754Y004046D02*
X001702Y004046D01*
X001735Y004009D02*
X001764Y004009D01*
X001754Y004018D02*
X001841Y003932D01*
X001963Y003932D01*
X002050Y004018D01*
X002050Y004141D01*
X001963Y004227D01*
X001841Y004227D01*
X001754Y004141D01*
X001754Y004018D01*
X001735Y003971D02*
X001802Y003971D01*
X001811Y003933D02*
X001840Y003933D01*
X001849Y003895D02*
X003090Y003895D01*
X003081Y003857D02*
X002577Y003857D01*
X002615Y003819D02*
X003081Y003819D01*
X003088Y003781D02*
X002650Y003781D01*
X002650Y003743D02*
X003102Y003743D01*
X003127Y003706D02*
X002650Y003706D01*
X002650Y003668D02*
X003170Y003668D01*
X003164Y003630D02*
X002618Y003630D01*
X002580Y003592D02*
X003126Y003592D01*
X003088Y003554D02*
X002490Y003554D01*
X002471Y003516D02*
X003087Y003516D01*
X003087Y003478D02*
X002439Y003478D01*
X002304Y003478D02*
X002304Y003478D01*
X002304Y003440D02*
X002304Y003440D01*
X002304Y003516D02*
X002304Y003516D01*
X002304Y003554D02*
X002304Y003554D01*
X002304Y003592D02*
X002304Y003592D01*
X002304Y003630D02*
X002304Y003630D01*
X002304Y003668D02*
X002304Y003668D01*
X002304Y003706D02*
X002304Y003706D01*
X002304Y003743D02*
X002304Y003743D01*
X002304Y003781D02*
X002304Y003781D01*
X002304Y003819D02*
X002304Y003819D01*
X002339Y003819D02*
X002390Y003819D01*
X002427Y003857D02*
X001887Y003857D01*
X001892Y003819D02*
X002268Y003819D01*
X002181Y003781D02*
X001892Y003781D01*
X001892Y003743D02*
X002144Y003743D01*
X002122Y003706D02*
X001867Y003706D01*
X001829Y003668D02*
X002110Y003668D01*
X001964Y003933D02*
X003107Y003933D01*
X003136Y003971D02*
X002002Y003971D01*
X002040Y004009D02*
X003185Y004009D01*
X003279Y004009D02*
X003279Y004009D01*
X003279Y003971D02*
X003279Y003971D01*
X003279Y003933D02*
X003279Y003933D01*
X003279Y003895D02*
X003279Y003895D01*
X003279Y003857D02*
X003279Y003857D01*
X003279Y003834D02*
X003478Y003834D01*
X003279Y003834D01*
X003279Y003834D01*
X003451Y003933D02*
X005252Y003933D01*
X005236Y003971D02*
X003423Y003971D01*
X003374Y004009D02*
X005220Y004009D01*
X005205Y004046D02*
X002050Y004046D01*
X002050Y004084D02*
X003904Y004084D01*
X003938Y004050D02*
X003851Y004137D01*
X003851Y004259D01*
X003938Y004346D01*
X004060Y004346D01*
X004070Y004336D01*
X004151Y004417D01*
X004273Y004417D01*
X004331Y004359D01*
X004389Y004417D01*
X004512Y004417D01*
X004598Y004330D01*
X004598Y004208D01*
X004512Y004121D01*
X004389Y004121D01*
X004331Y004180D01*
X004273Y004121D01*
X004151Y004121D01*
X004141Y004131D01*
X004060Y004050D01*
X003938Y004050D01*
X003866Y004122D02*
X002050Y004122D01*
X002030Y004160D02*
X003851Y004160D01*
X003851Y004198D02*
X001992Y004198D01*
X001812Y004198D02*
X001607Y004198D01*
X001623Y004236D02*
X002675Y004236D01*
X002677Y004234D02*
X002799Y004234D01*
X002885Y004320D01*
X002885Y004327D01*
X002973Y004327D01*
X003060Y004413D01*
X003060Y004536D01*
X002973Y004622D01*
X002851Y004622D01*
X002795Y004566D01*
X002795Y004650D01*
X002708Y004737D01*
X002586Y004737D01*
X002499Y004650D01*
X002499Y004528D01*
X002586Y004441D01*
X002590Y004441D01*
X002590Y004320D01*
X002677Y004234D01*
X002637Y004274D02*
X001638Y004274D01*
X001662Y004311D02*
X002599Y004311D01*
X002590Y004349D02*
X001691Y004349D01*
X001720Y004387D02*
X001793Y004387D01*
X001755Y004425D02*
X001749Y004425D01*
X001979Y004387D02*
X002590Y004387D01*
X002590Y004425D02*
X002017Y004425D01*
X002034Y004463D02*
X002564Y004463D01*
X002526Y004501D02*
X002034Y004501D01*
X002034Y004539D02*
X002499Y004539D01*
X002499Y004577D02*
X002021Y004577D01*
X001983Y004614D02*
X002499Y004614D01*
X002502Y004652D02*
X001924Y004652D01*
X001953Y004690D02*
X002540Y004690D01*
X002577Y004728D02*
X001996Y004728D01*
X002045Y004766D02*
X004703Y004766D01*
X004654Y004804D02*
X002095Y004804D01*
X002144Y004842D02*
X004605Y004842D01*
X004555Y004880D02*
X004278Y004880D01*
X004317Y004917D02*
X004506Y004917D01*
X004456Y004955D02*
X004340Y004955D01*
X004353Y004993D02*
X004407Y004993D01*
X004160Y004993D02*
X004160Y004993D01*
X004160Y004955D02*
X004160Y004955D01*
X004160Y004917D02*
X004160Y004917D01*
X004160Y004880D02*
X004160Y004880D01*
X004041Y004880D02*
X002193Y004880D01*
X002243Y004917D02*
X004002Y004917D01*
X003980Y004955D02*
X002809Y004955D01*
X002847Y004993D02*
X003967Y004993D01*
X003961Y005031D02*
X002878Y005031D01*
X002878Y005069D02*
X003962Y005069D01*
X003972Y005107D02*
X002878Y005107D01*
X002878Y005145D02*
X003991Y005145D01*
X003979Y005182D02*
X002841Y005182D01*
X002870Y005220D02*
X003879Y005220D01*
X003591Y005258D02*
X003157Y005258D01*
X002651Y004955D02*
X002292Y004955D01*
X002341Y004993D02*
X002613Y004993D01*
X002582Y005031D02*
X002404Y005031D01*
X002495Y005069D02*
X002582Y005069D01*
X002717Y004728D02*
X004043Y004728D01*
X004080Y004765D02*
X003994Y004678D01*
X003994Y004556D01*
X004080Y004470D01*
X004202Y004470D01*
X004289Y004556D01*
X004289Y004678D01*
X004202Y004765D01*
X004080Y004765D01*
X004005Y004690D02*
X002755Y004690D01*
X002793Y004652D02*
X003994Y004652D01*
X003994Y004614D02*
X002981Y004614D01*
X003019Y004577D02*
X003749Y004577D01*
X003663Y004491D01*
X003663Y004368D01*
X003749Y004282D01*
X003871Y004282D01*
X003958Y004368D01*
X003958Y004491D01*
X003871Y004577D01*
X003749Y004577D01*
X003711Y004539D02*
X003057Y004539D01*
X003060Y004501D02*
X003673Y004501D01*
X003663Y004463D02*
X003060Y004463D01*
X003060Y004425D02*
X003663Y004425D01*
X003663Y004387D02*
X003034Y004387D01*
X002996Y004349D02*
X003682Y004349D01*
X003719Y004311D02*
X002876Y004311D01*
X002839Y004274D02*
X003866Y004274D01*
X003851Y004236D02*
X002801Y004236D01*
X002795Y004577D02*
X002805Y004577D01*
X002795Y004614D02*
X002843Y004614D01*
X003468Y003895D02*
X005021Y003895D01*
X004983Y003857D02*
X003478Y003857D01*
X003478Y003819D02*
X004950Y003819D01*
X004950Y003781D02*
X003471Y003781D01*
X003456Y003743D02*
X004483Y003743D01*
X004531Y003743D02*
X004531Y003743D01*
X004531Y003706D02*
X004531Y003706D01*
X004531Y003668D02*
X004531Y003668D01*
X004531Y003630D02*
X004531Y003630D01*
X004531Y003592D02*
X004531Y003592D01*
X004531Y003554D02*
X004531Y003554D01*
X004657Y003706D02*
X004950Y003706D01*
X004950Y003743D02*
X004579Y003743D01*
X004692Y003668D02*
X004984Y003668D01*
X005022Y003630D02*
X004714Y003630D01*
X004725Y003592D02*
X005110Y003592D01*
X005085Y003554D02*
X004729Y003554D01*
X004727Y003516D02*
X005070Y003516D01*
X005062Y003478D02*
X004717Y003478D01*
X004696Y003440D02*
X005062Y003440D01*
X005071Y003403D02*
X004663Y003403D01*
X004624Y003365D02*
X005087Y003365D01*
X005114Y003327D02*
X004624Y003327D01*
X004624Y003289D02*
X005162Y003289D01*
X005260Y003289D02*
X005260Y003289D01*
X005260Y003327D02*
X005260Y003327D01*
X005260Y003365D02*
X005260Y003365D01*
X005260Y003403D02*
X005260Y003403D01*
X005260Y003440D02*
X005260Y003440D01*
X005260Y003478D02*
X005260Y003478D01*
X005260Y003516D02*
X005260Y003516D01*
X005260Y003554D02*
X005260Y003554D01*
X005260Y003592D02*
X005260Y003592D01*
X005260Y003630D02*
X005260Y003630D01*
X005211Y003668D02*
X005322Y003668D01*
X005317Y003706D02*
X005245Y003706D01*
X005245Y003743D02*
X005312Y003743D01*
X005307Y003781D02*
X005245Y003781D01*
X005245Y003819D02*
X005299Y003819D01*
X005283Y003857D02*
X005212Y003857D01*
X005174Y003895D02*
X005267Y003895D01*
X005189Y004084D02*
X004976Y004084D01*
X004955Y004064D02*
X005041Y004150D01*
X005041Y004272D01*
X004955Y004359D01*
X004833Y004359D01*
X004746Y004272D01*
X004746Y004150D01*
X004833Y004064D01*
X004955Y004064D01*
X005013Y004122D02*
X005173Y004122D01*
X005157Y004160D02*
X005041Y004160D01*
X005041Y004198D02*
X005142Y004198D01*
X005126Y004236D02*
X005041Y004236D01*
X005040Y004274D02*
X005110Y004274D01*
X005086Y004311D02*
X005002Y004311D01*
X004965Y004349D02*
X005057Y004349D01*
X005028Y004387D02*
X004541Y004387D01*
X004579Y004349D02*
X004823Y004349D01*
X004785Y004311D02*
X004598Y004311D01*
X004598Y004274D02*
X004747Y004274D01*
X004746Y004236D02*
X004598Y004236D01*
X004588Y004198D02*
X004746Y004198D01*
X004746Y004160D02*
X004550Y004160D01*
X004512Y004122D02*
X004774Y004122D01*
X004812Y004084D02*
X004094Y004084D01*
X004132Y004122D02*
X004150Y004122D01*
X004274Y004122D02*
X004388Y004122D01*
X004351Y004160D02*
X004311Y004160D01*
X004302Y004387D02*
X004360Y004387D01*
X004234Y004501D02*
X004941Y004501D01*
X004912Y004539D02*
X004271Y004539D01*
X004289Y004577D02*
X004883Y004577D01*
X004854Y004614D02*
X004289Y004614D01*
X004289Y004652D02*
X004825Y004652D01*
X004796Y004690D02*
X004277Y004690D01*
X004239Y004728D02*
X004753Y004728D01*
X004970Y004463D02*
X003958Y004463D01*
X003958Y004425D02*
X004999Y004425D01*
X004160Y005031D02*
X004160Y005031D01*
X003994Y004577D02*
X003872Y004577D01*
X003910Y004539D02*
X004011Y004539D01*
X004049Y004501D02*
X003948Y004501D01*
X003958Y004387D02*
X004121Y004387D01*
X004083Y004349D02*
X003939Y004349D01*
X003904Y004311D02*
X003901Y004311D01*
X003432Y003706D02*
X004405Y003706D01*
X004369Y003668D02*
X003388Y003668D01*
X003330Y003630D02*
X004142Y003630D01*
X004104Y003592D02*
X003343Y003592D01*
X003381Y003554D02*
X004072Y003554D01*
X004072Y003516D02*
X003382Y003516D01*
X003382Y003478D02*
X004072Y003478D01*
X004072Y003440D02*
X003382Y003440D01*
X003354Y003403D02*
X004107Y003403D01*
X004145Y003365D02*
X003316Y003365D01*
X003115Y003403D02*
X002590Y003403D01*
X002552Y003440D02*
X003087Y003440D01*
X003742Y003251D02*
X004173Y003251D01*
X004173Y003213D02*
X003780Y003213D01*
X003818Y003175D02*
X004173Y003175D01*
X004178Y003137D02*
X003820Y003137D01*
X003820Y003100D02*
X004215Y003100D01*
X004253Y003062D02*
X003820Y003062D01*
X003793Y003024D02*
X005337Y003024D01*
X005342Y003062D02*
X004387Y003062D01*
X004425Y003100D02*
X005347Y003100D01*
X005352Y003137D02*
X004463Y003137D01*
X004468Y003175D02*
X005357Y003175D01*
X005362Y003213D02*
X004561Y003213D01*
X004599Y003251D02*
X005367Y003251D01*
X005332Y002986D02*
X005156Y002986D01*
X005193Y002948D02*
X005327Y002948D01*
X005322Y002910D02*
X005213Y002910D01*
X005213Y002872D02*
X005317Y002872D01*
X005312Y002835D02*
X005213Y002835D01*
X004975Y002986D02*
X003755Y002986D01*
X003271Y002683D02*
X003228Y002683D01*
X003233Y002645D02*
X003202Y002645D01*
X003223Y002607D02*
X003164Y002607D01*
X004298Y003630D02*
X004347Y003630D01*
X004336Y003592D02*
X004336Y003592D01*
X001774Y004160D02*
X001591Y004160D01*
X001575Y004122D02*
X001754Y004122D01*
D11*
X001902Y004079D03*
X001744Y003791D03*
X001587Y003952D03*
X001702Y003336D03*
X001732Y003090D03*
X002021Y003010D03*
X002021Y002706D03*
X001775Y002618D03*
X001597Y002746D03*
X001906Y002109D03*
X002305Y001998D03*
X002601Y002237D03*
X002780Y002162D03*
X002972Y002137D03*
X003106Y001982D03*
X003313Y001923D03*
X003326Y001646D03*
X003598Y001605D03*
X003807Y001609D03*
X003927Y001782D03*
X003547Y001380D03*
X002801Y001515D03*
X003839Y002291D03*
X003993Y002429D03*
X004155Y002261D03*
X003370Y002573D03*
X003081Y002733D03*
X003310Y003172D03*
X003234Y003492D03*
X003279Y003834D03*
X002738Y004381D03*
X002912Y004475D03*
X002647Y004589D03*
X002730Y005085D03*
X001886Y004503D03*
X002502Y003723D03*
X002304Y003623D03*
X002593Y002864D03*
X002436Y002707D03*
X003672Y003112D03*
X004220Y003499D03*
X004477Y003337D03*
X004320Y003203D03*
X004531Y003551D03*
X005098Y003763D03*
X005260Y003461D03*
X005065Y002868D03*
X004894Y004211D03*
X004450Y004269D03*
X004212Y004269D03*
X003999Y004198D03*
X003810Y004429D03*
X004141Y004617D03*
X004160Y005040D03*
D12*
X002462Y003320D03*
M02*
