G75*
G70*
%OFA0B0*%
%FSLAX24Y24*%
%IPPOS*%
%LPD*%
%AMOC8*
5,1,8,0,0,1.08239X$1,22.5*
%
%ADD10C,0.0100*%
%ADD11R,0.0257X0.0257*%
%ADD12R,0.0257X0.0257*%
%ADD13R,0.0493X0.0808*%
%ADD14R,0.0414X0.0147*%
%ADD15R,0.0375X0.0277*%
D10*
X001992Y002392D03*
X001992Y002549D03*
X002150Y002549D03*
X002150Y002392D03*
X002307Y002392D03*
X002307Y002549D03*
X002465Y002549D03*
X002465Y002392D03*
X002622Y002392D03*
X002622Y002549D03*
X002780Y002549D03*
X002780Y002392D03*
X002937Y002392D03*
X002937Y002549D03*
X003095Y002549D03*
X003095Y002392D03*
X003095Y002707D03*
X003095Y002864D03*
X002937Y002864D03*
X002937Y002707D03*
X002780Y002707D03*
X002780Y002864D03*
X002622Y002864D03*
X002622Y002707D03*
X002465Y002707D03*
X002465Y002864D03*
X002307Y002864D03*
X002307Y002707D03*
X002150Y002707D03*
X002150Y002864D03*
X001992Y002864D03*
X001992Y002707D03*
X001992Y003022D03*
X001992Y003179D03*
X002150Y003179D03*
X002150Y003022D03*
X002307Y003022D03*
X002307Y003179D03*
X002465Y003179D03*
X002622Y003179D03*
X002622Y003022D03*
X002465Y003022D03*
X002780Y003022D03*
X002937Y003022D03*
X002937Y003179D03*
X002780Y003179D03*
X002780Y003337D03*
X002937Y003337D03*
X002937Y003494D03*
X002780Y003494D03*
X002622Y003494D03*
X002622Y003337D03*
X002465Y003337D03*
X002465Y003494D03*
X002307Y003494D03*
X002307Y003337D03*
X002150Y003337D03*
X002150Y003494D03*
X001992Y003494D03*
X001992Y003337D03*
X003095Y003337D03*
X003095Y003494D03*
X003095Y003179D03*
X003095Y003022D03*
D11*
X004385Y004489D03*
X004785Y004489D03*
X003465Y004883D03*
X003065Y004883D03*
X002808Y004883D03*
X002408Y004883D03*
D12*
G36*
X002048Y001801D02*
X001853Y001966D01*
X002018Y002161D01*
X002213Y001996D01*
X002048Y001801D01*
G37*
G36*
X002355Y001544D02*
X002160Y001709D01*
X002325Y001904D01*
X002520Y001739D01*
X002355Y001544D01*
G37*
G36*
X002873Y001630D02*
X003124Y001585D01*
X003079Y001334D01*
X002828Y001379D01*
X002873Y001630D01*
G37*
G36*
X003267Y001561D02*
X003518Y001516D01*
X003473Y001265D01*
X003222Y001310D01*
X003267Y001561D01*
G37*
D13*
X003266Y004356D03*
X002282Y004356D03*
D14*
X003954Y003621D03*
X003954Y003464D03*
X003954Y003306D03*
X003954Y003149D03*
X003954Y002991D03*
X004989Y002991D03*
X004989Y003149D03*
X004989Y003306D03*
X004989Y003464D03*
X004989Y003621D03*
D15*
X004763Y003936D03*
X004180Y003936D03*
X004180Y002676D03*
X004763Y002676D03*
M02*
