G75*
G70*
%OFA0B0*%
%FSLAX24Y24*%
%IPPOS*%
%LPD*%
%AMOC8*
5,1,8,0,0,1.08239X$1,22.5*
%
%ADD10C,0.0157*%
%ADD11C,0.0039*%
%ADD12C,0.0160*%
D10*
X002305Y001998D03*
X002601Y002237D03*
X002780Y002162D03*
X002972Y002137D03*
X003106Y001982D03*
X003313Y001923D03*
X003326Y001646D03*
X003598Y001605D03*
X003807Y001609D03*
X003927Y001782D03*
X003547Y001380D03*
X002801Y001515D03*
X001906Y002109D03*
X001775Y002618D03*
X001597Y002746D03*
X001732Y003090D03*
X001702Y003336D03*
X002021Y003010D03*
X002021Y002706D03*
X002436Y002707D03*
X002593Y002864D03*
X003081Y002733D03*
X003370Y002573D03*
X003839Y002291D03*
X003993Y002429D03*
X004155Y002261D03*
X003672Y003112D03*
X003310Y003172D03*
X003234Y003492D03*
X003279Y003834D03*
X002738Y004381D03*
X002912Y004475D03*
X002647Y004589D03*
X002730Y005085D03*
X001886Y004503D03*
X001902Y004079D03*
X001744Y003791D03*
X001587Y003952D03*
X002304Y003623D03*
X002502Y003723D03*
X003810Y004429D03*
X003999Y004198D03*
X004212Y004269D03*
X004450Y004269D03*
X004894Y004211D03*
X005098Y003763D03*
X005260Y003461D03*
X005065Y002868D03*
X004477Y003337D03*
X004320Y003203D03*
X004220Y003499D03*
X004531Y003551D03*
X004141Y004617D03*
X004160Y005040D03*
D11*
X003029Y001850D02*
X001996Y001850D01*
X001962Y001876D02*
X001935Y001911D01*
X001983Y001924D01*
X002028Y001950D01*
X002065Y001987D01*
X002091Y002032D01*
X002105Y002083D01*
X002105Y002109D01*
X002105Y002135D01*
X002091Y002185D01*
X002065Y002231D01*
X002028Y002268D01*
X001983Y002294D01*
X001932Y002307D01*
X001906Y002307D01*
X001880Y002307D01*
X001830Y002294D01*
X001784Y002268D01*
X001747Y002231D01*
X001723Y002188D01*
X001644Y002290D01*
X001503Y002632D01*
X001536Y002599D01*
X001627Y002599D01*
X001627Y002557D01*
X001714Y002470D01*
X001836Y002470D01*
X001908Y002542D01*
X001944Y002521D01*
X001994Y002508D01*
X002021Y002508D01*
X002047Y002508D01*
X002097Y002521D01*
X002142Y002547D01*
X002179Y002584D01*
X002205Y002629D01*
X002219Y002680D01*
X002219Y002706D01*
X002219Y002732D01*
X002205Y002783D01*
X002179Y002828D01*
X002149Y002858D01*
X002179Y002888D01*
X002205Y002933D01*
X002219Y002984D01*
X002219Y003010D01*
X002219Y003036D01*
X002205Y003086D01*
X002179Y003131D01*
X002142Y003168D01*
X002097Y003195D01*
X002047Y003208D01*
X002021Y003208D01*
X002021Y003010D01*
X002219Y003010D01*
X002021Y003010D01*
X002021Y003010D01*
X002021Y003010D01*
X002021Y003208D01*
X001994Y003208D01*
X001944Y003195D01*
X001899Y003168D01*
X001880Y003149D01*
X001880Y003151D01*
X001803Y003228D01*
X001850Y003275D01*
X001850Y003397D01*
X001763Y003484D01*
X001641Y003484D01*
X001555Y003397D01*
X001555Y003275D01*
X001631Y003198D01*
X001584Y003151D01*
X001584Y003029D01*
X001671Y002942D01*
X001793Y002942D01*
X001825Y002974D01*
X001836Y002933D01*
X001862Y002888D01*
X001892Y002858D01*
X001862Y002828D01*
X001836Y002783D01*
X001831Y002766D01*
X001744Y002766D01*
X001744Y002807D01*
X001658Y002894D01*
X001536Y002894D01*
X001449Y002807D01*
X001449Y002761D01*
X001445Y002772D01*
X001376Y003289D01*
X001555Y003289D01*
X001555Y003327D02*
X001381Y003327D01*
X001386Y003365D02*
X001555Y003365D01*
X001560Y003403D02*
X001391Y003403D01*
X001396Y003440D02*
X001598Y003440D01*
X001636Y003478D02*
X001401Y003478D01*
X001406Y003516D02*
X002202Y003516D01*
X002240Y003478D02*
X001769Y003478D01*
X001807Y003440D02*
X002372Y003440D01*
X002365Y003476D02*
X002242Y003476D01*
X002156Y003562D01*
X002156Y003684D01*
X002242Y003771D01*
X002310Y003771D01*
X002318Y003800D01*
X002344Y003845D01*
X002381Y003882D01*
X002426Y003908D01*
X002476Y003922D01*
X002502Y003922D01*
X002502Y003723D01*
X002502Y003723D01*
X002502Y003525D01*
X002476Y003525D01*
X002427Y003538D01*
X002365Y003476D01*
X002367Y003478D02*
X003036Y003478D01*
X003036Y003466D02*
X003049Y003415D01*
X003076Y003370D01*
X003113Y003333D01*
X003158Y003307D01*
X003208Y003293D01*
X003223Y003293D01*
X003162Y003233D01*
X003162Y003111D01*
X003249Y003024D01*
X003371Y003024D01*
X003458Y003111D01*
X003458Y003233D01*
X003371Y003320D01*
X003333Y003320D01*
X003356Y003333D01*
X003393Y003370D01*
X003419Y003415D01*
X003433Y003466D01*
X003433Y003492D01*
X003433Y003518D01*
X003419Y003568D01*
X003393Y003614D01*
X003356Y003651D01*
X003353Y003653D01*
X003353Y003699D01*
X003427Y003773D01*
X003427Y003895D01*
X003340Y003981D01*
X003218Y003981D01*
X003132Y003895D01*
X003132Y003773D01*
X003214Y003690D01*
X003208Y003690D01*
X003158Y003677D01*
X003113Y003651D01*
X003076Y003614D01*
X003049Y003568D01*
X003036Y003518D01*
X003036Y003492D01*
X003234Y003492D01*
X003234Y003492D01*
X003036Y003492D01*
X003036Y003466D01*
X003043Y003440D02*
X002552Y003440D01*
X002524Y003469D02*
X002400Y003469D01*
X002313Y003381D01*
X002313Y003258D01*
X002400Y003171D01*
X002524Y003171D01*
X002611Y003258D01*
X002611Y003381D01*
X002524Y003469D01*
X002529Y003525D02*
X002502Y003525D01*
X002502Y003723D01*
X002502Y003723D01*
X002502Y003723D01*
X002701Y003723D01*
X002701Y003697D01*
X002687Y003647D01*
X002661Y003601D01*
X002624Y003564D01*
X002579Y003538D01*
X002529Y003525D01*
X002502Y003554D02*
X002502Y003554D01*
X002502Y003592D02*
X002502Y003592D01*
X002502Y003630D02*
X002502Y003630D01*
X002502Y003668D02*
X002502Y003668D01*
X002502Y003706D02*
X002502Y003706D01*
X002502Y003723D02*
X002701Y003723D01*
X002701Y003749D01*
X002687Y003800D01*
X002661Y003845D01*
X002624Y003882D01*
X002579Y003908D01*
X002529Y003922D01*
X002502Y003922D01*
X002502Y003723D01*
X002502Y003743D02*
X002502Y003743D01*
X002502Y003781D02*
X002502Y003781D01*
X002502Y003819D02*
X002502Y003819D01*
X002502Y003857D02*
X002502Y003857D01*
X002502Y003895D02*
X002502Y003895D01*
X002403Y003895D02*
X001849Y003895D01*
X001841Y003932D02*
X001963Y003932D01*
X002050Y004018D01*
X002050Y004141D01*
X001963Y004227D01*
X001841Y004227D01*
X001754Y004141D01*
X001754Y004018D01*
X001841Y003932D01*
X001840Y003933D02*
X001811Y003933D01*
X001805Y003939D02*
X001735Y003939D01*
X001735Y004013D01*
X001648Y004100D01*
X001566Y004100D01*
X001644Y004288D01*
X001752Y004428D01*
X001825Y004355D01*
X001947Y004355D01*
X002034Y004442D01*
X002034Y004564D01*
X001947Y004651D01*
X001922Y004651D01*
X001962Y004702D01*
X002375Y005019D01*
X002532Y005084D01*
X002532Y005059D01*
X002545Y005008D01*
X002571Y004963D01*
X002608Y004926D01*
X002654Y004900D01*
X002704Y004887D01*
X002730Y004887D01*
X002730Y005085D01*
X002730Y005085D01*
X002730Y004887D01*
X002756Y004887D01*
X002807Y004900D01*
X002852Y004926D01*
X002889Y004963D01*
X002915Y005008D01*
X002929Y005059D01*
X002929Y005085D01*
X002730Y005085D01*
X002730Y005085D01*
X002929Y005085D01*
X002929Y005111D01*
X002915Y005162D01*
X002889Y005207D01*
X002875Y005221D01*
X003374Y005287D01*
X003891Y005219D01*
X004060Y005149D01*
X004012Y005102D01*
X004012Y004979D01*
X004099Y004893D01*
X004221Y004893D01*
X004307Y004979D01*
X004307Y005046D01*
X004373Y005019D01*
X004787Y004702D01*
X005104Y004288D01*
X005304Y003806D01*
X005331Y003599D01*
X005321Y003609D01*
X005224Y003609D01*
X005256Y003641D01*
X005282Y003686D01*
X005296Y003737D01*
X005296Y003763D01*
X005296Y003789D01*
X005282Y003840D01*
X005256Y003885D01*
X005219Y003922D01*
X005174Y003948D01*
X005124Y003961D01*
X005098Y003961D01*
X005098Y003763D01*
X005296Y003763D01*
X005098Y003763D01*
X005098Y003763D01*
X005098Y003763D01*
X005098Y003565D01*
X005124Y003565D01*
X005166Y003576D01*
X005113Y003523D01*
X005113Y003400D01*
X005199Y003314D01*
X005321Y003314D01*
X005363Y003356D01*
X005372Y003289D01*
X004624Y003289D01*
X004624Y003276D02*
X004624Y003398D01*
X004606Y003417D01*
X004678Y003490D01*
X004678Y003612D01*
X004592Y003699D01*
X004470Y003699D01*
X004383Y003612D01*
X004383Y003490D01*
X004402Y003471D01*
X004329Y003398D01*
X004329Y003351D01*
X004259Y003351D01*
X004173Y003265D01*
X004173Y003142D01*
X004259Y003056D01*
X004382Y003056D01*
X004468Y003142D01*
X004468Y003189D01*
X004538Y003189D01*
X004624Y003276D01*
X004599Y003251D02*
X005367Y003251D01*
X005362Y003213D02*
X004561Y003213D01*
X004468Y003175D02*
X005357Y003175D01*
X005352Y003137D02*
X004463Y003137D01*
X004425Y003100D02*
X005347Y003100D01*
X005342Y003062D02*
X004387Y003062D01*
X004253Y003062D02*
X003820Y003062D01*
X003820Y003051D02*
X003733Y002964D01*
X003611Y002964D01*
X003525Y003051D01*
X003525Y003173D01*
X003611Y003259D01*
X003733Y003259D01*
X003820Y003173D01*
X003820Y003051D01*
X003793Y003024D02*
X005337Y003024D01*
X005332Y002986D02*
X005156Y002986D01*
X005126Y003015D02*
X005004Y003015D01*
X004918Y002929D01*
X004918Y002806D01*
X005004Y002720D01*
X005126Y002720D01*
X005213Y002806D01*
X005213Y002929D01*
X005126Y003015D01*
X005193Y002948D02*
X005327Y002948D01*
X005322Y002910D02*
X005213Y002910D01*
X005213Y002872D02*
X005317Y002872D01*
X005312Y002835D02*
X005213Y002835D01*
X005203Y002797D02*
X005307Y002797D01*
X005304Y002772D02*
X005104Y002290D01*
X004787Y001876D01*
X004373Y001559D01*
X003891Y001359D01*
X003741Y001339D01*
X003745Y001354D01*
X003745Y001380D01*
X003547Y001380D01*
X003547Y001380D01*
X003348Y001380D01*
X003348Y001354D01*
X003362Y001304D01*
X003369Y001292D01*
X002857Y001359D01*
X002839Y001367D01*
X002862Y001367D01*
X002948Y001453D01*
X002948Y001576D01*
X002862Y001662D01*
X002739Y001662D01*
X002653Y001576D01*
X002653Y001453D01*
X002669Y001437D01*
X002375Y001559D01*
X001962Y001876D01*
X001953Y001888D02*
X002206Y001888D01*
X002169Y001926D02*
X001986Y001926D01*
X002041Y001964D02*
X002158Y001964D01*
X002158Y001936D02*
X002244Y001850D01*
X002367Y001850D01*
X002453Y001936D01*
X002453Y002059D01*
X002367Y002145D01*
X002244Y002145D01*
X002158Y002059D01*
X002158Y001936D01*
X002158Y002001D02*
X002073Y002001D01*
X002093Y002039D02*
X002158Y002039D01*
X002176Y002077D02*
X002103Y002077D01*
X002105Y002109D02*
X001906Y002109D01*
X001906Y002307D01*
X001906Y002109D01*
X001906Y002109D01*
X002105Y002109D01*
X002105Y002115D02*
X002214Y002115D01*
X002100Y002153D02*
X002477Y002153D01*
X002454Y002176D02*
X002540Y002089D01*
X002594Y002089D01*
X002595Y002086D01*
X002621Y002040D01*
X002658Y002003D01*
X002703Y001977D01*
X002754Y001964D01*
X002780Y001964D01*
X002806Y001964D01*
X002856Y001977D01*
X002898Y002001D01*
X002898Y002001D01*
X002911Y001989D01*
X002959Y001989D01*
X002959Y001921D01*
X003045Y001834D01*
X003168Y001834D01*
X003181Y001847D01*
X003250Y001778D01*
X003179Y001707D01*
X003179Y001585D01*
X002939Y001585D01*
X002948Y001547D02*
X003217Y001547D01*
X003255Y001509D02*
X002948Y001509D01*
X002948Y001471D02*
X003370Y001471D01*
X003362Y001457D02*
X003348Y001407D01*
X003348Y001380D01*
X003547Y001380D01*
X003547Y001380D01*
X003745Y001380D01*
X003745Y001407D01*
X003732Y001457D01*
X003707Y001501D01*
X003746Y001461D01*
X003868Y001461D01*
X003955Y001548D01*
X003955Y001634D01*
X003988Y001634D01*
X004075Y001721D01*
X004075Y001843D01*
X003988Y001930D01*
X003866Y001930D01*
X003779Y001843D01*
X003779Y001756D01*
X003746Y001756D01*
X003701Y001711D01*
X003660Y001753D01*
X003537Y001753D01*
X003474Y001690D01*
X003474Y001707D01*
X003390Y001791D01*
X003461Y001862D01*
X003461Y001985D01*
X003374Y002071D01*
X003252Y002071D01*
X003239Y002058D01*
X003168Y002129D01*
X003120Y002129D01*
X003120Y002198D01*
X003033Y002284D01*
X002938Y002284D01*
X002902Y002321D01*
X002856Y002347D01*
X002806Y002361D01*
X002780Y002361D01*
X002780Y002162D01*
X002780Y001964D01*
X002780Y002162D01*
X002780Y002162D01*
X002780Y002162D01*
X002780Y002361D01*
X002754Y002361D01*
X002703Y002347D01*
X002701Y002346D01*
X002662Y002385D01*
X002540Y002385D01*
X002454Y002298D01*
X002454Y002176D01*
X002454Y002191D02*
X002088Y002191D01*
X002066Y002229D02*
X002454Y002229D01*
X002454Y002266D02*
X002029Y002266D01*
X001943Y002304D02*
X002460Y002304D01*
X002498Y002342D02*
X001623Y002342D01*
X001638Y002304D02*
X001869Y002304D01*
X001906Y002304D02*
X001906Y002304D01*
X001906Y002266D02*
X001906Y002266D01*
X001906Y002229D02*
X001906Y002229D01*
X001906Y002191D02*
X001906Y002191D01*
X001906Y002153D02*
X001906Y002153D01*
X001906Y002115D02*
X001906Y002115D01*
X001906Y002109D02*
X001906Y002109D01*
X001724Y002191D02*
X001720Y002191D01*
X001746Y002229D02*
X001691Y002229D01*
X001662Y002266D02*
X001783Y002266D01*
X001607Y002380D02*
X002536Y002380D01*
X002667Y002380D02*
X003719Y002380D01*
X003691Y002352D02*
X003691Y002230D01*
X003778Y002143D01*
X003900Y002143D01*
X003986Y002230D01*
X003986Y002282D01*
X004008Y002282D01*
X004008Y002200D01*
X004094Y002114D01*
X004216Y002114D01*
X004303Y002200D01*
X004303Y002323D01*
X004216Y002409D01*
X004141Y002409D01*
X004141Y002490D01*
X004054Y002577D01*
X003932Y002577D01*
X003846Y002490D01*
X003846Y002438D01*
X003778Y002438D01*
X003691Y002352D01*
X003691Y002342D02*
X002865Y002342D01*
X002918Y002304D02*
X003691Y002304D01*
X003691Y002266D02*
X003051Y002266D01*
X003089Y002229D02*
X003692Y002229D01*
X003730Y002191D02*
X003120Y002191D01*
X003120Y002153D02*
X003768Y002153D01*
X003910Y002153D02*
X004055Y002153D01*
X004017Y002191D02*
X003947Y002191D01*
X003985Y002229D02*
X004008Y002229D01*
X004008Y002266D02*
X003986Y002266D01*
X004093Y002115D02*
X003182Y002115D01*
X003220Y002077D02*
X004941Y002077D01*
X004912Y002039D02*
X003406Y002039D01*
X003444Y002001D02*
X004883Y002001D01*
X004854Y001964D02*
X003461Y001964D01*
X003461Y001926D02*
X003862Y001926D01*
X003824Y001888D02*
X003461Y001888D01*
X003448Y001850D02*
X003786Y001850D01*
X003779Y001812D02*
X003411Y001812D01*
X003407Y001774D02*
X003779Y001774D01*
X003726Y001736D02*
X003676Y001736D01*
X003521Y001736D02*
X003445Y001736D01*
X003474Y001698D02*
X003483Y001698D01*
X003386Y001498D02*
X003265Y001498D01*
X003179Y001585D01*
X003179Y001623D02*
X002901Y001623D01*
X002863Y001661D02*
X003179Y001661D01*
X003179Y001698D02*
X002193Y001698D01*
X002144Y001736D02*
X003208Y001736D01*
X003246Y001774D02*
X002095Y001774D01*
X002045Y001812D02*
X003216Y001812D01*
X002992Y001888D02*
X002404Y001888D01*
X002442Y001926D02*
X002959Y001926D01*
X002959Y001964D02*
X002453Y001964D01*
X002453Y002001D02*
X002662Y002001D01*
X002622Y002039D02*
X002453Y002039D01*
X002435Y002077D02*
X002600Y002077D01*
X002515Y002115D02*
X002397Y002115D01*
X002780Y002115D02*
X002780Y002115D01*
X002780Y002153D02*
X002780Y002153D01*
X002780Y002191D02*
X002780Y002191D01*
X002780Y002229D02*
X002780Y002229D01*
X002780Y002266D02*
X002780Y002266D01*
X002780Y002304D02*
X002780Y002304D01*
X002780Y002342D02*
X002780Y002342D01*
X002780Y002077D02*
X002780Y002077D01*
X002780Y002039D02*
X002780Y002039D01*
X002780Y002001D02*
X002780Y002001D01*
X002738Y001661D02*
X002243Y001661D01*
X002292Y001623D02*
X002700Y001623D01*
X002662Y001585D02*
X002341Y001585D01*
X002404Y001547D02*
X002653Y001547D01*
X002653Y001509D02*
X002495Y001509D01*
X002587Y001471D02*
X002653Y001471D01*
X002870Y001358D02*
X003348Y001358D01*
X003348Y001395D02*
X002890Y001395D01*
X002928Y001433D02*
X003356Y001433D01*
X003362Y001457D02*
X003386Y001498D01*
X003358Y001320D02*
X003157Y001320D01*
X003724Y001471D02*
X003736Y001471D01*
X003738Y001433D02*
X004070Y001433D01*
X003979Y001395D02*
X003745Y001395D01*
X003745Y001358D02*
X003879Y001358D01*
X003879Y001471D02*
X004162Y001471D01*
X004253Y001509D02*
X003916Y001509D01*
X003954Y001547D02*
X004345Y001547D01*
X004407Y001585D02*
X003955Y001585D01*
X003955Y001623D02*
X004456Y001623D01*
X004506Y001661D02*
X004014Y001661D01*
X004052Y001698D02*
X004555Y001698D01*
X004605Y001736D02*
X004075Y001736D01*
X004075Y001774D02*
X004654Y001774D01*
X004703Y001812D02*
X004075Y001812D01*
X004068Y001850D02*
X004753Y001850D01*
X004796Y001888D02*
X004030Y001888D01*
X003992Y001926D02*
X004825Y001926D01*
X004970Y002115D02*
X004218Y002115D01*
X004256Y002153D02*
X004999Y002153D01*
X005028Y002191D02*
X004293Y002191D01*
X004303Y002229D02*
X005057Y002229D01*
X005086Y002266D02*
X004303Y002266D01*
X004303Y002304D02*
X005110Y002304D01*
X005126Y002342D02*
X004283Y002342D01*
X004245Y002380D02*
X005142Y002380D01*
X005157Y002418D02*
X004141Y002418D01*
X004141Y002456D02*
X005173Y002456D01*
X005189Y002494D02*
X004138Y002494D01*
X004100Y002532D02*
X005205Y002532D01*
X005220Y002569D02*
X004062Y002569D01*
X003925Y002569D02*
X003518Y002569D01*
X003518Y002532D02*
X003887Y002532D01*
X003849Y002494D02*
X003499Y002494D01*
X003518Y002512D02*
X003431Y002426D01*
X003309Y002426D01*
X003223Y002512D01*
X003223Y002634D01*
X003309Y002721D01*
X003431Y002721D01*
X003518Y002634D01*
X003518Y002512D01*
X003462Y002456D02*
X003846Y002456D01*
X003757Y002418D02*
X001591Y002418D01*
X001575Y002456D02*
X003279Y002456D01*
X003241Y002494D02*
X001859Y002494D01*
X001897Y002532D02*
X001926Y002532D01*
X002021Y002532D02*
X002021Y002532D01*
X002021Y002508D02*
X002021Y002706D01*
X002219Y002706D01*
X002021Y002706D01*
X002021Y002706D01*
X002021Y002706D01*
X002021Y002508D01*
X002021Y002569D02*
X002021Y002569D01*
X002021Y002607D02*
X002021Y002607D01*
X002021Y002645D02*
X002021Y002645D01*
X002021Y002683D02*
X002021Y002683D01*
X002115Y002532D02*
X003223Y002532D01*
X003223Y002569D02*
X002507Y002569D01*
X002497Y002559D02*
X002583Y002646D01*
X002583Y002717D01*
X002654Y002717D01*
X002741Y002803D01*
X002741Y002926D01*
X002654Y003012D01*
X002532Y003012D01*
X002445Y002926D01*
X002445Y002855D01*
X002375Y002855D01*
X002288Y002768D01*
X002288Y002646D01*
X002375Y002559D01*
X002497Y002559D01*
X002545Y002607D02*
X002998Y002607D01*
X003020Y002585D02*
X003142Y002585D01*
X003228Y002672D01*
X003228Y002794D01*
X003142Y002881D01*
X003020Y002881D01*
X002933Y002794D01*
X002933Y002672D01*
X003020Y002585D01*
X002960Y002645D02*
X002583Y002645D01*
X002583Y002683D02*
X002933Y002683D01*
X002933Y002721D02*
X002658Y002721D01*
X002696Y002759D02*
X002933Y002759D01*
X002936Y002797D02*
X002734Y002797D01*
X002741Y002835D02*
X002974Y002835D01*
X003011Y002872D02*
X002741Y002872D01*
X002741Y002910D02*
X004918Y002910D01*
X004918Y002872D02*
X003150Y002872D01*
X003188Y002835D02*
X004918Y002835D01*
X004927Y002797D02*
X003226Y002797D01*
X003228Y002759D02*
X004965Y002759D01*
X005003Y002721D02*
X003228Y002721D01*
X003228Y002683D02*
X003271Y002683D01*
X003233Y002645D02*
X003202Y002645D01*
X003223Y002607D02*
X003164Y002607D01*
X003469Y002683D02*
X005267Y002683D01*
X005252Y002645D02*
X003507Y002645D01*
X003518Y002607D02*
X005236Y002607D01*
X005283Y002721D02*
X005127Y002721D01*
X005165Y002759D02*
X005299Y002759D01*
X005304Y002772D02*
X005304Y002772D01*
X005372Y003289D01*
X005367Y003327D02*
X005335Y003327D01*
X005186Y003327D02*
X004624Y003327D01*
X004624Y003365D02*
X005148Y003365D01*
X005113Y003403D02*
X004620Y003403D01*
X004629Y003440D02*
X005113Y003440D01*
X005113Y003478D02*
X004667Y003478D01*
X004678Y003516D02*
X005113Y003516D01*
X005144Y003554D02*
X004678Y003554D01*
X004678Y003592D02*
X004997Y003592D01*
X004976Y003604D02*
X005021Y003578D01*
X005071Y003565D01*
X005098Y003565D01*
X005098Y003763D01*
X005098Y003763D01*
X005098Y003961D01*
X005071Y003961D01*
X005021Y003948D01*
X004976Y003922D01*
X004939Y003885D01*
X004913Y003840D01*
X004899Y003789D01*
X004899Y003763D01*
X005098Y003763D01*
X005098Y003763D01*
X004899Y003763D01*
X004899Y003737D01*
X004913Y003686D01*
X004939Y003641D01*
X004976Y003604D01*
X004950Y003630D02*
X004661Y003630D01*
X004623Y003668D02*
X004923Y003668D01*
X004907Y003706D02*
X003360Y003706D01*
X003353Y003668D02*
X004439Y003668D01*
X004401Y003630D02*
X004298Y003630D01*
X004281Y003646D02*
X004159Y003646D01*
X004072Y003560D01*
X004072Y003438D01*
X004159Y003351D01*
X004281Y003351D01*
X004368Y003438D01*
X004368Y003560D01*
X004281Y003646D01*
X004336Y003592D02*
X004383Y003592D01*
X004383Y003554D02*
X004368Y003554D01*
X004368Y003516D02*
X004383Y003516D01*
X004394Y003478D02*
X004368Y003478D01*
X004368Y003440D02*
X004371Y003440D01*
X004333Y003403D02*
X004333Y003403D01*
X004329Y003365D02*
X004295Y003365D01*
X004235Y003327D02*
X003345Y003327D01*
X003388Y003365D02*
X004145Y003365D01*
X004107Y003403D02*
X003412Y003403D01*
X003426Y003440D02*
X004072Y003440D01*
X004072Y003478D02*
X003433Y003478D01*
X003433Y003492D02*
X003234Y003492D01*
X003433Y003492D01*
X003433Y003516D02*
X004072Y003516D01*
X004072Y003554D02*
X003423Y003554D01*
X003406Y003592D02*
X004104Y003592D01*
X004142Y003630D02*
X003377Y003630D01*
X003353Y003653D02*
X003353Y003653D01*
X003398Y003743D02*
X004899Y003743D01*
X004899Y003781D02*
X003427Y003781D01*
X003427Y003819D02*
X004907Y003819D01*
X004923Y003857D02*
X003427Y003857D01*
X003427Y003895D02*
X004949Y003895D01*
X004995Y003933D02*
X003389Y003933D01*
X003351Y003971D02*
X005236Y003971D01*
X005220Y004009D02*
X002040Y004009D01*
X002050Y004046D02*
X004783Y004046D01*
X004772Y004053D02*
X004817Y004026D01*
X004868Y004013D01*
X004894Y004013D01*
X004920Y004013D01*
X004970Y004026D01*
X005016Y004053D01*
X005053Y004089D01*
X005079Y004135D01*
X005092Y004185D01*
X005092Y004211D01*
X004894Y004211D01*
X004894Y004013D01*
X004894Y004211D01*
X004894Y004211D01*
X004894Y004211D01*
X005092Y004211D01*
X005092Y004237D01*
X005079Y004288D01*
X005053Y004333D01*
X005016Y004370D01*
X004970Y004396D01*
X004920Y004410D01*
X004894Y004410D01*
X004894Y004211D01*
X004695Y004211D01*
X004695Y004185D01*
X004709Y004135D01*
X004735Y004089D01*
X004772Y004053D01*
X004740Y004084D02*
X004094Y004084D01*
X004060Y004050D02*
X004141Y004131D01*
X004151Y004121D01*
X004273Y004121D01*
X004331Y004180D01*
X004389Y004121D01*
X004512Y004121D01*
X004598Y004208D01*
X004598Y004330D01*
X004512Y004417D01*
X004389Y004417D01*
X004331Y004359D01*
X004273Y004417D01*
X004151Y004417D01*
X004070Y004336D01*
X004060Y004346D01*
X003938Y004346D01*
X003851Y004259D01*
X003851Y004137D01*
X003938Y004050D01*
X004060Y004050D01*
X004132Y004122D02*
X004150Y004122D01*
X004274Y004122D02*
X004388Y004122D01*
X004351Y004160D02*
X004311Y004160D01*
X004512Y004122D02*
X004716Y004122D01*
X004702Y004160D02*
X004550Y004160D01*
X004588Y004198D02*
X004695Y004198D01*
X004695Y004211D02*
X004894Y004211D01*
X004894Y004211D01*
X004894Y004211D01*
X004894Y004410D01*
X004868Y004410D01*
X004817Y004396D01*
X004772Y004370D01*
X004735Y004333D01*
X004709Y004288D01*
X004695Y004237D01*
X004695Y004211D01*
X004695Y004236D02*
X004598Y004236D01*
X004598Y004274D02*
X004705Y004274D01*
X004722Y004311D02*
X004598Y004311D01*
X004579Y004349D02*
X004751Y004349D01*
X004802Y004387D02*
X004541Y004387D01*
X004360Y004387D02*
X004302Y004387D01*
X004263Y004458D02*
X004218Y004432D01*
X004167Y004419D01*
X004141Y004419D01*
X004141Y004617D01*
X004141Y004617D01*
X003943Y004617D01*
X003943Y004591D01*
X003956Y004541D01*
X003982Y004495D01*
X004019Y004458D01*
X004065Y004432D01*
X004115Y004419D01*
X004141Y004419D01*
X004141Y004617D01*
X004141Y004617D01*
X003943Y004617D01*
X003943Y004643D01*
X003956Y004694D01*
X003982Y004739D01*
X004019Y004776D01*
X004065Y004802D01*
X004115Y004816D01*
X004141Y004816D01*
X004141Y004617D01*
X004141Y004617D01*
X004340Y004617D01*
X004340Y004591D01*
X004326Y004541D01*
X004300Y004495D01*
X004263Y004458D01*
X004268Y004463D02*
X004970Y004463D01*
X004941Y004501D02*
X004303Y004501D01*
X004325Y004539D02*
X004912Y004539D01*
X004883Y004577D02*
X004336Y004577D01*
X004340Y004614D02*
X004854Y004614D01*
X004825Y004652D02*
X004337Y004652D01*
X004340Y004643D02*
X004326Y004694D01*
X004300Y004739D01*
X004263Y004776D01*
X004218Y004802D01*
X004167Y004816D01*
X004141Y004816D01*
X004141Y004617D01*
X004141Y004617D01*
X004340Y004617D01*
X004340Y004643D01*
X004327Y004690D02*
X004796Y004690D01*
X004753Y004728D02*
X004306Y004728D01*
X004273Y004766D02*
X004703Y004766D01*
X004654Y004804D02*
X004211Y004804D01*
X004141Y004804D02*
X004141Y004804D01*
X004141Y004766D02*
X004141Y004766D01*
X004141Y004728D02*
X004141Y004728D01*
X004141Y004690D02*
X004141Y004690D01*
X004141Y004652D02*
X004141Y004652D01*
X004141Y004614D02*
X004141Y004614D01*
X004141Y004577D02*
X004141Y004577D01*
X004141Y004539D02*
X004141Y004539D01*
X004141Y004501D02*
X004141Y004501D01*
X004141Y004463D02*
X004141Y004463D01*
X004141Y004425D02*
X004141Y004425D01*
X004121Y004387D02*
X003958Y004387D01*
X003958Y004368D02*
X003871Y004282D01*
X003749Y004282D01*
X003663Y004368D01*
X003663Y004491D01*
X003749Y004577D01*
X003871Y004577D01*
X003958Y004491D01*
X003958Y004368D01*
X003939Y004349D02*
X004083Y004349D01*
X004091Y004425D02*
X003958Y004425D01*
X003958Y004463D02*
X004015Y004463D01*
X003979Y004501D02*
X003948Y004501D01*
X003957Y004539D02*
X003910Y004539D01*
X003872Y004577D02*
X003947Y004577D01*
X003943Y004614D02*
X002981Y004614D01*
X002973Y004622D02*
X002851Y004622D01*
X002795Y004566D01*
X002795Y004650D01*
X002708Y004737D01*
X002586Y004737D01*
X002499Y004650D01*
X002499Y004528D01*
X002586Y004441D01*
X002590Y004441D01*
X002590Y004320D01*
X002677Y004234D01*
X002799Y004234D01*
X002885Y004320D01*
X002885Y004327D01*
X002973Y004327D01*
X003060Y004413D01*
X003060Y004536D01*
X002973Y004622D01*
X003019Y004577D02*
X003749Y004577D01*
X003711Y004539D02*
X003057Y004539D01*
X003060Y004501D02*
X003673Y004501D01*
X003663Y004463D02*
X003060Y004463D01*
X003060Y004425D02*
X003663Y004425D01*
X003663Y004387D02*
X003034Y004387D01*
X002996Y004349D02*
X003682Y004349D01*
X003719Y004311D02*
X002876Y004311D01*
X002839Y004274D02*
X003866Y004274D01*
X003851Y004236D02*
X002801Y004236D01*
X002675Y004236D02*
X001623Y004236D01*
X001638Y004274D02*
X002637Y004274D01*
X002599Y004311D02*
X001662Y004311D01*
X001691Y004349D02*
X002590Y004349D01*
X002590Y004387D02*
X001979Y004387D01*
X002017Y004425D02*
X002590Y004425D01*
X002564Y004463D02*
X002034Y004463D01*
X002034Y004501D02*
X002526Y004501D01*
X002499Y004539D02*
X002034Y004539D01*
X002021Y004577D02*
X002499Y004577D01*
X002499Y004614D02*
X001983Y004614D01*
X001924Y004652D02*
X002502Y004652D01*
X002540Y004690D02*
X001953Y004690D01*
X001996Y004728D02*
X002577Y004728D01*
X002717Y004728D02*
X003976Y004728D01*
X003955Y004690D02*
X002755Y004690D01*
X002793Y004652D02*
X003945Y004652D01*
X004009Y004766D02*
X002045Y004766D01*
X002095Y004804D02*
X004071Y004804D01*
X004074Y004917D02*
X002837Y004917D01*
X002881Y004955D02*
X004036Y004955D01*
X004012Y004993D02*
X002906Y004993D01*
X002921Y005031D02*
X004012Y005031D01*
X004012Y005069D02*
X002929Y005069D01*
X002929Y005107D02*
X004017Y005107D01*
X004055Y005145D02*
X002920Y005145D01*
X002903Y005182D02*
X003979Y005182D01*
X003879Y005220D02*
X002875Y005220D01*
X002730Y005069D02*
X002730Y005069D01*
X002730Y005031D02*
X002730Y005031D01*
X002730Y004993D02*
X002730Y004993D01*
X002730Y004955D02*
X002730Y004955D01*
X002730Y004917D02*
X002730Y004917D01*
X002624Y004917D02*
X002243Y004917D01*
X002193Y004880D02*
X004555Y004880D01*
X004506Y004917D02*
X004246Y004917D01*
X004283Y004955D02*
X004456Y004955D01*
X004407Y004993D02*
X004307Y004993D01*
X004307Y005031D02*
X004345Y005031D01*
X004605Y004842D02*
X002144Y004842D01*
X002292Y004955D02*
X002579Y004955D01*
X002554Y004993D02*
X002341Y004993D01*
X002404Y005031D02*
X002539Y005031D01*
X002532Y005069D02*
X002495Y005069D01*
X002795Y004614D02*
X002843Y004614D01*
X002805Y004577D02*
X002795Y004577D01*
X003207Y003971D02*
X002002Y003971D01*
X001964Y003933D02*
X003170Y003933D01*
X003132Y003895D02*
X002602Y003895D01*
X002649Y003857D02*
X003132Y003857D01*
X003132Y003819D02*
X002676Y003819D01*
X002692Y003781D02*
X003132Y003781D01*
X003161Y003743D02*
X002701Y003743D01*
X002701Y003706D02*
X003199Y003706D01*
X003142Y003668D02*
X002693Y003668D01*
X002678Y003630D02*
X003092Y003630D01*
X003063Y003592D02*
X002652Y003592D01*
X002606Y003554D02*
X003046Y003554D01*
X003036Y003516D02*
X002405Y003516D01*
X002334Y003403D02*
X001845Y003403D01*
X001850Y003365D02*
X002313Y003365D01*
X002313Y003327D02*
X001850Y003327D01*
X001850Y003289D02*
X002313Y003289D01*
X002320Y003251D02*
X001826Y003251D01*
X001817Y003213D02*
X002358Y003213D01*
X002396Y003175D02*
X002130Y003175D01*
X002173Y003137D02*
X003162Y003137D01*
X003162Y003175D02*
X002528Y003175D01*
X002566Y003213D02*
X003162Y003213D01*
X003180Y003251D02*
X002604Y003251D01*
X002611Y003289D02*
X003218Y003289D01*
X003123Y003327D02*
X002611Y003327D01*
X002611Y003365D02*
X003081Y003365D01*
X003057Y003403D02*
X002590Y003403D01*
X002164Y003554D02*
X001411Y003554D01*
X001416Y003592D02*
X002156Y003592D01*
X002156Y003630D02*
X001421Y003630D01*
X001426Y003668D02*
X001659Y003668D01*
X001683Y003644D02*
X001596Y003730D01*
X001596Y003804D01*
X001526Y003804D01*
X001468Y003863D01*
X001445Y003806D01*
X001376Y003289D01*
X001381Y003251D02*
X001579Y003251D01*
X001616Y003213D02*
X001386Y003213D01*
X001391Y003175D02*
X001609Y003175D01*
X001584Y003137D02*
X001396Y003137D01*
X001401Y003100D02*
X001584Y003100D01*
X001584Y003062D02*
X001406Y003062D01*
X001411Y003024D02*
X001589Y003024D01*
X001627Y002986D02*
X001416Y002986D01*
X001421Y002948D02*
X001665Y002948D01*
X001679Y002872D02*
X001877Y002872D01*
X001869Y002835D02*
X001717Y002835D01*
X001744Y002797D02*
X001844Y002797D01*
X001849Y002910D02*
X001426Y002910D01*
X001431Y002872D02*
X001514Y002872D01*
X001476Y002835D02*
X001436Y002835D01*
X001441Y002797D02*
X001449Y002797D01*
X001513Y002607D02*
X001527Y002607D01*
X001528Y002569D02*
X001627Y002569D01*
X001653Y002532D02*
X001544Y002532D01*
X001560Y002494D02*
X001690Y002494D01*
X002165Y002569D02*
X002364Y002569D01*
X002327Y002607D02*
X002193Y002607D01*
X002210Y002645D02*
X002289Y002645D01*
X002288Y002683D02*
X002219Y002683D01*
X002219Y002721D02*
X002288Y002721D01*
X002288Y002759D02*
X002212Y002759D01*
X002197Y002797D02*
X002317Y002797D01*
X002355Y002835D02*
X002173Y002835D01*
X002164Y002872D02*
X002445Y002872D01*
X002445Y002910D02*
X002192Y002910D01*
X002209Y002948D02*
X002468Y002948D01*
X002506Y002986D02*
X002219Y002986D01*
X002219Y003024D02*
X003551Y003024D01*
X003525Y003062D02*
X003409Y003062D01*
X003446Y003100D02*
X003525Y003100D01*
X003525Y003137D02*
X003458Y003137D01*
X003458Y003175D02*
X003527Y003175D01*
X003565Y003213D02*
X003458Y003213D01*
X003440Y003251D02*
X003603Y003251D01*
X003742Y003251D02*
X004173Y003251D01*
X004173Y003213D02*
X003780Y003213D01*
X003818Y003175D02*
X004173Y003175D01*
X004178Y003137D02*
X003820Y003137D01*
X003820Y003100D02*
X004215Y003100D01*
X004197Y003289D02*
X003402Y003289D01*
X003234Y003492D02*
X003234Y003492D01*
X003174Y003100D02*
X002198Y003100D01*
X002212Y003062D02*
X003212Y003062D01*
X003589Y002986D02*
X002680Y002986D01*
X002718Y002948D02*
X004937Y002948D01*
X004975Y002986D02*
X003755Y002986D01*
X003904Y004084D02*
X002050Y004084D01*
X002050Y004122D02*
X003866Y004122D01*
X003851Y004160D02*
X002030Y004160D01*
X001992Y004198D02*
X003851Y004198D01*
X003901Y004311D02*
X003904Y004311D01*
X004191Y004425D02*
X004999Y004425D01*
X004986Y004387D02*
X005028Y004387D01*
X005036Y004349D02*
X005057Y004349D01*
X005065Y004311D02*
X005086Y004311D01*
X005083Y004274D02*
X005110Y004274D01*
X005126Y004236D02*
X005092Y004236D01*
X005092Y004198D02*
X005142Y004198D01*
X005157Y004160D02*
X005085Y004160D01*
X005071Y004122D02*
X005173Y004122D01*
X005189Y004084D02*
X005047Y004084D01*
X005005Y004046D02*
X005205Y004046D01*
X005200Y003933D02*
X005252Y003933D01*
X005246Y003895D02*
X005267Y003895D01*
X005272Y003857D02*
X005283Y003857D01*
X005288Y003819D02*
X005299Y003819D01*
X005296Y003781D02*
X005307Y003781D01*
X005312Y003743D02*
X005296Y003743D01*
X005288Y003706D02*
X005317Y003706D01*
X005322Y003668D02*
X005272Y003668D01*
X005245Y003630D02*
X005327Y003630D01*
X005098Y003630D02*
X005098Y003630D01*
X005098Y003668D02*
X005098Y003668D01*
X005098Y003706D02*
X005098Y003706D01*
X005098Y003743D02*
X005098Y003743D01*
X005098Y003781D02*
X005098Y003781D01*
X005098Y003819D02*
X005098Y003819D01*
X005098Y003857D02*
X005098Y003857D01*
X005098Y003895D02*
X005098Y003895D01*
X005098Y003933D02*
X005098Y003933D01*
X004894Y004046D02*
X004894Y004046D01*
X004894Y004084D02*
X004894Y004084D01*
X004894Y004122D02*
X004894Y004122D01*
X004894Y004160D02*
X004894Y004160D01*
X004894Y004198D02*
X004894Y004198D01*
X004894Y004236D02*
X004894Y004236D01*
X004894Y004274D02*
X004894Y004274D01*
X004894Y004311D02*
X004894Y004311D01*
X004894Y004349D02*
X004894Y004349D01*
X004894Y004387D02*
X004894Y004387D01*
X005098Y003592D02*
X005098Y003592D01*
X003591Y005258D02*
X003157Y005258D01*
X001793Y004387D02*
X001720Y004387D01*
X001749Y004425D02*
X001755Y004425D01*
X001812Y004198D02*
X001607Y004198D01*
X001591Y004160D02*
X001774Y004160D01*
X001754Y004122D02*
X001575Y004122D01*
X001664Y004084D02*
X001754Y004084D01*
X001754Y004046D02*
X001702Y004046D01*
X001735Y004009D02*
X001764Y004009D01*
X001735Y003971D02*
X001802Y003971D01*
X001805Y003939D02*
X001892Y003852D01*
X001892Y003730D01*
X001805Y003644D01*
X001683Y003644D01*
X001621Y003706D02*
X001431Y003706D01*
X001436Y003743D02*
X001596Y003743D01*
X001596Y003781D02*
X001441Y003781D01*
X001450Y003819D02*
X001511Y003819D01*
X001474Y003857D02*
X001466Y003857D01*
X001829Y003668D02*
X002156Y003668D01*
X002177Y003706D02*
X001867Y003706D01*
X001892Y003743D02*
X002215Y003743D01*
X002313Y003781D02*
X001892Y003781D01*
X001892Y003819D02*
X002329Y003819D01*
X002356Y003857D02*
X001887Y003857D01*
X001855Y003175D02*
X001911Y003175D01*
X002021Y003175D02*
X002021Y003175D01*
X002021Y003137D02*
X002021Y003137D01*
X002021Y003100D02*
X002021Y003100D01*
X002021Y003062D02*
X002021Y003062D01*
X002021Y003024D02*
X002021Y003024D01*
X001832Y002948D02*
X001799Y002948D01*
D12*
X002462Y003320D03*
M02*
