G75*
G70*
%OFA0B0*%
%FSLAX24Y24*%
%IPPOS*%
%LPD*%
%AMOC8*
5,1,8,0,0,1.08239X$1,22.5*
%
%ADD10C,0.0000*%
%ADD11C,0.0000*%
D10*
X001307Y003289D02*
X001309Y003390D01*
X001317Y003492D01*
X001329Y003592D01*
X001347Y003692D01*
X001369Y003791D01*
X001396Y003889D01*
X001428Y003985D01*
X001464Y004080D01*
X001505Y004173D01*
X001551Y004263D01*
X001601Y004352D01*
X001655Y004437D01*
X001714Y004520D01*
X001776Y004600D01*
X001842Y004677D01*
X001912Y004751D01*
X001986Y004821D01*
X002063Y004887D01*
X002143Y004949D01*
X002226Y005008D01*
X002311Y005062D01*
X002400Y005112D01*
X002490Y005158D01*
X002583Y005199D01*
X002678Y005235D01*
X002774Y005267D01*
X002872Y005294D01*
X002971Y005316D01*
X003071Y005334D01*
X003171Y005346D01*
X003273Y005354D01*
X003374Y005356D01*
X003475Y005354D01*
X003577Y005346D01*
X003677Y005334D01*
X003777Y005316D01*
X003876Y005294D01*
X003974Y005267D01*
X004070Y005235D01*
X004165Y005199D01*
X004258Y005158D01*
X004348Y005112D01*
X004437Y005062D01*
X004522Y005008D01*
X004605Y004949D01*
X004685Y004887D01*
X004762Y004821D01*
X004836Y004751D01*
X004906Y004677D01*
X004972Y004600D01*
X005034Y004520D01*
X005093Y004437D01*
X005147Y004352D01*
X005197Y004263D01*
X005243Y004173D01*
X005284Y004080D01*
X005320Y003985D01*
X005352Y003889D01*
X005379Y003791D01*
X005401Y003692D01*
X005419Y003592D01*
X005431Y003492D01*
X005439Y003390D01*
X005441Y003289D01*
X005439Y003188D01*
X005431Y003086D01*
X005419Y002986D01*
X005401Y002886D01*
X005379Y002787D01*
X005352Y002689D01*
X005320Y002593D01*
X005284Y002498D01*
X005243Y002405D01*
X005197Y002315D01*
X005147Y002226D01*
X005093Y002141D01*
X005034Y002058D01*
X004972Y001978D01*
X004906Y001901D01*
X004836Y001827D01*
X004762Y001757D01*
X004685Y001691D01*
X004605Y001629D01*
X004522Y001570D01*
X004437Y001516D01*
X004348Y001466D01*
X004258Y001420D01*
X004165Y001379D01*
X004070Y001343D01*
X003974Y001311D01*
X003876Y001284D01*
X003777Y001262D01*
X003677Y001244D01*
X003577Y001232D01*
X003475Y001224D01*
X003374Y001222D01*
X003273Y001224D01*
X003171Y001232D01*
X003071Y001244D01*
X002971Y001262D01*
X002872Y001284D01*
X002774Y001311D01*
X002678Y001343D01*
X002583Y001379D01*
X002490Y001420D01*
X002400Y001466D01*
X002311Y001516D01*
X002226Y001570D01*
X002143Y001629D01*
X002063Y001691D01*
X001986Y001757D01*
X001912Y001827D01*
X001842Y001901D01*
X001776Y001978D01*
X001714Y002058D01*
X001655Y002141D01*
X001601Y002226D01*
X001551Y002315D01*
X001505Y002405D01*
X001464Y002498D01*
X001428Y002593D01*
X001396Y002689D01*
X001369Y002787D01*
X001347Y002886D01*
X001329Y002986D01*
X001317Y003086D01*
X001309Y003188D01*
X001307Y003289D01*
D11*
X003284Y003682D02*
X003284Y003682D01*
M02*
