G75*
%MOIN*%
%OFA0B0*%
%FSLAX24Y24*%
%IPPOS*%
%LPD*%
%AMOC8*
5,1,8,0,0,1.08239X$1,22.5*
%
%ADD10C,0.0079*%
D10*
X000140Y002201D02*
X000142Y002291D01*
X000148Y002381D01*
X000158Y002470D01*
X000172Y002559D01*
X000189Y002647D01*
X000211Y002734D01*
X000236Y002821D01*
X000265Y002906D01*
X000298Y002990D01*
X000334Y003072D01*
X000374Y003152D01*
X000418Y003231D01*
X000465Y003308D01*
X000515Y003382D01*
X000569Y003455D01*
X000625Y003524D01*
X000685Y003592D01*
X000748Y003656D01*
X000813Y003718D01*
X000881Y003777D01*
X000951Y003833D01*
X001024Y003886D01*
X001099Y003935D01*
X001177Y003981D01*
X001256Y004024D01*
X001337Y004063D01*
X001419Y004099D01*
X001503Y004130D01*
X001589Y004159D01*
X001675Y004183D01*
X001763Y004204D01*
X001851Y004220D01*
X001940Y004233D01*
X002030Y004242D01*
X002120Y004247D01*
X002209Y004248D01*
X002299Y004245D01*
X002389Y004238D01*
X002478Y004227D01*
X002567Y004212D01*
X002655Y004194D01*
X002742Y004171D01*
X002828Y004145D01*
X002913Y004115D01*
X002996Y004081D01*
X003078Y004044D01*
X003158Y004003D01*
X003236Y003959D01*
X003313Y003911D01*
X003387Y003860D01*
X003458Y003805D01*
X003527Y003748D01*
X003594Y003688D01*
X003658Y003624D01*
X003719Y003558D01*
X003777Y003490D01*
X003832Y003419D01*
X003884Y003345D01*
X003933Y003270D01*
X003978Y003192D01*
X004020Y003112D01*
X004058Y003031D01*
X004093Y002948D01*
X004124Y002863D01*
X004151Y002778D01*
X004175Y002691D01*
X004194Y002603D01*
X004210Y002515D01*
X004222Y002425D01*
X004230Y002336D01*
X004234Y002246D01*
X004234Y002156D01*
X004230Y002066D01*
X004222Y001977D01*
X004210Y001887D01*
X004194Y001799D01*
X004175Y001711D01*
X004151Y001624D01*
X004124Y001539D01*
X004093Y001454D01*
X004058Y001371D01*
X004020Y001290D01*
X003978Y001210D01*
X003933Y001132D01*
X003884Y001057D01*
X003832Y000983D01*
X003777Y000912D01*
X003719Y000844D01*
X003658Y000778D01*
X003594Y000714D01*
X003527Y000654D01*
X003458Y000597D01*
X003387Y000542D01*
X003313Y000491D01*
X003236Y000443D01*
X003158Y000399D01*
X003078Y000358D01*
X002996Y000321D01*
X002913Y000287D01*
X002828Y000257D01*
X002742Y000231D01*
X002655Y000208D01*
X002567Y000190D01*
X002478Y000175D01*
X002389Y000164D01*
X002299Y000157D01*
X002209Y000154D01*
X002120Y000155D01*
X002030Y000160D01*
X001940Y000169D01*
X001851Y000182D01*
X001763Y000198D01*
X001675Y000219D01*
X001589Y000243D01*
X001503Y000272D01*
X001419Y000303D01*
X001337Y000339D01*
X001256Y000378D01*
X001177Y000421D01*
X001099Y000467D01*
X001024Y000516D01*
X000951Y000569D01*
X000881Y000625D01*
X000813Y000684D01*
X000748Y000746D01*
X000685Y000810D01*
X000625Y000878D01*
X000569Y000947D01*
X000515Y001020D01*
X000465Y001094D01*
X000418Y001171D01*
X000374Y001250D01*
X000334Y001330D01*
X000298Y001412D01*
X000265Y001496D01*
X000236Y001581D01*
X000211Y001668D01*
X000189Y001755D01*
X000172Y001843D01*
X000158Y001932D01*
X000148Y002021D01*
X000142Y002111D01*
X000140Y002201D01*
M02*
