G75*
%MOIN*%
%OFA0B0*%
%FSLAX24Y24*%
%IPPOS*%
%LPD*%
%AMOC8*
5,1,8,0,0,1.08239X$1,22.5*
%
%ADD10R,0.0316X0.0127*%
%ADD11R,0.0237X0.0434*%
%ADD12R,0.0237X0.0237*%
D10*
X001578Y001102D03*
X001578Y001259D03*
X001578Y001416D03*
X001578Y001574D03*
X001578Y001731D03*
X001578Y001889D03*
X001578Y002046D03*
X001578Y002204D03*
X001578Y002361D03*
X001578Y002519D03*
X001578Y002676D03*
X001578Y002834D03*
X001578Y002991D03*
X001578Y003149D03*
X001578Y003306D03*
X002798Y003306D03*
X002798Y003149D03*
X002798Y002991D03*
X002798Y002834D03*
X002798Y002676D03*
X002798Y002519D03*
X002798Y002361D03*
X002798Y002204D03*
X002798Y002046D03*
X002798Y001889D03*
X002798Y001731D03*
X002798Y001574D03*
X002798Y001416D03*
X002798Y001259D03*
X002798Y001102D03*
D11*
X001617Y000728D03*
X002759Y000728D03*
X002759Y003680D03*
X001617Y003680D03*
D12*
X001077Y002781D03*
X001076Y002429D03*
X000676Y002429D03*
X000677Y002781D03*
X003269Y001662D03*
X003628Y001655D03*
X003628Y001255D03*
X003269Y001262D03*
M02*
