G75*
%MOIN*%
%OFA0B0*%
%FSLAX24Y24*%
%IPPOS*%
%LPD*%
%AMOC8*
5,1,8,0,0,1.08239X$1,22.5*
%
%ADD10C,0.0118*%
%ADD11C,0.0050*%
%ADD12C,0.0060*%
%ADD13C,0.0030*%
D10*
X001259Y003727D02*
X001261Y003748D01*
X001267Y003768D01*
X001276Y003788D01*
X001288Y003805D01*
X001303Y003819D01*
X001321Y003831D01*
X001341Y003839D01*
X001361Y003844D01*
X001382Y003845D01*
X001403Y003842D01*
X001423Y003836D01*
X001442Y003825D01*
X001459Y003812D01*
X001472Y003796D01*
X001483Y003778D01*
X001491Y003758D01*
X001495Y003738D01*
X001495Y003716D01*
X001491Y003696D01*
X001483Y003676D01*
X001472Y003658D01*
X001459Y003642D01*
X001442Y003629D01*
X001423Y003618D01*
X001403Y003612D01*
X001382Y003609D01*
X001361Y003610D01*
X001341Y003615D01*
X001321Y003623D01*
X001303Y003635D01*
X001288Y003649D01*
X001276Y003666D01*
X001267Y003686D01*
X001261Y003706D01*
X001259Y003727D01*
D11*
X000125Y002172D02*
X000127Y002262D01*
X000133Y002352D01*
X000143Y002441D01*
X000157Y002530D01*
X000174Y002618D01*
X000196Y002705D01*
X000221Y002792D01*
X000250Y002877D01*
X000283Y002961D01*
X000319Y003043D01*
X000359Y003123D01*
X000403Y003202D01*
X000450Y003279D01*
X000500Y003353D01*
X000554Y003426D01*
X000610Y003495D01*
X000670Y003563D01*
X000733Y003627D01*
X000798Y003689D01*
X000866Y003748D01*
X000936Y003804D01*
X001009Y003857D01*
X001084Y003906D01*
X001162Y003952D01*
X001241Y003995D01*
X001322Y004034D01*
X001404Y004070D01*
X001488Y004101D01*
X001574Y004130D01*
X001660Y004154D01*
X001748Y004175D01*
X001836Y004191D01*
X001925Y004204D01*
X002015Y004213D01*
X002105Y004218D01*
X002194Y004219D01*
X002284Y004216D01*
X002374Y004209D01*
X002463Y004198D01*
X002552Y004183D01*
X002640Y004165D01*
X002727Y004142D01*
X002813Y004116D01*
X002898Y004086D01*
X002981Y004052D01*
X003063Y004015D01*
X003143Y003974D01*
X003221Y003930D01*
X003298Y003882D01*
X003372Y003831D01*
X003443Y003776D01*
X003512Y003719D01*
X003579Y003659D01*
X003643Y003595D01*
X003704Y003529D01*
X003762Y003461D01*
X003817Y003390D01*
X003869Y003316D01*
X003918Y003241D01*
X003963Y003163D01*
X004005Y003083D01*
X004043Y003002D01*
X004078Y002919D01*
X004109Y002834D01*
X004136Y002749D01*
X004160Y002662D01*
X004179Y002574D01*
X004195Y002486D01*
X004207Y002396D01*
X004215Y002307D01*
X004219Y002217D01*
X004219Y002127D01*
X004215Y002037D01*
X004207Y001948D01*
X004195Y001858D01*
X004179Y001770D01*
X004160Y001682D01*
X004136Y001595D01*
X004109Y001510D01*
X004078Y001425D01*
X004043Y001342D01*
X004005Y001261D01*
X003963Y001181D01*
X003918Y001103D01*
X003869Y001028D01*
X003817Y000954D01*
X003762Y000883D01*
X003704Y000815D01*
X003643Y000749D01*
X003579Y000685D01*
X003512Y000625D01*
X003443Y000568D01*
X003372Y000513D01*
X003298Y000462D01*
X003221Y000414D01*
X003143Y000370D01*
X003063Y000329D01*
X002981Y000292D01*
X002898Y000258D01*
X002813Y000228D01*
X002727Y000202D01*
X002640Y000179D01*
X002552Y000161D01*
X002463Y000146D01*
X002374Y000135D01*
X002284Y000128D01*
X002194Y000125D01*
X002105Y000126D01*
X002015Y000131D01*
X001925Y000140D01*
X001836Y000153D01*
X001748Y000169D01*
X001660Y000190D01*
X001574Y000214D01*
X001488Y000243D01*
X001404Y000274D01*
X001322Y000310D01*
X001241Y000349D01*
X001162Y000392D01*
X001084Y000438D01*
X001009Y000487D01*
X000936Y000540D01*
X000866Y000596D01*
X000798Y000655D01*
X000733Y000717D01*
X000670Y000781D01*
X000610Y000849D01*
X000554Y000918D01*
X000500Y000991D01*
X000450Y001065D01*
X000403Y001142D01*
X000359Y001221D01*
X000319Y001301D01*
X000283Y001383D01*
X000250Y001467D01*
X000221Y001552D01*
X000196Y001639D01*
X000174Y001726D01*
X000157Y001814D01*
X000143Y001903D01*
X000133Y001992D01*
X000127Y002082D01*
X000125Y002172D01*
D12*
X001582Y001196D02*
X002762Y001196D01*
X002762Y003156D02*
X001582Y003156D01*
D13*
X002922Y001459D02*
X003235Y001145D01*
X003235Y001302D02*
X002922Y001302D01*
X002922Y001145D02*
X003235Y001459D01*
X003078Y001459D02*
X003078Y001145D01*
M02*
