G75*
%MOIN*%
%OFA0B0*%
%FSLAX24Y24*%
%IPPOS*%
%LPD*%
%AMOC8*
5,1,8,0,0,1.08239X$1,22.5*
%
%ADD10R,0.0276X0.0087*%
%ADD11R,0.0197X0.0394*%
%ADD12R,0.0197X0.0197*%
%ADD13C,0.0079*%
%ADD14C,0.0050*%
%ADD15C,0.0240*%
D10*
X001562Y001070D03*
X001562Y001227D03*
X001562Y001385D03*
X001562Y001542D03*
X001562Y001700D03*
X001562Y001857D03*
X001562Y002015D03*
X001562Y002172D03*
X001562Y002330D03*
X001562Y002487D03*
X001562Y002645D03*
X001562Y002802D03*
X001562Y002960D03*
X001562Y003117D03*
X001562Y003275D03*
X002782Y003275D03*
X002782Y003117D03*
X002782Y002960D03*
X002782Y002802D03*
X002782Y002645D03*
X002782Y002487D03*
X002782Y002330D03*
X002782Y002172D03*
X002782Y002015D03*
X002782Y001857D03*
X002782Y001700D03*
X002782Y001542D03*
X002782Y001385D03*
X002782Y001227D03*
X002782Y001070D03*
D11*
X002743Y000696D03*
X001601Y000696D03*
X001601Y003649D03*
X002743Y003649D03*
D12*
X001164Y002964D03*
X000764Y002964D03*
X000752Y002558D03*
X001152Y002558D03*
D13*
X000559Y001241D02*
X000855Y000855D01*
X001241Y000559D01*
X001364Y000508D01*
X001364Y000686D01*
X001592Y000686D01*
X001592Y000706D01*
X001364Y000706D01*
X001364Y000867D01*
X001358Y000867D01*
X001265Y000961D01*
X001265Y001043D01*
X000757Y001043D01*
X000559Y001242D01*
X000559Y001241D01*
X000615Y001168D02*
X000632Y001168D01*
X000674Y001091D02*
X000709Y001091D01*
X000733Y001014D02*
X001265Y001014D01*
X001289Y000936D02*
X000793Y000936D01*
X000852Y000859D02*
X001364Y000859D01*
X001364Y000782D02*
X000950Y000782D01*
X001051Y000705D02*
X001592Y000705D01*
X001611Y000705D02*
X002733Y000705D01*
X002733Y000706D02*
X002733Y000686D01*
X002505Y000686D01*
X002505Y000481D01*
X002515Y000445D01*
X002533Y000413D01*
X002559Y000387D01*
X002591Y000369D01*
X002603Y000366D01*
X002172Y000309D01*
X001742Y000366D01*
X001754Y000369D01*
X001785Y000387D01*
X001811Y000413D01*
X001830Y000445D01*
X001839Y000481D01*
X001839Y000686D01*
X001611Y000686D01*
X001611Y000706D01*
X001839Y000706D01*
X001839Y000911D01*
X001833Y000934D01*
X001859Y000961D01*
X001859Y003069D01*
X001842Y003086D01*
X001861Y003086D01*
X001919Y003050D01*
X001935Y003034D01*
X001965Y003021D01*
X002011Y002993D01*
X002025Y002996D01*
X002038Y002991D01*
X002149Y002991D01*
X002252Y003034D01*
X002330Y003112D01*
X002373Y003215D01*
X002373Y003326D01*
X002330Y003429D01*
X002252Y003508D01*
X002149Y003550D01*
X002038Y003550D01*
X002025Y003545D01*
X002011Y003548D01*
X002011Y003548D01*
X002011Y003548D01*
X001988Y003534D01*
X001965Y003520D01*
X001935Y003508D01*
X001919Y003491D01*
X001861Y003455D01*
X001839Y003455D01*
X001839Y003639D01*
X001611Y003639D01*
X001611Y003658D01*
X001839Y003658D01*
X001839Y003864D01*
X001830Y003899D01*
X001811Y003931D01*
X001785Y003957D01*
X001754Y003975D01*
X001742Y003978D01*
X002172Y004035D01*
X002603Y003978D01*
X002591Y003975D01*
X002559Y003957D01*
X002533Y003931D01*
X002515Y003899D01*
X002505Y003864D01*
X002505Y003658D01*
X002733Y003658D01*
X002733Y003639D01*
X002505Y003639D01*
X002505Y003433D01*
X002512Y003410D01*
X002485Y003384D01*
X002485Y001276D01*
X002505Y001256D01*
X002505Y001227D01*
X002505Y001199D01*
X002485Y001179D01*
X002485Y000961D01*
X002512Y000934D01*
X002505Y000911D01*
X002505Y000706D01*
X002733Y000706D01*
X002753Y000706D02*
X002753Y000686D01*
X002981Y000686D01*
X002981Y000508D01*
X003104Y000559D01*
X003489Y000855D01*
X003786Y001241D01*
X003972Y001690D01*
X004035Y002172D01*
X003972Y002654D01*
X003786Y003104D01*
X003489Y003489D01*
X003104Y003786D01*
X002981Y003836D01*
X002981Y003658D01*
X002753Y003658D01*
X002753Y003639D01*
X002981Y003639D01*
X002981Y003477D01*
X002986Y003477D01*
X003080Y003384D01*
X003080Y001693D01*
X003152Y001723D01*
X003263Y001723D01*
X003366Y001681D01*
X003445Y001602D01*
X003487Y001499D01*
X003487Y001388D01*
X003482Y001376D01*
X003485Y001361D01*
X003485Y001361D01*
X003471Y001338D01*
X003457Y001316D01*
X003445Y001286D01*
X003428Y001269D01*
X003392Y001211D01*
X003392Y001179D01*
X003373Y001159D01*
X003370Y001148D01*
X003347Y001133D01*
X003338Y001125D01*
X003324Y001102D01*
X003313Y001099D01*
X003284Y001071D01*
X003095Y000882D01*
X003001Y000882D01*
X002986Y000867D01*
X002981Y000867D01*
X002981Y000706D01*
X002753Y000706D01*
X002753Y000705D02*
X003294Y000705D01*
X003193Y000627D02*
X002981Y000627D01*
X002981Y000550D02*
X003083Y000550D01*
X002981Y000782D02*
X003394Y000782D01*
X003493Y000859D02*
X002981Y000859D01*
X003150Y000936D02*
X003552Y000936D01*
X003611Y001014D02*
X003227Y001014D01*
X003304Y001091D02*
X003670Y001091D01*
X003730Y001168D02*
X003382Y001168D01*
X003413Y001245D02*
X003787Y001245D01*
X003819Y001323D02*
X003461Y001323D01*
X003485Y001361D02*
X003485Y001361D01*
X003487Y001400D02*
X003851Y001400D01*
X003883Y001477D02*
X003487Y001477D01*
X003464Y001554D02*
X003915Y001554D01*
X003947Y001632D02*
X003415Y001632D01*
X003298Y001709D02*
X003974Y001709D01*
X003972Y001690D02*
X003972Y001690D01*
X003984Y001786D02*
X003080Y001786D01*
X003080Y001863D02*
X003994Y001863D01*
X004005Y001941D02*
X003080Y001941D01*
X003080Y002018D02*
X004015Y002018D01*
X004025Y002095D02*
X003080Y002095D01*
X003080Y002172D02*
X004035Y002172D01*
X004025Y002249D02*
X003080Y002249D01*
X003080Y002327D02*
X004015Y002327D01*
X004005Y002404D02*
X003080Y002404D01*
X003080Y002481D02*
X003994Y002481D01*
X003984Y002558D02*
X003080Y002558D01*
X003080Y002636D02*
X003974Y002636D01*
X003947Y002713D02*
X003080Y002713D01*
X003080Y002790D02*
X003915Y002790D01*
X003883Y002867D02*
X003080Y002867D01*
X003080Y002945D02*
X003851Y002945D01*
X003819Y003022D02*
X003080Y003022D01*
X003080Y003099D02*
X003787Y003099D01*
X003730Y003176D02*
X003080Y003176D01*
X003080Y003254D02*
X003670Y003254D01*
X003611Y003331D02*
X003080Y003331D01*
X003055Y003408D02*
X003552Y003408D01*
X003493Y003485D02*
X002981Y003485D01*
X002981Y003563D02*
X003394Y003563D01*
X003294Y003640D02*
X002753Y003640D01*
X002733Y003640D02*
X001611Y003640D01*
X001592Y003640D02*
X001051Y003640D01*
X001152Y003717D02*
X001364Y003717D01*
X001364Y003658D02*
X001592Y003658D01*
X001592Y003639D01*
X001364Y003639D01*
X001364Y003477D01*
X001358Y003477D01*
X001265Y003384D01*
X001265Y003221D01*
X001089Y003221D01*
X001089Y003287D01*
X001047Y003390D01*
X000968Y003468D01*
X000877Y003506D01*
X001241Y003786D01*
X001364Y003836D01*
X001364Y003658D01*
X001364Y003563D02*
X000950Y003563D01*
X000927Y003485D02*
X001364Y003485D01*
X001289Y003408D02*
X001028Y003408D01*
X001071Y003331D02*
X001265Y003331D01*
X001265Y003254D02*
X001089Y003254D01*
X001262Y003794D02*
X001364Y003794D01*
X001794Y003949D02*
X002551Y003949D01*
X002507Y003872D02*
X001837Y003872D01*
X001839Y003794D02*
X002505Y003794D01*
X002505Y003717D02*
X001839Y003717D01*
X001839Y003563D02*
X002505Y003563D01*
X002505Y003485D02*
X002274Y003485D01*
X002339Y003408D02*
X002509Y003408D01*
X002485Y003331D02*
X002371Y003331D01*
X002373Y003254D02*
X002485Y003254D01*
X002485Y003176D02*
X002357Y003176D01*
X002317Y003099D02*
X002485Y003099D01*
X002485Y003022D02*
X002223Y003022D01*
X001964Y003022D02*
X001859Y003022D01*
X001859Y002945D02*
X002485Y002945D01*
X002485Y002867D02*
X001859Y002867D01*
X001859Y002790D02*
X002485Y002790D01*
X002485Y002713D02*
X001859Y002713D01*
X001859Y002636D02*
X002485Y002636D01*
X002485Y002558D02*
X001859Y002558D01*
X001859Y002481D02*
X002485Y002481D01*
X002485Y002404D02*
X001859Y002404D01*
X001859Y002327D02*
X002485Y002327D01*
X002485Y002249D02*
X001859Y002249D01*
X001859Y002172D02*
X002485Y002172D01*
X002485Y002095D02*
X001859Y002095D01*
X001859Y002018D02*
X002485Y002018D01*
X002485Y001941D02*
X001859Y001941D01*
X001859Y001863D02*
X002485Y001863D01*
X002485Y001786D02*
X001859Y001786D01*
X001859Y001709D02*
X002485Y001709D01*
X002485Y001632D02*
X001859Y001632D01*
X001859Y001554D02*
X002485Y001554D01*
X002485Y001477D02*
X001859Y001477D01*
X001859Y001400D02*
X002485Y001400D01*
X002485Y001323D02*
X001859Y001323D01*
X001859Y001245D02*
X002505Y001245D01*
X002505Y001227D02*
X002533Y001227D01*
X002505Y001227D01*
X002533Y001227D02*
X002533Y001227D01*
X002533Y001227D01*
X002485Y001168D02*
X001859Y001168D01*
X001859Y001091D02*
X002485Y001091D01*
X002485Y001014D02*
X001859Y001014D01*
X001835Y000936D02*
X002509Y000936D01*
X002505Y000859D02*
X001839Y000859D01*
X001839Y000782D02*
X002505Y000782D01*
X002505Y000627D02*
X001839Y000627D01*
X001839Y000550D02*
X002505Y000550D01*
X002507Y000473D02*
X001837Y000473D01*
X001794Y000396D02*
X002551Y000396D01*
X002241Y000318D02*
X002103Y000318D01*
X001364Y000550D02*
X001262Y000550D01*
X001364Y000627D02*
X001152Y000627D01*
X003080Y001709D02*
X003117Y001709D01*
X001910Y003485D02*
X001839Y003485D01*
X002103Y004026D02*
X002241Y004026D01*
X002981Y003794D02*
X003083Y003794D01*
X002981Y003717D02*
X003193Y003717D01*
D14*
X003015Y003645D02*
X003590Y003070D01*
X003590Y002585D01*
X003670Y002455D01*
X003590Y002405D01*
X003509Y002455D01*
X003590Y002585D01*
X003590Y002405D01*
X003208Y001444D02*
X003127Y001394D01*
X003208Y001264D01*
X003288Y001394D01*
X003208Y001444D01*
X003208Y001264D01*
X003208Y001255D01*
X003019Y001066D01*
X002786Y001066D01*
X002782Y001070D01*
X002775Y001219D02*
X002771Y001223D01*
X002775Y001219D02*
X002782Y001227D01*
X002322Y001227D01*
X002218Y001115D01*
X002149Y001180D01*
X002176Y001271D01*
X002322Y001227D01*
X002196Y001227D01*
X002149Y001180D01*
X001601Y000696D02*
X002743Y000696D01*
X001562Y001227D02*
X000834Y001227D01*
X000471Y001590D01*
X000471Y001944D01*
X000696Y002168D01*
X000956Y002168D01*
X001133Y002345D01*
X001133Y002539D01*
X001152Y002558D01*
X001286Y002806D02*
X001562Y002802D01*
X001286Y002806D02*
X001164Y002964D01*
X001385Y003113D02*
X001243Y003255D01*
X001243Y003479D01*
X001412Y003649D01*
X001601Y003649D01*
X001992Y003649D01*
X002122Y003729D01*
X002172Y003649D01*
X002122Y003568D01*
X001992Y003649D01*
X002172Y003649D01*
X002222Y003568D01*
X002352Y003649D01*
X002222Y003729D01*
X002172Y003649D01*
X002352Y003649D01*
X002743Y003649D01*
X002747Y003645D01*
X003015Y003645D01*
X002094Y003271D02*
X002043Y003351D01*
X001914Y003271D01*
X002043Y003190D01*
X002094Y003271D01*
X001914Y003271D01*
X001566Y003271D01*
X001562Y003275D01*
X001562Y003117D02*
X001558Y003113D01*
X001385Y003113D01*
X000875Y003162D02*
X000810Y003231D01*
X000719Y003204D01*
X000764Y003057D01*
X000875Y003162D01*
X000810Y003231D02*
X000764Y003185D01*
X000764Y003057D01*
X000764Y002964D01*
X000764Y002558D01*
X000752Y002558D01*
X000830Y002019D02*
X000653Y001842D01*
X000653Y001629D01*
X000826Y001456D01*
X001243Y001456D01*
X001326Y001538D01*
X001558Y001538D01*
X001562Y001542D01*
X001562Y001700D02*
X001144Y001700D01*
X001014Y001619D01*
X000964Y001700D01*
X001014Y001780D01*
X001144Y001700D01*
X000964Y001700D01*
X001122Y001887D02*
X001204Y001936D01*
X001196Y002031D01*
X001044Y002019D01*
X001122Y001887D01*
X001192Y001936D02*
X001204Y001936D01*
X001192Y001936D02*
X001109Y002019D01*
X001044Y002019D01*
X000830Y002019D01*
D15*
X000964Y001700D03*
X001204Y001936D03*
X002149Y001180D03*
X002156Y000708D03*
X003208Y001444D03*
X003590Y002405D03*
X002172Y003649D03*
X002094Y003271D03*
X000810Y003231D03*
M02*
