%
M48
M72
T01C0.0080
%
T01
X12209Y1171
X13669Y1157
X12989Y1329
X13671Y1486
X14469Y1324
X12209Y1485
X11864Y1601
X12980Y1642
X13367Y1801
X13671Y1803
X12989Y1956
X11867Y1888
X12209Y1799
X14456Y1645
X17966Y1800
X18316Y1956
X19317Y1800
X20395Y1803
X20673Y1959
X19002Y2112
X19705Y2271
X20709Y2275
X20395Y2431
X19001Y2429
X18136Y2273
X18141Y2586
X19001Y2743
X18316Y2901
X19345Y3063
X20399Y3059
X19705Y3219
X19007Y3226
X18317Y3376
X20399Y3376
X25494Y3376
X26906Y3378
X27576Y3222
X26904Y3063
X26155Y3218
X25494Y3057
X26177Y2904
X25494Y2747
X25207Y2590
X26458Y2588
X27575Y2588
X27836Y2588
X26918Y2744
X27837Y2904
X31047Y2745
X32155Y2674
X32467Y2588
X33449Y2589
X33128Y2744
X31798Y2588
X31051Y2431
X30758Y2428
X31798Y2274
X32458Y2274
X33452Y2276
X33121Y2432
X31046Y2114
X30778Y2116
X31771Y1957
X32467Y1957
X33456Y1958
X33122Y1802
X32467Y1644
X32100Y1643
X31705Y1642
X31049Y1801
X30750Y1801
X27836Y1958
X26917Y1799
X26537Y1958
X26156Y1962
X25494Y1799
X25223Y1799
X26391Y1641
X27574Y1643
X26917Y1481
X27579Y1321
X26918Y1156
X27873Y1118
X26211Y929
X26291Y581
X26807Y580
X31821Y576
X32340Y590
X33412Y1088
X33127Y1168
X32460Y1325
X31826Y1328
X30743Y1328
X31049Y1485
X33125Y1487
X31049Y1171
X25494Y1484
X25264Y1329
X20678Y1639
X19669Y1644
X18999Y1641
X18138Y1488
X19701Y1325
X20391Y1484
X20398Y1171
X20646Y1169
X19094Y1166
X18260Y989
X19134Y635
X19621Y635
X13617Y635
X13098Y638
X12209Y2117
X11872Y2177
X12989Y2271
X13671Y2429
X14456Y2273
X12209Y2433
X11874Y2461
X12989Y2588
X13667Y2752
X14456Y2587
X12207Y2752
X11876Y2733
X12226Y3067
X13003Y3219
X13671Y3061
X14456Y3216
X13671Y3376
X12235Y3374
X13098Y3945
X13599Y3944
X19104Y3954
X19638Y3941
X26274Y4017
X26810Y4026
X31842Y4089
X32355Y4084
X37860Y4053
X38369Y4065
X33132Y3376
X32465Y3229
X31711Y3215
X31049Y3062
X32447Y2915
X33127Y3059
X31049Y3389
X37058Y3373
X37955Y3215
X38469Y3216
X39136Y3375
X39137Y3061
X39666Y2949
X39139Y2746
X38469Y2589
X39860Y2512
X39139Y2428
X38469Y2275
X37060Y2114
X38468Y1956
X39137Y1796
X37879Y1642
X38469Y1640
X39141Y1483
X38475Y1322
X37758Y1328
X37060Y1481
X37060Y1801
X37056Y2431
X37062Y2744
X37061Y3061
X27836Y2272
X27575Y2272
X26915Y2429
X26158Y2277
X25494Y2434
X25494Y2120
X19705Y2586
X20393Y2744
X20670Y2747
X39140Y1166
X37881Y613
X38327Y606
X45435Y1486
X46228Y1865
X48306Y1849
X49574Y2078
X49579Y2457
X48703Y2512
X48059Y2745
X49580Y2833
X47421Y2948
M30
