G75*
G70*
%OFA0B0*%
%FSLAX24Y24*%
%IPPOS*%
%LPD*%
%AMOC8*
5,1,8,0,0,1.08239X$1,22.5*
%
%ADD10R,0.0424X0.0117*%
%ADD11R,0.0424X0.0424*%
%ADD12R,0.1526X0.0306*%
D10*
X012642Y001171D03*
X014060Y001171D03*
X014060Y001328D03*
X014060Y001486D03*
X012642Y001486D03*
X012642Y001328D03*
X012642Y001643D03*
X012642Y001801D03*
X012642Y001958D03*
X014060Y001958D03*
X014060Y001801D03*
X014060Y001643D03*
X018648Y001643D03*
X020066Y001643D03*
X020066Y001801D03*
X018648Y001801D03*
X018648Y001958D03*
X020066Y001958D03*
X020066Y002116D03*
X018648Y002116D03*
X018648Y002273D03*
X020066Y002273D03*
X020066Y002431D03*
X018648Y002431D03*
X018648Y002588D03*
X020066Y002588D03*
X020066Y002746D03*
X018648Y002746D03*
X018648Y002903D03*
X020066Y002903D03*
X020066Y003061D03*
X018648Y003061D03*
X018648Y003218D03*
X020066Y003218D03*
X020066Y003376D03*
X018648Y003376D03*
X014060Y003376D03*
X012642Y003376D03*
X012642Y003218D03*
X012642Y003061D03*
X014060Y003061D03*
X014060Y003218D03*
X014060Y002903D03*
X014060Y002746D03*
X014060Y002588D03*
X012642Y002588D03*
X012642Y002746D03*
X012642Y002903D03*
X012642Y002431D03*
X012642Y002273D03*
X012642Y002116D03*
X014060Y002116D03*
X014060Y002273D03*
X014060Y002431D03*
X018648Y001486D03*
X020066Y001486D03*
X020066Y001328D03*
X018648Y001328D03*
X018648Y001171D03*
X020066Y001171D03*
X025829Y001171D03*
X027246Y001171D03*
X027246Y001328D03*
X025829Y001328D03*
X025829Y001486D03*
X027246Y001486D03*
X027246Y001643D03*
X025829Y001643D03*
X025829Y001801D03*
X027246Y001801D03*
X027246Y001958D03*
X025829Y001958D03*
X025829Y002116D03*
X027246Y002116D03*
X027246Y002273D03*
X025829Y002273D03*
X025829Y002431D03*
X027246Y002431D03*
X027246Y002588D03*
X025829Y002588D03*
X025829Y002746D03*
X027246Y002746D03*
X027246Y002903D03*
X025829Y002903D03*
X025829Y003061D03*
X027246Y003061D03*
X027246Y003218D03*
X025829Y003218D03*
X025829Y003376D03*
X027246Y003376D03*
X031378Y003376D03*
X032795Y003376D03*
X032795Y003218D03*
X032795Y003061D03*
X031378Y003061D03*
X031378Y003218D03*
X031378Y002903D03*
X031378Y002746D03*
X031378Y002588D03*
X032795Y002588D03*
X032795Y002746D03*
X032795Y002903D03*
X037389Y002903D03*
X037389Y002746D03*
X037389Y002588D03*
X038807Y002588D03*
X038807Y002746D03*
X038807Y002903D03*
X038807Y003061D03*
X038807Y003218D03*
X037389Y003218D03*
X037389Y003061D03*
X037389Y003376D03*
X038807Y003376D03*
X038807Y002431D03*
X038807Y002273D03*
X038807Y002116D03*
X037389Y002116D03*
X037389Y002273D03*
X037389Y002431D03*
X032795Y002431D03*
X032795Y002273D03*
X032795Y002116D03*
X031378Y002116D03*
X031378Y002273D03*
X031378Y002431D03*
X031378Y001958D03*
X031378Y001801D03*
X031378Y001643D03*
X032795Y001643D03*
X032795Y001801D03*
X032795Y001958D03*
X037389Y001958D03*
X037389Y001801D03*
X037389Y001643D03*
X038807Y001643D03*
X038807Y001801D03*
X038807Y001958D03*
X038807Y001486D03*
X038807Y001328D03*
X037389Y001328D03*
X037389Y001486D03*
X037389Y001171D03*
X038807Y001171D03*
X032795Y001171D03*
X031378Y001171D03*
X031378Y001328D03*
X031378Y001486D03*
X032795Y001486D03*
X032795Y001328D03*
D11*
X032795Y000777D03*
X031378Y000777D03*
X027246Y000777D03*
X025829Y000777D03*
X020066Y000777D03*
X018648Y000777D03*
X014060Y000777D03*
X012642Y000777D03*
X037389Y000777D03*
X038807Y000777D03*
X038807Y003769D03*
X037389Y003769D03*
X032795Y003769D03*
X031378Y003769D03*
X027246Y003769D03*
X025829Y003769D03*
X020066Y003769D03*
X018648Y003769D03*
X014060Y003769D03*
X012642Y003769D03*
D12*
X000947Y000502D03*
X000947Y000895D03*
X000947Y001289D03*
X000947Y001683D03*
X000947Y002076D03*
X000947Y002470D03*
X000947Y002864D03*
X000947Y003257D03*
X000947Y003651D03*
X000947Y004045D03*
X050553Y004045D03*
X050553Y003651D03*
X050553Y003257D03*
X050553Y002864D03*
X050553Y002470D03*
X050553Y002076D03*
X050553Y001683D03*
X050553Y001289D03*
X050553Y000895D03*
X050553Y000502D03*
M02*
