G75*
G70*
%OFA0B0*%
%FSLAX24Y24*%
%IPPOS*%
%LPD*%
%AMOC8*
5,1,8,0,0,1.08239X$1,22.5*
%
%ADD10C,0.0200*%
%ADD11C,0.0039*%
%ADD12C,0.0040*%
D10*
X012209Y001171D03*
X013669Y001157D03*
X012989Y001329D03*
X013671Y001486D03*
X014469Y001324D03*
X012209Y001485D03*
X011864Y001601D03*
X012980Y001642D03*
X013367Y001801D03*
X013671Y001803D03*
X012989Y001956D03*
X011867Y001888D03*
X012209Y001799D03*
X014456Y001645D03*
X017966Y001800D03*
X018316Y001956D03*
X019317Y001800D03*
X020395Y001803D03*
X020673Y001959D03*
X019002Y002112D03*
X019705Y002271D03*
X020709Y002275D03*
X020395Y002431D03*
X019001Y002429D03*
X018136Y002273D03*
X018141Y002586D03*
X019001Y002743D03*
X018316Y002901D03*
X019345Y003063D03*
X020399Y003059D03*
X019705Y003219D03*
X019007Y003226D03*
X018317Y003376D03*
X020399Y003376D03*
X025494Y003376D03*
X026906Y003378D03*
X027576Y003222D03*
X026904Y003063D03*
X026155Y003218D03*
X025494Y003057D03*
X026177Y002904D03*
X025494Y002747D03*
X025207Y002590D03*
X026458Y002588D03*
X027575Y002588D03*
X027836Y002588D03*
X026918Y002744D03*
X027837Y002904D03*
X031047Y002745D03*
X032155Y002674D03*
X032467Y002588D03*
X033449Y002589D03*
X033128Y002744D03*
X031798Y002588D03*
X031051Y002431D03*
X030758Y002428D03*
X031798Y002274D03*
X032458Y002274D03*
X033452Y002276D03*
X033121Y002432D03*
X031046Y002114D03*
X030778Y002116D03*
X031771Y001957D03*
X032467Y001957D03*
X033456Y001958D03*
X033122Y001802D03*
X032467Y001644D03*
X032100Y001643D03*
X031705Y001642D03*
X031049Y001801D03*
X030750Y001801D03*
X027836Y001958D03*
X026917Y001799D03*
X026537Y001958D03*
X026156Y001962D03*
X025494Y001799D03*
X025223Y001799D03*
X026391Y001641D03*
X027574Y001643D03*
X026917Y001481D03*
X027579Y001321D03*
X026918Y001156D03*
X027873Y001118D03*
X026211Y000929D03*
X026291Y000581D03*
X026807Y000580D03*
X031821Y000576D03*
X032340Y000590D03*
X033412Y001088D03*
X033127Y001168D03*
X032460Y001325D03*
X031826Y001328D03*
X030743Y001328D03*
X031049Y001485D03*
X033125Y001487D03*
X031049Y001171D03*
X025494Y001484D03*
X025264Y001329D03*
X020678Y001639D03*
X019669Y001644D03*
X018999Y001641D03*
X018138Y001488D03*
X019701Y001325D03*
X020391Y001484D03*
X020398Y001171D03*
X020646Y001169D03*
X019094Y001166D03*
X018260Y000989D03*
X019134Y000635D03*
X019621Y000635D03*
X013617Y000635D03*
X013098Y000638D03*
X012209Y002117D03*
X011872Y002177D03*
X012989Y002271D03*
X013671Y002429D03*
X014456Y002273D03*
X012209Y002433D03*
X011874Y002461D03*
X012989Y002588D03*
X013667Y002752D03*
X014456Y002587D03*
X012207Y002752D03*
X011876Y002733D03*
X012226Y003067D03*
X013003Y003219D03*
X013671Y003061D03*
X014456Y003216D03*
X013671Y003376D03*
X012235Y003374D03*
X013098Y003945D03*
X013599Y003944D03*
X019104Y003954D03*
X019638Y003941D03*
X026274Y004017D03*
X026810Y004026D03*
X031842Y004089D03*
X032355Y004084D03*
X037860Y004053D03*
X038369Y004065D03*
X033132Y003376D03*
X032465Y003229D03*
X031711Y003215D03*
X031049Y003062D03*
X032447Y002915D03*
X033127Y003059D03*
X031049Y003389D03*
X037058Y003373D03*
X037955Y003215D03*
X038469Y003216D03*
X039136Y003375D03*
X039137Y003061D03*
X039666Y002949D03*
X039139Y002746D03*
X038469Y002589D03*
X039860Y002512D03*
X039139Y002428D03*
X038469Y002275D03*
X037060Y002114D03*
X038468Y001956D03*
X039137Y001796D03*
X037879Y001642D03*
X038469Y001640D03*
X039141Y001483D03*
X038475Y001322D03*
X037758Y001328D03*
X037060Y001481D03*
X037060Y001801D03*
X037056Y002431D03*
X037062Y002744D03*
X037061Y003061D03*
X027836Y002272D03*
X027575Y002272D03*
X026915Y002429D03*
X026158Y002277D03*
X025494Y002434D03*
X025494Y002120D03*
X019705Y002586D03*
X020393Y002744D03*
X020670Y002747D03*
X039140Y001166D03*
X037881Y000613D03*
X038327Y000606D03*
X045435Y001486D03*
X046228Y001865D03*
X048306Y001849D03*
X049574Y002078D03*
X049579Y002457D03*
X048703Y002512D03*
X048059Y002745D03*
X049580Y002833D03*
X047421Y002948D03*
D11*
X011781Y001041D02*
X011656Y001223D01*
X011656Y001231D01*
X011639Y001247D01*
X011627Y001267D01*
X011617Y001270D01*
X011609Y001277D01*
X011586Y001277D01*
X011577Y001280D01*
X011577Y003267D01*
X011586Y003269D01*
X011609Y003269D01*
X011617Y003277D01*
X011627Y003279D01*
X011639Y003299D01*
X011656Y003315D01*
X011656Y003324D01*
X011781Y003506D01*
X012119Y003847D01*
X012529Y004098D01*
X012987Y004244D01*
X013467Y004277D01*
X013940Y004196D01*
X014381Y004004D01*
X014763Y003712D01*
X014908Y003554D01*
X014908Y003552D01*
X014928Y003531D01*
X014946Y003509D01*
X014951Y003509D01*
X014954Y003505D01*
X014983Y003505D01*
X015011Y003502D01*
X015015Y003505D01*
X017714Y003505D01*
X017717Y003503D01*
X017746Y003505D01*
X017776Y003505D01*
X017778Y003508D01*
X017782Y003508D01*
X017801Y003531D01*
X017822Y003552D01*
X017822Y003553D01*
X017978Y003716D01*
X018390Y004010D01*
X018860Y004194D01*
X019362Y004256D01*
X019863Y004194D01*
X020334Y004010D01*
X020745Y003716D01*
X020902Y003553D01*
X020902Y003552D01*
X020922Y003531D01*
X020941Y003508D01*
X020945Y003508D01*
X020948Y003505D01*
X020977Y003505D01*
X021007Y003503D01*
X021009Y003505D01*
X024889Y003505D01*
X024891Y003503D01*
X024921Y003505D01*
X024950Y003505D01*
X024953Y003508D01*
X024957Y003508D01*
X024976Y003531D01*
X024996Y003552D01*
X024996Y003553D01*
X025153Y003716D01*
X025564Y004010D01*
X026035Y004194D01*
X026537Y004257D01*
X027039Y004194D01*
X027510Y004010D01*
X027921Y003716D01*
X028078Y003553D01*
X028078Y003552D01*
X028099Y003531D01*
X028118Y003508D01*
X028122Y003508D01*
X028124Y003505D01*
X028154Y003505D01*
X028183Y003503D01*
X028186Y003505D01*
X030426Y003505D01*
X030429Y003503D01*
X030458Y003505D01*
X030488Y003505D01*
X030490Y003508D01*
X030494Y003508D01*
X030513Y003531D01*
X030534Y003552D01*
X030534Y003553D01*
X030692Y003717D01*
X031105Y004013D01*
X031579Y004198D01*
X031715Y004215D01*
X031663Y004163D01*
X031663Y004015D01*
X031768Y003910D01*
X031916Y003910D01*
X032021Y004015D01*
X032021Y004163D01*
X031941Y004243D01*
X032084Y004261D01*
X032588Y004198D01*
X033062Y004013D01*
X033475Y003717D01*
X033633Y003553D01*
X033633Y003552D01*
X033654Y003531D01*
X033673Y003508D01*
X033677Y003508D01*
X033679Y003505D01*
X033709Y003505D01*
X033738Y003503D01*
X033741Y003505D01*
X036448Y003505D01*
X036452Y003502D01*
X036480Y003505D01*
X036508Y003505D01*
X036512Y003509D01*
X036517Y003509D01*
X036535Y003531D01*
X036555Y003552D01*
X036555Y003554D01*
X036701Y003715D01*
X037088Y004009D01*
X037533Y004204D01*
X038012Y004287D01*
X038497Y004253D01*
X038960Y004106D01*
X039375Y003853D01*
X039717Y003508D01*
X039844Y003324D01*
X039844Y003315D01*
X039860Y003299D01*
X039872Y003279D01*
X039883Y003277D01*
X039890Y003269D01*
X039913Y003269D01*
X039923Y003267D01*
X039923Y002690D01*
X039786Y002690D01*
X039681Y002586D01*
X039681Y002438D01*
X039786Y002333D01*
X039923Y002333D01*
X039923Y001280D01*
X039913Y001277D01*
X039890Y001277D01*
X039883Y001270D01*
X039872Y001267D01*
X039860Y001247D01*
X039844Y001231D01*
X039844Y001223D01*
X039717Y001039D01*
X039375Y000694D01*
X038960Y000441D01*
X038497Y000293D01*
X038012Y000260D01*
X037533Y000343D01*
X037088Y000537D01*
X036701Y000832D01*
X036555Y000993D01*
X036555Y000995D01*
X036535Y001015D01*
X036517Y001037D01*
X036512Y001038D01*
X036508Y001041D01*
X036480Y001041D01*
X036452Y001044D01*
X036448Y001041D01*
X033741Y001041D01*
X033738Y001044D01*
X033709Y001041D01*
X033679Y001041D01*
X033676Y001038D01*
X033673Y001038D01*
X033654Y001016D01*
X033633Y000995D01*
X033633Y000994D01*
X033476Y000828D01*
X033062Y000531D01*
X032589Y000346D01*
X032084Y000282D01*
X031579Y000346D01*
X031105Y000531D01*
X030691Y000828D01*
X030534Y000994D01*
X030534Y000995D01*
X030513Y001016D01*
X030494Y001038D01*
X030491Y001038D01*
X030488Y001041D01*
X030459Y001041D01*
X030429Y001044D01*
X030426Y001041D01*
X028186Y001041D01*
X028183Y001044D01*
X028154Y001041D01*
X028124Y001041D01*
X028122Y001038D01*
X028118Y001038D01*
X028099Y001016D01*
X028078Y000995D01*
X028078Y000994D01*
X027921Y000830D01*
X027510Y000536D01*
X027039Y000353D01*
X026537Y000290D01*
X026035Y000353D01*
X025564Y000536D01*
X025153Y000830D01*
X024996Y000994D01*
X024996Y000995D01*
X024976Y001016D01*
X024957Y001038D01*
X024953Y001038D01*
X024950Y001041D01*
X024921Y001041D01*
X024891Y001044D01*
X024889Y001041D01*
X021009Y001041D01*
X021007Y001044D01*
X020977Y001041D01*
X020948Y001041D01*
X020945Y001038D01*
X020941Y001038D01*
X020922Y001016D01*
X020902Y000995D01*
X020902Y000994D01*
X020745Y000830D01*
X020334Y000536D01*
X019863Y000353D01*
X019362Y000290D01*
X018860Y000353D01*
X018390Y000536D01*
X017978Y000830D01*
X017822Y000994D01*
X017822Y000995D01*
X017801Y001016D01*
X017782Y001038D01*
X017778Y001038D01*
X017776Y001041D01*
X017746Y001041D01*
X017717Y001044D01*
X017714Y001041D01*
X015015Y001041D01*
X015011Y001044D01*
X014983Y001041D01*
X014954Y001041D01*
X014951Y001038D01*
X014946Y001037D01*
X014928Y001015D01*
X014908Y000995D01*
X014908Y000993D01*
X014763Y000834D01*
X014381Y000543D01*
X013940Y000351D01*
X013467Y000269D01*
X012987Y000302D01*
X012529Y000449D01*
X012119Y000699D01*
X011781Y001041D01*
X011777Y001045D02*
X012082Y001045D01*
X012120Y001008D02*
X011813Y001008D01*
X011851Y000970D02*
X013249Y000970D01*
X013211Y001008D02*
X012298Y001008D01*
X012283Y000993D02*
X012332Y001042D01*
X012366Y001072D01*
X013146Y001072D01*
X013332Y000887D01*
X014498Y000887D01*
X014945Y001334D01*
X017776Y001334D01*
X018079Y001031D01*
X018082Y000984D01*
X018082Y000915D01*
X018186Y000810D01*
X018334Y000810D01*
X018439Y000915D01*
X018439Y001063D01*
X018334Y001168D01*
X018266Y001168D01*
X018229Y001170D01*
X018229Y001170D01*
X018218Y001170D01*
X018080Y001309D01*
X018212Y001309D01*
X018317Y001414D01*
X018317Y001431D01*
X018387Y001362D01*
X018444Y001304D01*
X018979Y001304D01*
X018915Y001240D01*
X018915Y001092D01*
X019020Y000987D01*
X019089Y000987D01*
X019136Y000985D01*
X019189Y000932D01*
X019699Y000932D01*
X019699Y000932D01*
X018439Y000932D01*
X018439Y000970D02*
X019151Y000970D01*
X019229Y001030D02*
X019739Y001030D01*
X020032Y001329D01*
X025264Y001329D01*
X025211Y001388D01*
X025144Y001329D01*
X025210Y001269D01*
X025264Y001329D01*
X025210Y001269D01*
X025144Y001329D01*
X025210Y001388D01*
X025264Y001329D01*
X025210Y001388D01*
X025144Y001329D01*
X025211Y001269D01*
X025264Y001329D01*
X025443Y001305D02*
X025568Y001305D01*
X025672Y001410D01*
X025672Y001543D01*
X025883Y001543D01*
X026041Y001702D01*
X026213Y001702D01*
X026213Y001567D01*
X026317Y001463D01*
X026465Y001463D01*
X026515Y001512D01*
X026550Y001544D01*
X026738Y001545D01*
X026738Y001407D01*
X026843Y001302D01*
X026991Y001302D01*
X027095Y001407D01*
X027095Y001545D01*
X027180Y001545D01*
X027237Y001603D01*
X027337Y001702D01*
X027396Y001702D01*
X027396Y001569D01*
X027485Y001480D01*
X027400Y001395D01*
X027400Y001247D01*
X027505Y001143D01*
X027653Y001143D01*
X027694Y001183D01*
X027694Y001044D01*
X027798Y000939D01*
X027947Y000939D01*
X028051Y001044D01*
X028051Y001192D01*
X027947Y001297D01*
X027798Y001297D01*
X027758Y001256D01*
X027758Y001395D01*
X027668Y001485D01*
X027753Y001569D01*
X027753Y001702D01*
X029450Y001700D01*
X029578Y001574D01*
X029606Y001546D01*
X029607Y001546D01*
X029607Y001545D01*
X029647Y001546D01*
X030871Y001546D01*
X030871Y001453D01*
X030866Y001457D01*
X030817Y001506D01*
X030669Y001506D01*
X030564Y001402D01*
X030564Y001254D01*
X030669Y001149D01*
X030817Y001149D01*
X030866Y001198D01*
X030870Y001202D01*
X030870Y001097D01*
X030975Y000992D01*
X031123Y000992D01*
X031228Y001097D01*
X031228Y001230D01*
X031271Y001230D01*
X031413Y001093D01*
X031442Y001065D01*
X031443Y001065D01*
X031443Y001064D01*
X031483Y001065D01*
X032591Y001065D01*
X032595Y001069D01*
X032596Y001069D01*
X032755Y001228D01*
X033298Y001227D01*
X033233Y001162D01*
X033233Y001014D01*
X033338Y000909D01*
X033486Y000909D01*
X033591Y001014D01*
X033591Y001162D01*
X033526Y001227D01*
X037603Y001224D01*
X037638Y001195D01*
X037684Y001149D01*
X037832Y001149D01*
X037937Y001254D01*
X037937Y001402D01*
X037875Y001463D01*
X037953Y001463D01*
X038057Y001568D01*
X038057Y001716D01*
X037953Y001821D01*
X037805Y001821D01*
X037756Y001773D01*
X037729Y001749D01*
X037729Y001749D01*
X037721Y001741D01*
X037239Y001741D01*
X037239Y001875D01*
X037156Y001957D01*
X037239Y002040D01*
X037239Y002188D01*
X037153Y002274D01*
X037235Y002357D01*
X037235Y002505D01*
X037155Y002585D01*
X037240Y002670D01*
X037240Y002818D01*
X037156Y002903D01*
X037240Y002987D01*
X037240Y003135D01*
X037135Y003240D01*
X036987Y003240D01*
X036938Y003191D01*
X036911Y003167D01*
X036911Y003167D01*
X036903Y003159D01*
X033438Y003160D01*
X033338Y003260D01*
X033303Y003295D01*
X033311Y003302D01*
X033311Y003450D01*
X033206Y003555D01*
X033058Y003555D01*
X032954Y003450D01*
X032954Y003317D01*
X032795Y003317D01*
X032663Y003449D01*
X032606Y003507D01*
X031354Y003507D01*
X031088Y003241D01*
X030975Y003241D01*
X030926Y003193D01*
X030908Y003176D01*
X030899Y003168D01*
X030899Y003168D01*
X030891Y003161D01*
X027755Y003161D01*
X027755Y003296D01*
X027650Y003400D01*
X027502Y003400D01*
X027397Y003296D01*
X027397Y003161D01*
X027242Y003316D01*
X027085Y003316D01*
X027085Y003452D01*
X026981Y003556D01*
X026832Y003556D01*
X026728Y003452D01*
X026728Y003316D01*
X026390Y003316D01*
X026334Y003260D01*
X026334Y003292D01*
X026229Y003396D01*
X026081Y003396D01*
X025977Y003292D01*
X025977Y003161D01*
X025643Y003163D01*
X025643Y003163D01*
X025643Y003163D01*
X025634Y003171D01*
X025616Y003188D01*
X025568Y003236D01*
X025500Y003236D01*
X025464Y003238D01*
X025453Y003239D01*
X025282Y003413D01*
X025282Y003414D01*
X025254Y003442D01*
X025226Y003471D01*
X025225Y003471D01*
X025225Y003471D01*
X025185Y003471D01*
X025144Y003472D01*
X025144Y003471D01*
X020746Y003471D01*
X020586Y003631D01*
X020568Y003649D01*
X020561Y003662D01*
X020561Y003662D01*
X020561Y003662D01*
X020548Y003669D01*
X020529Y003689D01*
X020076Y003689D01*
X020018Y003631D01*
X019899Y003512D01*
X019899Y003277D01*
X019883Y003261D01*
X019883Y003293D01*
X019779Y003398D01*
X019630Y003398D01*
X019526Y003293D01*
X019526Y003161D01*
X019499Y003161D01*
X019419Y003242D01*
X019392Y003242D01*
X019391Y003243D01*
X019382Y003242D01*
X019357Y003242D01*
X019383Y003242D01*
X019392Y003242D02*
X019526Y003242D01*
X019526Y003280D02*
X019186Y003280D01*
X019186Y003300D02*
X019081Y003405D01*
X018933Y003405D01*
X018828Y003300D01*
X018828Y003156D01*
X018726Y003156D01*
X018610Y003271D01*
X018582Y003299D01*
X018582Y003299D01*
X018582Y003300D01*
X018550Y003300D01*
X018509Y003300D01*
X018469Y003300D01*
X018468Y003300D01*
X014840Y003300D01*
X014619Y003601D01*
X014619Y003610D01*
X014596Y003633D01*
X014576Y003660D01*
X014568Y003661D01*
X014562Y003667D01*
X014529Y003667D01*
X014496Y003672D01*
X014489Y003667D01*
X012688Y003667D01*
X012630Y003610D01*
X012268Y003248D01*
X012221Y003245D01*
X012152Y003245D01*
X012047Y003141D01*
X012047Y002992D01*
X012121Y002919D01*
X012032Y002830D01*
X011950Y002912D01*
X011802Y002912D01*
X011697Y002807D01*
X011697Y002659D01*
X011758Y002598D01*
X011577Y002598D01*
X011577Y002560D02*
X011720Y002560D01*
X011695Y002535D02*
X011695Y002387D01*
X011762Y002320D01*
X011694Y002251D01*
X011694Y002103D01*
X011762Y002035D01*
X011688Y001962D01*
X011688Y001814D01*
X011757Y001746D01*
X011685Y001675D01*
X011685Y001526D01*
X011790Y001422D01*
X011938Y001422D01*
X012030Y001514D01*
X012030Y001411D01*
X012113Y001328D01*
X012030Y001246D01*
X012030Y001097D01*
X012135Y000993D01*
X012283Y000993D01*
X012336Y001045D02*
X013173Y001045D01*
X013187Y001171D02*
X013373Y000985D01*
X014457Y000985D01*
X014904Y001432D01*
X017817Y001432D01*
X018260Y000989D01*
X018265Y001069D01*
X018176Y001074D01*
X018180Y000985D01*
X018260Y000989D01*
X018265Y001069D01*
X018176Y001074D01*
X018180Y000985D01*
X018176Y001074D01*
X018265Y001069D01*
X018260Y000989D02*
X018180Y000985D01*
X018082Y000970D02*
X017845Y000970D01*
X017809Y001008D02*
X018080Y001008D01*
X018065Y001045D02*
X014656Y001045D01*
X014619Y001008D02*
X014921Y001008D01*
X014887Y000970D02*
X014581Y000970D01*
X014543Y000932D02*
X014853Y000932D01*
X014818Y000894D02*
X014505Y000894D01*
X014784Y000856D02*
X011964Y000856D01*
X012001Y000818D02*
X014743Y000818D01*
X014693Y000780D02*
X013724Y000780D01*
X013691Y000813D02*
X013795Y000709D01*
X013795Y000561D01*
X013691Y000456D01*
X013543Y000456D01*
X013438Y000561D01*
X013438Y000709D01*
X013543Y000813D01*
X013691Y000813D01*
X013510Y000780D02*
X012039Y000780D01*
X012076Y000742D02*
X013472Y000742D01*
X013438Y000705D02*
X012114Y000705D01*
X012173Y000667D02*
X013438Y000667D01*
X013438Y000629D02*
X012235Y000629D01*
X012296Y000591D02*
X013438Y000591D01*
X013445Y000553D02*
X012358Y000553D01*
X012420Y000515D02*
X013483Y000515D01*
X013521Y000477D02*
X012482Y000477D01*
X012558Y000440D02*
X014144Y000440D01*
X014231Y000477D02*
X013712Y000477D01*
X013750Y000515D02*
X014318Y000515D01*
X014394Y000553D02*
X013788Y000553D01*
X013795Y000591D02*
X014444Y000591D01*
X014494Y000629D02*
X013795Y000629D01*
X013795Y000667D02*
X014544Y000667D01*
X014593Y000705D02*
X013795Y000705D01*
X013762Y000742D02*
X014643Y000742D01*
X013325Y000894D02*
X011926Y000894D01*
X011889Y000932D02*
X013287Y000932D01*
X013413Y001083D02*
X013285Y001212D01*
X013228Y001269D01*
X013167Y001269D01*
X013167Y001404D01*
X013081Y001490D01*
X013159Y001568D01*
X013159Y001716D01*
X013080Y001795D01*
X013112Y001826D01*
X013149Y001860D01*
X013155Y001860D01*
X013156Y001862D01*
X013188Y001862D01*
X013188Y001727D01*
X013148Y001727D01*
X013159Y001689D02*
X013226Y001689D01*
X013264Y001651D02*
X013159Y001651D01*
X013159Y001613D02*
X013545Y001613D01*
X013576Y001644D02*
X013492Y001560D01*
X013492Y001412D01*
X013597Y001307D01*
X013745Y001307D01*
X013849Y001412D01*
X013849Y001560D01*
X013765Y001644D01*
X013849Y001729D01*
X013849Y001850D01*
X013980Y001730D01*
X014007Y001702D01*
X014010Y001702D01*
X014011Y001701D01*
X014050Y001702D01*
X014277Y001703D01*
X014277Y001571D01*
X014370Y001478D01*
X014290Y001398D01*
X014290Y001250D01*
X014395Y001146D01*
X014478Y001146D01*
X014416Y001083D01*
X013413Y001083D01*
X013376Y001121D02*
X014454Y001121D01*
X014382Y001159D02*
X013338Y001159D01*
X013300Y001197D02*
X014344Y001197D01*
X014306Y001235D02*
X013262Y001235D01*
X013167Y001273D02*
X014290Y001273D01*
X014290Y001311D02*
X013748Y001311D01*
X013786Y001348D02*
X014290Y001348D01*
X014290Y001386D02*
X013824Y001386D01*
X013849Y001424D02*
X014316Y001424D01*
X014354Y001462D02*
X013849Y001462D01*
X013849Y001500D02*
X014349Y001500D01*
X014311Y001538D02*
X013849Y001538D01*
X013834Y001576D02*
X014277Y001576D01*
X014277Y001613D02*
X013796Y001613D01*
X013772Y001651D02*
X014277Y001651D01*
X014277Y001689D02*
X013810Y001689D01*
X013848Y001727D02*
X013983Y001727D01*
X013942Y001765D02*
X013849Y001765D01*
X013849Y001803D02*
X013900Y001803D01*
X013859Y001841D02*
X013849Y001841D01*
X013875Y001960D02*
X014048Y001801D01*
X016453Y001803D01*
X016609Y001959D01*
X018316Y001956D01*
X018369Y001897D01*
X018436Y001956D01*
X018369Y002016D01*
X018316Y001956D01*
X018369Y002016D01*
X018436Y001956D01*
X018369Y001897D01*
X018316Y001956D01*
X018369Y002016D01*
X018316Y001956D01*
X018262Y002016D01*
X018196Y001956D01*
X018262Y001897D01*
X018316Y001956D01*
X018262Y002016D01*
X018196Y001956D01*
X018262Y001897D01*
X018316Y001956D01*
X018369Y001897D01*
X018436Y001956D01*
X018369Y002016D01*
X018436Y001956D01*
X018369Y001897D01*
X018316Y001956D01*
X018262Y002016D01*
X018196Y001956D01*
X018262Y001897D01*
X018316Y001956D01*
X018262Y002016D01*
X018196Y001956D01*
X018262Y001897D01*
X018316Y001956D01*
X020471Y001958D01*
X020599Y001796D01*
X020727Y001795D01*
X021736Y001795D01*
X021743Y001802D01*
X021897Y001964D01*
X022421Y001964D01*
X026156Y001962D01*
X026103Y002022D01*
X026036Y001962D01*
X026103Y001903D01*
X026156Y001962D01*
X026103Y002022D01*
X026036Y001962D01*
X026103Y001903D01*
X026156Y001962D01*
X026103Y002022D01*
X026036Y001962D01*
X026103Y001903D01*
X026156Y001962D01*
X026103Y002022D01*
X026036Y001962D01*
X026103Y001903D01*
X026156Y001962D01*
X026379Y001800D02*
X026537Y001958D01*
X026459Y001977D01*
X026438Y001890D01*
X026527Y001879D01*
X026537Y001958D01*
X026527Y001879D01*
X026438Y001890D01*
X026670Y002121D02*
X026816Y001960D01*
X027001Y001960D01*
X027163Y002114D01*
X027163Y002113D01*
X029679Y002113D01*
X029838Y002273D01*
X030862Y002273D01*
X031020Y002114D01*
X031046Y002114D01*
X031038Y002194D01*
X030950Y002185D01*
X030968Y002098D01*
X031046Y002114D01*
X031100Y002055D01*
X031166Y002114D01*
X031100Y002174D01*
X031046Y002114D01*
X031100Y002055D01*
X031166Y002114D01*
X031046Y002114D02*
X032587Y002115D01*
X032765Y001956D01*
X033224Y001957D01*
X033359Y002120D01*
X036921Y002117D01*
X037060Y002114D01*
X037008Y002175D01*
X036940Y002116D01*
X037005Y002055D01*
X037060Y002114D01*
X037008Y002175D01*
X036940Y002116D01*
X037239Y002106D02*
X038365Y002106D01*
X038375Y002116D02*
X038290Y002030D01*
X037229Y002030D01*
X037239Y002068D02*
X038327Y002068D01*
X038290Y002030D02*
X038290Y001882D01*
X038375Y001797D01*
X038291Y001714D01*
X038291Y001565D01*
X038378Y001478D01*
X038296Y001396D01*
X038296Y001248D01*
X038401Y001143D01*
X038549Y001143D01*
X038654Y001248D01*
X038654Y001396D01*
X038566Y001484D01*
X038648Y001565D01*
X038648Y001714D01*
X038563Y001798D01*
X038647Y001882D01*
X038647Y002030D01*
X039923Y002030D01*
X039923Y001992D02*
X038647Y001992D01*
X038647Y001954D02*
X039043Y001954D01*
X039063Y001974D02*
X038959Y001870D01*
X038959Y001722D01*
X039042Y001638D01*
X038962Y001557D01*
X038962Y001409D01*
X039067Y001305D01*
X039215Y001305D01*
X039320Y001409D01*
X039320Y001557D01*
X039236Y001641D01*
X039316Y001722D01*
X039316Y001870D01*
X039211Y001974D01*
X039063Y001974D01*
X039232Y001954D02*
X039923Y001954D01*
X039923Y001916D02*
X039269Y001916D01*
X039307Y001879D02*
X039923Y001879D01*
X039923Y001841D02*
X039316Y001841D01*
X039316Y001803D02*
X039923Y001803D01*
X039923Y001765D02*
X039316Y001765D01*
X039316Y001727D02*
X039923Y001727D01*
X039923Y001689D02*
X039284Y001689D01*
X039246Y001651D02*
X039923Y001651D01*
X039923Y001613D02*
X039263Y001613D01*
X039301Y001576D02*
X039923Y001576D01*
X039923Y001538D02*
X039320Y001538D01*
X039320Y001500D02*
X039923Y001500D01*
X039923Y001462D02*
X039320Y001462D01*
X039320Y001424D02*
X039923Y001424D01*
X039923Y001386D02*
X039296Y001386D01*
X039259Y001348D02*
X039923Y001348D01*
X039923Y001311D02*
X039221Y001311D01*
X039061Y001311D02*
X038654Y001311D01*
X038654Y001348D02*
X039023Y001348D01*
X038985Y001386D02*
X038654Y001386D01*
X038626Y001424D02*
X038962Y001424D01*
X038962Y001462D02*
X038588Y001462D01*
X038582Y001500D02*
X038962Y001500D01*
X038962Y001538D02*
X038620Y001538D01*
X038648Y001576D02*
X038980Y001576D01*
X039018Y001613D02*
X038648Y001613D01*
X038648Y001651D02*
X039029Y001651D01*
X038991Y001689D02*
X038648Y001689D01*
X038635Y001727D02*
X038959Y001727D01*
X038959Y001765D02*
X038597Y001765D01*
X038568Y001803D02*
X038959Y001803D01*
X038959Y001841D02*
X038605Y001841D01*
X038643Y001879D02*
X038967Y001879D01*
X039005Y001916D02*
X038647Y001916D01*
X038331Y001841D02*
X037239Y001841D01*
X037235Y001879D02*
X038293Y001879D01*
X038290Y001916D02*
X037197Y001916D01*
X037159Y001954D02*
X038290Y001954D01*
X038290Y001992D02*
X037191Y001992D01*
X038572Y002106D02*
X039923Y002106D01*
X039923Y002144D02*
X038591Y002144D01*
X038563Y002115D02*
X038648Y002201D01*
X038648Y002349D01*
X038565Y002432D01*
X038648Y002515D01*
X038648Y002663D01*
X038543Y002768D01*
X038395Y002768D01*
X038291Y002663D01*
X038291Y002515D01*
X038374Y002432D01*
X038291Y002349D01*
X038291Y002201D01*
X038375Y002116D01*
X038348Y002144D02*
X037239Y002144D01*
X037239Y002182D02*
X038310Y002182D01*
X038291Y002219D02*
X037207Y002219D01*
X037170Y002257D02*
X038291Y002257D01*
X038291Y002295D02*
X037174Y002295D01*
X037212Y002333D02*
X038291Y002333D01*
X038313Y002371D02*
X037235Y002371D01*
X037235Y002409D02*
X038351Y002409D01*
X038359Y002447D02*
X037235Y002447D01*
X037235Y002485D02*
X038321Y002485D01*
X038291Y002522D02*
X037218Y002522D01*
X037180Y002560D02*
X038291Y002560D01*
X038291Y002598D02*
X037168Y002598D01*
X037206Y002636D02*
X038291Y002636D01*
X038301Y002674D02*
X037240Y002674D01*
X037240Y002712D02*
X038339Y002712D01*
X038377Y002750D02*
X037240Y002750D01*
X037240Y002787D02*
X038960Y002787D01*
X038960Y002820D02*
X038960Y002672D01*
X039045Y002587D01*
X038960Y002502D01*
X038960Y002354D01*
X039065Y002249D01*
X039213Y002249D01*
X039318Y002354D01*
X039318Y002502D01*
X039233Y002587D01*
X039318Y002672D01*
X039318Y002820D01*
X039233Y002904D01*
X039316Y002987D01*
X039316Y003135D01*
X039232Y003219D01*
X039314Y003301D01*
X039314Y003449D01*
X039210Y003554D01*
X039062Y003554D01*
X038957Y003449D01*
X038957Y003301D01*
X039041Y003217D01*
X038958Y003135D01*
X038958Y002987D01*
X039043Y002903D01*
X038960Y002820D01*
X038966Y002825D02*
X037233Y002825D01*
X037196Y002863D02*
X039003Y002863D01*
X039041Y002901D02*
X037158Y002901D01*
X037192Y002939D02*
X039006Y002939D01*
X038969Y002977D02*
X037229Y002977D01*
X037240Y003015D02*
X038958Y003015D01*
X038958Y003053D02*
X038559Y003053D01*
X038543Y003037D02*
X038648Y003142D01*
X038648Y003290D01*
X038543Y003395D01*
X038395Y003395D01*
X038291Y003290D01*
X038291Y003142D01*
X038395Y003037D01*
X038543Y003037D01*
X038596Y003090D02*
X038958Y003090D01*
X038958Y003128D02*
X038634Y003128D01*
X038648Y003166D02*
X038989Y003166D01*
X039027Y003204D02*
X038648Y003204D01*
X038648Y003242D02*
X039016Y003242D01*
X038978Y003280D02*
X038648Y003280D01*
X038621Y003318D02*
X038957Y003318D01*
X038957Y003356D02*
X038583Y003356D01*
X038545Y003393D02*
X038957Y003393D01*
X038957Y003431D02*
X033311Y003431D01*
X033311Y003393D02*
X038394Y003393D01*
X038356Y003356D02*
X038066Y003356D01*
X038029Y003393D02*
X037880Y003393D01*
X037776Y003289D01*
X037776Y003141D01*
X037880Y003036D01*
X038029Y003036D01*
X038133Y003141D01*
X038133Y003289D01*
X038029Y003393D01*
X037843Y003356D02*
X033311Y003356D01*
X033311Y003318D02*
X037805Y003318D01*
X037776Y003280D02*
X033318Y003280D01*
X033338Y003260D02*
X033338Y003260D01*
X033356Y003242D02*
X037776Y003242D01*
X037776Y003204D02*
X037171Y003204D01*
X037208Y003166D02*
X037776Y003166D01*
X037788Y003128D02*
X037240Y003128D01*
X037240Y003090D02*
X037826Y003090D01*
X037864Y003053D02*
X037240Y003053D01*
X037061Y003061D02*
X037007Y003001D01*
X036941Y003061D01*
X037007Y003121D01*
X037061Y003061D01*
X037007Y003121D01*
X036941Y003061D01*
X037061Y003061D02*
X033397Y003062D01*
X033240Y003219D01*
X032754Y003219D01*
X032565Y003408D01*
X031395Y003408D01*
X031049Y003062D01*
X031102Y003002D01*
X031169Y003062D01*
X031103Y003122D01*
X031049Y003062D01*
X031103Y003122D01*
X031169Y003062D01*
X031049Y003062D02*
X030995Y003122D01*
X030929Y003062D01*
X030995Y003122D01*
X031049Y003062D01*
X030995Y003003D01*
X030929Y003062D01*
X030995Y003003D01*
X031049Y003062D01*
X030995Y003003D01*
X030929Y003062D01*
X030995Y003122D01*
X031049Y003062D01*
X027356Y003062D01*
X027201Y003217D01*
X026431Y003217D01*
X026275Y003061D01*
X026232Y003061D01*
X025501Y003065D01*
X025494Y003057D01*
X025547Y002998D01*
X025614Y003057D01*
X025547Y002998D01*
X025494Y003057D01*
X025547Y003117D01*
X025494Y003057D01*
X025498Y003138D01*
X025409Y003143D01*
X025413Y003054D01*
X025494Y003057D01*
X025547Y002998D01*
X025614Y003058D01*
X025547Y003117D01*
X025614Y003057D01*
X025547Y003117D01*
X025494Y003057D01*
X025184Y003373D01*
X020705Y003373D01*
X020489Y003589D01*
X020489Y003590D01*
X020489Y003590D01*
X020488Y003590D01*
X020117Y003590D01*
X019997Y003471D01*
X019997Y003236D01*
X019824Y003063D01*
X019466Y003063D01*
X019345Y003063D01*
X018685Y003057D01*
X018541Y003201D01*
X018509Y003201D01*
X014795Y003201D01*
X014779Y003217D01*
X014521Y003569D01*
X012729Y003569D01*
X012226Y003067D01*
X012306Y003062D01*
X012311Y003151D01*
X012222Y003147D01*
X012226Y003067D01*
X012222Y003147D01*
X012311Y003151D01*
X012306Y003062D01*
X012226Y003067D01*
X012306Y003062D02*
X012311Y003151D01*
X012222Y003147D01*
X012111Y003204D02*
X011577Y003204D01*
X011577Y003166D02*
X012073Y003166D01*
X012047Y003128D02*
X011577Y003128D01*
X011577Y003090D02*
X012047Y003090D01*
X012047Y003053D02*
X011577Y003053D01*
X011577Y003015D02*
X012047Y003015D01*
X012063Y002977D02*
X011577Y002977D01*
X011577Y002939D02*
X012101Y002939D01*
X012103Y002901D02*
X011961Y002901D01*
X011999Y002863D02*
X012065Y002863D01*
X011791Y002901D02*
X011577Y002901D01*
X011577Y002863D02*
X011753Y002863D01*
X011715Y002825D02*
X011577Y002825D01*
X011577Y002787D02*
X011697Y002787D01*
X011697Y002750D02*
X011577Y002750D01*
X011577Y002712D02*
X011697Y002712D01*
X011697Y002674D02*
X011577Y002674D01*
X011577Y002636D02*
X011720Y002636D01*
X011758Y002598D02*
X011695Y002535D01*
X011695Y002522D02*
X011577Y002522D01*
X011577Y002485D02*
X011695Y002485D01*
X011695Y002447D02*
X011577Y002447D01*
X011577Y002409D02*
X011695Y002409D01*
X011711Y002371D02*
X011577Y002371D01*
X011577Y002333D02*
X011749Y002333D01*
X011737Y002295D02*
X011577Y002295D01*
X011577Y002257D02*
X011699Y002257D01*
X011694Y002219D02*
X011577Y002219D01*
X011577Y002182D02*
X011694Y002182D01*
X011694Y002144D02*
X011577Y002144D01*
X011577Y002106D02*
X011694Y002106D01*
X011729Y002068D02*
X011577Y002068D01*
X011577Y002030D02*
X011756Y002030D01*
X011718Y001992D02*
X011577Y001992D01*
X011577Y001954D02*
X011688Y001954D01*
X011688Y001916D02*
X011577Y001916D01*
X011577Y001879D02*
X011688Y001879D01*
X011688Y001841D02*
X011577Y001841D01*
X011577Y001803D02*
X011700Y001803D01*
X011738Y001765D02*
X011577Y001765D01*
X011577Y001727D02*
X011738Y001727D01*
X011700Y001689D02*
X011577Y001689D01*
X011577Y001651D02*
X011685Y001651D01*
X011685Y001613D02*
X011577Y001613D01*
X011577Y001576D02*
X011685Y001576D01*
X011685Y001538D02*
X011577Y001538D01*
X011577Y001500D02*
X011712Y001500D01*
X011749Y001462D02*
X011577Y001462D01*
X011577Y001424D02*
X011787Y001424D01*
X011940Y001424D02*
X012030Y001424D01*
X012030Y001462D02*
X011978Y001462D01*
X012016Y001500D02*
X012030Y001500D01*
X012055Y001386D02*
X011577Y001386D01*
X011577Y001348D02*
X012093Y001348D01*
X012095Y001311D02*
X011577Y001311D01*
X011614Y001273D02*
X012057Y001273D01*
X012030Y001235D02*
X011652Y001235D01*
X011673Y001197D02*
X012030Y001197D01*
X012030Y001159D02*
X011699Y001159D01*
X011725Y001121D02*
X012030Y001121D01*
X012044Y001083D02*
X011751Y001083D01*
X012209Y001171D02*
X012209Y001171D01*
X013187Y001171D01*
X012329Y001171D02*
X012263Y001231D01*
X012209Y001171D01*
X012262Y001112D01*
X012329Y001171D01*
X013167Y001311D02*
X013593Y001311D01*
X013555Y001348D02*
X013167Y001348D01*
X013167Y001386D02*
X013517Y001386D01*
X013492Y001424D02*
X013147Y001424D01*
X013109Y001462D02*
X013492Y001462D01*
X013492Y001500D02*
X013091Y001500D01*
X013129Y001538D02*
X013492Y001538D01*
X013508Y001576D02*
X013159Y001576D01*
X013293Y001622D02*
X013441Y001622D01*
X013520Y001701D01*
X013576Y001644D01*
X013569Y001651D02*
X013470Y001651D01*
X013508Y001689D02*
X013531Y001689D01*
X013293Y001622D02*
X013188Y001727D01*
X013188Y001765D02*
X013110Y001765D01*
X013089Y001803D02*
X013188Y001803D01*
X013188Y001841D02*
X013128Y001841D01*
X013043Y001896D02*
X012989Y001956D01*
X012993Y001960D01*
X013875Y001960D01*
X013109Y001956D02*
X013043Y001896D01*
X012989Y001956D01*
X013042Y002016D01*
X013109Y001956D01*
X013043Y001896D01*
X012989Y001956D01*
X013042Y002016D01*
X013109Y001956D01*
X013043Y001896D01*
X012989Y001956D01*
X013042Y002016D01*
X013109Y001956D01*
X013043Y001896D01*
X012989Y001956D02*
X013042Y002016D01*
X013109Y001956D01*
X012329Y002117D02*
X012263Y002057D01*
X012209Y002117D01*
X012263Y002057D01*
X012329Y002117D01*
X012263Y002177D01*
X012209Y002117D01*
X012263Y002177D01*
X012329Y002117D01*
X012209Y002117D02*
X013237Y002115D01*
X013390Y002275D01*
X013804Y002275D01*
X013960Y002118D01*
X017445Y002118D01*
X017447Y002116D01*
X018982Y002116D01*
X018985Y002118D01*
X019002Y002112D01*
X018950Y002174D01*
X018883Y002116D01*
X018947Y002054D01*
X019002Y002112D01*
X019705Y002271D02*
X019758Y002212D01*
X019825Y002271D01*
X019758Y002331D01*
X019705Y002271D01*
X020478Y002273D01*
X020634Y002116D01*
X021724Y002116D01*
X021883Y002275D01*
X025890Y002275D01*
X026048Y002433D01*
X025904Y002434D02*
X026214Y002744D01*
X026601Y002744D01*
X026769Y002588D01*
X027114Y002588D01*
X027275Y002428D01*
X029400Y002426D01*
X029551Y002588D01*
X030893Y002590D01*
X031051Y002431D01*
X031104Y002371D01*
X031171Y002430D01*
X031106Y002491D01*
X031051Y002431D01*
X031055Y002512D01*
X031051Y002431D01*
X030971Y002427D01*
X031051Y002431D01*
X031053Y002430D01*
X032554Y002430D01*
X032711Y002273D01*
X033227Y002273D01*
X033364Y002433D01*
X037056Y002431D01*
X037003Y002490D01*
X036936Y002431D01*
X037003Y002371D01*
X037056Y002431D01*
X038579Y002447D02*
X038960Y002447D01*
X038960Y002485D02*
X038617Y002485D01*
X038648Y002522D02*
X038981Y002522D01*
X039018Y002560D02*
X038648Y002560D01*
X038648Y002598D02*
X039034Y002598D01*
X038996Y002636D02*
X038648Y002636D01*
X038638Y002674D02*
X038960Y002674D01*
X038960Y002712D02*
X038600Y002712D01*
X038562Y002750D02*
X038960Y002750D01*
X039318Y002750D02*
X039923Y002750D01*
X039923Y002787D02*
X039757Y002787D01*
X039740Y002770D02*
X039844Y002874D01*
X039844Y003023D01*
X039740Y003127D01*
X039592Y003127D01*
X039487Y003023D01*
X039487Y002874D01*
X039592Y002770D01*
X039740Y002770D01*
X039795Y002825D02*
X039923Y002825D01*
X039923Y002863D02*
X039833Y002863D01*
X039844Y002901D02*
X039923Y002901D01*
X039923Y002939D02*
X039844Y002939D01*
X039844Y002977D02*
X039923Y002977D01*
X039923Y003015D02*
X039844Y003015D01*
X039814Y003053D02*
X039923Y003053D01*
X039923Y003090D02*
X039777Y003090D01*
X039923Y003128D02*
X039316Y003128D01*
X039316Y003090D02*
X039555Y003090D01*
X039517Y003053D02*
X039316Y003053D01*
X039316Y003015D02*
X039487Y003015D01*
X039487Y002977D02*
X039306Y002977D01*
X039268Y002939D02*
X039487Y002939D01*
X039487Y002901D02*
X039236Y002901D01*
X039274Y002863D02*
X039498Y002863D01*
X039536Y002825D02*
X039312Y002825D01*
X039318Y002787D02*
X039574Y002787D01*
X039769Y002674D02*
X039318Y002674D01*
X039318Y002712D02*
X039923Y002712D01*
X039731Y002636D02*
X039282Y002636D01*
X039244Y002598D02*
X039693Y002598D01*
X039681Y002560D02*
X039259Y002560D01*
X039297Y002522D02*
X039681Y002522D01*
X039681Y002485D02*
X039318Y002485D01*
X039318Y002447D02*
X039681Y002447D01*
X039710Y002409D02*
X039318Y002409D01*
X039318Y002371D02*
X039748Y002371D01*
X039786Y002333D02*
X039297Y002333D01*
X039259Y002295D02*
X039923Y002295D01*
X039923Y002257D02*
X039221Y002257D01*
X039057Y002257D02*
X038648Y002257D01*
X038648Y002219D02*
X039923Y002219D01*
X039923Y002182D02*
X038629Y002182D01*
X038563Y002115D02*
X038647Y002030D01*
X038610Y002068D02*
X039923Y002068D01*
X039019Y002295D02*
X038648Y002295D01*
X038648Y002333D02*
X038981Y002333D01*
X038960Y002371D02*
X038626Y002371D01*
X038588Y002409D02*
X038960Y002409D01*
X037062Y002744D02*
X037008Y002685D01*
X036942Y002744D01*
X037008Y002804D01*
X037062Y002744D01*
X037008Y002804D01*
X036942Y002744D01*
X037008Y002685D01*
X037062Y002744D01*
X037008Y002804D01*
X036942Y002744D01*
X037008Y002685D01*
X037062Y002744D01*
X033360Y002744D01*
X033214Y002588D01*
X032826Y002589D01*
X032675Y002747D01*
X032350Y002747D01*
X032181Y002909D01*
X031871Y002909D01*
X031708Y002745D01*
X031047Y002745D01*
X030993Y002805D01*
X030927Y002745D01*
X030993Y002686D01*
X031047Y002745D01*
X031101Y002686D01*
X031047Y002745D01*
X031101Y002805D01*
X031047Y002745D01*
X031101Y002686D01*
X031167Y002745D01*
X031101Y002805D01*
X031167Y002745D01*
X031101Y002686D01*
X031167Y002745D01*
X031101Y002805D01*
X031047Y002745D01*
X030916Y002745D01*
X030440Y002743D01*
X028652Y002743D01*
X028492Y002903D01*
X027838Y002903D01*
X027837Y002904D01*
X027892Y002964D01*
X027957Y002903D01*
X027890Y002844D01*
X027837Y002904D01*
X026177Y002904D02*
X026175Y002902D01*
X025325Y002902D01*
X025012Y003215D01*
X020214Y003215D01*
X019899Y002900D01*
X019899Y002901D01*
X018316Y002901D01*
X018314Y002900D01*
X018881Y002744D02*
X018947Y002803D01*
X019001Y002743D01*
X019055Y002684D01*
X019121Y002743D01*
X019055Y002803D01*
X019001Y002743D01*
X018947Y002684D01*
X019001Y002743D01*
X019931Y002741D01*
X020092Y002902D01*
X022039Y002902D01*
X022191Y002749D01*
X025494Y002747D01*
X025440Y002807D01*
X025374Y002747D01*
X025440Y002687D01*
X025494Y002747D01*
X025440Y002807D01*
X025374Y002747D01*
X025440Y002494D02*
X025494Y002434D01*
X025547Y002374D01*
X025614Y002434D01*
X025547Y002494D01*
X025494Y002434D01*
X025440Y002374D01*
X025494Y002434D01*
X025440Y002494D01*
X025374Y002434D01*
X025440Y002374D01*
X025374Y002434D01*
X025440Y002494D01*
X025494Y002434D01*
X025440Y002374D01*
X025373Y002434D01*
X025440Y002494D01*
X025494Y002434D02*
X025494Y002434D01*
X022292Y002434D01*
X022138Y002588D01*
X020466Y002588D01*
X020094Y002584D01*
X019938Y002428D01*
X019001Y002429D01*
X019055Y002369D01*
X019121Y002429D01*
X019055Y002489D01*
X019001Y002429D01*
X018947Y002489D01*
X019001Y002429D01*
X018947Y002369D01*
X018881Y002429D01*
X018947Y002489D01*
X018881Y002429D01*
X018947Y002369D01*
X019001Y002429D01*
X018947Y002489D01*
X018881Y002429D01*
X018947Y002369D01*
X019001Y002429D01*
X013982Y002428D01*
X013816Y002594D01*
X013377Y002594D01*
X012329Y002427D02*
X012266Y002490D01*
X012209Y002433D01*
X012260Y002371D01*
X012329Y002427D01*
X012209Y002433D02*
X012173Y002427D01*
X013211Y002427D01*
X012327Y002751D02*
X012260Y002692D01*
X012207Y002752D01*
X013367Y002752D01*
X013521Y002906D01*
X013775Y002906D01*
X013934Y002747D01*
X013986Y002747D01*
X019011Y002744D01*
X019001Y002743D01*
X018947Y002684D02*
X018881Y002744D01*
X018947Y002684D01*
X019929Y002743D02*
X019931Y002741D01*
X019465Y003057D02*
X019341Y002980D01*
X019345Y003063D01*
X019298Y003116D01*
X019345Y003063D01*
X019298Y002997D01*
X019345Y003063D01*
X019361Y003140D01*
X019465Y003057D01*
X019345Y003063D02*
X018852Y003057D01*
X019232Y003057D02*
X019298Y003116D01*
X019232Y003057D01*
X019298Y002997D01*
X019232Y003057D01*
X019189Y003160D02*
X019186Y003160D01*
X019186Y003300D01*
X019168Y003318D02*
X019550Y003318D01*
X019588Y003356D02*
X019130Y003356D01*
X019092Y003393D02*
X019626Y003393D01*
X019783Y003393D02*
X019899Y003393D01*
X019899Y003356D02*
X019821Y003356D01*
X019859Y003318D02*
X019899Y003318D01*
X019899Y003280D02*
X019883Y003280D01*
X019526Y003204D02*
X019456Y003204D01*
X019494Y003166D02*
X019526Y003166D01*
X019271Y003242D02*
X019189Y003160D01*
X019186Y003166D02*
X019195Y003166D01*
X019186Y003204D02*
X019233Y003204D01*
X019271Y003242D02*
X019336Y003242D01*
X019341Y003245D01*
X019357Y003242D01*
X019337Y003242D02*
X019186Y003242D01*
X018846Y003318D02*
X014827Y003318D01*
X014799Y003356D02*
X018884Y003356D01*
X018922Y003393D02*
X014772Y003393D01*
X014744Y003431D02*
X019899Y003431D01*
X019899Y003469D02*
X014716Y003469D01*
X014688Y003507D02*
X014953Y003507D01*
X014915Y003545D02*
X014661Y003545D01*
X014633Y003583D02*
X014882Y003583D01*
X014847Y003621D02*
X014609Y003621D01*
X014577Y003658D02*
X014813Y003658D01*
X014778Y003696D02*
X011970Y003696D01*
X012007Y003734D02*
X014735Y003734D01*
X014685Y003772D02*
X013681Y003772D01*
X013673Y003765D02*
X013778Y003870D01*
X013778Y004018D01*
X013673Y004122D01*
X013525Y004122D01*
X013421Y004018D01*
X013421Y003870D01*
X013525Y003765D01*
X013673Y003765D01*
X013718Y003810D02*
X014635Y003810D01*
X014586Y003848D02*
X013756Y003848D01*
X013778Y003886D02*
X014536Y003886D01*
X014486Y003924D02*
X013778Y003924D01*
X013778Y003961D02*
X014436Y003961D01*
X014387Y003999D02*
X013778Y003999D01*
X013759Y004037D02*
X014304Y004037D01*
X014217Y004075D02*
X013721Y004075D01*
X013683Y004113D02*
X014130Y004113D01*
X014043Y004151D02*
X012695Y004151D01*
X012814Y004189D02*
X013956Y004189D01*
X013761Y004227D02*
X012932Y004227D01*
X013280Y004264D02*
X013541Y004264D01*
X013516Y004113D02*
X012576Y004113D01*
X012492Y004075D02*
X013478Y004075D01*
X013440Y004037D02*
X012430Y004037D01*
X012368Y003999D02*
X013421Y003999D01*
X013421Y003961D02*
X012306Y003961D01*
X012244Y003924D02*
X013421Y003924D01*
X013421Y003886D02*
X012182Y003886D01*
X012121Y003848D02*
X013442Y003848D01*
X013480Y003810D02*
X012082Y003810D01*
X012045Y003772D02*
X013518Y003772D01*
X012679Y003658D02*
X011932Y003658D01*
X011894Y003621D02*
X012641Y003621D01*
X012603Y003583D02*
X011857Y003583D01*
X011819Y003545D02*
X012565Y003545D01*
X012527Y003507D02*
X011782Y003507D01*
X011755Y003469D02*
X012490Y003469D01*
X012452Y003431D02*
X011729Y003431D01*
X011703Y003393D02*
X012414Y003393D01*
X012376Y003356D02*
X011677Y003356D01*
X011656Y003318D02*
X012338Y003318D01*
X012300Y003280D02*
X011628Y003280D01*
X011577Y003242D02*
X012149Y003242D01*
X012261Y002811D02*
X012207Y002752D01*
X012260Y002692D01*
X012327Y002751D01*
X012261Y002811D01*
X018550Y003300D02*
X018550Y003300D01*
X018601Y003280D02*
X018828Y003280D01*
X018828Y003242D02*
X018639Y003242D01*
X018677Y003204D02*
X018828Y003204D01*
X018828Y003166D02*
X018715Y003166D01*
X017777Y003507D02*
X019899Y003507D01*
X019932Y003545D02*
X017815Y003545D01*
X017851Y003583D02*
X019970Y003583D01*
X020008Y003621D02*
X017887Y003621D01*
X017923Y003658D02*
X020046Y003658D01*
X020563Y003658D02*
X020800Y003658D01*
X020837Y003621D02*
X020597Y003621D01*
X020586Y003631D02*
X020586Y003631D01*
X020635Y003583D02*
X020873Y003583D01*
X020908Y003545D02*
X020672Y003545D01*
X020710Y003507D02*
X020946Y003507D01*
X020764Y003696D02*
X017960Y003696D01*
X018004Y003734D02*
X020720Y003734D01*
X020667Y003772D02*
X019722Y003772D01*
X019712Y003762D02*
X019816Y003867D01*
X019816Y004015D01*
X019712Y004120D01*
X019564Y004120D01*
X019459Y004015D01*
X019459Y003867D01*
X019564Y003762D01*
X019712Y003762D01*
X019759Y003810D02*
X020614Y003810D01*
X020561Y003848D02*
X019797Y003848D01*
X019816Y003886D02*
X020508Y003886D01*
X020455Y003924D02*
X019816Y003924D01*
X019816Y003961D02*
X020402Y003961D01*
X020349Y003999D02*
X019816Y003999D01*
X019794Y004037D02*
X020264Y004037D01*
X020167Y004075D02*
X019756Y004075D01*
X019718Y004113D02*
X020070Y004113D01*
X019974Y004151D02*
X018750Y004151D01*
X018847Y004189D02*
X019877Y004189D01*
X019601Y004227D02*
X019122Y004227D01*
X019557Y004113D02*
X018653Y004113D01*
X018556Y004075D02*
X019519Y004075D01*
X019481Y004037D02*
X018459Y004037D01*
X018375Y003999D02*
X019459Y003999D01*
X019459Y003961D02*
X018322Y003961D01*
X018269Y003924D02*
X019459Y003924D01*
X019459Y003886D02*
X018216Y003886D01*
X018163Y003848D02*
X019478Y003848D01*
X019516Y003810D02*
X018110Y003810D01*
X018057Y003772D02*
X019554Y003772D01*
X024952Y003507D02*
X026783Y003507D01*
X026745Y003469D02*
X025227Y003469D01*
X025265Y003431D02*
X026728Y003431D01*
X026728Y003393D02*
X026232Y003393D01*
X026270Y003356D02*
X026728Y003356D01*
X026728Y003318D02*
X026308Y003318D01*
X026334Y003280D02*
X026354Y003280D01*
X026002Y003318D02*
X025376Y003318D01*
X025339Y003356D02*
X026040Y003356D01*
X026078Y003393D02*
X025302Y003393D01*
X025413Y003280D02*
X025977Y003280D01*
X025977Y003242D02*
X025450Y003242D01*
X025464Y003238D02*
X025464Y003238D01*
X025600Y003204D02*
X025977Y003204D01*
X025977Y003166D02*
X025640Y003166D01*
X027085Y003318D02*
X027419Y003318D01*
X027397Y003280D02*
X027278Y003280D01*
X027316Y003242D02*
X027397Y003242D01*
X027397Y003204D02*
X027354Y003204D01*
X027392Y003166D02*
X027397Y003166D01*
X027755Y003166D02*
X030897Y003166D01*
X030938Y003204D02*
X027755Y003204D01*
X027755Y003242D02*
X031089Y003242D01*
X031127Y003280D02*
X027755Y003280D01*
X027733Y003318D02*
X031165Y003318D01*
X031203Y003356D02*
X027695Y003356D01*
X027657Y003393D02*
X031241Y003393D01*
X031278Y003431D02*
X027085Y003431D01*
X027085Y003393D02*
X027495Y003393D01*
X027457Y003356D02*
X027085Y003356D01*
X027068Y003469D02*
X031316Y003469D01*
X030489Y003507D02*
X033010Y003507D01*
X032973Y003469D02*
X032643Y003469D01*
X032663Y003449D02*
X032663Y003449D01*
X032681Y003431D02*
X032954Y003431D01*
X032954Y003393D02*
X032719Y003393D01*
X032757Y003356D02*
X032954Y003356D01*
X032954Y003318D02*
X032795Y003318D01*
X033394Y003204D02*
X036951Y003204D01*
X036910Y003166D02*
X033432Y003166D01*
X033292Y003469D02*
X038977Y003469D01*
X039015Y003507D02*
X036510Y003507D01*
X036548Y003545D02*
X039053Y003545D01*
X039218Y003545D02*
X039681Y003545D01*
X039718Y003507D02*
X039256Y003507D01*
X039294Y003469D02*
X039744Y003469D01*
X039770Y003431D02*
X039314Y003431D01*
X039314Y003393D02*
X039796Y003393D01*
X039822Y003356D02*
X039314Y003356D01*
X039314Y003318D02*
X039844Y003318D01*
X039872Y003280D02*
X039293Y003280D01*
X039256Y003242D02*
X039923Y003242D01*
X039923Y003204D02*
X039247Y003204D01*
X039285Y003166D02*
X039923Y003166D01*
X038380Y003053D02*
X038045Y003053D01*
X038083Y003090D02*
X038342Y003090D01*
X038304Y003128D02*
X038121Y003128D01*
X038133Y003166D02*
X038291Y003166D01*
X038291Y003204D02*
X038133Y003204D01*
X038133Y003242D02*
X038291Y003242D01*
X038291Y003280D02*
X038133Y003280D01*
X038104Y003318D02*
X038318Y003318D01*
X039643Y003583D02*
X036581Y003583D01*
X036616Y003621D02*
X039605Y003621D01*
X039568Y003658D02*
X036650Y003658D01*
X036685Y003696D02*
X039530Y003696D01*
X039492Y003734D02*
X036727Y003734D01*
X036777Y003772D02*
X039455Y003772D01*
X039417Y003810D02*
X036826Y003810D01*
X036876Y003848D02*
X039380Y003848D01*
X039321Y003886D02*
X037946Y003886D01*
X037934Y003874D02*
X038039Y003979D01*
X038039Y004127D01*
X037934Y004231D01*
X037786Y004231D01*
X037681Y004127D01*
X037681Y003979D01*
X037786Y003874D01*
X037934Y003874D01*
X037984Y003924D02*
X039259Y003924D01*
X039197Y003961D02*
X038022Y003961D01*
X038039Y003999D02*
X039135Y003999D01*
X039073Y004037D02*
X038039Y004037D01*
X038039Y004075D02*
X039011Y004075D01*
X038938Y004113D02*
X038039Y004113D01*
X038015Y004151D02*
X038819Y004151D01*
X038700Y004189D02*
X037977Y004189D01*
X037939Y004227D02*
X038581Y004227D01*
X038337Y004264D02*
X037883Y004264D01*
X037781Y004227D02*
X037665Y004227D01*
X037743Y004189D02*
X037499Y004189D01*
X037412Y004151D02*
X037705Y004151D01*
X037681Y004113D02*
X037325Y004113D01*
X037238Y004075D02*
X037681Y004075D01*
X037681Y004037D02*
X037152Y004037D01*
X037075Y003999D02*
X037681Y003999D01*
X037699Y003961D02*
X037025Y003961D01*
X036975Y003924D02*
X037736Y003924D01*
X037774Y003886D02*
X036926Y003886D01*
X033604Y003583D02*
X030563Y003583D01*
X030599Y003621D02*
X033568Y003621D01*
X033532Y003658D02*
X030635Y003658D01*
X030672Y003696D02*
X033495Y003696D01*
X033452Y003734D02*
X030715Y003734D01*
X030768Y003772D02*
X033399Y003772D01*
X033346Y003810D02*
X030821Y003810D01*
X030874Y003848D02*
X033293Y003848D01*
X033240Y003886D02*
X030927Y003886D01*
X030980Y003924D02*
X031755Y003924D01*
X031717Y003961D02*
X031033Y003961D01*
X031086Y003999D02*
X031679Y003999D01*
X031663Y004037D02*
X031167Y004037D01*
X031264Y004075D02*
X031663Y004075D01*
X031663Y004113D02*
X031361Y004113D01*
X031458Y004151D02*
X031663Y004151D01*
X031689Y004189D02*
X031555Y004189D01*
X031957Y004227D02*
X032359Y004227D01*
X032612Y004189D02*
X031995Y004189D01*
X032021Y004151D02*
X032709Y004151D01*
X032806Y004113D02*
X032021Y004113D01*
X032021Y004075D02*
X032903Y004075D01*
X033000Y004037D02*
X032021Y004037D01*
X032005Y003999D02*
X033081Y003999D01*
X033134Y003961D02*
X031967Y003961D01*
X031929Y003924D02*
X033187Y003924D01*
X033217Y003545D02*
X033640Y003545D01*
X033678Y003507D02*
X033254Y003507D01*
X033048Y003545D02*
X030527Y003545D01*
X028123Y003507D02*
X027030Y003507D01*
X026992Y003545D02*
X028085Y003545D01*
X028049Y003583D02*
X025025Y003583D01*
X024990Y003545D02*
X026821Y003545D01*
X028013Y003621D02*
X025062Y003621D01*
X025098Y003658D02*
X027977Y003658D01*
X027940Y003696D02*
X025134Y003696D01*
X025178Y003734D02*
X027896Y003734D01*
X027843Y003772D02*
X025231Y003772D01*
X025284Y003810D02*
X027790Y003810D01*
X027737Y003848D02*
X026357Y003848D01*
X026348Y003839D02*
X026200Y003839D01*
X026095Y003943D01*
X026095Y004091D01*
X026200Y004196D01*
X026348Y004196D01*
X026453Y004091D01*
X026453Y003943D01*
X026348Y003839D01*
X026395Y003886D02*
X027684Y003886D01*
X027631Y003924D02*
X026433Y003924D01*
X026453Y003961D02*
X027578Y003961D01*
X027525Y003999D02*
X026453Y003999D01*
X026453Y004037D02*
X027440Y004037D01*
X027343Y004075D02*
X026453Y004075D01*
X026431Y004113D02*
X027246Y004113D01*
X027149Y004151D02*
X026393Y004151D01*
X026355Y004189D02*
X027052Y004189D01*
X026778Y004227D02*
X026297Y004227D01*
X026192Y004189D02*
X026022Y004189D01*
X025925Y004151D02*
X026155Y004151D01*
X026117Y004113D02*
X025828Y004113D01*
X025731Y004075D02*
X026095Y004075D01*
X026095Y004037D02*
X025634Y004037D01*
X025549Y003999D02*
X026095Y003999D01*
X026095Y003961D02*
X025496Y003961D01*
X025443Y003924D02*
X026115Y003924D01*
X026153Y003886D02*
X025390Y003886D01*
X025337Y003848D02*
X026191Y003848D01*
X030966Y002516D02*
X031055Y002512D01*
X030966Y002516D01*
X030971Y002427D01*
X030966Y002516D01*
X030971Y002427D01*
X030966Y002516D02*
X031055Y002512D01*
X027575Y002272D02*
X027521Y002213D01*
X027455Y002273D01*
X027522Y002332D01*
X027575Y002272D01*
X027574Y002273D01*
X026792Y002273D01*
X026635Y002433D01*
X025904Y002434D02*
X025494Y002434D01*
X025547Y002180D02*
X025494Y002120D01*
X025548Y002060D01*
X025614Y002121D01*
X025547Y002180D01*
X025499Y002121D02*
X025494Y002120D01*
X025499Y002121D02*
X026670Y002121D01*
X026379Y001800D02*
X026000Y001800D01*
X025842Y001642D01*
X025372Y001642D01*
X025223Y001799D01*
X025217Y001719D01*
X025223Y001799D01*
X025304Y001801D01*
X025223Y001799D01*
X025304Y001801D02*
X025306Y001712D01*
X025217Y001719D01*
X025306Y001712D01*
X025304Y001801D01*
X025306Y001712D01*
X025217Y001719D01*
X025953Y001613D02*
X026213Y001613D01*
X026213Y001576D02*
X025915Y001576D01*
X025672Y001538D02*
X026242Y001538D01*
X026280Y001500D02*
X025672Y001500D01*
X025672Y001462D02*
X026738Y001462D01*
X026738Y001424D02*
X025672Y001424D01*
X025649Y001386D02*
X026758Y001386D01*
X026796Y001348D02*
X025611Y001348D01*
X025573Y001311D02*
X026834Y001311D01*
X026999Y001311D02*
X027400Y001311D01*
X027400Y001348D02*
X027037Y001348D01*
X027075Y001386D02*
X027400Y001386D01*
X027429Y001424D02*
X027095Y001424D01*
X027095Y001462D02*
X027467Y001462D01*
X027465Y001500D02*
X027095Y001500D01*
X027095Y001538D02*
X027427Y001538D01*
X027396Y001576D02*
X027210Y001576D01*
X027248Y001613D02*
X027396Y001613D01*
X027396Y001651D02*
X027286Y001651D01*
X027324Y001689D02*
X027396Y001689D01*
X027296Y001800D02*
X027139Y001643D01*
X026818Y001643D01*
X026391Y001641D01*
X026445Y001582D01*
X026511Y001642D01*
X026445Y001701D01*
X026391Y001641D01*
X026213Y001651D02*
X025991Y001651D01*
X026029Y001689D02*
X026213Y001689D01*
X027296Y001800D02*
X029491Y001799D01*
X029647Y001644D01*
X031705Y001644D01*
X031705Y001642D01*
X031652Y001702D01*
X031585Y001644D01*
X031650Y001583D01*
X031705Y001642D01*
X031747Y001574D01*
X031823Y001621D01*
X031768Y001691D01*
X031705Y001642D01*
X031705Y001645D01*
X031796Y001645D01*
X031975Y001485D01*
X032588Y001485D01*
X032751Y001643D01*
X037819Y001643D01*
X037879Y001642D01*
X037825Y001702D01*
X037759Y001643D01*
X037825Y001583D01*
X037879Y001642D01*
X038057Y001651D02*
X038291Y001651D01*
X038291Y001613D02*
X038057Y001613D01*
X038057Y001576D02*
X038291Y001576D01*
X038318Y001538D02*
X038027Y001538D01*
X037989Y001500D02*
X038356Y001500D01*
X038362Y001462D02*
X037877Y001462D01*
X037915Y001424D02*
X038324Y001424D01*
X038296Y001386D02*
X037937Y001386D01*
X037937Y001348D02*
X038296Y001348D01*
X038296Y001311D02*
X037937Y001311D01*
X037937Y001273D02*
X038296Y001273D01*
X038309Y001235D02*
X037918Y001235D01*
X037880Y001197D02*
X038347Y001197D01*
X038385Y001159D02*
X037842Y001159D01*
X037674Y001159D02*
X033591Y001159D01*
X033591Y001121D02*
X039774Y001121D01*
X039748Y001083D02*
X033591Y001083D01*
X033591Y001045D02*
X039722Y001045D01*
X039687Y001008D02*
X036542Y001008D01*
X036576Y000970D02*
X039649Y000970D01*
X039611Y000932D02*
X036610Y000932D01*
X036645Y000894D02*
X039574Y000894D01*
X039536Y000856D02*
X036679Y000856D01*
X036719Y000818D02*
X039498Y000818D01*
X039461Y000780D02*
X038405Y000780D01*
X038401Y000784D02*
X038253Y000784D01*
X038148Y000680D01*
X038148Y000531D01*
X038253Y000427D01*
X038401Y000427D01*
X038505Y000531D01*
X038505Y000680D01*
X038401Y000784D01*
X038442Y000742D02*
X039423Y000742D01*
X039385Y000705D02*
X038480Y000705D01*
X038505Y000667D02*
X039330Y000667D01*
X039268Y000629D02*
X038505Y000629D01*
X038505Y000591D02*
X039206Y000591D01*
X039144Y000553D02*
X038505Y000553D01*
X038489Y000515D02*
X039082Y000515D01*
X039020Y000477D02*
X038451Y000477D01*
X038413Y000440D02*
X038957Y000440D01*
X038838Y000402D02*
X037398Y000402D01*
X037311Y000440D02*
X038240Y000440D01*
X038202Y000477D02*
X037225Y000477D01*
X037138Y000515D02*
X038164Y000515D01*
X038148Y000553D02*
X037067Y000553D01*
X037017Y000591D02*
X038148Y000591D01*
X038148Y000629D02*
X036967Y000629D01*
X036918Y000667D02*
X038148Y000667D01*
X038173Y000705D02*
X036868Y000705D01*
X036818Y000742D02*
X038211Y000742D01*
X038249Y000780D02*
X036769Y000780D01*
X033646Y001008D02*
X033584Y001008D01*
X033610Y000970D02*
X033546Y000970D01*
X033574Y000932D02*
X033509Y000932D01*
X033538Y000894D02*
X030629Y000894D01*
X030665Y000856D02*
X033502Y000856D01*
X033462Y000818D02*
X030705Y000818D01*
X030758Y000780D02*
X033409Y000780D01*
X033356Y000742D02*
X032440Y000742D01*
X032414Y000769D02*
X032266Y000769D01*
X032161Y000664D01*
X032161Y000516D01*
X032266Y000411D01*
X032414Y000411D01*
X032519Y000516D01*
X032519Y000664D01*
X032414Y000769D01*
X032478Y000705D02*
X033303Y000705D01*
X033251Y000667D02*
X032516Y000667D01*
X032519Y000629D02*
X033198Y000629D01*
X033145Y000591D02*
X032519Y000591D01*
X032519Y000553D02*
X033093Y000553D01*
X033021Y000515D02*
X032518Y000515D01*
X032480Y000477D02*
X032925Y000477D01*
X032828Y000440D02*
X032442Y000440D01*
X032237Y000440D02*
X031339Y000440D01*
X031242Y000477D02*
X032200Y000477D01*
X032162Y000515D02*
X031146Y000515D01*
X031074Y000553D02*
X032161Y000553D01*
X032161Y000591D02*
X031022Y000591D01*
X030969Y000629D02*
X032161Y000629D01*
X032164Y000667D02*
X030916Y000667D01*
X030864Y000705D02*
X032202Y000705D01*
X032240Y000742D02*
X030811Y000742D01*
X030593Y000932D02*
X033315Y000932D01*
X033278Y000970D02*
X030557Y000970D01*
X030521Y001008D02*
X030960Y001008D01*
X030922Y001045D02*
X028051Y001045D01*
X028051Y001083D02*
X030884Y001083D01*
X030870Y001121D02*
X028051Y001121D01*
X028051Y001159D02*
X030659Y001159D01*
X030621Y001197D02*
X028046Y001197D01*
X028008Y001235D02*
X030583Y001235D01*
X030564Y001273D02*
X027971Y001273D01*
X027774Y001273D02*
X027758Y001273D01*
X027758Y001311D02*
X030564Y001311D01*
X030564Y001348D02*
X027758Y001348D01*
X027758Y001386D02*
X030564Y001386D01*
X030587Y001424D02*
X027729Y001424D01*
X027691Y001462D02*
X030624Y001462D01*
X030662Y001500D02*
X027684Y001500D01*
X027722Y001538D02*
X030871Y001538D01*
X030871Y001500D02*
X030824Y001500D01*
X030861Y001462D02*
X030871Y001462D01*
X029576Y001576D02*
X027753Y001576D01*
X027753Y001613D02*
X029538Y001613D01*
X029500Y001651D02*
X027753Y001651D01*
X027753Y001689D02*
X029461Y001689D01*
X030750Y001792D02*
X030914Y001959D01*
X031308Y001959D01*
X031314Y001959D01*
X031471Y001801D01*
X031964Y001801D01*
X032118Y001955D01*
X032361Y001955D01*
X032467Y001957D01*
X032406Y002010D01*
X032348Y001942D01*
X032421Y001891D01*
X032467Y001957D01*
X032460Y001957D01*
X030838Y001882D02*
X030830Y001793D01*
X030750Y001801D01*
X030749Y001881D01*
X030838Y001882D01*
X030750Y001801D02*
X030750Y001792D01*
X026738Y001538D02*
X026543Y001538D01*
X026503Y001500D02*
X026738Y001500D01*
X027400Y001273D02*
X025443Y001273D01*
X025443Y001255D02*
X025443Y001305D01*
X025443Y001255D02*
X025338Y001150D01*
X025190Y001150D01*
X025141Y001199D01*
X025106Y001230D01*
X020825Y001230D01*
X020825Y001095D01*
X020720Y000991D01*
X020572Y000991D01*
X020467Y001095D01*
X020467Y001230D01*
X020073Y001230D01*
X019838Y000990D01*
X019838Y000990D01*
X019809Y000961D01*
X019781Y000932D01*
X019780Y000932D01*
X019780Y000932D01*
X019740Y000932D01*
X019699Y000932D01*
X019732Y000932D02*
X020842Y000932D01*
X020806Y000894D02*
X018418Y000894D01*
X018380Y000856D02*
X020770Y000856D01*
X020728Y000818D02*
X018343Y000818D01*
X018178Y000818D02*
X017995Y000818D01*
X017954Y000856D02*
X018140Y000856D01*
X018103Y000894D02*
X017918Y000894D01*
X017881Y000932D02*
X018082Y000932D01*
X018439Y001008D02*
X018999Y001008D01*
X018962Y001045D02*
X018439Y001045D01*
X018419Y001083D02*
X018924Y001083D01*
X018915Y001121D02*
X018381Y001121D01*
X018343Y001159D02*
X018915Y001159D01*
X018915Y001197D02*
X018192Y001197D01*
X018154Y001235D02*
X018915Y001235D01*
X018948Y001273D02*
X018116Y001273D01*
X018214Y001311D02*
X018438Y001311D01*
X018400Y001348D02*
X018252Y001348D01*
X018290Y001386D02*
X018362Y001386D01*
X018324Y001424D02*
X018317Y001424D01*
X018485Y001402D02*
X019373Y001402D01*
X019428Y001402D01*
X019669Y001644D01*
X019589Y001648D01*
X019669Y001644D01*
X019673Y001564D01*
X019584Y001559D01*
X019589Y001648D01*
X019584Y001559D01*
X019673Y001564D01*
X019669Y001644D01*
X019673Y001564D01*
X019669Y001644D01*
X019589Y001648D01*
X019669Y001644D01*
X019589Y001648D02*
X019584Y001559D01*
X019673Y001564D01*
X019584Y001559D01*
X019589Y001648D01*
X019591Y001814D02*
X019418Y001641D01*
X019416Y001639D01*
X018999Y001641D01*
X019053Y001580D01*
X019120Y001639D01*
X019054Y001580D01*
X018999Y001641D01*
X019054Y001699D01*
X018999Y001641D01*
X019054Y001580D01*
X019120Y001639D01*
X019054Y001699D01*
X019120Y001639D01*
X019053Y001699D01*
X018999Y001641D01*
X018485Y001402D02*
X018243Y001644D01*
X015129Y001645D01*
X014456Y001645D01*
X014510Y001586D01*
X014456Y001645D01*
X014510Y001705D01*
X014456Y001645D01*
X014510Y001586D01*
X014576Y001645D01*
X014510Y001586D01*
X014456Y001645D01*
X014510Y001705D01*
X014576Y001645D01*
X014510Y001705D01*
X014456Y001645D01*
X014510Y001586D02*
X014576Y001645D01*
X014510Y001586D01*
X014576Y001645D02*
X014510Y001705D01*
X014576Y001645D01*
X014922Y001311D02*
X017800Y001311D01*
X017837Y001273D02*
X014884Y001273D01*
X014846Y001235D02*
X017875Y001235D01*
X017913Y001197D02*
X014808Y001197D01*
X014770Y001159D02*
X017951Y001159D01*
X017989Y001121D02*
X014732Y001121D01*
X014694Y001083D02*
X018027Y001083D01*
X019090Y001086D02*
X019094Y001166D01*
X019174Y001170D01*
X019179Y001081D01*
X019090Y001086D01*
X019094Y001166D01*
X019174Y001170D01*
X019179Y001081D01*
X019090Y001086D01*
X019179Y001081D01*
X019174Y001170D01*
X019094Y001166D02*
X019229Y001030D01*
X019818Y000970D02*
X020879Y000970D01*
X020914Y001008D02*
X020737Y001008D01*
X020775Y001045D02*
X026075Y001045D01*
X026112Y001083D02*
X020813Y001083D01*
X020825Y001121D02*
X027694Y001121D01*
X027694Y001083D02*
X026310Y001083D01*
X026285Y001108D02*
X026137Y001108D01*
X026033Y001004D01*
X026033Y000855D01*
X026137Y000751D01*
X026207Y000751D01*
X026112Y000656D01*
X026112Y000507D01*
X026217Y000403D01*
X026365Y000403D01*
X026469Y000507D01*
X026469Y000656D01*
X026365Y000760D01*
X026295Y000760D01*
X026390Y000855D01*
X026390Y001004D01*
X026285Y001108D01*
X026348Y001045D02*
X027694Y001045D01*
X027730Y001008D02*
X026386Y001008D01*
X026390Y000970D02*
X027768Y000970D01*
X027977Y000970D02*
X028055Y000970D01*
X028091Y001008D02*
X028015Y001008D01*
X028019Y000932D02*
X026390Y000932D01*
X026390Y000894D02*
X027982Y000894D01*
X027946Y000856D02*
X026390Y000856D01*
X026353Y000818D02*
X027904Y000818D01*
X027851Y000780D02*
X026315Y000780D01*
X026383Y000742D02*
X027798Y000742D01*
X027745Y000705D02*
X026420Y000705D01*
X026458Y000667D02*
X027692Y000667D01*
X027639Y000629D02*
X026469Y000629D01*
X026469Y000591D02*
X027586Y000591D01*
X027533Y000553D02*
X026469Y000553D01*
X026469Y000515D02*
X027456Y000515D01*
X027359Y000477D02*
X026439Y000477D01*
X026402Y000440D02*
X027262Y000440D01*
X027165Y000402D02*
X025910Y000402D01*
X026007Y000364D02*
X027068Y000364D01*
X026826Y000326D02*
X026249Y000326D01*
X026180Y000440D02*
X025813Y000440D01*
X025716Y000477D02*
X026142Y000477D01*
X026112Y000515D02*
X025619Y000515D01*
X025541Y000553D02*
X026112Y000553D01*
X026112Y000591D02*
X025488Y000591D01*
X025435Y000629D02*
X026112Y000629D01*
X026123Y000667D02*
X025382Y000667D01*
X025329Y000705D02*
X026161Y000705D01*
X026199Y000742D02*
X025276Y000742D01*
X025223Y000780D02*
X026108Y000780D01*
X026070Y000818D02*
X025170Y000818D01*
X025128Y000856D02*
X026033Y000856D01*
X026033Y000894D02*
X025092Y000894D01*
X025056Y000932D02*
X026033Y000932D01*
X026033Y000970D02*
X025019Y000970D01*
X024984Y001008D02*
X026037Y001008D01*
X025347Y001159D02*
X027488Y001159D01*
X027451Y001197D02*
X025385Y001197D01*
X025423Y001235D02*
X027413Y001235D01*
X027669Y001159D02*
X027694Y001159D01*
X025181Y001159D02*
X020825Y001159D01*
X020825Y001197D02*
X025143Y001197D01*
X020678Y001639D02*
X020624Y001579D01*
X020558Y001639D01*
X020624Y001699D01*
X020678Y001639D01*
X020624Y001699D01*
X020558Y001639D01*
X020678Y001639D02*
X020085Y001639D01*
X019907Y001810D01*
X019906Y001812D01*
X019905Y001813D01*
X019903Y001814D01*
X019591Y001814D01*
X020041Y001197D02*
X020467Y001197D01*
X020467Y001159D02*
X020003Y001159D01*
X019966Y001121D02*
X020467Y001121D01*
X020479Y001083D02*
X019929Y001083D01*
X019892Y001045D02*
X020517Y001045D01*
X020555Y001008D02*
X019855Y001008D01*
X019695Y000813D02*
X019547Y000813D01*
X019442Y000709D01*
X019442Y000561D01*
X019547Y000456D01*
X019695Y000456D01*
X019800Y000561D01*
X019800Y000709D01*
X019695Y000813D01*
X019728Y000780D02*
X020675Y000780D01*
X020622Y000742D02*
X019766Y000742D01*
X019800Y000705D02*
X020569Y000705D01*
X020516Y000667D02*
X019800Y000667D01*
X019800Y000629D02*
X020463Y000629D01*
X020410Y000591D02*
X019800Y000591D01*
X019792Y000553D02*
X020357Y000553D01*
X020280Y000515D02*
X019754Y000515D01*
X019717Y000477D02*
X020183Y000477D01*
X020086Y000440D02*
X018638Y000440D01*
X018735Y000402D02*
X019989Y000402D01*
X019892Y000364D02*
X018832Y000364D01*
X019074Y000326D02*
X019650Y000326D01*
X019526Y000477D02*
X018541Y000477D01*
X018444Y000515D02*
X019488Y000515D01*
X019450Y000553D02*
X018366Y000553D01*
X018313Y000591D02*
X019442Y000591D01*
X019442Y000629D02*
X018260Y000629D01*
X018207Y000667D02*
X019442Y000667D01*
X019442Y000705D02*
X018154Y000705D01*
X018101Y000742D02*
X019476Y000742D01*
X019514Y000780D02*
X018048Y000780D01*
X014057Y000402D02*
X012676Y000402D01*
X012795Y000364D02*
X013970Y000364D01*
X013796Y000326D02*
X012913Y000326D01*
X013194Y000288D02*
X013576Y000288D01*
X030827Y001159D02*
X030870Y001159D01*
X030865Y001197D02*
X030870Y001197D01*
X031228Y001197D02*
X031305Y001197D01*
X031345Y001159D02*
X031228Y001159D01*
X031228Y001121D02*
X031384Y001121D01*
X031423Y001083D02*
X031214Y001083D01*
X031176Y001045D02*
X033233Y001045D01*
X033240Y001008D02*
X031139Y001008D01*
X031310Y001328D02*
X031482Y001163D01*
X032551Y001163D01*
X032555Y001167D01*
X032610Y001083D02*
X033233Y001083D01*
X033233Y001121D02*
X032648Y001121D01*
X032686Y001159D02*
X033233Y001159D01*
X033268Y001197D02*
X032724Y001197D01*
X033556Y001197D02*
X037636Y001197D01*
X038565Y001159D02*
X039800Y001159D01*
X039826Y001197D02*
X038603Y001197D01*
X038641Y001235D02*
X039848Y001235D01*
X039886Y001273D02*
X038654Y001273D01*
X038291Y001689D02*
X038057Y001689D01*
X038047Y001727D02*
X038304Y001727D01*
X038342Y001765D02*
X038009Y001765D01*
X037971Y001803D02*
X038369Y001803D01*
X037787Y001803D02*
X037239Y001803D01*
X037239Y001765D02*
X037748Y001765D01*
X031310Y001328D02*
X031035Y001327D01*
X031436Y000402D02*
X032732Y000402D01*
X032635Y000364D02*
X031532Y000364D01*
X031735Y000326D02*
X032432Y000326D01*
X032129Y000288D02*
X032038Y000288D01*
X037485Y000364D02*
X038719Y000364D01*
X038600Y000326D02*
X037630Y000326D01*
X037849Y000288D02*
X038425Y000288D01*
D12*
X032714Y001326D02*
X032555Y001167D01*
X032714Y001326D02*
X037721Y001323D01*
X037758Y001328D01*
X037702Y001385D01*
X037758Y001328D01*
X037707Y001266D01*
X037638Y001323D01*
X037702Y001385D01*
X037638Y001323D01*
X031035Y001327D02*
X030743Y001328D01*
X030796Y001268D01*
X030863Y001328D01*
X030796Y001387D01*
X030743Y001328D01*
X026635Y002433D02*
X026048Y002433D01*
X013377Y002594D02*
X013211Y002427D01*
M02*
