G75*
G70*
%OFA0B0*%
%FSLAX24Y24*%
%IPPOS*%
%LPD*%
%AMOC8*
5,1,8,0,0,1.08239X$1,22.5*
%
%ADD10R,0.0394X0.0087*%
%ADD11R,0.0394X0.0394*%
%ADD12R,0.1496X0.0276*%
%ADD13C,0.0039*%
%ADD14C,0.0040*%
%ADD15C,0.0079*%
%ADD16C,0.0200*%
%ADD17C,0.0059*%
%ADD18C,0.0071*%
D10*
X012642Y001171D03*
X014060Y001171D03*
X014060Y001328D03*
X014060Y001486D03*
X012642Y001486D03*
X012642Y001328D03*
X012642Y001643D03*
X012642Y001801D03*
X012642Y001958D03*
X014060Y001958D03*
X014060Y001801D03*
X014060Y001643D03*
X018648Y001643D03*
X020066Y001643D03*
X020066Y001801D03*
X018648Y001801D03*
X018648Y001958D03*
X020066Y001958D03*
X020066Y002116D03*
X018648Y002116D03*
X018648Y002273D03*
X020066Y002273D03*
X020066Y002431D03*
X018648Y002431D03*
X018648Y002588D03*
X020066Y002588D03*
X020066Y002746D03*
X018648Y002746D03*
X018648Y002903D03*
X020066Y002903D03*
X020066Y003061D03*
X018648Y003061D03*
X018648Y003218D03*
X020066Y003218D03*
X020066Y003376D03*
X018648Y003376D03*
X014060Y003376D03*
X012642Y003376D03*
X012642Y003218D03*
X012642Y003061D03*
X014060Y003061D03*
X014060Y003218D03*
X014060Y002903D03*
X014060Y002746D03*
X014060Y002588D03*
X012642Y002588D03*
X012642Y002746D03*
X012642Y002903D03*
X012642Y002431D03*
X012642Y002273D03*
X012642Y002116D03*
X014060Y002116D03*
X014060Y002273D03*
X014060Y002431D03*
X018648Y001486D03*
X020066Y001486D03*
X020066Y001328D03*
X018648Y001328D03*
X018648Y001171D03*
X020066Y001171D03*
X025829Y001171D03*
X027246Y001171D03*
X027246Y001328D03*
X025829Y001328D03*
X025829Y001486D03*
X027246Y001486D03*
X027246Y001643D03*
X025829Y001643D03*
X025829Y001801D03*
X027246Y001801D03*
X027246Y001958D03*
X025829Y001958D03*
X025829Y002116D03*
X027246Y002116D03*
X027246Y002273D03*
X025829Y002273D03*
X025829Y002431D03*
X027246Y002431D03*
X027246Y002588D03*
X025829Y002588D03*
X025829Y002746D03*
X027246Y002746D03*
X027246Y002903D03*
X025829Y002903D03*
X025829Y003061D03*
X027246Y003061D03*
X027246Y003218D03*
X025829Y003218D03*
X025829Y003376D03*
X027246Y003376D03*
X031378Y003376D03*
X032795Y003376D03*
X032795Y003218D03*
X032795Y003061D03*
X031378Y003061D03*
X031378Y003218D03*
X031378Y002903D03*
X031378Y002746D03*
X031378Y002588D03*
X032795Y002588D03*
X032795Y002746D03*
X032795Y002903D03*
X037389Y002903D03*
X037389Y002746D03*
X037389Y002588D03*
X038807Y002588D03*
X038807Y002746D03*
X038807Y002903D03*
X038807Y003061D03*
X038807Y003218D03*
X037389Y003218D03*
X037389Y003061D03*
X037389Y003376D03*
X038807Y003376D03*
X038807Y002431D03*
X038807Y002273D03*
X038807Y002116D03*
X037389Y002116D03*
X037389Y002273D03*
X037389Y002431D03*
X032795Y002431D03*
X032795Y002273D03*
X032795Y002116D03*
X031378Y002116D03*
X031378Y002273D03*
X031378Y002431D03*
X031378Y001958D03*
X031378Y001801D03*
X031378Y001643D03*
X032795Y001643D03*
X032795Y001801D03*
X032795Y001958D03*
X037389Y001958D03*
X037389Y001801D03*
X037389Y001643D03*
X038807Y001643D03*
X038807Y001801D03*
X038807Y001958D03*
X038807Y001486D03*
X038807Y001328D03*
X037389Y001328D03*
X037389Y001486D03*
X037389Y001171D03*
X038807Y001171D03*
X032795Y001171D03*
X031378Y001171D03*
X031378Y001328D03*
X031378Y001486D03*
X032795Y001486D03*
X032795Y001328D03*
D11*
X032795Y000777D03*
X031378Y000777D03*
X027246Y000777D03*
X025829Y000777D03*
X020066Y000777D03*
X018648Y000777D03*
X014060Y000777D03*
X012642Y000777D03*
X037389Y000777D03*
X038807Y000777D03*
X038807Y003769D03*
X037389Y003769D03*
X032795Y003769D03*
X031378Y003769D03*
X027246Y003769D03*
X025829Y003769D03*
X020066Y003769D03*
X018648Y003769D03*
X014060Y003769D03*
X012642Y003769D03*
D12*
X000947Y000502D03*
X000947Y000895D03*
X000947Y001289D03*
X000947Y001683D03*
X000947Y002076D03*
X000947Y002470D03*
X000947Y002864D03*
X000947Y003257D03*
X000947Y003651D03*
X000947Y004045D03*
X050553Y004045D03*
X050553Y003651D03*
X050553Y003257D03*
X050553Y002864D03*
X050553Y002470D03*
X050553Y002076D03*
X050553Y001683D03*
X050553Y001289D03*
X050553Y000895D03*
X050553Y000502D03*
D13*
X039585Y000989D02*
X039338Y000740D01*
X038936Y000494D01*
X038486Y000351D01*
X038015Y000319D01*
X037550Y000399D01*
X037118Y000588D01*
X036742Y000874D01*
X036620Y001008D01*
X037055Y001008D01*
X037077Y000988D01*
X037187Y000990D01*
X037643Y000990D01*
X037724Y001070D01*
X037724Y001090D01*
X037856Y001090D01*
X037996Y001229D01*
X037996Y001423D01*
X038116Y001544D01*
X038116Y001741D01*
X037977Y001880D01*
X037834Y001880D01*
X037819Y001884D01*
X037819Y001884D01*
X037819Y001884D01*
X037819Y001884D01*
X037819Y001884D01*
X037819Y001884D01*
X037812Y001880D01*
X037780Y001880D01*
X037731Y001831D01*
X037724Y001827D01*
X037724Y001827D01*
X037724Y002588D01*
X038232Y002588D01*
X038232Y002491D01*
X038290Y002432D01*
X038232Y002373D01*
X038232Y002176D01*
X038292Y002116D01*
X038231Y002055D01*
X038231Y001858D01*
X038291Y001797D01*
X038232Y001738D01*
X038232Y001541D01*
X038371Y001402D01*
X038472Y001402D01*
X038472Y001385D01*
X038529Y001328D01*
X038472Y001271D01*
X038472Y001070D01*
X038553Y000990D01*
X038728Y000990D01*
X038729Y000989D01*
X038972Y000989D01*
X038994Y000976D01*
X039042Y000928D01*
X039076Y000928D01*
X039083Y000924D01*
X039083Y000924D01*
X039083Y000924D01*
X039083Y000924D01*
X039084Y000924D01*
X039101Y000928D01*
X039239Y000928D01*
X039301Y000991D01*
X039546Y000991D01*
X039550Y000987D01*
X039585Y000989D01*
X039566Y000970D02*
X039280Y000970D01*
X039242Y000932D02*
X039529Y000932D01*
X039491Y000894D02*
X036724Y000894D01*
X036690Y000932D02*
X039038Y000932D01*
X039084Y000924D02*
X039084Y000924D01*
X039084Y000924D01*
X039001Y000970D02*
X036655Y000970D01*
X036621Y001008D02*
X037056Y001008D01*
X037661Y001008D02*
X038535Y001008D01*
X038497Y001045D02*
X037699Y001045D01*
X037724Y001083D02*
X038472Y001083D01*
X038472Y001121D02*
X037888Y001121D01*
X037925Y001159D02*
X038472Y001159D01*
X038472Y001197D02*
X037963Y001197D01*
X037996Y001235D02*
X038472Y001235D01*
X038473Y001273D02*
X037996Y001273D01*
X037996Y001311D02*
X038511Y001311D01*
X038509Y001348D02*
X037996Y001348D01*
X037996Y001386D02*
X038472Y001386D01*
X038348Y001424D02*
X037997Y001424D01*
X038035Y001462D02*
X038311Y001462D01*
X038273Y001500D02*
X038073Y001500D01*
X038111Y001538D02*
X038235Y001538D01*
X038232Y001576D02*
X038116Y001576D01*
X038116Y001613D02*
X038232Y001613D01*
X038232Y001651D02*
X038116Y001651D01*
X038116Y001689D02*
X038232Y001689D01*
X038232Y001727D02*
X038116Y001727D01*
X038092Y001765D02*
X038259Y001765D01*
X038286Y001803D02*
X038054Y001803D01*
X038016Y001841D02*
X038248Y001841D01*
X038231Y001879D02*
X037979Y001879D01*
X037819Y001884D02*
X037819Y001884D01*
X037779Y001879D02*
X037724Y001879D01*
X037724Y001916D02*
X038231Y001916D01*
X038231Y001954D02*
X037724Y001954D01*
X037724Y001992D02*
X038231Y001992D01*
X038231Y002030D02*
X037724Y002030D01*
X037724Y002068D02*
X038244Y002068D01*
X038281Y002106D02*
X037724Y002106D01*
X037724Y002144D02*
X038264Y002144D01*
X038232Y002182D02*
X037724Y002182D01*
X037724Y002219D02*
X038232Y002219D01*
X038232Y002257D02*
X037724Y002257D01*
X037724Y002295D02*
X038232Y002295D01*
X038232Y002333D02*
X037724Y002333D01*
X037724Y002371D02*
X038232Y002371D01*
X038267Y002409D02*
X037724Y002409D01*
X037724Y002447D02*
X038276Y002447D01*
X038238Y002485D02*
X037724Y002485D01*
X037724Y002522D02*
X038232Y002522D01*
X038232Y002560D02*
X037724Y002560D01*
X037142Y002589D02*
X033449Y002589D01*
X033503Y002529D01*
X033569Y002589D01*
X033503Y002529D01*
X033449Y002589D01*
X033503Y002648D01*
X033569Y002589D01*
X033503Y002648D01*
X033449Y002589D01*
X033503Y002648D01*
X033569Y002589D01*
X033503Y002529D01*
X033449Y002589D01*
X033503Y002529D01*
X033569Y002589D01*
X033503Y002648D01*
X033449Y002589D01*
X032370Y002431D02*
X032155Y002674D01*
X031934Y002789D02*
X031896Y002826D01*
X031759Y002826D01*
X031741Y002831D01*
X031741Y002831D01*
X031741Y002831D01*
X031741Y002831D01*
X031741Y002831D01*
X031741Y002831D01*
X031741Y002830D01*
X031741Y002830D01*
X031741Y002831D02*
X031741Y002831D01*
X031741Y002830D02*
X031733Y002826D01*
X031712Y002826D01*
X031712Y003161D01*
X031655Y003218D01*
X031712Y003275D01*
X031712Y003476D01*
X031632Y003557D01*
X031440Y003557D01*
X031426Y003570D01*
X031417Y003569D01*
X031411Y003574D01*
X031345Y003566D01*
X031338Y003566D01*
X031217Y003566D01*
X031195Y003578D01*
X031147Y003626D01*
X031113Y003626D01*
X031106Y003631D01*
X031106Y003631D01*
X031105Y003631D01*
X031088Y003626D01*
X030950Y003626D01*
X030811Y003487D01*
X030811Y003290D01*
X030876Y003225D01*
X030811Y003161D01*
X030811Y003133D01*
X030720Y003224D01*
X027814Y003224D01*
X027814Y003320D01*
X027674Y003459D01*
X027581Y003459D01*
X027581Y003476D01*
X027500Y003557D01*
X027064Y003557D01*
X027005Y003616D01*
X026808Y003616D01*
X026669Y003476D01*
X026669Y003279D01*
X026727Y003221D01*
X026667Y003161D01*
X026667Y002964D01*
X026734Y002896D01*
X026680Y002842D01*
X026680Y002703D01*
X026557Y002826D01*
X026415Y002826D01*
X026415Y003003D01*
X026276Y003142D01*
X026163Y003142D01*
X026163Y003161D01*
X026106Y003218D01*
X026163Y003275D01*
X026163Y003476D01*
X026082Y003557D01*
X025656Y003557D01*
X025640Y003566D01*
X025592Y003614D01*
X025558Y003614D01*
X025551Y003619D01*
X025551Y003619D01*
X025550Y003619D01*
X025533Y003614D01*
X025395Y003614D01*
X025256Y003475D01*
X025256Y003278D01*
X025317Y003217D01*
X025256Y003156D01*
X025256Y002959D01*
X025313Y002902D01*
X025256Y002845D01*
X025256Y002827D01*
X025109Y002827D01*
X024969Y002688D01*
X024969Y002491D01*
X025028Y002433D01*
X023384Y002433D01*
X020889Y002433D01*
X020872Y002449D01*
X020807Y002513D01*
X020773Y002513D01*
X020908Y002648D01*
X020908Y002845D01*
X020769Y002984D01*
X020636Y002984D01*
X020636Y003157D01*
X020576Y003217D01*
X020636Y003278D01*
X020636Y003475D01*
X020497Y003614D01*
X020358Y003614D01*
X020341Y003618D01*
X020334Y003614D01*
X020300Y003614D01*
X020252Y003566D01*
X020237Y003557D01*
X019812Y003557D01*
X019731Y003476D01*
X019731Y003457D01*
X019606Y003457D01*
X019467Y003318D01*
X018983Y003318D01*
X018983Y003356D02*
X019505Y003356D01*
X019542Y003393D02*
X018983Y003393D01*
X018983Y003431D02*
X019580Y003431D01*
X019731Y003469D02*
X018983Y003469D01*
X018983Y003476D02*
X018902Y003557D01*
X018479Y003557D01*
X018463Y003566D01*
X018415Y003614D01*
X018381Y003614D01*
X018374Y003618D01*
X018374Y003618D01*
X018374Y003618D01*
X018374Y003618D01*
X018374Y003618D01*
X018374Y003618D01*
X018374Y003618D01*
X018374Y003618D01*
X018373Y003618D01*
X018356Y003614D01*
X018218Y003614D01*
X018079Y003474D01*
X018079Y003277D01*
X018218Y003139D01*
X018217Y003139D01*
X018078Y002999D01*
X018078Y002824D01*
X018043Y002824D01*
X017903Y002684D01*
X017903Y002487D01*
X017958Y002432D01*
X017898Y002372D01*
X017898Y002175D01*
X018035Y002038D01*
X017868Y002038D01*
X017729Y001898D01*
X017729Y001702D01*
X017868Y001562D01*
X017901Y001562D01*
X017901Y001389D01*
X018040Y001250D01*
X018178Y001250D01*
X018172Y001244D01*
X018172Y001227D01*
X018162Y001227D01*
X018127Y001191D01*
X018111Y001185D01*
X018111Y001185D01*
X018111Y001185D01*
X018111Y001185D01*
X018111Y001185D01*
X018111Y001185D01*
X018111Y001185D01*
X018104Y001169D01*
X018023Y001087D01*
X018023Y000890D01*
X018091Y000822D01*
X018018Y000874D01*
X017881Y001017D01*
X017881Y001019D01*
X017845Y001056D01*
X017812Y001095D01*
X017805Y001095D01*
X017800Y001100D01*
X017749Y001100D01*
X017698Y001104D01*
X017693Y001100D01*
X015036Y001100D01*
X015029Y001105D01*
X014980Y001100D01*
X014930Y001100D01*
X014924Y001094D01*
X014916Y001093D01*
X014884Y001055D01*
X014849Y001019D01*
X014849Y001015D01*
X014722Y000876D01*
X014351Y000594D01*
X013923Y000407D01*
X013464Y000328D01*
X012998Y000360D01*
X012554Y000502D01*
X012156Y000746D01*
X011827Y001077D01*
X011715Y001241D01*
X011715Y001256D01*
X011686Y001284D01*
X011665Y001319D01*
X011647Y001323D01*
X011634Y001336D01*
X011593Y001336D01*
X011577Y001341D01*
X011577Y001423D01*
X011641Y001423D01*
X011736Y001392D01*
X011765Y001363D01*
X011825Y001363D01*
X011861Y001351D01*
X011869Y001355D01*
X011878Y001353D01*
X011893Y001363D01*
X011962Y001363D01*
X011979Y001379D01*
X012030Y001328D01*
X011971Y001270D01*
X011971Y001073D01*
X012110Y000934D01*
X012247Y000934D01*
X012265Y000929D01*
X012265Y000929D01*
X012265Y000929D01*
X012273Y000934D01*
X012307Y000934D01*
X012355Y000981D01*
X012376Y000994D01*
X012384Y000994D01*
X012388Y000990D01*
X012896Y000990D01*
X012977Y001070D01*
X012977Y001092D01*
X013087Y001092D01*
X013226Y001231D01*
X013226Y001428D01*
X013164Y001490D01*
X013218Y001544D01*
X013218Y001613D01*
X013268Y001563D01*
X013433Y001563D01*
X013433Y001387D01*
X013498Y001322D01*
X013431Y001256D01*
X013431Y001059D01*
X013571Y000920D01*
X013709Y000920D01*
X013726Y000915D01*
X013726Y000915D01*
X013726Y000915D01*
X013726Y000915D01*
X013726Y000915D01*
X013726Y000915D01*
X013726Y000915D01*
X013734Y000920D01*
X013768Y000920D01*
X013816Y000968D01*
X013837Y000980D01*
X014120Y000980D01*
X014129Y000990D01*
X014314Y000990D01*
X014394Y001070D01*
X014394Y001271D01*
X014337Y001328D01*
X014394Y001385D01*
X014394Y001405D01*
X014397Y001403D01*
X014398Y001403D01*
X014414Y001407D01*
X014554Y001407D01*
X014694Y001547D01*
X014694Y001744D01*
X014554Y001883D01*
X014419Y001883D01*
X014401Y001888D01*
X014401Y001888D01*
X014401Y001888D01*
X014401Y001888D01*
X014401Y001888D01*
X014394Y001884D01*
X014394Y002033D01*
X014397Y002032D01*
X014397Y002032D01*
X014397Y002032D01*
X014413Y002035D01*
X014554Y002035D01*
X014694Y002175D01*
X014694Y002372D01*
X014635Y002430D01*
X014694Y002488D01*
X014694Y002685D01*
X014554Y002825D01*
X014420Y002825D01*
X014402Y002830D01*
X014402Y002830D01*
X014402Y002830D01*
X014394Y002826D01*
X014394Y002976D01*
X014398Y002974D01*
X014398Y002974D01*
X014398Y002974D01*
X014415Y002978D01*
X014554Y002978D01*
X014694Y003118D01*
X014694Y003315D01*
X014554Y003454D01*
X014418Y003454D01*
X014400Y003459D01*
X014394Y003455D01*
X014394Y003476D01*
X014314Y003557D01*
X013833Y003557D01*
X013817Y003566D01*
X013769Y003614D01*
X013735Y003614D01*
X013728Y003618D01*
X013728Y003618D01*
X013728Y003618D01*
X013728Y003618D01*
X013728Y003618D01*
X013727Y003618D01*
X013710Y003614D01*
X013572Y003614D01*
X013433Y003475D01*
X013433Y003278D01*
X013492Y003219D01*
X013433Y003160D01*
X013433Y002963D01*
X013487Y002908D01*
X013429Y002850D01*
X013429Y002653D01*
X013494Y002589D01*
X013433Y002528D01*
X013433Y002331D01*
X013572Y002192D01*
X013710Y002192D01*
X013725Y002188D01*
X013725Y002117D01*
X013461Y002117D01*
X013383Y002039D01*
X013359Y002039D01*
X013312Y002042D01*
X013309Y002039D01*
X013268Y002039D01*
X013226Y001997D01*
X013226Y002054D01*
X013167Y002113D01*
X013226Y002173D01*
X013226Y002370D01*
X013166Y002430D01*
X013226Y002490D01*
X013226Y002687D01*
X013087Y002826D01*
X012977Y002826D01*
X012977Y003161D01*
X012920Y003218D01*
X012977Y003275D01*
X012977Y003476D01*
X012896Y003557D01*
X012395Y003557D01*
X012380Y003565D01*
X012333Y003612D01*
X012298Y003612D01*
X012289Y003617D01*
X012271Y003612D01*
X012136Y003612D01*
X012076Y003552D01*
X011941Y003552D01*
X011776Y003386D01*
X011770Y003386D01*
X011827Y003470D01*
X012156Y003801D01*
X012554Y004044D01*
X012998Y004186D01*
X013464Y004218D01*
X013923Y004139D01*
X014351Y003953D01*
X014722Y003670D01*
X014849Y003531D01*
X014849Y003527D01*
X014884Y003492D01*
X014916Y003453D01*
X014924Y003452D01*
X014930Y003446D01*
X014980Y003446D01*
X015029Y003441D01*
X015036Y003446D01*
X017693Y003446D01*
X017698Y003442D01*
X017749Y003446D01*
X017800Y003446D01*
X017805Y003451D01*
X017811Y003452D01*
X017845Y003491D01*
X017881Y003527D01*
X017881Y003529D01*
X018018Y003673D01*
X018418Y003958D01*
X018875Y004137D01*
X018962Y004147D01*
X018866Y004052D01*
X018866Y003855D01*
X019006Y003716D01*
X019203Y003716D01*
X019342Y003855D01*
X019342Y004052D01*
X019215Y004179D01*
X019362Y004197D01*
X019849Y004137D01*
X020306Y003958D01*
X020705Y003673D01*
X020843Y003529D01*
X020843Y003527D01*
X020879Y003491D01*
X020912Y003452D01*
X020919Y003451D01*
X020923Y003446D01*
X020975Y003446D01*
X021026Y003442D01*
X021031Y003446D01*
X024867Y003446D01*
X024872Y003442D01*
X024923Y003446D01*
X024975Y003446D01*
X024979Y003451D01*
X024986Y003451D01*
X025019Y003491D01*
X025056Y003527D01*
X025056Y003529D01*
X025193Y003673D01*
X025593Y003958D01*
X026050Y004137D01*
X026537Y004197D01*
X026633Y004186D01*
X026572Y004124D01*
X026572Y003927D01*
X026711Y003788D01*
X026908Y003788D01*
X027047Y003927D01*
X027047Y004124D01*
X027042Y004130D01*
X027482Y003958D01*
X027881Y003673D01*
X028019Y003529D01*
X028019Y003527D01*
X028055Y003491D01*
X028088Y003451D01*
X028095Y003451D01*
X028100Y003446D01*
X028151Y003446D01*
X028202Y003442D01*
X028207Y003446D01*
X030405Y003446D01*
X030410Y003442D01*
X030461Y003446D01*
X030512Y003446D01*
X030517Y003451D01*
X030524Y003452D01*
X030557Y003491D01*
X030593Y003527D01*
X030593Y003529D01*
X030732Y003674D01*
X031133Y003961D01*
X031593Y004141D01*
X032084Y004202D01*
X032130Y004196D01*
X032117Y004183D01*
X032117Y003986D01*
X032256Y003846D01*
X032453Y003846D01*
X032593Y003986D01*
X032593Y004133D01*
X033034Y003961D01*
X033435Y003674D01*
X033574Y003529D01*
X033574Y003527D01*
X033610Y003491D01*
X033643Y003452D01*
X033650Y003451D01*
X033655Y003446D01*
X033706Y003446D01*
X033757Y003442D01*
X033762Y003446D01*
X036427Y003446D01*
X036434Y003441D01*
X036483Y003446D01*
X036533Y003446D01*
X036539Y003452D01*
X036547Y003453D01*
X036579Y003492D01*
X036614Y003527D01*
X036614Y003531D01*
X036742Y003672D01*
X037118Y003958D01*
X037550Y004147D01*
X038015Y004228D01*
X038184Y004216D01*
X038131Y004163D01*
X038131Y003966D01*
X038270Y003827D01*
X038467Y003827D01*
X038606Y003966D01*
X038606Y004157D01*
X038936Y004052D01*
X039338Y003806D01*
X039671Y003472D01*
X039785Y003306D01*
X039785Y003291D01*
X039814Y003262D01*
X039834Y003228D01*
X039853Y003223D01*
X039866Y003210D01*
X039906Y003210D01*
X039923Y003206D01*
X039923Y002755D01*
X039881Y002751D01*
X039868Y002764D01*
X039859Y002764D01*
X039857Y002765D01*
X039818Y002765D01*
X039904Y002850D01*
X039904Y003047D01*
X039764Y003186D01*
X039642Y003186D01*
X039617Y003195D01*
X039604Y003188D01*
X039589Y003191D01*
X039582Y003186D01*
X039567Y003186D01*
X039536Y003156D01*
X039481Y003128D01*
X039450Y003129D01*
X039447Y003126D01*
X039446Y003126D01*
X039426Y003107D01*
X039375Y003107D01*
X039375Y003160D01*
X039316Y003219D01*
X039374Y003276D01*
X039374Y003473D01*
X039234Y003613D01*
X039094Y003613D01*
X039077Y003617D01*
X039070Y003613D01*
X039037Y003613D01*
X038989Y003564D01*
X038976Y003557D01*
X038553Y003557D01*
X038472Y003476D01*
X038472Y003454D01*
X038371Y003454D01*
X038232Y003315D01*
X038232Y003118D01*
X038335Y003015D01*
X038223Y002903D01*
X037724Y002903D01*
X037724Y003161D01*
X037667Y003218D01*
X037724Y003275D01*
X037724Y003476D01*
X037643Y003557D01*
X037214Y003557D01*
X037206Y003562D01*
X037157Y003611D01*
X037125Y003611D01*
X037119Y003614D01*
X037119Y003614D01*
X037119Y003614D01*
X037118Y003614D01*
X037103Y003611D01*
X036960Y003611D01*
X036821Y003471D01*
X036821Y003274D01*
X036879Y003216D01*
X036823Y003160D01*
X036823Y003061D01*
X033364Y003061D01*
X033364Y003158D01*
X033307Y003215D01*
X033370Y003278D01*
X033370Y003475D01*
X033231Y003614D01*
X033092Y003614D01*
X033075Y003618D01*
X033075Y003618D01*
X033075Y003618D01*
X033067Y003614D01*
X033034Y003614D01*
X032986Y003566D01*
X032970Y003557D01*
X032541Y003557D01*
X032460Y003476D01*
X032460Y003467D01*
X032367Y003467D01*
X032227Y003328D01*
X032227Y003131D01*
X032277Y003081D01*
X032210Y003013D01*
X032210Y002911D01*
X032057Y002911D01*
X031934Y002789D01*
X031897Y002825D02*
X031971Y002825D01*
X032009Y002863D02*
X031712Y002863D01*
X031712Y002901D02*
X032046Y002901D01*
X032210Y002939D02*
X031712Y002939D01*
X031712Y002977D02*
X032210Y002977D01*
X032211Y003015D02*
X031712Y003015D01*
X031712Y003053D02*
X032249Y003053D01*
X032268Y003090D02*
X031712Y003090D01*
X031712Y003128D02*
X032230Y003128D01*
X032227Y003166D02*
X031707Y003166D01*
X031669Y003204D02*
X032227Y003204D01*
X032227Y003242D02*
X031679Y003242D01*
X031712Y003280D02*
X032227Y003280D01*
X032227Y003318D02*
X031712Y003318D01*
X031712Y003356D02*
X032255Y003356D01*
X032293Y003393D02*
X031712Y003393D01*
X031712Y003431D02*
X032331Y003431D01*
X032460Y003469D02*
X031712Y003469D01*
X031681Y003507D02*
X032491Y003507D01*
X032529Y003545D02*
X031643Y003545D01*
X031191Y003583D02*
X033003Y003583D01*
X033262Y003583D02*
X033523Y003583D01*
X033559Y003545D02*
X033300Y003545D01*
X033338Y003507D02*
X033594Y003507D01*
X033629Y003469D02*
X033370Y003469D01*
X033370Y003431D02*
X036821Y003431D01*
X036821Y003393D02*
X033370Y003393D01*
X033370Y003356D02*
X036821Y003356D01*
X036821Y003318D02*
X033370Y003318D01*
X033370Y003280D02*
X036821Y003280D01*
X036853Y003242D02*
X033334Y003242D01*
X033318Y003204D02*
X036868Y003204D01*
X036830Y003166D02*
X033356Y003166D01*
X033364Y003128D02*
X036823Y003128D01*
X036823Y003090D02*
X033364Y003090D01*
X032992Y003061D02*
X032795Y003061D01*
X032780Y002907D02*
X032792Y002904D01*
X037389Y002904D01*
X037389Y002903D01*
X037394Y002908D01*
X037724Y002939D02*
X038259Y002939D01*
X038297Y002977D02*
X037724Y002977D01*
X037724Y003015D02*
X038335Y003015D01*
X038297Y003053D02*
X037724Y003053D01*
X037724Y003090D02*
X038259Y003090D01*
X038232Y003128D02*
X037724Y003128D01*
X037719Y003166D02*
X038232Y003166D01*
X038232Y003204D02*
X037681Y003204D01*
X037691Y003242D02*
X038232Y003242D01*
X038232Y003280D02*
X037724Y003280D01*
X037724Y003318D02*
X038235Y003318D01*
X038272Y003356D02*
X037724Y003356D01*
X037724Y003393D02*
X038310Y003393D01*
X038348Y003431D02*
X037724Y003431D01*
X037724Y003469D02*
X038472Y003469D01*
X038503Y003507D02*
X037693Y003507D01*
X037655Y003545D02*
X038541Y003545D01*
X039007Y003583D02*
X037185Y003583D01*
X037214Y003557D02*
X037214Y003557D01*
X036932Y003583D02*
X036661Y003583D01*
X036695Y003621D02*
X039523Y003621D01*
X039485Y003658D02*
X036730Y003658D01*
X036774Y003696D02*
X039447Y003696D01*
X039410Y003734D02*
X036824Y003734D01*
X036873Y003772D02*
X039372Y003772D01*
X039332Y003810D02*
X036923Y003810D01*
X036973Y003848D02*
X038250Y003848D01*
X038212Y003886D02*
X037022Y003886D01*
X037072Y003924D02*
X038174Y003924D01*
X038136Y003961D02*
X037125Y003961D01*
X037211Y003999D02*
X038131Y003999D01*
X038131Y004037D02*
X037298Y004037D01*
X037385Y004075D02*
X038131Y004075D01*
X038131Y004113D02*
X037472Y004113D01*
X037571Y004151D02*
X038131Y004151D01*
X038156Y004189D02*
X037790Y004189D01*
X038008Y004227D02*
X038032Y004227D01*
X038606Y004151D02*
X038626Y004151D01*
X038606Y004113D02*
X038745Y004113D01*
X038864Y004075D02*
X038606Y004075D01*
X038606Y004037D02*
X038960Y004037D01*
X039022Y003999D02*
X038606Y003999D01*
X038601Y003961D02*
X039084Y003961D01*
X039146Y003924D02*
X038564Y003924D01*
X038526Y003886D02*
X039208Y003886D01*
X039270Y003848D02*
X038488Y003848D01*
X039077Y003617D02*
X039077Y003617D01*
X039077Y003617D01*
X039264Y003583D02*
X039560Y003583D01*
X039598Y003545D02*
X039302Y003545D01*
X039340Y003507D02*
X039636Y003507D01*
X039673Y003469D02*
X039374Y003469D01*
X039374Y003431D02*
X039699Y003431D01*
X039725Y003393D02*
X039374Y003393D01*
X039374Y003356D02*
X039751Y003356D01*
X039777Y003318D02*
X039374Y003318D01*
X039374Y003280D02*
X039796Y003280D01*
X039826Y003242D02*
X039339Y003242D01*
X039330Y003204D02*
X039923Y003204D01*
X039923Y003166D02*
X039784Y003166D01*
X039822Y003128D02*
X039923Y003128D01*
X039923Y003090D02*
X039860Y003090D01*
X039898Y003053D02*
X039923Y003053D01*
X039923Y003015D02*
X039904Y003015D01*
X039904Y002977D02*
X039923Y002977D01*
X039923Y002939D02*
X039904Y002939D01*
X039904Y002901D02*
X039923Y002901D01*
X039923Y002863D02*
X039904Y002863D01*
X039923Y002825D02*
X039879Y002825D01*
X039841Y002787D02*
X039923Y002787D01*
X039411Y002949D02*
X039366Y002905D01*
X038447Y002905D01*
X038288Y002746D01*
X037389Y002746D01*
X037485Y002743D02*
X037062Y002744D01*
X037115Y002685D01*
X037182Y002744D01*
X037116Y002804D01*
X037062Y002744D01*
X037116Y002804D01*
X037182Y002744D01*
X038469Y002589D02*
X038476Y002588D01*
X038807Y002588D02*
X039715Y002588D01*
X039716Y002587D01*
X038807Y002746D02*
X038717Y002755D01*
X039411Y002949D02*
X039519Y002949D01*
X039519Y002949D01*
X038807Y003061D02*
X038709Y003061D01*
X039375Y003128D02*
X039449Y003128D01*
X039368Y003166D02*
X039547Y003166D01*
X038807Y003218D02*
X038706Y003216D01*
X038712Y003372D02*
X038807Y003376D01*
X037389Y003376D02*
X037382Y003369D01*
X036821Y003469D02*
X036560Y003469D01*
X036594Y003507D02*
X036856Y003507D01*
X036894Y003545D02*
X036626Y003545D01*
X037118Y003614D02*
X037118Y003614D01*
X037118Y003614D01*
X037118Y003614D01*
X033486Y003621D02*
X031153Y003621D01*
X031105Y003631D02*
X031105Y003631D01*
X031105Y003631D01*
X031105Y003631D01*
X031105Y003631D01*
X031105Y003631D01*
X031105Y003631D01*
X030944Y003621D02*
X030681Y003621D01*
X030717Y003658D02*
X033450Y003658D01*
X033404Y003696D02*
X030763Y003696D01*
X030816Y003734D02*
X033351Y003734D01*
X033298Y003772D02*
X030869Y003772D01*
X030922Y003810D02*
X033245Y003810D01*
X033192Y003848D02*
X032455Y003848D01*
X032493Y003886D02*
X033139Y003886D01*
X033086Y003924D02*
X032531Y003924D01*
X032568Y003961D02*
X033033Y003961D01*
X032936Y003999D02*
X032593Y003999D01*
X032593Y004037D02*
X032839Y004037D01*
X032742Y004075D02*
X032593Y004075D01*
X032593Y004113D02*
X032645Y004113D01*
X032117Y004113D02*
X031522Y004113D01*
X031425Y004075D02*
X032117Y004075D01*
X032117Y004037D02*
X031328Y004037D01*
X031231Y003999D02*
X032117Y003999D01*
X032141Y003961D02*
X031134Y003961D01*
X031081Y003924D02*
X032179Y003924D01*
X032217Y003886D02*
X031028Y003886D01*
X030975Y003848D02*
X032255Y003848D01*
X032117Y004151D02*
X031674Y004151D01*
X031978Y004189D02*
X032123Y004189D01*
X027742Y003772D02*
X025332Y003772D01*
X025279Y003734D02*
X027795Y003734D01*
X027848Y003696D02*
X025226Y003696D01*
X025179Y003658D02*
X027895Y003658D01*
X027931Y003621D02*
X025143Y003621D01*
X025107Y003583D02*
X025364Y003583D01*
X025326Y003545D02*
X025071Y003545D01*
X025035Y003507D02*
X025288Y003507D01*
X025256Y003469D02*
X025001Y003469D01*
X025256Y003431D02*
X020636Y003431D01*
X020636Y003393D02*
X025256Y003393D01*
X025256Y003356D02*
X020636Y003356D01*
X020636Y003318D02*
X025256Y003318D01*
X025256Y003280D02*
X020636Y003280D01*
X020601Y003242D02*
X025292Y003242D01*
X025304Y003204D02*
X020589Y003204D01*
X020627Y003166D02*
X025266Y003166D01*
X025256Y003128D02*
X020636Y003128D01*
X020636Y003090D02*
X025256Y003090D01*
X025256Y003053D02*
X020636Y003053D01*
X020636Y003015D02*
X025256Y003015D01*
X025256Y002977D02*
X020776Y002977D01*
X020814Y002939D02*
X025276Y002939D01*
X025311Y002901D02*
X020852Y002901D01*
X020890Y002863D02*
X025274Y002863D01*
X025107Y002825D02*
X020908Y002825D01*
X020908Y002787D02*
X025069Y002787D01*
X025031Y002750D02*
X020908Y002750D01*
X020908Y002712D02*
X024993Y002712D01*
X024969Y002674D02*
X020908Y002674D01*
X020896Y002636D02*
X024969Y002636D01*
X024969Y002598D02*
X020858Y002598D01*
X020820Y002560D02*
X024969Y002560D01*
X024969Y002522D02*
X020782Y002522D01*
X020836Y002485D02*
X024976Y002485D01*
X025014Y002447D02*
X020874Y002447D01*
X020066Y002431D02*
X019967Y002431D01*
X020709Y002275D02*
X020763Y002335D01*
X020709Y002275D01*
X020763Y002216D01*
X020829Y002275D01*
X020763Y002216D01*
X020709Y002275D01*
X020763Y002216D01*
X020829Y002275D01*
X020763Y002335D01*
X020829Y002275D01*
X020763Y002335D01*
X020709Y002275D01*
X023402Y002275D01*
X026158Y002275D01*
X026158Y002277D01*
X026103Y002336D01*
X026038Y002275D01*
X026105Y002216D01*
X026158Y002277D01*
X025928Y002274D02*
X025601Y002273D01*
X025494Y002120D02*
X025440Y002179D01*
X025374Y002120D01*
X025440Y002060D01*
X025494Y002120D01*
X020799Y002116D01*
X020673Y001959D01*
X020753Y001963D01*
X020748Y002052D01*
X020660Y002038D01*
X020673Y001959D01*
X021436Y001797D02*
X021595Y001965D01*
X025078Y001958D01*
X025223Y001799D01*
X025231Y001879D01*
X025223Y001799D01*
X025143Y001799D01*
X025142Y001888D01*
X025231Y001879D01*
X025142Y001888D01*
X025829Y001958D02*
X025923Y001958D01*
X025927Y001963D01*
X026537Y001958D02*
X026591Y001899D01*
X026537Y001958D01*
X026591Y002018D01*
X026537Y001958D01*
X026591Y001899D01*
X026657Y001958D01*
X026591Y001899D01*
X026657Y001958D01*
X026591Y002018D01*
X026657Y001958D01*
X026591Y002018D01*
X026537Y001958D01*
X026994Y001958D01*
X027148Y001959D02*
X027246Y001958D01*
X027149Y001959D01*
X027491Y001959D02*
X027718Y001801D01*
X030750Y001801D01*
X030696Y001860D01*
X030750Y001801D01*
X030696Y001741D01*
X030630Y001801D01*
X030696Y001860D01*
X030630Y001801D01*
X030696Y001741D01*
X030750Y001801D01*
X030696Y001861D01*
X030630Y001801D01*
X030696Y001741D01*
X030750Y001801D01*
X031049Y001801D02*
X031103Y001742D01*
X031169Y001802D01*
X031103Y001861D01*
X031049Y001801D01*
X031103Y001742D01*
X031169Y001802D01*
X031049Y001801D02*
X031473Y001804D01*
X032162Y001643D02*
X032320Y001801D01*
X032558Y001801D01*
X032558Y001802D01*
X032795Y001801D02*
X033122Y001801D01*
X033122Y001802D01*
X033456Y001958D02*
X033510Y001898D01*
X033576Y001958D01*
X033510Y002018D01*
X033456Y001958D01*
X033510Y001898D01*
X033576Y001958D01*
X033510Y002018D01*
X033456Y001958D01*
X033510Y001898D01*
X033576Y001958D01*
X033510Y002018D01*
X033456Y001958D01*
X033510Y001898D01*
X033576Y001958D01*
X033510Y002018D01*
X033456Y001958D01*
X033483Y001958D02*
X037389Y001958D01*
X037244Y001958D01*
X037244Y001959D01*
X037724Y001841D02*
X037741Y001841D01*
X037389Y001801D02*
X037245Y001803D01*
X037256Y001803D01*
X037256Y001801D01*
X037389Y001643D02*
X037494Y001637D01*
X038803Y001639D02*
X038805Y001640D01*
X038806Y001641D01*
X038807Y001643D01*
X038807Y001958D02*
X038807Y001978D01*
X039348Y001978D01*
X038471Y001959D02*
X038468Y001956D01*
X037486Y002117D02*
X037389Y002116D01*
X037389Y002273D02*
X037482Y002275D01*
X033452Y002276D01*
X033506Y002216D01*
X033572Y002276D01*
X033506Y002216D01*
X033452Y002276D01*
X033506Y002336D01*
X033452Y002276D01*
X033506Y002216D01*
X033572Y002276D01*
X033506Y002336D01*
X033572Y002276D01*
X033506Y002336D01*
X033452Y002276D01*
X032458Y002274D02*
X032446Y002273D01*
X031798Y002274D02*
X031797Y002273D01*
X031798Y002274D02*
X031792Y002273D01*
X031378Y002273D02*
X027940Y002273D01*
X027843Y002278D01*
X027836Y002272D02*
X027891Y002213D01*
X027956Y002273D01*
X027889Y002332D01*
X027836Y002272D01*
X027247Y002272D02*
X027246Y002273D01*
X027246Y002116D02*
X027252Y002110D01*
X027255Y002116D01*
X030778Y002116D01*
X031046Y002116D02*
X031046Y002114D01*
X031101Y002055D01*
X031166Y002116D01*
X031099Y002175D01*
X031046Y002114D01*
X031237Y002117D01*
X031133Y001956D02*
X029324Y001959D01*
X029323Y001958D01*
X027836Y001958D01*
X027890Y001899D01*
X027836Y001958D01*
X027890Y002018D01*
X027836Y001958D01*
X027890Y001899D01*
X027956Y001958D01*
X027890Y001899D01*
X027956Y001958D01*
X027890Y002018D01*
X027956Y001958D01*
X027890Y002018D01*
X027836Y001958D01*
X027890Y001899D01*
X027956Y001958D01*
X027890Y002018D01*
X027836Y001958D01*
X026679Y001764D02*
X026679Y001701D01*
X026740Y001640D01*
X026679Y001579D01*
X026679Y001382D01*
X026743Y001318D01*
X026680Y001254D01*
X026680Y001057D01*
X026819Y000918D01*
X027016Y000918D01*
X027071Y000973D01*
X027095Y000990D01*
X027500Y000990D01*
X027581Y001070D01*
X027581Y001271D01*
X027523Y001328D01*
X027581Y001385D01*
X027581Y001406D01*
X027673Y001406D01*
X027812Y001545D01*
X027812Y001643D01*
X030569Y001643D01*
X030586Y001628D01*
X030649Y001566D01*
X030644Y001566D01*
X030505Y001426D01*
X030505Y001328D01*
X028014Y001328D01*
X027990Y001337D01*
X027971Y001356D01*
X027905Y001356D01*
X027873Y001365D01*
X027857Y001356D01*
X027774Y001356D01*
X027635Y001216D01*
X027635Y001019D01*
X027774Y000880D01*
X027887Y000880D01*
X027881Y000874D01*
X027482Y000588D01*
X027024Y000410D01*
X026967Y000403D01*
X027045Y000481D01*
X027045Y000678D01*
X026906Y000817D01*
X026709Y000817D01*
X026569Y000678D01*
X026569Y000481D01*
X026683Y000367D01*
X026537Y000349D01*
X026050Y000410D01*
X025593Y000588D01*
X025193Y000874D01*
X025117Y000953D01*
X025680Y000953D01*
X025716Y000990D01*
X025974Y000990D01*
X025974Y000831D01*
X026113Y000692D01*
X026310Y000692D01*
X026449Y000831D01*
X026449Y001028D01*
X026414Y001063D01*
X026413Y001071D01*
X026371Y001106D01*
X026336Y001141D01*
X026336Y001143D01*
X026331Y001146D01*
X026310Y001167D01*
X026299Y001167D01*
X026294Y001171D01*
X026249Y001216D01*
X026249Y001244D01*
X026163Y001330D01*
X026163Y001429D01*
X026163Y001464D01*
X026223Y001464D01*
X026245Y001452D01*
X026293Y001404D01*
X026327Y001404D01*
X026334Y001399D01*
X026334Y001399D01*
X026334Y001399D01*
X026335Y001399D01*
X026352Y001404D01*
X026490Y001404D01*
X026629Y001543D01*
X026629Y001720D01*
X026636Y001720D01*
X026679Y001764D01*
X026679Y001727D02*
X026642Y001727D01*
X026629Y001689D02*
X026691Y001689D01*
X026729Y001651D02*
X026629Y001651D01*
X026629Y001613D02*
X026713Y001613D01*
X026679Y001576D02*
X026629Y001576D01*
X026624Y001538D02*
X026679Y001538D01*
X026679Y001500D02*
X026586Y001500D01*
X026548Y001462D02*
X026679Y001462D01*
X026679Y001424D02*
X026510Y001424D01*
X026679Y001386D02*
X026163Y001386D01*
X026163Y001348D02*
X026713Y001348D01*
X026736Y001311D02*
X026182Y001311D01*
X026220Y001273D02*
X026698Y001273D01*
X026680Y001235D02*
X026249Y001235D01*
X026268Y001197D02*
X026680Y001197D01*
X026680Y001159D02*
X026318Y001159D01*
X026356Y001121D02*
X026680Y001121D01*
X026680Y001083D02*
X026398Y001083D01*
X026413Y001071D02*
X026413Y001071D01*
X026413Y001071D01*
X026432Y001045D02*
X026692Y001045D01*
X026730Y001008D02*
X026449Y001008D01*
X026449Y000970D02*
X026767Y000970D01*
X026805Y000932D02*
X026449Y000932D01*
X026449Y000894D02*
X027760Y000894D01*
X027722Y000932D02*
X027030Y000932D01*
X027068Y000970D02*
X027684Y000970D01*
X027647Y001008D02*
X027518Y001008D01*
X027555Y001045D02*
X027635Y001045D01*
X027635Y001083D02*
X027581Y001083D01*
X027581Y001121D02*
X027635Y001121D01*
X027635Y001159D02*
X027581Y001159D01*
X027581Y001197D02*
X027635Y001197D01*
X027653Y001235D02*
X027581Y001235D01*
X027579Y001273D02*
X027691Y001273D01*
X027729Y001311D02*
X027541Y001311D01*
X027543Y001348D02*
X027767Y001348D01*
X027873Y001365D02*
X027873Y001365D01*
X027873Y001365D01*
X027978Y001348D02*
X030505Y001348D01*
X030505Y001386D02*
X027581Y001386D01*
X027692Y001424D02*
X030505Y001424D01*
X030541Y001462D02*
X027729Y001462D01*
X027767Y001500D02*
X030579Y001500D01*
X030617Y001538D02*
X027805Y001538D01*
X027812Y001576D02*
X030638Y001576D01*
X030601Y001613D02*
X027812Y001613D01*
X027250Y001639D02*
X027246Y001643D01*
X025930Y001646D02*
X025926Y001646D01*
X025926Y001641D01*
X025926Y001642D01*
X020678Y001639D01*
X020732Y001579D01*
X020798Y001639D01*
X020732Y001699D01*
X020678Y001639D01*
X020825Y001489D02*
X024780Y001489D01*
X025138Y001130D01*
X024946Y001100D02*
X024923Y001100D01*
X024872Y001104D01*
X024867Y001100D01*
X021031Y001100D01*
X021026Y001104D01*
X020975Y001100D01*
X020923Y001100D01*
X020919Y001095D01*
X020912Y001095D01*
X020879Y001056D01*
X020843Y001019D01*
X020843Y001017D01*
X020705Y000874D01*
X020306Y000588D01*
X019849Y000410D01*
X019362Y000349D01*
X018875Y000410D01*
X018418Y000588D01*
X018190Y000751D01*
X018359Y000751D01*
X018498Y000890D01*
X018498Y000976D01*
X018506Y000990D01*
X018902Y000990D01*
X018918Y001006D01*
X018995Y000928D01*
X019192Y000928D01*
X019332Y001068D01*
X019332Y001265D01*
X019192Y001404D01*
X019146Y001404D01*
X019122Y001428D01*
X019237Y001542D01*
X019237Y001562D01*
X019415Y001562D01*
X019431Y001578D01*
X019431Y001545D01*
X019571Y001406D01*
X019707Y001406D01*
X019725Y001401D01*
X019731Y001405D01*
X019731Y001385D01*
X019788Y001328D01*
X019731Y001271D01*
X019731Y001070D01*
X019812Y000990D01*
X020237Y000990D01*
X020252Y000981D01*
X020300Y000933D01*
X020334Y000933D01*
X020341Y000929D01*
X020341Y000929D01*
X020341Y000929D01*
X020341Y000929D01*
X020341Y000929D01*
X020341Y000929D01*
X020341Y000929D01*
X020342Y000929D01*
X020359Y000933D01*
X020497Y000933D01*
X020521Y000958D01*
X020547Y000932D01*
X020354Y000932D01*
X020342Y000929D02*
X020342Y000929D01*
X020336Y000932D02*
X019196Y000932D01*
X019234Y000970D02*
X020263Y000970D01*
X020547Y000932D02*
X020744Y000932D01*
X020884Y001071D01*
X020884Y001268D01*
X020855Y001296D01*
X020891Y001331D01*
X024715Y001331D01*
X024946Y001100D01*
X024925Y001121D02*
X020884Y001121D01*
X020884Y001083D02*
X020902Y001083D01*
X020869Y001045D02*
X020858Y001045D01*
X020833Y001008D02*
X020820Y001008D01*
X020797Y000970D02*
X020782Y000970D01*
X020761Y000932D02*
X020745Y000932D01*
X020724Y000894D02*
X018498Y000894D01*
X018498Y000932D02*
X018992Y000932D01*
X018954Y000970D02*
X018498Y000970D01*
X018338Y001011D02*
X018260Y000989D01*
X018230Y001063D01*
X018260Y000989D01*
X018338Y001011D01*
X018313Y001097D01*
X018338Y001011D01*
X018260Y000989D01*
X018230Y001063D01*
X018313Y001097D01*
X018338Y001011D01*
X018260Y000989D02*
X018349Y001171D01*
X018313Y001097D02*
X018230Y001063D01*
X018313Y001097D01*
X018094Y001159D02*
X014394Y001159D01*
X014394Y001121D02*
X018056Y001121D01*
X018023Y001083D02*
X017821Y001083D01*
X017855Y001045D02*
X018023Y001045D01*
X018023Y001008D02*
X017890Y001008D01*
X017927Y000970D02*
X018023Y000970D01*
X018023Y000932D02*
X017963Y000932D01*
X017999Y000894D02*
X018023Y000894D01*
X018043Y000856D02*
X018057Y000856D01*
X018426Y000818D02*
X018981Y000818D01*
X018943Y000780D02*
X018388Y000780D01*
X018255Y000705D02*
X018896Y000705D01*
X018896Y000733D02*
X018896Y000536D01*
X019035Y000397D01*
X019232Y000397D01*
X019371Y000536D01*
X019371Y000733D01*
X019232Y000872D01*
X019035Y000872D01*
X018896Y000733D01*
X018905Y000742D02*
X018202Y000742D01*
X018308Y000667D02*
X018896Y000667D01*
X018896Y000629D02*
X018361Y000629D01*
X018414Y000591D02*
X018896Y000591D01*
X018896Y000553D02*
X018508Y000553D01*
X018605Y000515D02*
X018917Y000515D01*
X018955Y000477D02*
X018702Y000477D01*
X018799Y000440D02*
X018993Y000440D01*
X019030Y000402D02*
X018940Y000402D01*
X019237Y000402D02*
X019783Y000402D01*
X019925Y000440D02*
X019275Y000440D01*
X019313Y000477D02*
X020022Y000477D01*
X020119Y000515D02*
X019351Y000515D01*
X019371Y000553D02*
X020216Y000553D01*
X020310Y000591D02*
X019371Y000591D01*
X019371Y000629D02*
X020362Y000629D01*
X020415Y000667D02*
X019371Y000667D01*
X019371Y000705D02*
X020468Y000705D01*
X020521Y000742D02*
X019362Y000742D01*
X019324Y000780D02*
X020574Y000780D01*
X020627Y000818D02*
X019286Y000818D01*
X019249Y000856D02*
X020680Y000856D01*
X019794Y001008D02*
X019272Y001008D01*
X019309Y001045D02*
X019756Y001045D01*
X019731Y001083D02*
X019332Y001083D01*
X019332Y001121D02*
X019731Y001121D01*
X019731Y001159D02*
X019332Y001159D01*
X019332Y001197D02*
X019731Y001197D01*
X019731Y001235D02*
X019332Y001235D01*
X019323Y001273D02*
X019732Y001273D01*
X019770Y001311D02*
X019286Y001311D01*
X019248Y001348D02*
X019768Y001348D01*
X019731Y001386D02*
X019210Y001386D01*
X019126Y001424D02*
X019553Y001424D01*
X019515Y001462D02*
X019156Y001462D01*
X019194Y001500D02*
X019477Y001500D01*
X019439Y001538D02*
X019232Y001538D01*
X019429Y001576D02*
X019431Y001576D01*
X018652Y001639D02*
X018648Y001639D01*
X018648Y001643D01*
X018086Y001800D02*
X018020Y001740D01*
X017966Y001800D01*
X018020Y001860D01*
X018086Y001800D01*
X018020Y001860D01*
X017966Y001800D01*
X018412Y001800D01*
X017729Y001803D02*
X014635Y001803D01*
X014673Y001765D02*
X017729Y001765D01*
X017729Y001727D02*
X014694Y001727D01*
X014694Y001689D02*
X017741Y001689D01*
X017779Y001651D02*
X014694Y001651D01*
X014694Y001613D02*
X017817Y001613D01*
X017854Y001576D02*
X014694Y001576D01*
X014685Y001538D02*
X017901Y001538D01*
X017901Y001500D02*
X014647Y001500D01*
X014609Y001462D02*
X017901Y001462D01*
X017901Y001424D02*
X014571Y001424D01*
X014398Y001403D02*
X014398Y001403D01*
X014394Y001386D02*
X017903Y001386D01*
X017941Y001348D02*
X014357Y001348D01*
X014355Y001311D02*
X017979Y001311D01*
X018017Y001273D02*
X014393Y001273D01*
X014394Y001235D02*
X018172Y001235D01*
X018132Y001197D02*
X014394Y001197D01*
X013431Y001197D02*
X013192Y001197D01*
X013226Y001235D02*
X013431Y001235D01*
X013448Y001273D02*
X013226Y001273D01*
X013226Y001311D02*
X013486Y001311D01*
X013472Y001348D02*
X013226Y001348D01*
X013226Y001386D02*
X013434Y001386D01*
X013433Y001424D02*
X013226Y001424D01*
X013192Y001462D02*
X013433Y001462D01*
X013433Y001500D02*
X013174Y001500D01*
X013212Y001538D02*
X013433Y001538D01*
X013256Y001576D02*
X013218Y001576D01*
X013967Y001649D02*
X014060Y001643D01*
X013526Y001960D02*
X013367Y001801D01*
X013367Y001801D01*
X013368Y001801D01*
X013367Y001882D01*
X013368Y001881D02*
X013442Y001876D01*
X013445Y001814D01*
X013368Y001801D01*
X014394Y001916D02*
X017746Y001916D01*
X017729Y001879D02*
X014559Y001879D01*
X014597Y001841D02*
X017729Y001841D01*
X017784Y001954D02*
X014394Y001954D01*
X014394Y001992D02*
X017822Y001992D01*
X017860Y002030D02*
X014394Y002030D01*
X014587Y002068D02*
X018005Y002068D01*
X017967Y002106D02*
X014625Y002106D01*
X014663Y002144D02*
X017929Y002144D01*
X017898Y002182D02*
X014694Y002182D01*
X014694Y002219D02*
X017898Y002219D01*
X017898Y002257D02*
X014694Y002257D01*
X014694Y002295D02*
X017898Y002295D01*
X017898Y002333D02*
X014694Y002333D01*
X014694Y002371D02*
X017898Y002371D01*
X017935Y002409D02*
X014657Y002409D01*
X014652Y002447D02*
X017944Y002447D01*
X017906Y002485D02*
X014690Y002485D01*
X014694Y002522D02*
X017903Y002522D01*
X017903Y002560D02*
X014694Y002560D01*
X014694Y002598D02*
X017903Y002598D01*
X017903Y002636D02*
X014694Y002636D01*
X014694Y002674D02*
X017903Y002674D01*
X017931Y002712D02*
X014668Y002712D01*
X014630Y002750D02*
X017969Y002750D01*
X018006Y002787D02*
X014592Y002787D01*
X014418Y002825D02*
X018078Y002825D01*
X018078Y002863D02*
X014394Y002863D01*
X014394Y002901D02*
X018078Y002901D01*
X018078Y002939D02*
X014394Y002939D01*
X014409Y002977D02*
X018078Y002977D01*
X018093Y003015D02*
X014591Y003015D01*
X014629Y003053D02*
X018131Y003053D01*
X018169Y003090D02*
X014667Y003090D01*
X014694Y003128D02*
X018207Y003128D01*
X018190Y003166D02*
X014694Y003166D01*
X014694Y003204D02*
X018152Y003204D01*
X018115Y003242D02*
X014694Y003242D01*
X014694Y003280D02*
X018079Y003280D01*
X018079Y003318D02*
X014691Y003318D01*
X014653Y003356D02*
X018079Y003356D01*
X018079Y003393D02*
X014615Y003393D01*
X014577Y003431D02*
X018079Y003431D01*
X018079Y003469D02*
X017826Y003469D01*
X017861Y003507D02*
X018111Y003507D01*
X018149Y003545D02*
X017896Y003545D01*
X017932Y003583D02*
X018187Y003583D01*
X017969Y003621D02*
X020755Y003621D01*
X020719Y003658D02*
X018005Y003658D01*
X018052Y003696D02*
X020672Y003696D01*
X020619Y003734D02*
X019221Y003734D01*
X019259Y003772D02*
X020566Y003772D01*
X020513Y003810D02*
X019297Y003810D01*
X019335Y003848D02*
X020460Y003848D01*
X020407Y003886D02*
X019342Y003886D01*
X019342Y003924D02*
X020354Y003924D01*
X020297Y003961D02*
X019342Y003961D01*
X019342Y003999D02*
X020200Y003999D01*
X020103Y004037D02*
X019342Y004037D01*
X019319Y004075D02*
X020006Y004075D01*
X019909Y004113D02*
X019281Y004113D01*
X019243Y004151D02*
X019735Y004151D01*
X019432Y004189D02*
X019292Y004189D01*
X018927Y004113D02*
X018814Y004113D01*
X018889Y004075D02*
X018717Y004075D01*
X018620Y004037D02*
X018866Y004037D01*
X018866Y003999D02*
X018523Y003999D01*
X018426Y003961D02*
X018866Y003961D01*
X018866Y003924D02*
X018369Y003924D01*
X018316Y003886D02*
X018866Y003886D01*
X018874Y003848D02*
X018263Y003848D01*
X018211Y003810D02*
X018911Y003810D01*
X018949Y003772D02*
X018158Y003772D01*
X018105Y003734D02*
X018987Y003734D01*
X018786Y003588D02*
X018648Y003769D01*
X020341Y003618D02*
X020341Y003618D01*
X020341Y003618D01*
X020269Y003583D02*
X018446Y003583D01*
X018914Y003545D02*
X019800Y003545D01*
X019762Y003507D02*
X018952Y003507D01*
X018983Y003476D02*
X018983Y003275D01*
X018945Y003238D01*
X018965Y003218D01*
X019164Y003218D01*
X019246Y003301D01*
X019443Y003301D01*
X019467Y003277D01*
X019467Y003318D01*
X019464Y003280D02*
X019467Y003280D01*
X019225Y003280D02*
X018983Y003280D01*
X018950Y003242D02*
X019187Y003242D01*
X020066Y003376D02*
X020087Y003375D01*
X020636Y003469D02*
X020897Y003469D01*
X020863Y003507D02*
X020604Y003507D01*
X020566Y003545D02*
X020828Y003545D01*
X020791Y003583D02*
X020528Y003583D01*
X018757Y003377D02*
X018648Y003376D01*
X018648Y003376D01*
X019233Y003058D02*
X019300Y003118D01*
X019345Y003063D01*
X019297Y002996D01*
X019233Y003058D01*
X019348Y003061D02*
X018872Y003061D01*
X019967Y003061D02*
X020066Y003061D01*
X018648Y002903D02*
X018646Y002901D01*
X018316Y002901D01*
X018648Y002746D02*
X018655Y002739D01*
X018753Y002739D01*
X018648Y002588D02*
X018646Y002586D01*
X020287Y002588D02*
X020512Y002588D01*
X020670Y002747D01*
X020590Y002751D01*
X020585Y002662D01*
X020590Y002751D01*
X020670Y002747D01*
X020674Y002666D01*
X020585Y002662D01*
X020674Y002666D01*
X020670Y002747D01*
X020590Y002751D02*
X020585Y002662D01*
X020674Y002666D01*
X019001Y002429D02*
X018987Y002431D01*
X018652Y002112D02*
X018648Y002116D01*
X018645Y001958D02*
X018648Y001958D01*
X018645Y001958D02*
X018645Y001953D01*
X019312Y001877D02*
X019425Y001883D01*
X019391Y001782D01*
X019313Y001799D01*
X019314Y001801D01*
X019317Y001800D01*
X019341Y001801D01*
X019424Y001883D01*
X019494Y001954D01*
X019681Y001954D01*
X019314Y001878D02*
X019313Y001799D01*
X020600Y001795D02*
X021436Y001795D01*
X021436Y001797D01*
X020825Y001489D02*
X020645Y001309D01*
X020646Y001169D01*
X020705Y001223D01*
X020646Y001169D01*
X020586Y001223D01*
X020645Y001289D01*
X020705Y001223D01*
X020645Y001289D01*
X020870Y001311D02*
X024736Y001311D01*
X024773Y001273D02*
X020879Y001273D01*
X020884Y001235D02*
X024811Y001235D01*
X024849Y001197D02*
X020884Y001197D01*
X020884Y001159D02*
X024887Y001159D01*
X025829Y001171D02*
X025832Y001171D01*
X025833Y001172D01*
X025924Y001172D01*
X026071Y001171D02*
X026211Y001031D01*
X026211Y000929D01*
X026263Y000991D01*
X026194Y001048D01*
X026145Y000974D01*
X026211Y000929D01*
X025974Y000932D02*
X025137Y000932D01*
X025174Y000894D02*
X025974Y000894D01*
X025974Y000856D02*
X025218Y000856D01*
X025271Y000818D02*
X025986Y000818D01*
X026024Y000780D02*
X025324Y000780D01*
X025377Y000742D02*
X026062Y000742D01*
X026100Y000705D02*
X025430Y000705D01*
X025483Y000667D02*
X026569Y000667D01*
X026569Y000629D02*
X025536Y000629D01*
X025589Y000591D02*
X026569Y000591D01*
X026569Y000553D02*
X025683Y000553D01*
X025780Y000515D02*
X026569Y000515D01*
X026573Y000477D02*
X025877Y000477D01*
X025974Y000440D02*
X026611Y000440D01*
X026649Y000402D02*
X026115Y000402D01*
X026419Y000364D02*
X026656Y000364D01*
X027004Y000440D02*
X027101Y000440D01*
X027041Y000477D02*
X027198Y000477D01*
X027295Y000515D02*
X027045Y000515D01*
X027045Y000553D02*
X027392Y000553D01*
X027486Y000591D02*
X027045Y000591D01*
X027045Y000629D02*
X027539Y000629D01*
X027592Y000667D02*
X027045Y000667D01*
X027019Y000705D02*
X027645Y000705D01*
X027698Y000742D02*
X026981Y000742D01*
X026943Y000780D02*
X027751Y000780D01*
X027804Y000818D02*
X026436Y000818D01*
X026449Y000856D02*
X027857Y000856D01*
X026672Y000780D02*
X026398Y000780D01*
X026361Y000742D02*
X026634Y000742D01*
X026596Y000705D02*
X026323Y000705D01*
X025974Y000970D02*
X025696Y000970D01*
X027873Y001118D02*
X027894Y001195D01*
X027980Y001172D01*
X027947Y001089D01*
X027873Y001118D01*
X027873Y001170D01*
X031048Y001170D01*
X031049Y001171D01*
X030995Y001230D01*
X030929Y001170D01*
X030996Y001111D01*
X031049Y001171D01*
X031050Y001171D01*
X031712Y001105D02*
X031727Y001090D01*
X031924Y001090D01*
X032064Y001230D01*
X032064Y001406D01*
X032198Y001406D01*
X032271Y001478D01*
X032289Y001485D01*
X032289Y001485D01*
X032289Y001485D01*
X032289Y001485D01*
X032369Y001406D01*
X032460Y001406D01*
X032460Y001385D01*
X032517Y001328D01*
X032460Y001271D01*
X032460Y001070D01*
X032541Y000990D01*
X032962Y000990D01*
X032980Y000979D01*
X033029Y000930D01*
X033062Y000930D01*
X033068Y000926D01*
X033068Y000926D01*
X033068Y000926D01*
X033084Y000930D01*
X033226Y000930D01*
X033230Y000934D01*
X033313Y000850D01*
X033406Y000850D01*
X033034Y000583D01*
X032574Y000403D01*
X032084Y000341D01*
X031940Y000359D01*
X032058Y000478D01*
X032058Y000675D01*
X031919Y000814D01*
X031722Y000814D01*
X031583Y000675D01*
X031583Y000478D01*
X031667Y000393D01*
X031593Y000403D01*
X031133Y000583D01*
X030731Y000872D01*
X030597Y001013D01*
X030869Y001013D01*
X030886Y000998D01*
X030951Y000933D01*
X031089Y000933D01*
X031106Y000929D01*
X031106Y000929D01*
X031106Y000929D01*
X031114Y000933D01*
X031148Y000933D01*
X031196Y000981D01*
X031210Y000990D01*
X031632Y000990D01*
X031712Y001070D01*
X031712Y001105D01*
X031712Y001083D02*
X032460Y001083D01*
X032460Y001121D02*
X031955Y001121D01*
X031993Y001159D02*
X032460Y001159D01*
X032460Y001197D02*
X032031Y001197D01*
X032064Y001235D02*
X032460Y001235D01*
X032462Y001273D02*
X032064Y001273D01*
X032064Y001311D02*
X032500Y001311D01*
X032497Y001348D02*
X032064Y001348D01*
X032064Y001386D02*
X032460Y001386D01*
X032351Y001424D02*
X032217Y001424D01*
X032255Y001462D02*
X032313Y001462D01*
X032173Y001610D02*
X032100Y001643D01*
X032126Y001719D01*
X032210Y001691D01*
X032173Y001610D01*
X032162Y001643D02*
X032100Y001643D01*
X032100Y001643D01*
X032688Y001635D02*
X032795Y001643D01*
X032795Y001958D02*
X032696Y001957D01*
X032467Y001957D02*
X032467Y001958D01*
X031770Y001957D02*
X031770Y001958D01*
X031770Y001958D01*
X031769Y001958D01*
X031476Y001959D02*
X031133Y001956D01*
X030704Y002369D02*
X030758Y002428D01*
X030758Y002428D01*
X027148Y002428D01*
X027246Y002431D01*
X027836Y002588D02*
X027890Y002529D01*
X027956Y002588D01*
X027890Y002648D01*
X027836Y002588D01*
X027890Y002529D01*
X027956Y002588D01*
X027890Y002648D01*
X027836Y002588D01*
X027890Y002529D01*
X027956Y002588D01*
X027890Y002648D01*
X027836Y002588D01*
X027890Y002529D01*
X027956Y002588D01*
X027890Y002648D01*
X027836Y002588D01*
X031130Y002589D01*
X031378Y002588D02*
X031440Y002588D01*
X031440Y002588D01*
X031449Y002590D01*
X030758Y002428D02*
X030705Y002489D01*
X030638Y002430D01*
X030704Y002369D01*
X030638Y002430D01*
X030705Y002489D01*
X030758Y002428D01*
X030704Y002369D01*
X030758Y002428D02*
X030761Y002430D01*
X030760Y002430D01*
X031363Y002430D02*
X031363Y002431D01*
X031378Y002431D01*
X032370Y002431D02*
X032795Y002431D01*
X032791Y002434D01*
X032630Y002431D01*
X032768Y002426D01*
X032704Y002426D02*
X032550Y002431D01*
X033119Y002434D02*
X033121Y002432D01*
X031378Y002746D02*
X031376Y002744D01*
X031378Y002903D02*
X031374Y002907D01*
X030814Y002907D01*
X030655Y003067D01*
X027718Y003067D01*
X027555Y002903D01*
X026730Y002901D02*
X026415Y002901D01*
X026415Y002863D02*
X026701Y002863D01*
X026680Y002825D02*
X026557Y002825D01*
X026595Y002787D02*
X026680Y002787D01*
X026680Y002750D02*
X026633Y002750D01*
X026671Y002712D02*
X026680Y002712D01*
X026458Y002588D02*
X026405Y002648D01*
X026338Y002588D01*
X026405Y002528D01*
X026458Y002588D01*
X026405Y002528D01*
X026338Y002588D01*
X026405Y002648D01*
X026458Y002588D01*
X026405Y002528D01*
X026458Y002588D01*
X026405Y002648D01*
X026338Y002588D01*
X026405Y002528D01*
X026338Y002588D01*
X026405Y002648D01*
X026458Y002588D01*
X026080Y002588D01*
X025829Y002588D01*
X025578Y002589D02*
X025207Y002590D01*
X025261Y002530D01*
X025327Y002590D01*
X025261Y002649D01*
X025207Y002590D01*
X025261Y002649D01*
X025327Y002590D01*
X025261Y002530D01*
X025207Y002590D01*
X025261Y002530D01*
X025327Y002590D01*
X025261Y002649D01*
X025207Y002590D01*
X025261Y002530D01*
X025327Y002590D01*
X025261Y002649D01*
X025207Y002590D01*
X025494Y002747D02*
X025500Y002747D01*
X025829Y002746D02*
X025926Y002747D01*
X025829Y002903D02*
X025830Y002904D01*
X026177Y002904D01*
X026415Y002939D02*
X026692Y002939D01*
X026667Y002977D02*
X026415Y002977D01*
X026403Y003015D02*
X026667Y003015D01*
X026667Y003053D02*
X026365Y003053D01*
X026328Y003090D02*
X026667Y003090D01*
X026667Y003128D02*
X026290Y003128D01*
X026158Y003166D02*
X026672Y003166D01*
X026710Y003204D02*
X026120Y003204D01*
X026130Y003242D02*
X026706Y003242D01*
X026669Y003280D02*
X026163Y003280D01*
X026163Y003318D02*
X026669Y003318D01*
X026669Y003356D02*
X026163Y003356D01*
X026163Y003393D02*
X026669Y003393D01*
X026669Y003431D02*
X026163Y003431D01*
X026163Y003469D02*
X026669Y003469D01*
X026699Y003507D02*
X026132Y003507D01*
X026094Y003545D02*
X026737Y003545D01*
X026775Y003583D02*
X025623Y003583D01*
X025550Y003619D02*
X025550Y003619D01*
X025550Y003619D01*
X025550Y003619D01*
X025550Y003619D01*
X025550Y003619D01*
X025550Y003619D01*
X027038Y003583D02*
X027968Y003583D01*
X028004Y003545D02*
X027512Y003545D01*
X027549Y003507D02*
X028039Y003507D01*
X028074Y003469D02*
X027581Y003469D01*
X027703Y003431D02*
X030811Y003431D01*
X030811Y003393D02*
X027741Y003393D01*
X027778Y003356D02*
X030811Y003356D01*
X030811Y003318D02*
X027814Y003318D01*
X027814Y003280D02*
X030821Y003280D01*
X030859Y003242D02*
X027814Y003242D01*
X027246Y003218D02*
X027147Y003221D01*
X027026Y003377D02*
X026960Y003318D01*
X026906Y003378D01*
X026961Y003437D01*
X026906Y003378D01*
X026960Y003318D01*
X027026Y003377D01*
X026961Y003437D01*
X027026Y003377D01*
X026906Y003378D02*
X027147Y003376D01*
X027246Y003376D01*
X025829Y003376D02*
X025828Y003376D01*
X025834Y003224D02*
X025829Y003218D01*
X025829Y003061D02*
X025827Y003059D01*
X025827Y003060D01*
X026904Y003063D02*
X026904Y003061D01*
X030740Y003204D02*
X030854Y003204D01*
X030816Y003166D02*
X030778Y003166D01*
X032697Y003375D02*
X032795Y003376D01*
X030906Y003583D02*
X030644Y003583D01*
X030608Y003545D02*
X030869Y003545D01*
X030831Y003507D02*
X030573Y003507D01*
X030538Y003469D02*
X030811Y003469D01*
X027689Y003810D02*
X026930Y003810D01*
X026968Y003848D02*
X027636Y003848D01*
X027583Y003886D02*
X027006Y003886D01*
X027044Y003924D02*
X027530Y003924D01*
X027473Y003961D02*
X027047Y003961D01*
X027047Y003999D02*
X027376Y003999D01*
X027279Y004037D02*
X027047Y004037D01*
X027047Y004075D02*
X027182Y004075D01*
X027085Y004113D02*
X027047Y004113D01*
X026598Y004151D02*
X026163Y004151D01*
X025989Y004113D02*
X026572Y004113D01*
X026572Y004075D02*
X025892Y004075D01*
X025795Y004037D02*
X026572Y004037D01*
X026572Y003999D02*
X025698Y003999D01*
X025601Y003961D02*
X026572Y003961D01*
X026576Y003924D02*
X025544Y003924D01*
X025491Y003886D02*
X026614Y003886D01*
X026651Y003848D02*
X025438Y003848D01*
X025385Y003810D02*
X026689Y003810D01*
X026608Y004189D02*
X026467Y004189D01*
X037389Y003218D02*
X037398Y003209D01*
X037081Y003061D02*
X037061Y003061D01*
X032599Y002903D02*
X032459Y002903D01*
X032447Y002915D01*
X027246Y002588D02*
X027140Y002596D01*
X027064Y002596D01*
X026458Y002588D02*
X026405Y002588D01*
X025829Y002431D02*
X025696Y002431D01*
X025696Y002434D01*
X025677Y002120D02*
X025677Y002116D01*
X025822Y002118D02*
X025825Y002121D01*
X025825Y002120D01*
X025829Y002116D01*
X025831Y001803D02*
X025876Y001803D01*
X025924Y001804D01*
X025831Y001803D02*
X025829Y001801D01*
X025829Y001643D02*
X025930Y001646D01*
X025829Y001486D02*
X025827Y001484D01*
X026163Y001462D02*
X026227Y001462D01*
X026272Y001424D02*
X026163Y001424D01*
X026335Y001399D02*
X026335Y001399D01*
X026335Y001399D01*
X026335Y001399D01*
X026335Y001399D01*
X026335Y001399D01*
X025830Y001327D02*
X025829Y001328D01*
X027241Y001481D02*
X027246Y001486D01*
X030743Y001328D02*
X030797Y001268D01*
X030863Y001328D01*
X030797Y001387D01*
X030743Y001328D01*
X030797Y001268D01*
X030863Y001328D01*
X030743Y001328D02*
X031378Y001328D01*
X031687Y001045D02*
X032485Y001045D01*
X032523Y001008D02*
X031649Y001008D01*
X031184Y000970D02*
X032989Y000970D01*
X033027Y000932D02*
X031111Y000932D01*
X031106Y000929D02*
X031106Y000929D01*
X031106Y000929D01*
X031106Y000929D01*
X031106Y000929D01*
X031106Y000929D01*
X031106Y000929D01*
X031093Y000932D02*
X030674Y000932D01*
X030638Y000970D02*
X030914Y000970D01*
X030875Y001008D02*
X030602Y001008D01*
X030710Y000894D02*
X033270Y000894D01*
X033308Y000856D02*
X030753Y000856D01*
X030806Y000818D02*
X033361Y000818D01*
X033308Y000780D02*
X031953Y000780D01*
X031991Y000742D02*
X033256Y000742D01*
X033203Y000705D02*
X032029Y000705D01*
X032058Y000667D02*
X033150Y000667D01*
X033098Y000629D02*
X032058Y000629D01*
X032058Y000591D02*
X033045Y000591D01*
X032957Y000553D02*
X032058Y000553D01*
X032058Y000515D02*
X032861Y000515D01*
X032764Y000477D02*
X032058Y000477D01*
X032020Y000440D02*
X032668Y000440D01*
X032565Y000402D02*
X031982Y000402D01*
X031944Y000364D02*
X032262Y000364D01*
X031659Y000402D02*
X031602Y000402D01*
X031621Y000440D02*
X031499Y000440D01*
X031583Y000477D02*
X031403Y000477D01*
X031306Y000515D02*
X031583Y000515D01*
X031583Y000553D02*
X031210Y000553D01*
X031122Y000591D02*
X031583Y000591D01*
X031583Y000629D02*
X031069Y000629D01*
X031017Y000667D02*
X031583Y000667D01*
X031613Y000705D02*
X030964Y000705D01*
X030911Y000742D02*
X031650Y000742D01*
X031688Y000780D02*
X030859Y000780D01*
X033227Y000932D02*
X033232Y000932D01*
X036766Y000856D02*
X039453Y000856D01*
X039416Y000818D02*
X038013Y000818D01*
X037980Y000851D02*
X037783Y000851D01*
X037644Y000712D01*
X037644Y000515D01*
X037783Y000376D01*
X037980Y000376D01*
X038119Y000515D01*
X038119Y000712D01*
X037980Y000851D01*
X037750Y000818D02*
X036816Y000818D01*
X036866Y000780D02*
X037712Y000780D01*
X037674Y000742D02*
X036915Y000742D01*
X036965Y000705D02*
X037644Y000705D01*
X037644Y000667D02*
X037014Y000667D01*
X037064Y000629D02*
X037644Y000629D01*
X037644Y000591D02*
X037114Y000591D01*
X037198Y000553D02*
X037644Y000553D01*
X037644Y000515D02*
X037284Y000515D01*
X037371Y000477D02*
X037681Y000477D01*
X037719Y000440D02*
X037458Y000440D01*
X037545Y000402D02*
X037757Y000402D01*
X037755Y000364D02*
X038526Y000364D01*
X038645Y000402D02*
X038006Y000402D01*
X038044Y000440D02*
X038764Y000440D01*
X038883Y000477D02*
X038082Y000477D01*
X038119Y000515D02*
X038970Y000515D01*
X039032Y000553D02*
X038119Y000553D01*
X038119Y000591D02*
X039094Y000591D01*
X039156Y000629D02*
X038119Y000629D01*
X038119Y000667D02*
X039218Y000667D01*
X039280Y000705D02*
X038119Y000705D01*
X038089Y000742D02*
X039340Y000742D01*
X039378Y000780D02*
X038051Y000780D01*
X037389Y001171D02*
X037389Y001171D01*
X038802Y001166D02*
X038807Y001171D01*
X038120Y000326D02*
X037974Y000326D01*
X019725Y001401D02*
X019725Y001401D01*
X019725Y001401D01*
X018649Y001490D02*
X018648Y001490D01*
X018648Y001486D01*
X014908Y001083D02*
X014394Y001083D01*
X014369Y001045D02*
X014875Y001045D01*
X014842Y001008D02*
X014331Y001008D01*
X014807Y000970D02*
X013819Y000970D01*
X013780Y000932D02*
X014773Y000932D01*
X014738Y000894D02*
X012009Y000894D01*
X012046Y000856D02*
X012980Y000856D01*
X013000Y000876D02*
X012860Y000737D01*
X012860Y000540D01*
X013000Y000400D01*
X013197Y000400D01*
X013336Y000540D01*
X013336Y000737D01*
X013197Y000876D01*
X013000Y000876D01*
X012942Y000818D02*
X012084Y000818D01*
X012121Y000780D02*
X012904Y000780D01*
X012866Y000742D02*
X012161Y000742D01*
X012223Y000705D02*
X012860Y000705D01*
X012860Y000667D02*
X012285Y000667D01*
X012347Y000629D02*
X012860Y000629D01*
X012860Y000591D02*
X012409Y000591D01*
X012471Y000553D02*
X012860Y000553D01*
X012885Y000515D02*
X012533Y000515D01*
X012632Y000477D02*
X012923Y000477D01*
X012961Y000440D02*
X012750Y000440D01*
X012869Y000402D02*
X012998Y000402D01*
X012987Y000364D02*
X013670Y000364D01*
X013890Y000402D02*
X013198Y000402D01*
X013236Y000440D02*
X013997Y000440D01*
X014084Y000477D02*
X013274Y000477D01*
X013312Y000515D02*
X014171Y000515D01*
X014258Y000553D02*
X013336Y000553D01*
X013336Y000591D02*
X014345Y000591D01*
X014397Y000629D02*
X013336Y000629D01*
X013336Y000667D02*
X014447Y000667D01*
X014497Y000705D02*
X013336Y000705D01*
X013330Y000742D02*
X014546Y000742D01*
X014596Y000780D02*
X013292Y000780D01*
X013254Y000818D02*
X014646Y000818D01*
X014696Y000856D02*
X013217Y000856D01*
X013558Y000932D02*
X012270Y000932D01*
X012255Y000932D02*
X011971Y000932D01*
X011934Y000970D02*
X012074Y000970D01*
X012037Y001008D02*
X011896Y001008D01*
X011858Y001045D02*
X011999Y001045D01*
X011971Y001083D02*
X011823Y001083D01*
X011797Y001121D02*
X011971Y001121D01*
X011971Y001159D02*
X011771Y001159D01*
X011745Y001197D02*
X011971Y001197D01*
X011971Y001235D02*
X011719Y001235D01*
X011697Y001273D02*
X011974Y001273D01*
X012012Y001311D02*
X011670Y001311D01*
X011577Y001348D02*
X012010Y001348D01*
X011742Y001386D02*
X011577Y001386D01*
X011695Y001571D02*
X011848Y001521D01*
X011866Y001600D01*
X011864Y001600D01*
X011864Y001601D01*
X011866Y001600D02*
X011853Y001680D01*
X011700Y001625D01*
X011697Y001579D01*
X012989Y001329D02*
X012989Y001329D01*
X014060Y001328D02*
X014089Y001324D01*
X013431Y001159D02*
X013154Y001159D01*
X013117Y001121D02*
X013431Y001121D01*
X013431Y001083D02*
X012977Y001083D01*
X012952Y001045D02*
X013445Y001045D01*
X013483Y001008D02*
X012914Y001008D01*
X012343Y000970D02*
X013521Y000970D01*
X018464Y000856D02*
X019019Y000856D01*
X019244Y000364D02*
X019480Y000364D01*
X014060Y001955D02*
X014060Y001958D01*
X014059Y001958D02*
X014059Y001959D01*
X014059Y001959D01*
X014058Y001959D01*
X014058Y001960D02*
X013622Y001960D01*
X013526Y001960D01*
X013260Y002030D02*
X013226Y002030D01*
X013213Y002068D02*
X013411Y002068D01*
X013449Y002106D02*
X013175Y002106D01*
X013197Y002144D02*
X013725Y002144D01*
X013725Y002182D02*
X013226Y002182D01*
X013226Y002219D02*
X013544Y002219D01*
X013506Y002257D02*
X013226Y002257D01*
X013226Y002295D02*
X013469Y002295D01*
X013433Y002333D02*
X013226Y002333D01*
X013225Y002371D02*
X013433Y002371D01*
X013433Y002409D02*
X013187Y002409D01*
X013183Y002447D02*
X013433Y002447D01*
X013433Y002485D02*
X013221Y002485D01*
X013226Y002522D02*
X013433Y002522D01*
X013465Y002560D02*
X013226Y002560D01*
X013226Y002598D02*
X013484Y002598D01*
X013446Y002636D02*
X013226Y002636D01*
X013226Y002674D02*
X013429Y002674D01*
X013429Y002712D02*
X013201Y002712D01*
X013164Y002750D02*
X013429Y002750D01*
X013429Y002787D02*
X013126Y002787D01*
X013088Y002825D02*
X013429Y002825D01*
X013442Y002863D02*
X012977Y002863D01*
X012977Y002901D02*
X013480Y002901D01*
X013457Y002939D02*
X012977Y002939D01*
X012977Y002977D02*
X013433Y002977D01*
X013433Y003015D02*
X012977Y003015D01*
X012977Y003053D02*
X013433Y003053D01*
X013433Y003090D02*
X012977Y003090D01*
X012977Y003128D02*
X013433Y003128D01*
X013439Y003166D02*
X012972Y003166D01*
X012934Y003204D02*
X013477Y003204D01*
X013468Y003242D02*
X012944Y003242D01*
X012977Y003280D02*
X013433Y003280D01*
X013433Y003318D02*
X012977Y003318D01*
X012977Y003356D02*
X013433Y003356D01*
X013433Y003393D02*
X012977Y003393D01*
X012977Y003431D02*
X013433Y003431D01*
X013433Y003469D02*
X012977Y003469D01*
X012946Y003507D02*
X013465Y003507D01*
X013503Y003545D02*
X012908Y003545D01*
X012363Y003583D02*
X013541Y003583D01*
X013727Y003618D02*
X013727Y003618D01*
X013727Y003618D01*
X013727Y003618D01*
X013800Y003583D02*
X014802Y003583D01*
X014767Y003621D02*
X011977Y003621D01*
X012015Y003658D02*
X014733Y003658D01*
X014688Y003696D02*
X012052Y003696D01*
X012090Y003734D02*
X012973Y003734D01*
X013000Y003707D02*
X013197Y003707D01*
X013336Y003846D01*
X013336Y004043D01*
X013197Y004183D01*
X013000Y004183D01*
X012860Y004043D01*
X012860Y003846D01*
X013000Y003707D01*
X012935Y003772D02*
X012127Y003772D01*
X012171Y003810D02*
X012897Y003810D01*
X012860Y003848D02*
X012233Y003848D01*
X012295Y003886D02*
X012860Y003886D01*
X012860Y003924D02*
X012357Y003924D01*
X012419Y003961D02*
X012860Y003961D01*
X012860Y003999D02*
X012480Y003999D01*
X012542Y004037D02*
X012860Y004037D01*
X012892Y004075D02*
X012650Y004075D01*
X012769Y004113D02*
X012930Y004113D01*
X012968Y004151D02*
X012888Y004151D01*
X013035Y004189D02*
X013635Y004189D01*
X013855Y004151D02*
X013229Y004151D01*
X013266Y004113D02*
X013983Y004113D01*
X014070Y004075D02*
X013304Y004075D01*
X013336Y004037D02*
X014157Y004037D01*
X014244Y003999D02*
X013336Y003999D01*
X013336Y003961D02*
X014331Y003961D01*
X014389Y003924D02*
X013336Y003924D01*
X013336Y003886D02*
X014439Y003886D01*
X014489Y003848D02*
X013336Y003848D01*
X013300Y003810D02*
X014539Y003810D01*
X014588Y003772D02*
X013262Y003772D01*
X013224Y003734D02*
X014638Y003734D01*
X014837Y003545D02*
X014325Y003545D01*
X014363Y003507D02*
X014869Y003507D01*
X014903Y003469D02*
X014394Y003469D01*
X014400Y003459D02*
X014400Y003459D01*
X014400Y003459D01*
X014060Y003376D02*
X013978Y003376D01*
X013978Y003376D01*
X013961Y003218D02*
X014060Y003218D01*
X012642Y003061D02*
X012640Y003058D01*
X012235Y003374D02*
X012236Y003376D01*
X011859Y003469D02*
X011827Y003469D01*
X011821Y003431D02*
X011801Y003431D01*
X011783Y003393D02*
X011775Y003393D01*
X011864Y003507D02*
X011897Y003507D01*
X011902Y003545D02*
X011935Y003545D01*
X011939Y003583D02*
X012107Y003583D01*
X012289Y003617D02*
X012289Y003617D01*
X012289Y003617D01*
X012737Y002749D02*
X012733Y002746D01*
X014456Y002587D02*
X014460Y002588D01*
X012211Y002433D02*
X012209Y002433D01*
X012211Y002431D01*
X012642Y002273D02*
X012742Y002274D01*
X013962Y002274D02*
X013964Y002273D01*
X014456Y002273D01*
X014060Y002273D02*
X013962Y002274D01*
X038707Y002275D02*
X038807Y002273D01*
X038807Y002273D01*
X038818Y002262D01*
X039269Y002262D01*
X038948Y002430D02*
X038807Y002431D01*
D14*
X032688Y001635D02*
X032686Y001637D01*
X032795Y001486D02*
X032936Y001487D01*
X033417Y001168D02*
X033412Y001088D01*
X033491Y001074D01*
X033412Y001088D01*
X033417Y001168D01*
X033506Y001162D01*
X033491Y001074D01*
X033506Y001162D01*
X033417Y001168D01*
X033412Y001088D01*
X033491Y001074D01*
X033506Y001162D01*
X033417Y001168D01*
X033438Y001118D02*
X033412Y001088D01*
X033438Y001118D02*
X033508Y001163D01*
X037147Y001166D01*
X037480Y001163D01*
X037482Y001480D02*
X037389Y001486D01*
X027246Y001486D02*
X027150Y001483D01*
X025599Y001327D02*
X025264Y001329D01*
X025317Y001269D01*
X025384Y001328D01*
X025318Y001388D01*
X025264Y001329D01*
X025318Y001388D01*
X025384Y001328D01*
X025317Y001269D01*
X025264Y001329D01*
X027139Y001180D02*
X027246Y001171D01*
X020600Y001795D02*
X020469Y001959D01*
X020066Y001958D01*
X020066Y001486D02*
X019970Y001489D01*
X018742Y001491D02*
X018649Y001490D01*
X018971Y001328D02*
X019094Y001166D01*
X019109Y001245D01*
X019094Y001166D01*
X019014Y001173D01*
X019021Y001262D01*
X019109Y001245D01*
X019021Y001262D01*
X019014Y001173D01*
X019094Y001166D01*
X012742Y001329D02*
X012642Y001328D01*
X012642Y001486D02*
X012478Y001486D01*
X012642Y001958D02*
X012744Y001955D01*
X012741Y002588D02*
X012642Y002588D01*
X019966Y003219D02*
X020066Y003218D01*
D15*
X019966Y003219D02*
X019705Y003219D01*
X019735Y003167D01*
X019825Y003219D01*
X019735Y003167D01*
X019705Y003219D01*
X019735Y003271D01*
X019825Y003219D01*
X019735Y003271D01*
X019705Y003219D01*
X019735Y003271D01*
X019825Y003219D01*
X019735Y003167D01*
X019705Y003219D01*
X020279Y003376D02*
X020368Y003324D01*
X020399Y003376D01*
X020368Y003428D01*
X020279Y003376D01*
X020368Y003324D01*
X020399Y003376D01*
X020087Y003375D01*
X019007Y003226D02*
X018973Y003276D01*
X018887Y003218D01*
X018980Y003172D01*
X019007Y003226D01*
X018973Y003276D01*
X018887Y003218D01*
X018980Y003172D01*
X019007Y003226D01*
X018973Y003276D01*
X018887Y003218D01*
X018980Y003172D01*
X019007Y003226D01*
X018973Y003276D01*
X018887Y003218D01*
X018980Y003172D01*
X019007Y003226D01*
X019006Y003222D01*
X019003Y003219D01*
X018999Y003218D01*
X018648Y003218D01*
X018437Y003376D02*
X018347Y003324D01*
X018317Y003376D01*
X018347Y003428D01*
X018317Y003376D01*
X018347Y003324D01*
X018437Y003376D01*
X018347Y003428D01*
X018437Y003376D01*
X018347Y003428D01*
X018317Y003376D01*
X018347Y003324D01*
X018437Y003376D01*
X018317Y003376D02*
X018648Y003376D01*
X020279Y003059D02*
X020368Y003111D01*
X020399Y003059D01*
X020368Y003006D01*
X020279Y003059D01*
X020399Y003059D02*
X019967Y003061D01*
X019349Y003061D02*
X019346Y003062D01*
X019345Y003063D01*
X018872Y003061D02*
X018648Y003061D01*
X018881Y002741D02*
X018969Y002795D01*
X019001Y002743D01*
X018969Y002795D01*
X018881Y002741D01*
X018971Y002691D01*
X019001Y002743D01*
X018753Y002739D01*
X018261Y002586D02*
X018172Y002638D01*
X018141Y002586D01*
X018172Y002534D01*
X018141Y002586D01*
X018172Y002638D01*
X018141Y002586D01*
X018172Y002534D01*
X018261Y002586D01*
X018172Y002534D01*
X018141Y002586D01*
X018172Y002638D01*
X018261Y002586D01*
X018172Y002638D01*
X018261Y002586D01*
X018172Y002534D01*
X018261Y002586D01*
X018141Y002586D02*
X018646Y002586D01*
X019705Y002586D02*
X019735Y002534D01*
X019825Y002587D01*
X019735Y002639D01*
X019705Y002586D01*
X020287Y002588D01*
X020066Y002588D01*
X020273Y002745D02*
X020362Y002692D01*
X020393Y002744D01*
X020066Y002744D01*
X020066Y002746D01*
X020106Y002746D01*
X020106Y002749D01*
X020207Y002746D02*
X020393Y002744D01*
X020363Y002796D01*
X020393Y002744D01*
X020363Y002796D02*
X020273Y002745D01*
X020363Y002796D01*
X020364Y002483D02*
X020395Y002431D01*
X020364Y002378D01*
X020275Y002431D01*
X020364Y002483D01*
X020395Y002431D01*
X019967Y002431D01*
X020275Y002431D02*
X020364Y002483D01*
X019825Y002271D02*
X019735Y002323D01*
X019705Y002271D01*
X019735Y002219D01*
X019825Y002271D01*
X019705Y002271D02*
X019964Y002270D01*
X019964Y002272D01*
X019966Y002273D01*
X019967Y002273D01*
X020066Y002273D01*
X019002Y002112D02*
X018972Y002165D01*
X018882Y002112D01*
X018972Y002165D01*
X019002Y002112D01*
X018972Y002060D01*
X019002Y002112D01*
X018972Y002165D01*
X018882Y002112D01*
X018972Y002060D01*
X018882Y002112D01*
X018972Y002060D01*
X019002Y002112D01*
X018652Y002112D01*
X018256Y002273D02*
X018166Y002221D01*
X018136Y002273D01*
X018166Y002326D01*
X018136Y002273D01*
X018166Y002221D01*
X018256Y002273D01*
X018166Y002326D01*
X018256Y002273D01*
X018166Y002326D01*
X018136Y002273D01*
X018166Y002221D01*
X018256Y002273D01*
X018136Y002273D02*
X018648Y002273D01*
X018881Y002430D02*
X018970Y002377D01*
X019001Y002429D01*
X018971Y002482D01*
X018881Y002430D01*
X019001Y002429D02*
X018648Y002431D01*
X014456Y002587D02*
X014425Y002535D01*
X014336Y002588D01*
X014426Y002640D01*
X014456Y002587D01*
X014455Y002588D01*
X014060Y002588D01*
X013791Y002752D02*
X013701Y002699D01*
X013667Y002752D01*
X013671Y002752D01*
X013955Y002752D01*
X013955Y002746D01*
X014060Y002746D01*
X013791Y002752D02*
X013701Y002804D01*
X013667Y002752D01*
X013701Y002804D01*
X013791Y002752D01*
X013701Y002699D01*
X013791Y002752D01*
X013701Y002804D01*
X013667Y002752D01*
X013701Y002699D01*
X013667Y002752D01*
X012989Y002588D02*
X012958Y002641D01*
X012869Y002588D01*
X012958Y002641D01*
X012989Y002588D01*
X012958Y002536D01*
X012869Y002588D01*
X012958Y002536D01*
X012989Y002588D01*
X012958Y002536D01*
X012869Y002588D01*
X012958Y002641D01*
X012989Y002588D01*
X012958Y002641D01*
X012869Y002588D01*
X012958Y002536D01*
X012989Y002588D01*
X012741Y002588D01*
X012329Y002431D02*
X012241Y002485D01*
X012209Y002433D01*
X012239Y002380D01*
X012329Y002431D01*
X012211Y002431D02*
X012642Y002431D01*
X011874Y002461D02*
X011863Y002450D01*
X011863Y002402D01*
X011863Y002521D01*
X011714Y002462D01*
X011714Y002449D02*
X011863Y002402D01*
X011874Y002461D02*
X011860Y002464D01*
X011369Y002464D01*
X011133Y002700D01*
X002583Y002700D01*
X002582Y002701D01*
X002354Y002701D01*
X002191Y002863D01*
X000947Y002863D01*
X000947Y002864D01*
X002225Y003252D02*
X002556Y002920D01*
X002604Y002873D01*
X011585Y002873D01*
X011738Y002873D01*
X011876Y002733D01*
X011740Y002869D01*
X011740Y002871D01*
X011825Y002700D01*
X011919Y002774D01*
X011745Y002871D01*
X011912Y003046D02*
X012045Y002913D01*
X012207Y002752D01*
X012237Y002699D01*
X012327Y002751D01*
X012237Y002804D01*
X012207Y002752D01*
X012237Y002804D01*
X012327Y002751D01*
X012207Y002752D02*
X012737Y002749D01*
X012733Y002746D02*
X012642Y002746D01*
X011290Y002177D02*
X010936Y002531D01*
X000947Y002531D01*
X000947Y002470D01*
X000947Y002076D02*
X002308Y002076D01*
X002496Y001888D01*
X011867Y001888D01*
X011852Y001873D01*
X011852Y001830D01*
X011855Y001947D01*
X011748Y001883D01*
X011747Y001869D02*
X011852Y001830D01*
X012209Y001799D02*
X012239Y001851D01*
X012329Y001799D01*
X012240Y001747D01*
X012209Y001799D01*
X012642Y001801D01*
X012860Y001643D02*
X012950Y001695D01*
X012980Y001642D01*
X012980Y001643D01*
X012642Y001643D01*
X012860Y001643D02*
X012950Y001590D01*
X012980Y001642D01*
X013671Y001803D02*
X013702Y001751D01*
X013791Y001804D01*
X013701Y001855D01*
X013671Y001803D01*
X013701Y001855D01*
X013791Y001804D01*
X013735Y001805D02*
X013671Y001803D01*
X013735Y001805D02*
X014060Y001801D01*
X014336Y001646D02*
X014426Y001698D01*
X014456Y001645D01*
X014425Y001593D01*
X014336Y001646D01*
X014426Y001698D01*
X014456Y001645D01*
X014425Y001593D01*
X014336Y001646D01*
X014426Y001698D01*
X014456Y001645D01*
X014425Y001593D01*
X014336Y001646D01*
X014426Y001698D01*
X014456Y001645D01*
X014425Y001593D01*
X014336Y001646D01*
X014456Y001645D02*
X013967Y001649D01*
X013791Y001486D02*
X013701Y001538D01*
X013671Y001486D01*
X013701Y001434D01*
X013671Y001486D01*
X013701Y001538D01*
X013791Y001486D01*
X013701Y001434D01*
X013791Y001486D01*
X013701Y001434D01*
X013671Y001486D01*
X013701Y001538D01*
X013791Y001486D01*
X013671Y001486D02*
X014060Y001486D01*
X014349Y001324D02*
X014438Y001377D01*
X014469Y001324D01*
X014439Y001377D01*
X014349Y001324D01*
X014438Y001272D01*
X014469Y001324D01*
X014438Y001272D01*
X014469Y001324D01*
X014438Y001377D01*
X014469Y001324D01*
X014439Y001272D01*
X014349Y001324D01*
X014438Y001377D01*
X014349Y001324D01*
X014438Y001272D01*
X014349Y001324D01*
X014469Y001324D02*
X014089Y001324D01*
X012989Y001329D02*
X012958Y001277D01*
X012869Y001329D01*
X012958Y001382D01*
X012989Y001329D01*
X012742Y001329D01*
X012329Y001486D02*
X012240Y001433D01*
X012209Y001485D01*
X012239Y001538D01*
X012329Y001486D01*
X012240Y001433D01*
X012209Y001485D01*
X012239Y001538D01*
X012329Y001486D01*
X012240Y001433D01*
X012209Y001485D01*
X012239Y001538D01*
X012329Y001486D01*
X012240Y001433D01*
X012209Y001485D01*
X012239Y001538D01*
X012329Y001486D01*
X012209Y001485D02*
X012478Y001486D01*
X012100Y000898D02*
X011575Y001423D01*
X003032Y001423D01*
X002854Y001423D01*
X001932Y000502D01*
X000947Y000502D01*
X012100Y000898D02*
X012220Y000777D01*
X012642Y000777D01*
X012329Y001171D02*
X012239Y001119D01*
X012209Y001171D01*
X012240Y001224D01*
X012329Y001171D01*
X012418Y001171D02*
X012209Y001171D01*
X012418Y001171D02*
X012642Y001171D01*
X013669Y001157D02*
X013700Y001105D01*
X013669Y001157D01*
X013700Y001210D01*
X013669Y001157D01*
X013700Y001105D01*
X013789Y001157D01*
X013700Y001105D01*
X013789Y001158D01*
X013700Y001210D01*
X013789Y001157D01*
X013700Y001210D01*
X013669Y001157D01*
X014046Y001157D01*
X014060Y001171D01*
X018138Y001488D02*
X018169Y001540D01*
X018258Y001488D01*
X018169Y001436D01*
X018138Y001488D01*
X018169Y001436D01*
X018258Y001488D01*
X018169Y001540D01*
X018138Y001488D01*
X018169Y001436D01*
X018258Y001488D01*
X018169Y001540D01*
X018138Y001488D01*
X018169Y001436D01*
X018258Y001488D01*
X018169Y001540D01*
X018138Y001488D01*
X018649Y001490D01*
X018880Y001639D02*
X018969Y001587D01*
X018999Y001641D01*
X018969Y001692D01*
X018880Y001639D01*
X018969Y001692D01*
X018999Y001641D01*
X018969Y001587D01*
X018880Y001639D01*
X018969Y001587D01*
X018999Y001641D01*
X018969Y001692D01*
X018880Y001639D01*
X018999Y001641D02*
X018652Y001639D01*
X019669Y001644D02*
X019700Y001696D01*
X019789Y001643D01*
X019699Y001591D01*
X019669Y001644D01*
X019699Y001591D01*
X019789Y001643D01*
X019700Y001696D01*
X019669Y001644D01*
X019699Y001591D01*
X019789Y001643D01*
X019700Y001696D01*
X019669Y001644D01*
X019699Y001591D01*
X019789Y001643D01*
X019700Y001696D01*
X019669Y001644D01*
X019784Y001643D01*
X020066Y001643D01*
X020275Y001803D02*
X020364Y001751D01*
X020395Y001803D01*
X020364Y001856D01*
X020275Y001803D01*
X020364Y001856D01*
X020395Y001803D01*
X020364Y001751D01*
X020275Y001803D01*
X020364Y001751D01*
X020395Y001803D01*
X020364Y001856D01*
X020275Y001803D01*
X020395Y001803D02*
X020066Y001803D01*
X020066Y001801D01*
X020066Y001803D02*
X019970Y001803D01*
X018648Y001801D02*
X018412Y001800D01*
X018346Y001904D02*
X018316Y001956D01*
X018347Y002008D01*
X018436Y001955D01*
X018346Y001904D01*
X018316Y001956D01*
X018347Y002008D01*
X018436Y001955D01*
X018346Y001904D01*
X018316Y001956D01*
X018347Y002008D01*
X018436Y001955D01*
X018346Y001904D01*
X018316Y001956D01*
X018347Y002008D01*
X018436Y001955D01*
X018346Y001904D01*
X018316Y001956D02*
X018645Y001953D01*
X019681Y001954D02*
X020061Y001954D01*
X020066Y001958D01*
X020361Y001536D02*
X020391Y001484D01*
X020361Y001536D01*
X020271Y001485D01*
X020359Y001432D01*
X020391Y001484D01*
X019970Y001489D01*
X020271Y001485D02*
X020361Y001536D01*
X019821Y001326D02*
X019731Y001378D01*
X019701Y001325D01*
X019732Y001273D01*
X019821Y001326D01*
X019732Y001273D01*
X019701Y001325D01*
X019731Y001378D01*
X019821Y001326D01*
X019732Y001273D01*
X019701Y001325D01*
X019731Y001378D01*
X019821Y001326D01*
X019732Y001273D01*
X019701Y001325D01*
X019731Y001378D01*
X019821Y001326D01*
X019701Y001325D02*
X020066Y001328D01*
X020278Y001171D02*
X020368Y001223D01*
X020398Y001171D01*
X020368Y001119D01*
X020278Y001171D01*
X020368Y001119D01*
X020398Y001171D01*
X020368Y001223D01*
X020278Y001171D01*
X020368Y001223D01*
X020398Y001171D01*
X020368Y001119D01*
X020278Y001171D01*
X020398Y001171D02*
X020066Y001171D01*
X018648Y001171D02*
X018349Y001171D01*
X018648Y001328D02*
X018971Y001328D01*
X012989Y001956D02*
X012958Y001903D01*
X012869Y001955D01*
X012958Y002008D01*
X012989Y001956D01*
X012958Y002008D01*
X012869Y001955D01*
X012958Y001903D01*
X012989Y001956D01*
X012958Y002008D01*
X012869Y001955D01*
X012958Y001903D01*
X012989Y001956D01*
X012958Y002008D01*
X012869Y001955D01*
X012958Y001903D01*
X012989Y001956D01*
X012744Y001955D01*
X012329Y002116D02*
X012239Y002064D01*
X012209Y002117D01*
X012240Y002169D01*
X012329Y002116D01*
X012221Y002116D02*
X012642Y002116D01*
X012221Y002116D02*
X012209Y002117D01*
X011872Y002177D02*
X011857Y002162D01*
X011857Y002116D01*
X011857Y002238D01*
X011749Y002185D01*
X011755Y002170D02*
X011857Y002116D01*
X011872Y002177D02*
X011290Y002177D01*
X012742Y002274D02*
X012989Y002271D01*
X012959Y002324D01*
X012869Y002273D01*
X012957Y002219D01*
X012989Y002271D01*
X012957Y002219D01*
X012869Y002273D01*
X013671Y002429D02*
X013701Y002377D01*
X013791Y002429D01*
X013701Y002377D01*
X013671Y002429D01*
X013701Y002482D01*
X013671Y002429D01*
X013701Y002377D01*
X013791Y002430D01*
X013701Y002482D01*
X013791Y002429D01*
X013701Y002482D01*
X013671Y002429D01*
X014058Y002429D01*
X014060Y002431D01*
X014336Y002274D02*
X014426Y002326D01*
X014456Y002273D01*
X014425Y002221D01*
X014336Y002274D01*
X014455Y002274D02*
X014456Y002273D01*
X011864Y001601D02*
X000986Y001601D01*
X000986Y001712D01*
X000952Y001678D01*
X000947Y001683D01*
X002700Y003046D02*
X011912Y003046D01*
X012226Y003067D02*
X012256Y003014D01*
X012346Y003064D01*
X012258Y003118D01*
X012226Y003067D01*
X012258Y003118D01*
X012346Y003064D01*
X012256Y003014D01*
X012226Y003067D01*
X012640Y003058D01*
X012883Y003218D02*
X012973Y003166D01*
X013003Y003219D01*
X012972Y003271D01*
X012883Y003218D01*
X012972Y003271D01*
X013003Y003219D01*
X012973Y003166D01*
X012883Y003218D01*
X012972Y003271D01*
X013003Y003219D01*
X012973Y003166D01*
X012883Y003218D01*
X012972Y003271D01*
X013003Y003219D01*
X012973Y003166D01*
X012883Y003218D01*
X012987Y003218D02*
X013003Y003219D01*
X012987Y003218D02*
X012642Y003218D01*
X012015Y003374D02*
X011850Y003209D01*
X002805Y003209D01*
X001975Y004039D01*
X001875Y004039D01*
X000952Y004039D01*
X000947Y004045D01*
X000947Y003651D02*
X002019Y003651D01*
X002095Y003651D01*
X002700Y003046D01*
X002225Y003252D02*
X001917Y003252D01*
X000952Y003252D01*
X000947Y003257D01*
X012015Y003374D02*
X012235Y003374D01*
X012235Y003374D01*
X012266Y003322D01*
X012355Y003376D01*
X012265Y003427D01*
X012235Y003374D01*
X012236Y003376D02*
X012642Y003376D01*
X013671Y003376D02*
X013701Y003324D01*
X013671Y003376D01*
X013701Y003428D01*
X013791Y003376D01*
X013701Y003324D01*
X013791Y003376D01*
X013701Y003428D01*
X013671Y003376D01*
X013701Y003324D01*
X013791Y003376D01*
X013701Y003428D01*
X013671Y003376D01*
X013978Y003376D01*
X014336Y003217D02*
X014426Y003269D01*
X014456Y003216D01*
X014425Y003164D01*
X014336Y003217D01*
X014456Y003216D02*
X013961Y003218D01*
X013791Y003062D02*
X013701Y003114D01*
X013671Y003061D01*
X013701Y003010D01*
X013791Y003062D01*
X013671Y003061D02*
X014060Y003061D01*
X025494Y003057D02*
X025525Y003005D01*
X025614Y003058D01*
X025524Y003110D01*
X025494Y003057D01*
X025827Y003060D01*
X026035Y003220D02*
X026124Y003166D01*
X026155Y003218D01*
X026126Y003271D01*
X026035Y003220D01*
X026126Y003271D01*
X026155Y003218D01*
X026124Y003166D01*
X026035Y003220D01*
X026124Y003166D01*
X026155Y003218D01*
X026124Y003166D01*
X026035Y003220D01*
X026126Y003271D01*
X026155Y003218D01*
X026126Y003271D01*
X026035Y003220D01*
X026155Y003218D02*
X025834Y003224D01*
X025614Y003376D02*
X025524Y003324D01*
X025494Y003376D01*
X025524Y003429D01*
X025494Y003376D01*
X025524Y003324D01*
X025614Y003376D01*
X025524Y003429D01*
X025614Y003376D01*
X025524Y003429D01*
X025494Y003376D01*
X025524Y003324D01*
X025614Y003376D01*
X025494Y003376D02*
X025828Y003376D01*
X027456Y003222D02*
X027545Y003274D01*
X027576Y003222D01*
X027545Y003274D01*
X027456Y003222D01*
X027545Y003169D01*
X027576Y003222D01*
X027545Y003169D01*
X027456Y003222D01*
X027576Y003222D02*
X027147Y003221D01*
X027024Y003061D02*
X026934Y003112D01*
X026904Y003063D01*
X026936Y003007D01*
X027024Y003061D01*
X026904Y003061D02*
X027246Y003061D01*
X027246Y002903D02*
X027555Y002903D01*
X027038Y002744D02*
X026948Y002796D01*
X026918Y002744D01*
X026918Y002746D01*
X027246Y002746D01*
X027038Y002744D02*
X026949Y002692D01*
X026918Y002744D01*
X027455Y002588D02*
X027544Y002641D01*
X027575Y002588D01*
X027544Y002641D01*
X027455Y002588D01*
X027544Y002641D01*
X027575Y002588D01*
X027544Y002536D01*
X027575Y002588D01*
X027544Y002536D01*
X027455Y002588D01*
X027544Y002536D01*
X027455Y002588D01*
X027575Y002588D02*
X027246Y002588D01*
X026080Y002588D02*
X025926Y002588D01*
X025578Y002589D01*
X025524Y002486D02*
X025494Y002434D01*
X025524Y002382D01*
X025494Y002434D01*
X025524Y002486D01*
X025614Y002434D01*
X025524Y002382D01*
X025614Y002434D01*
X025524Y002486D01*
X025494Y002434D01*
X025524Y002382D01*
X025614Y002434D01*
X025524Y002486D01*
X025494Y002434D02*
X025696Y002434D01*
X025825Y002434D01*
X026038Y002276D02*
X026126Y002329D01*
X026158Y002277D01*
X026128Y002224D01*
X026038Y002276D01*
X025928Y002274D02*
X026158Y002277D01*
X025829Y002273D02*
X025601Y002273D01*
X025524Y002172D02*
X025494Y002120D01*
X025524Y002067D01*
X025614Y002119D01*
X025524Y002172D01*
X025494Y002120D01*
X025524Y002068D01*
X025614Y002120D01*
X025524Y002172D01*
X025614Y002120D01*
X025524Y002067D01*
X025494Y002120D01*
X025524Y002172D01*
X025494Y002120D01*
X025822Y002118D01*
X025677Y002120D02*
X025494Y002120D01*
X025524Y002172D02*
X025614Y002119D01*
X026036Y001962D02*
X026126Y002015D01*
X026156Y001962D01*
X026126Y001910D01*
X026036Y001962D01*
X026126Y002015D01*
X026156Y001962D01*
X026126Y001910D01*
X026036Y001962D01*
X026126Y002015D01*
X026156Y001962D01*
X026126Y001910D01*
X026036Y001962D01*
X026126Y002015D01*
X026156Y001962D01*
X026126Y001910D01*
X026036Y001962D01*
X025927Y001963D02*
X026156Y001962D01*
X025614Y001800D02*
X025524Y001852D01*
X025494Y001799D01*
X025525Y001747D01*
X025614Y001800D01*
X025494Y001799D02*
X025876Y001803D01*
X026271Y001641D02*
X026361Y001694D01*
X026391Y001641D01*
X026361Y001589D01*
X026391Y001641D01*
X026361Y001694D01*
X026271Y001641D01*
X026361Y001589D01*
X026271Y001641D01*
X026361Y001694D01*
X026391Y001641D01*
X026361Y001589D01*
X026271Y001641D01*
X026391Y001641D02*
X025926Y001641D01*
X026917Y001799D02*
X026948Y001747D01*
X027037Y001800D01*
X026947Y001852D01*
X026917Y001799D01*
X026947Y001852D01*
X027037Y001800D01*
X027147Y001801D02*
X027246Y001801D01*
X027246Y001801D01*
X027147Y001801D02*
X026917Y001799D01*
X027454Y001642D02*
X027543Y001695D01*
X027574Y001643D01*
X027543Y001695D01*
X027454Y001642D01*
X027544Y001591D01*
X027574Y001643D01*
X027543Y001695D01*
X027574Y001643D01*
X027544Y001591D01*
X027454Y001642D01*
X027543Y001695D01*
X027454Y001642D01*
X027544Y001591D01*
X027574Y001643D01*
X027544Y001591D01*
X027454Y001642D01*
X027574Y001643D02*
X027250Y001639D01*
X027037Y001481D02*
X026947Y001533D01*
X026917Y001481D01*
X026947Y001428D01*
X027037Y001481D01*
X026947Y001428D01*
X026917Y001481D01*
X026947Y001533D01*
X027037Y001481D01*
X026947Y001428D01*
X026917Y001481D01*
X026947Y001533D01*
X027037Y001481D01*
X026917Y001481D02*
X027241Y001481D01*
X027459Y001324D02*
X027549Y001374D01*
X027579Y001321D01*
X027547Y001270D01*
X027459Y001324D01*
X027549Y001374D01*
X027579Y001321D01*
X027547Y001270D01*
X027459Y001324D01*
X027549Y001374D01*
X027579Y001321D01*
X027547Y001270D01*
X027459Y001324D01*
X027549Y001374D01*
X027579Y001321D01*
X027547Y001270D01*
X027459Y001324D01*
X027579Y001321D02*
X027246Y001328D01*
X025830Y001327D02*
X025599Y001327D01*
X025524Y001432D02*
X025494Y001484D01*
X025524Y001432D01*
X025494Y001484D01*
X025524Y001536D01*
X025614Y001484D01*
X025524Y001432D01*
X025614Y001484D01*
X025524Y001536D01*
X025494Y001484D01*
X025524Y001536D01*
X025614Y001484D01*
X025524Y001432D01*
X025494Y001484D01*
X025524Y001536D01*
X025614Y001484D01*
X025524Y001432D01*
X025494Y001484D02*
X025827Y001484D01*
X025833Y001172D02*
X025648Y001172D01*
X025606Y001130D01*
X025138Y001130D01*
X025829Y001171D02*
X026071Y001171D01*
X026918Y001156D02*
X026952Y001106D01*
X027037Y001165D01*
X026944Y001210D01*
X026918Y001156D01*
X027873Y001158D02*
X027873Y001118D01*
X027872Y001158D02*
X027873Y001163D01*
X027876Y001168D01*
X027881Y001171D01*
X027886Y001172D01*
X031049Y001171D02*
X031080Y001119D01*
X031049Y001171D01*
X031080Y001223D01*
X031049Y001171D01*
X031080Y001119D01*
X031169Y001171D01*
X031080Y001119D01*
X031169Y001171D01*
X031080Y001223D01*
X031169Y001171D01*
X031080Y001223D01*
X031049Y001171D01*
X031050Y001171D02*
X031378Y001171D01*
X032460Y001325D02*
X032491Y001273D01*
X032580Y001326D01*
X032490Y001378D01*
X032460Y001325D01*
X032491Y001273D01*
X032580Y001326D01*
X032490Y001378D01*
X032460Y001325D01*
X032491Y001273D01*
X032580Y001326D01*
X032490Y001378D01*
X032460Y001325D01*
X032491Y001273D01*
X032580Y001326D01*
X032490Y001378D01*
X032460Y001325D01*
X032795Y001328D01*
X033005Y001487D02*
X033094Y001434D01*
X033125Y001487D01*
X033094Y001539D01*
X033005Y001487D01*
X032936Y001487D02*
X033125Y001487D01*
X032587Y001644D02*
X032498Y001591D01*
X032467Y001644D01*
X032498Y001696D01*
X032587Y001644D01*
X032498Y001591D01*
X032467Y001644D01*
X032498Y001696D01*
X032587Y001644D01*
X032498Y001591D01*
X032467Y001644D01*
X032498Y001696D01*
X032587Y001644D01*
X032498Y001591D01*
X032467Y001644D01*
X032498Y001696D01*
X032587Y001644D01*
X032467Y001644D02*
X032795Y001643D01*
X033002Y001802D02*
X033091Y001750D01*
X033122Y001802D01*
X033091Y001854D01*
X033002Y001802D01*
X033122Y001802D02*
X032558Y001802D01*
X032498Y001905D02*
X032467Y001957D01*
X032497Y002010D01*
X032587Y001958D01*
X032498Y001905D01*
X032467Y001958D02*
X032795Y001958D01*
X033456Y001958D02*
X033483Y001958D01*
X031771Y001957D02*
X031739Y001905D01*
X031651Y001958D01*
X031741Y002010D01*
X031771Y001957D01*
X031741Y002010D01*
X031651Y001958D01*
X031739Y001905D01*
X031771Y001957D01*
X031741Y002010D01*
X031651Y001958D01*
X031739Y001905D01*
X031771Y001957D01*
X031741Y002010D01*
X031651Y001958D01*
X031739Y001905D01*
X031771Y001957D01*
X031771Y001958D01*
X031378Y001958D01*
X031133Y001956D01*
X031080Y001853D02*
X031049Y001801D01*
X031080Y001748D01*
X031169Y001801D01*
X031080Y001749D01*
X031049Y001801D01*
X031080Y001853D01*
X031169Y001801D01*
X031080Y001853D01*
X031169Y001801D01*
X031080Y001749D01*
X031049Y001801D01*
X031080Y001853D01*
X031049Y001801D02*
X031378Y001801D01*
X031585Y001643D02*
X031675Y001694D01*
X031705Y001642D01*
X031705Y001643D01*
X031378Y001643D01*
X031585Y001643D02*
X031673Y001590D01*
X031705Y001642D01*
X031169Y001485D02*
X031080Y001537D01*
X031049Y001485D01*
X031080Y001432D01*
X031169Y001485D01*
X031080Y001432D01*
X031049Y001485D01*
X031080Y001537D01*
X031169Y001485D01*
X031080Y001432D01*
X031049Y001485D01*
X031080Y001537D01*
X031169Y001485D01*
X031080Y001432D01*
X031049Y001485D01*
X031080Y001537D01*
X031169Y001485D01*
X031049Y001485D02*
X031378Y001486D01*
X031378Y001328D02*
X031345Y001328D01*
X031345Y001329D02*
X031344Y001329D01*
X031343Y001328D01*
X031343Y001327D01*
X031344Y001327D02*
X031134Y001326D01*
X032795Y001171D02*
X033127Y001168D01*
X033097Y001221D01*
X033127Y001168D01*
X033096Y001116D01*
X033007Y001169D01*
X033097Y001221D01*
X033007Y001169D01*
X037060Y001481D02*
X037091Y001429D01*
X037180Y001481D01*
X037091Y001534D01*
X037060Y001481D01*
X037091Y001429D01*
X037180Y001481D01*
X037091Y001534D01*
X037060Y001481D01*
X037091Y001429D01*
X037180Y001481D01*
X037091Y001534D01*
X037060Y001481D01*
X037091Y001429D01*
X037180Y001481D01*
X037091Y001534D01*
X037060Y001481D01*
X037482Y001480D01*
X037638Y001328D02*
X037727Y001380D01*
X037758Y001328D01*
X037727Y001380D01*
X037758Y001328D01*
X037727Y001276D01*
X037758Y001328D01*
X037727Y001276D01*
X037638Y001328D01*
X037727Y001380D01*
X037638Y001328D01*
X037727Y001276D01*
X037638Y001328D01*
X037758Y001328D02*
X037381Y001328D01*
X037387Y001328D01*
X037389Y001328D01*
X038475Y001322D02*
X038506Y001270D01*
X038475Y001322D01*
X038506Y001374D01*
X038475Y001322D01*
X038506Y001270D01*
X038595Y001322D01*
X038506Y001270D01*
X038475Y001322D01*
X038506Y001374D01*
X038595Y001322D01*
X038506Y001374D01*
X038475Y001322D01*
X038800Y001322D01*
X038807Y001328D01*
X038595Y001322D02*
X038506Y001270D01*
X038595Y001322D01*
X038506Y001374D01*
X038595Y001322D01*
X039021Y001482D02*
X039111Y001431D01*
X039141Y001483D01*
X039109Y001535D01*
X039141Y001483D01*
X039032Y001481D01*
X038807Y001486D01*
X039021Y001482D02*
X039109Y001535D01*
X039021Y001482D01*
X038589Y001640D02*
X038500Y001587D01*
X038469Y001640D01*
X038500Y001692D01*
X038469Y001640D01*
X038500Y001587D01*
X038589Y001640D01*
X038500Y001587D01*
X038469Y001640D01*
X038500Y001692D01*
X038589Y001640D01*
X038500Y001692D01*
X038589Y001640D01*
X038500Y001587D01*
X038469Y001640D01*
X038500Y001692D01*
X038589Y001640D01*
X038469Y001640D02*
X038803Y001640D01*
X037879Y001642D02*
X037847Y001694D01*
X037879Y001642D01*
X037849Y001589D01*
X037759Y001641D01*
X037847Y001694D01*
X037759Y001641D01*
X037879Y001642D02*
X037494Y001637D01*
X037180Y001801D02*
X037091Y001748D01*
X037060Y001801D01*
X037090Y001853D01*
X037180Y001801D01*
X037091Y001748D01*
X037060Y001801D01*
X037090Y001853D01*
X037180Y001801D01*
X037256Y001801D02*
X037060Y001801D01*
X037143Y001959D02*
X037244Y001959D01*
X037180Y002115D02*
X037091Y002062D01*
X037060Y002114D01*
X037090Y002167D01*
X037180Y002115D01*
X037091Y002062D01*
X037060Y002114D01*
X037090Y002166D01*
X037180Y002115D01*
X037060Y002114D02*
X037486Y002117D01*
X038469Y002275D02*
X038500Y002222D01*
X038589Y002275D01*
X038500Y002222D01*
X038469Y002275D01*
X038500Y002327D01*
X038589Y002275D01*
X038500Y002327D01*
X038469Y002275D01*
X038500Y002222D01*
X038589Y002275D01*
X038500Y002327D01*
X038469Y002275D01*
X038707Y002275D01*
X039269Y002262D02*
X039479Y002262D01*
X039868Y001874D01*
X046019Y001874D01*
X046177Y001874D01*
X046156Y001874D01*
X046141Y001889D01*
X046177Y001874D02*
X046228Y001865D01*
X046227Y001864D01*
X046101Y001864D01*
X046194Y001815D01*
X046228Y001865D02*
X046194Y001899D01*
X046194Y001914D01*
X046103Y001872D01*
X047839Y002087D02*
X048062Y001864D01*
X048291Y001864D01*
X048306Y001849D01*
X048306Y001864D01*
X048306Y001853D01*
X048297Y001845D01*
X048296Y001907D01*
X048292Y001907D01*
X048290Y001909D01*
X048192Y001853D01*
X048192Y001841D02*
X048299Y001788D01*
X048299Y001789D01*
X048297Y001845D01*
X048703Y002512D02*
X049539Y001689D01*
X049539Y001683D01*
X050553Y001683D01*
X050582Y002047D02*
X050553Y002076D01*
X050582Y002047D02*
X050805Y002047D01*
X050773Y002078D01*
X049574Y002078D01*
X049593Y002059D01*
X049593Y002021D01*
X049681Y002076D01*
X049694Y002092D02*
X049578Y002139D01*
X049577Y002082D01*
X049574Y002078D01*
X047839Y002087D02*
X041011Y002087D01*
X039948Y002087D01*
X039608Y002428D01*
X039139Y002428D01*
X039109Y002481D01*
X039019Y002429D01*
X039108Y002376D01*
X039139Y002428D01*
X039109Y002481D01*
X039019Y002429D01*
X038948Y002430D02*
X039139Y002428D01*
X039769Y002563D02*
X039804Y002487D01*
X039871Y002571D01*
X039795Y002586D01*
X039795Y002577D01*
X039860Y002512D01*
X039784Y002587D01*
X039716Y002587D01*
X039139Y002746D02*
X039107Y002694D01*
X039019Y002748D01*
X039109Y002799D01*
X039139Y002746D01*
X039109Y002799D01*
X039019Y002748D01*
X039139Y002746D02*
X038717Y002755D01*
X038589Y002588D02*
X038500Y002641D01*
X038469Y002589D01*
X038499Y002537D01*
X038589Y002588D01*
X038476Y002588D02*
X038807Y002588D01*
X037389Y002588D02*
X037142Y002589D01*
X037092Y002692D02*
X037062Y002744D01*
X037092Y002797D01*
X037182Y002745D01*
X037092Y002692D01*
X037062Y002744D02*
X037092Y002797D01*
X037182Y002745D01*
X037062Y002744D02*
X037389Y002746D01*
X039519Y002949D02*
X039521Y002951D01*
X039662Y002890D01*
X039664Y002953D01*
X039666Y002951D01*
X039666Y002949D01*
X039665Y002949D01*
X039519Y002949D01*
X039521Y002951D02*
X039629Y003004D01*
X039664Y002953D01*
X039137Y003061D02*
X039106Y003009D01*
X039137Y003061D01*
X039106Y003113D01*
X039137Y003061D01*
X039106Y003113D01*
X039017Y003061D01*
X039106Y003009D01*
X039017Y003061D01*
X039106Y003113D01*
X039017Y003061D01*
X039106Y003009D01*
X039137Y003061D01*
X038709Y003061D01*
X038589Y003216D02*
X038500Y003164D01*
X038469Y003216D01*
X038500Y003164D01*
X038589Y003216D01*
X038500Y003164D01*
X038469Y003216D01*
X038500Y003269D01*
X038469Y003216D01*
X038500Y003269D01*
X038589Y003216D01*
X038500Y003269D01*
X038589Y003216D01*
X038706Y003216D02*
X038469Y003216D01*
X037955Y003215D02*
X037922Y003163D01*
X037835Y003218D01*
X037925Y003268D01*
X037955Y003215D01*
X037925Y003268D01*
X037835Y003218D01*
X037922Y003163D01*
X037955Y003215D01*
X037925Y003268D01*
X037835Y003218D01*
X037922Y003163D01*
X037955Y003215D01*
X037925Y003268D01*
X037835Y003218D01*
X037922Y003163D01*
X037955Y003215D01*
X037955Y003218D01*
X037389Y003218D01*
X037178Y003371D02*
X037088Y003320D01*
X037058Y003373D01*
X037090Y003425D01*
X037058Y003373D01*
X037382Y003369D01*
X037178Y003371D02*
X037090Y003425D01*
X037178Y003371D01*
X038712Y003372D02*
X039136Y003375D01*
X039105Y003427D01*
X039016Y003374D01*
X039105Y003322D01*
X039136Y003375D01*
X039105Y003322D01*
X039016Y003374D01*
X039105Y003427D01*
X039136Y003375D01*
X039279Y003729D02*
X039785Y003223D01*
X048674Y003223D01*
X049496Y004045D01*
X050553Y004045D01*
X047555Y002946D02*
X047438Y003007D01*
X047429Y002889D01*
X047434Y002889D02*
X047555Y002946D01*
X047423Y002946D01*
X047421Y002948D01*
X047553Y002948D01*
X047754Y002747D01*
X049606Y000895D01*
X050553Y000895D01*
X050455Y000599D02*
X049451Y000599D01*
X048750Y001301D01*
X048432Y001301D01*
X039732Y001301D01*
X039614Y001168D01*
X039534Y001168D01*
X039110Y001168D01*
X039110Y001218D01*
X039140Y001166D01*
X039110Y001114D01*
X039140Y001166D01*
X039110Y001218D01*
X039020Y001166D01*
X039110Y001218D01*
X039140Y001166D02*
X038802Y001166D01*
X039020Y001166D02*
X039110Y001114D01*
X039020Y001166D01*
X039110Y001114D01*
X039140Y001166D01*
X037389Y001171D02*
X037147Y001166D01*
X038807Y000777D02*
X038856Y000827D01*
X045280Y001481D02*
X045429Y001426D01*
X045430Y001481D02*
X045280Y001481D01*
X045281Y001482D02*
X045413Y001542D01*
X045396Y001511D01*
X045435Y001486D01*
X045430Y001481D01*
X045435Y001486D02*
X039894Y001472D01*
X039890Y001475D01*
X039388Y001978D01*
X039348Y001978D01*
X038807Y001958D02*
X038468Y001956D01*
X038499Y001904D01*
X038588Y001957D01*
X038499Y002009D01*
X038468Y001956D01*
X039017Y001801D02*
X039109Y001849D01*
X039137Y001796D01*
X039105Y001745D01*
X039017Y001801D01*
X039066Y001801D02*
X039137Y001796D01*
X039066Y001801D02*
X038807Y001801D01*
X037389Y002273D02*
X037322Y002273D01*
X037322Y002274D02*
X037322Y002274D01*
X037322Y002274D01*
X037322Y002274D01*
X037321Y002274D02*
X037148Y002274D01*
X037087Y002378D02*
X037056Y002431D01*
X037087Y002378D01*
X037176Y002431D01*
X037087Y002378D01*
X037056Y002431D01*
X037087Y002483D01*
X037056Y002431D01*
X037087Y002483D01*
X037176Y002431D01*
X037087Y002483D01*
X037176Y002431D01*
X037087Y002378D01*
X037056Y002431D02*
X037389Y002431D01*
X033121Y002432D02*
X033089Y002381D01*
X033001Y002434D01*
X033091Y002485D01*
X033121Y002432D01*
X033119Y002434D02*
X032791Y002434D01*
X032630Y002431D02*
X032550Y002431D01*
X032489Y002326D02*
X032458Y002274D01*
X032488Y002222D01*
X032578Y002273D01*
X032489Y002326D01*
X032446Y002273D02*
X032795Y002273D01*
X031798Y002274D02*
X031767Y002222D01*
X031678Y002274D01*
X031767Y002327D01*
X031798Y002274D01*
X031127Y002274D01*
X031378Y002273D01*
X031171Y002430D02*
X031081Y002379D01*
X031051Y002431D01*
X031082Y002483D01*
X031082Y002484D02*
X031051Y002431D01*
X031081Y002379D01*
X031171Y002430D01*
X031082Y002483D01*
X031082Y002484D02*
X031171Y002430D01*
X031082Y002484D01*
X031051Y002431D01*
X031051Y002430D01*
X031363Y002430D01*
X031235Y002430D02*
X031051Y002431D01*
X031678Y002588D02*
X031767Y002536D01*
X031798Y002588D01*
X031798Y002588D01*
X031767Y002641D01*
X031798Y002588D01*
X031767Y002536D01*
X031798Y002588D01*
X031767Y002641D01*
X031678Y002588D01*
X031767Y002641D01*
X031798Y002588D01*
X031767Y002536D01*
X031678Y002588D01*
X031767Y002536D01*
X031678Y002588D01*
X031767Y002641D01*
X031678Y002588D01*
X031798Y002588D02*
X031440Y002588D01*
X031449Y002590D02*
X031130Y002589D01*
X031077Y002693D02*
X031047Y002745D01*
X031140Y002746D01*
X031167Y002745D02*
X031077Y002693D01*
X031047Y002745D02*
X031078Y002798D01*
X031167Y002745D01*
X031047Y002745D02*
X031376Y002744D01*
X031378Y002903D02*
X031377Y002904D01*
X031219Y002904D01*
X032440Y002907D02*
X032447Y002915D01*
X032445Y002917D01*
X032445Y002964D01*
X032590Y002909D01*
X032599Y002903D02*
X032458Y002855D01*
X033008Y002744D02*
X033098Y002797D01*
X033128Y002744D01*
X033098Y002692D01*
X033008Y002744D01*
X032935Y002744D02*
X033128Y002744D01*
X032935Y002746D02*
X032935Y002744D01*
X032935Y002746D02*
X032795Y002746D01*
X032587Y002590D02*
X032497Y002641D01*
X032467Y002588D01*
X032499Y002536D01*
X032587Y002590D01*
X032499Y002536D01*
X032467Y002588D01*
X032693Y002592D01*
X032795Y002588D01*
X032780Y002907D02*
X032440Y002907D01*
X033007Y003060D02*
X033095Y003007D01*
X033127Y003059D01*
X033097Y003112D01*
X033007Y003060D01*
X033097Y003112D01*
X033127Y003059D01*
X032992Y003061D01*
X032585Y003217D02*
X032490Y003174D01*
X032465Y003229D01*
X032490Y003174D01*
X032585Y003217D01*
X032501Y003278D01*
X032465Y003229D01*
X032478Y003217D01*
X032795Y003218D01*
X033012Y003376D02*
X033102Y003324D01*
X033132Y003376D01*
X033102Y003429D01*
X033012Y003376D01*
X033132Y003376D02*
X032697Y003375D01*
X031711Y003215D02*
X031681Y003267D01*
X031591Y003215D01*
X031681Y003267D01*
X031711Y003215D01*
X031681Y003163D01*
X031711Y003215D01*
X031681Y003267D01*
X031591Y003215D01*
X031681Y003163D01*
X031591Y003215D01*
X031681Y003267D01*
X031711Y003215D01*
X031681Y003163D01*
X031591Y003215D01*
X031681Y003163D01*
X031711Y003215D01*
X031381Y003215D01*
X031378Y003218D01*
X031169Y003063D02*
X031079Y003115D01*
X031049Y003062D01*
X031079Y003010D01*
X031049Y003062D01*
X031079Y003115D01*
X031169Y003063D01*
X031079Y003010D01*
X031169Y003063D01*
X031049Y003062D02*
X031375Y003063D01*
X031378Y003061D01*
X031169Y003389D02*
X031079Y003336D01*
X031049Y003389D01*
X031079Y003441D01*
X031049Y003389D01*
X031079Y003336D01*
X031169Y003389D01*
X031079Y003336D01*
X031049Y003389D01*
X031079Y003441D01*
X031169Y003389D01*
X031079Y003441D01*
X031169Y003389D01*
X031049Y003389D02*
X031342Y003389D01*
X031360Y003389D01*
X031378Y003376D01*
X037061Y003061D02*
X037091Y003009D01*
X037181Y003061D01*
X037092Y003113D01*
X037061Y003061D01*
X037081Y003061D02*
X037389Y003061D01*
X039238Y003769D02*
X039279Y003729D01*
X039238Y003769D02*
X038807Y003769D01*
X048071Y002804D02*
X048071Y002757D01*
X048059Y002745D01*
X048132Y002745D01*
X049611Y001292D01*
X049614Y001289D01*
X050553Y001289D01*
X050455Y000599D02*
X050553Y000502D01*
X031378Y002116D02*
X031046Y002116D01*
X031046Y002114D02*
X031078Y002062D01*
X031166Y002116D01*
X031076Y002167D01*
X031046Y002114D01*
X027843Y002278D02*
X027836Y002272D01*
X027575Y002272D02*
X027544Y002220D01*
X027575Y002272D01*
X027544Y002324D01*
X027575Y002272D01*
X027544Y002324D01*
X027455Y002272D01*
X027544Y002220D01*
X027455Y002272D01*
X027544Y002324D01*
X027455Y002272D01*
X027544Y002220D01*
X027575Y002272D01*
X027247Y002272D01*
X027035Y002430D02*
X026947Y002377D01*
X026915Y002429D01*
X026945Y002481D01*
X027035Y002430D01*
X026945Y002481D01*
X026915Y002429D01*
X026918Y002430D01*
X027246Y002431D01*
X027246Y002116D02*
X027249Y002113D01*
X027500Y002113D01*
X027491Y001959D02*
X027148Y001959D01*
X027149Y001959D02*
X026994Y001958D01*
X025614Y002747D02*
X025524Y002694D01*
X025494Y002747D01*
X025524Y002799D01*
X025614Y002747D01*
X025500Y002747D02*
X025926Y002747D01*
X048042Y002687D02*
X048140Y002683D01*
X048164Y002680D01*
X048185Y002684D01*
X048097Y002793D01*
X048071Y002804D01*
X048140Y002683D02*
X048210Y002672D01*
X048703Y002512D02*
X048716Y002525D01*
X048760Y002525D01*
X048789Y002430D01*
X048789Y002415D02*
X048700Y002451D01*
X048760Y002525D01*
X049579Y002457D02*
X049593Y002470D01*
X049641Y002470D01*
X049655Y002484D01*
X049599Y002516D01*
X049593Y002470D02*
X050553Y002470D01*
X049699Y002458D02*
X049606Y002407D01*
X049655Y002484D02*
X049699Y002458D01*
X049589Y002771D02*
X049721Y002834D01*
X049584Y002894D01*
X049584Y002837D01*
X049580Y002833D01*
X050522Y002833D01*
X050553Y002864D01*
X027246Y001171D02*
X027081Y001168D01*
X026917Y001156D01*
D16*
X026918Y001156D03*
X027873Y001118D03*
X026211Y000929D03*
X026291Y000581D03*
X026807Y000580D03*
X031821Y000576D03*
X032340Y000590D03*
X033412Y001088D03*
X033127Y001168D03*
X032460Y001325D03*
X031826Y001328D03*
X030743Y001328D03*
X031049Y001485D03*
X031705Y001642D03*
X032100Y001643D03*
X032467Y001644D03*
X033122Y001802D03*
X033456Y001958D03*
X032467Y001957D03*
X031771Y001957D03*
X031049Y001801D03*
X030750Y001801D03*
X027836Y001958D03*
X026917Y001799D03*
X026537Y001958D03*
X026156Y001962D03*
X025494Y001799D03*
X025223Y001799D03*
X026391Y001641D03*
X027574Y001643D03*
X026917Y001481D03*
X027579Y001321D03*
X025494Y001484D03*
X025264Y001329D03*
X020678Y001639D03*
X019669Y001644D03*
X018999Y001641D03*
X019317Y001800D03*
X020395Y001803D03*
X020673Y001959D03*
X019002Y002112D03*
X019705Y002271D03*
X020709Y002275D03*
X020395Y002431D03*
X019001Y002429D03*
X018136Y002273D03*
X018141Y002586D03*
X019001Y002743D03*
X018316Y002901D03*
X019345Y003063D03*
X020399Y003059D03*
X019705Y003219D03*
X019007Y003226D03*
X018317Y003376D03*
X020399Y003376D03*
X025494Y003376D03*
X026906Y003378D03*
X027576Y003222D03*
X026904Y003063D03*
X026155Y003218D03*
X025494Y003057D03*
X026177Y002904D03*
X025494Y002747D03*
X025207Y002590D03*
X026458Y002588D03*
X027575Y002588D03*
X027836Y002588D03*
X026918Y002744D03*
X027837Y002904D03*
X031047Y002745D03*
X032155Y002674D03*
X032467Y002588D03*
X033449Y002589D03*
X033128Y002744D03*
X031798Y002588D03*
X031051Y002431D03*
X030758Y002428D03*
X031798Y002274D03*
X032458Y002274D03*
X033452Y002276D03*
X033121Y002432D03*
X031046Y002114D03*
X030778Y002116D03*
X027836Y002272D03*
X027575Y002272D03*
X026915Y002429D03*
X026158Y002277D03*
X025494Y002434D03*
X025494Y002120D03*
X019705Y002586D03*
X020393Y002744D03*
X020670Y002747D03*
X014456Y002587D03*
X013667Y002752D03*
X012989Y002588D03*
X012207Y002752D03*
X011876Y002733D03*
X011874Y002461D03*
X012209Y002433D03*
X012989Y002271D03*
X011872Y002177D03*
X012209Y002117D03*
X012989Y001956D03*
X011867Y001888D03*
X012209Y001799D03*
X013367Y001801D03*
X013671Y001803D03*
X012980Y001642D03*
X011864Y001601D03*
X012209Y001485D03*
X012989Y001329D03*
X013671Y001486D03*
X014469Y001324D03*
X013669Y001157D03*
X012209Y001171D03*
X013098Y000638D03*
X013617Y000635D03*
X018260Y000989D03*
X019094Y001166D03*
X020398Y001171D03*
X020646Y001169D03*
X019701Y001325D03*
X020391Y001484D03*
X018138Y001488D03*
X017966Y001800D03*
X018316Y001956D03*
X014456Y001645D03*
X014456Y002273D03*
X013671Y002429D03*
X013671Y003061D03*
X013003Y003219D03*
X012235Y003374D03*
X013671Y003376D03*
X014456Y003216D03*
X012226Y003067D03*
X013098Y003945D03*
X013599Y003944D03*
X019104Y003954D03*
X019638Y003941D03*
X026274Y004017D03*
X026810Y004026D03*
X031842Y004089D03*
X032355Y004084D03*
X037860Y004053D03*
X038369Y004065D03*
X033132Y003376D03*
X032465Y003229D03*
X031711Y003215D03*
X031049Y003062D03*
X032447Y002915D03*
X033127Y003059D03*
X031049Y003389D03*
X037058Y003373D03*
X037955Y003215D03*
X038469Y003216D03*
X039136Y003375D03*
X039137Y003061D03*
X039666Y002949D03*
X039139Y002746D03*
X038469Y002589D03*
X039860Y002512D03*
X039139Y002428D03*
X038469Y002275D03*
X037060Y002114D03*
X038468Y001956D03*
X039137Y001796D03*
X037879Y001642D03*
X038469Y001640D03*
X039141Y001483D03*
X038475Y001322D03*
X037758Y001328D03*
X037060Y001481D03*
X037060Y001801D03*
X033125Y001487D03*
X031049Y001171D03*
X037881Y000613D03*
X038327Y000606D03*
X039140Y001166D03*
X045435Y001486D03*
X046228Y001865D03*
X048306Y001849D03*
X049574Y002078D03*
X049579Y002457D03*
X048703Y002512D03*
X048059Y002745D03*
X049580Y002833D03*
X047421Y002948D03*
X037061Y003061D03*
X037062Y002744D03*
X037056Y002431D03*
X019621Y000635D03*
X019134Y000635D03*
D17*
X030612Y002113D02*
X030758Y002045D01*
X030769Y002073D01*
X030769Y002107D01*
X030778Y002116D01*
X030769Y002073D02*
X030767Y002174D01*
X030746Y002176D01*
X030613Y002125D01*
X032110Y002619D02*
X032157Y002576D01*
X032232Y002576D01*
X032232Y002574D02*
X032155Y002574D01*
X032155Y002673D01*
X032155Y002673D01*
X032155Y002673D01*
X032155Y002673D01*
X032130Y002704D02*
X032131Y002709D01*
X032134Y002713D01*
X032138Y002716D01*
X032143Y002717D01*
X032143Y002718D02*
X032208Y002718D01*
X032231Y002675D01*
X032195Y002661D01*
X032232Y002661D01*
X032232Y002574D01*
X032110Y002619D02*
X032110Y002685D01*
X032129Y002704D01*
D18*
X031219Y002904D02*
X031124Y002903D01*
M02*
