G75*
%MOIN*%
%OFA0B0*%
%FSLAX24Y24*%
%IPPOS*%
%LPD*%
%AMOC8*
5,1,8,0,0,1.08239X$1,22.5*
%
%ADD10R,0.0257X0.0257*%
%ADD11R,0.0414X0.0147*%
%ADD12R,0.0395X0.0257*%
%ADD13C,0.0360*%
D10*
X001802Y000505D03*
X002202Y000505D03*
X002314Y003889D03*
X001914Y003889D03*
D11*
X001596Y001095D03*
X001596Y001252D03*
X001596Y001410D03*
X001596Y001567D03*
X001596Y001725D03*
X001596Y001882D03*
X001596Y002040D03*
X001596Y002197D03*
X001596Y002355D03*
X001596Y002512D03*
X001596Y002670D03*
X001596Y002827D03*
X001596Y002985D03*
X001596Y003142D03*
X001596Y003300D03*
X002631Y003300D03*
X002631Y003142D03*
X002631Y002985D03*
X002631Y002827D03*
X002631Y002670D03*
X002631Y002512D03*
X002631Y002355D03*
X002631Y002197D03*
X002631Y002040D03*
X002631Y001882D03*
X002631Y001725D03*
X002631Y001567D03*
X002631Y001410D03*
X002631Y001252D03*
X002631Y001095D03*
D12*
X002405Y000780D03*
X001822Y000780D03*
X001822Y003615D03*
X002405Y003615D03*
D13*
X002974Y003584D03*
X003230Y003310D03*
X003446Y003001D03*
X003668Y002693D03*
X003666Y002056D03*
X003624Y001652D03*
X003088Y000877D03*
X002786Y000651D03*
M02*
