G75*
%MOIN*%
%OFA0B0*%
%FSLAX24Y24*%
%IPPOS*%
%LPD*%
%AMOC8*
5,1,8,0,0,1.08239X$1,22.5*
%
%ADD10R,0.0650X0.0937*%
%ADD11C,0.0030*%
%ADD12C,0.0210*%
%ADD13C,0.0120*%
%ADD14C,0.0118*%
%ADD15C,0.0087*%
%ADD16C,0.0079*%
%ADD17C,0.0300*%
%ADD18C,0.0060*%
D10*
X001724Y001286D03*
X001724Y002726D03*
D11*
X000962Y002682D02*
X000962Y002770D01*
X001266Y002770D01*
X001266Y002682D01*
X000962Y002682D01*
X000962Y002711D02*
X001266Y002711D01*
X001266Y002740D02*
X000962Y002740D01*
X000962Y002769D02*
X001266Y002769D01*
X000962Y002879D02*
X000962Y002967D01*
X001266Y002967D01*
X001266Y002879D01*
X000962Y002879D01*
X000962Y002908D02*
X001266Y002908D01*
X001266Y002937D02*
X000962Y002937D01*
X000962Y002966D02*
X001266Y002966D01*
X000962Y003076D02*
X000962Y003164D01*
X001266Y003164D01*
X001266Y003076D01*
X000962Y003076D01*
X000962Y003105D02*
X001266Y003105D01*
X001266Y003134D02*
X000962Y003134D01*
X000962Y003163D02*
X001266Y003163D01*
X000962Y002573D02*
X000962Y002485D01*
X000962Y002573D02*
X001266Y002573D01*
X001266Y002485D01*
X000962Y002485D01*
X000962Y002514D02*
X001266Y002514D01*
X001266Y002543D02*
X000962Y002543D01*
X000962Y002572D02*
X001266Y002572D01*
X000962Y002377D02*
X000962Y002289D01*
X000962Y002377D02*
X001266Y002377D01*
X001266Y002289D01*
X000962Y002289D01*
X000962Y002318D02*
X001266Y002318D01*
X001266Y002347D02*
X000962Y002347D01*
X000962Y002376D02*
X001266Y002376D01*
X000962Y001724D02*
X000962Y001636D01*
X000962Y001724D02*
X001266Y001724D01*
X001266Y001636D01*
X000962Y001636D01*
X000962Y001665D02*
X001266Y001665D01*
X001266Y001694D02*
X000962Y001694D01*
X000962Y001723D02*
X001266Y001723D01*
X000962Y001527D02*
X000962Y001439D01*
X000962Y001527D02*
X001266Y001527D01*
X001266Y001439D01*
X000962Y001439D01*
X000962Y001468D02*
X001266Y001468D01*
X001266Y001497D02*
X000962Y001497D01*
X000962Y001526D02*
X001266Y001526D01*
X000962Y001330D02*
X000962Y001242D01*
X000962Y001330D02*
X001266Y001330D01*
X001266Y001242D01*
X000962Y001242D01*
X000962Y001271D02*
X001266Y001271D01*
X001266Y001300D02*
X000962Y001300D01*
X000962Y001329D02*
X001266Y001329D01*
X000962Y001133D02*
X000962Y001045D01*
X000962Y001133D02*
X001266Y001133D01*
X001266Y001045D01*
X000962Y001045D01*
X000962Y001074D02*
X001266Y001074D01*
X001266Y001103D02*
X000962Y001103D01*
X000962Y001132D02*
X001266Y001132D01*
X000962Y000936D02*
X000962Y000848D01*
X000962Y000936D02*
X001266Y000936D01*
X001266Y000848D01*
X000962Y000848D01*
X000962Y000877D02*
X001266Y000877D01*
X001266Y000906D02*
X000962Y000906D01*
X000962Y000935D02*
X001266Y000935D01*
X002183Y000936D02*
X002183Y000848D01*
X002183Y000936D02*
X002487Y000936D01*
X002487Y000848D01*
X002183Y000848D01*
X002183Y000877D02*
X002487Y000877D01*
X002487Y000906D02*
X002183Y000906D01*
X002183Y000935D02*
X002487Y000935D01*
X002183Y001045D02*
X002183Y001133D01*
X002487Y001133D01*
X002487Y001045D01*
X002183Y001045D01*
X002183Y001074D02*
X002487Y001074D01*
X002487Y001103D02*
X002183Y001103D01*
X002183Y001132D02*
X002487Y001132D01*
X002183Y001242D02*
X002183Y001330D01*
X002487Y001330D01*
X002487Y001242D01*
X002183Y001242D01*
X002183Y001271D02*
X002487Y001271D01*
X002487Y001300D02*
X002183Y001300D01*
X002183Y001329D02*
X002487Y001329D01*
X002183Y001439D02*
X002183Y001527D01*
X002487Y001527D01*
X002487Y001439D01*
X002183Y001439D01*
X002183Y001468D02*
X002487Y001468D01*
X002487Y001497D02*
X002183Y001497D01*
X002183Y001526D02*
X002487Y001526D01*
X002183Y001636D02*
X002183Y001724D01*
X002487Y001724D01*
X002487Y001636D01*
X002183Y001636D01*
X002183Y001665D02*
X002487Y001665D01*
X002487Y001694D02*
X002183Y001694D01*
X002183Y001723D02*
X002487Y001723D01*
X002183Y002289D02*
X002183Y002377D01*
X002487Y002377D01*
X002487Y002289D01*
X002183Y002289D01*
X002183Y002318D02*
X002487Y002318D01*
X002487Y002347D02*
X002183Y002347D01*
X002183Y002376D02*
X002487Y002376D01*
X002183Y002485D02*
X002183Y002573D01*
X002487Y002573D01*
X002487Y002485D01*
X002183Y002485D01*
X002183Y002514D02*
X002487Y002514D01*
X002487Y002543D02*
X002183Y002543D01*
X002183Y002572D02*
X002487Y002572D01*
X002183Y002682D02*
X002183Y002770D01*
X002487Y002770D01*
X002487Y002682D01*
X002183Y002682D01*
X002183Y002711D02*
X002487Y002711D01*
X002487Y002740D02*
X002183Y002740D01*
X002183Y002769D02*
X002487Y002769D01*
X002183Y002879D02*
X002183Y002967D01*
X002487Y002967D01*
X002487Y002879D01*
X002183Y002879D01*
X002183Y002908D02*
X002487Y002908D01*
X002487Y002937D02*
X002183Y002937D01*
X002183Y002966D02*
X002487Y002966D01*
X002183Y003076D02*
X002183Y003164D01*
X002487Y003164D01*
X002487Y003076D01*
X002183Y003076D01*
X002183Y003105D02*
X002487Y003105D01*
X002487Y003134D02*
X002183Y003134D01*
X002183Y003163D02*
X002487Y003163D01*
D12*
X001967Y003349D03*
X002701Y003827D03*
X003031Y002758D03*
X002008Y002063D03*
X003124Y001287D03*
X002461Y000505D03*
X001405Y000636D03*
X000783Y001953D03*
X000505Y002561D03*
X000776Y003119D03*
X001204Y003609D03*
D13*
X002302Y002726D02*
X002335Y002726D01*
X002335Y001089D02*
X002823Y001089D01*
X003088Y000877D01*
D14*
X000753Y001089D02*
X000626Y001216D01*
X000626Y001395D01*
X000505Y001516D01*
X000505Y002561D01*
X000753Y001089D02*
X001102Y001089D01*
X001108Y001095D01*
X002305Y001482D02*
X002772Y001482D01*
X002848Y001558D01*
X003270Y001558D01*
X003364Y001652D01*
X003624Y001652D01*
X003657Y002047D02*
X003328Y002047D01*
X002997Y002047D01*
X002856Y001906D01*
X002630Y001680D01*
X002616Y001680D01*
X002335Y001680D01*
X002335Y001680D01*
X002335Y001680D01*
X002335Y001680D01*
X002335Y001286D02*
X002954Y001286D01*
X003124Y001287D01*
X002673Y000841D02*
X002763Y000750D01*
X002786Y000651D01*
X002673Y000841D02*
X002621Y000892D01*
X002335Y000892D01*
X003657Y002047D02*
X003666Y002056D01*
X003308Y002333D02*
X003668Y002693D01*
X003308Y002333D02*
X003201Y002333D01*
X002335Y002333D01*
X002335Y002333D01*
X002335Y002726D02*
X002335Y002726D01*
X002335Y002923D02*
X002844Y002923D01*
X003230Y003310D01*
X002974Y003584D02*
X002510Y003120D01*
X002390Y003120D01*
D15*
X002335Y003120D01*
X002447Y003272D02*
X002170Y003272D01*
X002164Y003283D01*
X002137Y003309D01*
X002104Y003328D01*
X002068Y003338D01*
X001768Y003338D01*
X001768Y002770D01*
X001681Y002770D01*
X001681Y003338D01*
X001381Y003338D01*
X001344Y003328D01*
X001312Y003309D01*
X001285Y003283D01*
X001279Y003272D01*
X000917Y003272D01*
X000910Y003266D01*
X000858Y003318D01*
X000707Y003318D01*
X000828Y003474D01*
X001006Y003611D01*
X001006Y003527D01*
X001122Y003411D01*
X001287Y003411D01*
X001403Y003527D01*
X001403Y003691D01*
X001293Y003801D01*
X001646Y003947D01*
X002118Y004009D01*
X002546Y003952D01*
X002503Y003909D01*
X002503Y003745D01*
X002619Y003629D01*
X002731Y003629D01*
X002731Y003556D01*
X002447Y003272D01*
X002469Y003294D02*
X002152Y003294D01*
X001967Y003349D02*
X001967Y002726D01*
X001724Y002726D01*
X001724Y002333D01*
X001114Y002333D01*
X001112Y002527D02*
X001109Y002529D01*
X000844Y002529D01*
X000783Y002468D01*
X000783Y001953D01*
X001114Y002063D02*
X001114Y001680D01*
X001251Y001832D02*
X001251Y001927D01*
X001864Y001927D01*
X001893Y001898D01*
X001768Y001898D01*
X001768Y001329D01*
X001681Y001329D01*
X001681Y001898D01*
X001381Y001898D01*
X001344Y001888D01*
X001312Y001869D01*
X001285Y001842D01*
X001279Y001832D01*
X001251Y001832D01*
X001251Y001848D02*
X001290Y001848D01*
X001114Y002063D02*
X002008Y002063D01*
X001768Y002200D02*
X001681Y002200D01*
X001681Y002683D01*
X001768Y002683D01*
X002074Y002683D01*
X002074Y002770D01*
X001768Y002770D01*
X001768Y002683D01*
X001768Y002200D01*
X001768Y002273D02*
X001681Y002273D01*
X001681Y002358D02*
X001768Y002358D01*
X001768Y002443D02*
X001681Y002443D01*
X001681Y002528D02*
X001768Y002528D01*
X001768Y002614D02*
X001681Y002614D01*
X001768Y002699D02*
X002074Y002699D01*
X002335Y002726D02*
X002999Y002726D01*
X003031Y002758D01*
X003253Y002669D02*
X003114Y002529D01*
X002335Y002529D01*
X001768Y002784D02*
X001681Y002784D01*
X001681Y002869D02*
X001768Y002869D01*
X001768Y002954D02*
X001681Y002954D01*
X001681Y003039D02*
X001768Y003039D01*
X001768Y003124D02*
X001681Y003124D01*
X001681Y003209D02*
X001768Y003209D01*
X001768Y003294D02*
X001681Y003294D01*
X001403Y003550D02*
X002725Y003550D01*
X002639Y003465D02*
X001340Y003465D01*
X001297Y003294D02*
X000881Y003294D01*
X000755Y003380D02*
X002554Y003380D01*
X002613Y003635D02*
X001403Y003635D01*
X001374Y003720D02*
X002528Y003720D01*
X002503Y003805D02*
X001304Y003805D01*
X001510Y003890D02*
X002503Y003890D01*
X002371Y003975D02*
X001865Y003975D01*
X001068Y003465D02*
X000820Y003465D01*
X000926Y003550D02*
X001006Y003550D01*
X001114Y002923D02*
X001114Y002726D01*
X001114Y002726D01*
X001114Y002923D01*
X001114Y002923D01*
X001114Y002869D02*
X001114Y002869D01*
X001114Y002784D02*
X001114Y002784D01*
X001114Y002529D02*
X001112Y002527D01*
X001681Y001848D02*
X001768Y001848D01*
X001768Y001762D02*
X001681Y001762D01*
X001681Y001677D02*
X001768Y001677D01*
X001768Y001592D02*
X001681Y001592D01*
X001681Y001507D02*
X001768Y001507D01*
X001768Y001422D02*
X001681Y001422D01*
X001681Y001337D02*
X001768Y001337D01*
X001724Y001286D02*
X001724Y000636D01*
X001405Y000636D01*
X001371Y000636D01*
X001114Y000892D01*
X001114Y000892D01*
X001114Y000690D01*
X001093Y000690D01*
X001206Y000603D01*
X001646Y000421D01*
X002118Y000359D01*
X002303Y000383D01*
X002263Y000423D01*
X002263Y000587D01*
X002379Y000703D01*
X002544Y000703D01*
X002544Y000703D01*
X002559Y000739D01*
X002558Y000740D01*
X002170Y000740D01*
X002164Y000729D01*
X002137Y000703D01*
X002104Y000684D01*
X002068Y000674D01*
X001768Y000674D01*
X001768Y001243D01*
X001681Y001243D01*
X001681Y000674D01*
X001381Y000674D01*
X001344Y000684D01*
X001319Y000698D01*
X001287Y000690D01*
X001114Y000690D01*
X001114Y000892D01*
X001114Y000826D02*
X001114Y000826D01*
X001114Y000741D02*
X001114Y000741D01*
X001137Y000656D02*
X002332Y000656D01*
X002263Y000571D02*
X001284Y000571D01*
X001489Y000486D02*
X002263Y000486D01*
X002285Y000401D02*
X001800Y000401D01*
X001768Y000741D02*
X001681Y000741D01*
X001681Y000826D02*
X001768Y000826D01*
X001768Y000911D02*
X001681Y000911D01*
X001681Y000996D02*
X001768Y000996D01*
X001768Y001082D02*
X001681Y001082D01*
X001681Y001167D02*
X001768Y001167D01*
X002305Y001482D02*
X002334Y001482D01*
X002335Y001483D01*
X003253Y002669D02*
X003446Y002862D01*
X003446Y003001D01*
X001114Y001483D02*
X001114Y001286D01*
X001114Y001483D01*
X001114Y001483D01*
X001114Y001422D02*
X001114Y001422D01*
X001114Y001337D02*
X001114Y001337D01*
X001114Y001286D02*
X001114Y001286D01*
D16*
X001114Y001483D01*
X001495Y001483D01*
X001724Y001286D01*
X001724Y002726D02*
X001114Y002726D01*
X001114Y002923D01*
X001114Y003120D02*
X000803Y003120D01*
X000776Y003119D01*
D17*
X002974Y003584D03*
X003230Y003310D03*
X003446Y003001D03*
X003668Y002693D03*
X003666Y002056D03*
X003624Y001652D03*
X003088Y000877D03*
X002786Y000651D03*
D18*
X001114Y001089D02*
X001108Y001095D01*
M02*
