G75*
G70*
%OFA0B0*%
%FSLAX24Y24*%
%IPPOS*%
%LPD*%
%AMOC8*
5,1,8,0,0,1.08239X$1,22.5*
%
%ADD10C,0.1458*%
%ADD11R,0.0630X0.0630*%
%ADD12C,0.0630*%
%ADD13OC8,0.0660*%
%ADD14C,0.0600*%
%ADD15C,0.0460*%
%ADD16OC8,0.0600*%
%ADD17C,0.0660*%
D10*
X001470Y002912D03*
X001470Y045207D03*
X071858Y045207D03*
X071858Y002912D03*
D11*
X070161Y042649D03*
D12*
X069161Y042649D03*
X068161Y042649D03*
X067161Y042649D03*
X066161Y042649D03*
X065161Y042649D03*
X064161Y042649D03*
X064161Y041649D03*
X065161Y041649D03*
X066161Y041649D03*
X067161Y041649D03*
X068161Y041649D03*
X069161Y041649D03*
X070161Y041649D03*
D13*
X069128Y035275D03*
X068128Y035275D03*
X068128Y034275D03*
X069128Y034275D03*
X059732Y033817D03*
X058732Y033817D03*
X058732Y032817D03*
X059732Y032817D03*
X059732Y031817D03*
X058732Y031817D03*
X058732Y034817D03*
X059732Y034817D03*
X059732Y035817D03*
X058732Y035817D03*
X058732Y036817D03*
X059732Y036817D03*
X059732Y037817D03*
X058732Y037817D03*
X058833Y041365D03*
X059833Y041365D03*
X059833Y042365D03*
X058833Y042365D03*
X057833Y042365D03*
X056833Y042365D03*
X055833Y042365D03*
X055833Y041365D03*
X056833Y041365D03*
X057833Y041365D03*
X054833Y041365D03*
X053833Y041365D03*
X052833Y041365D03*
X052833Y042365D03*
X053833Y042365D03*
X054833Y042365D03*
X051833Y042365D03*
X050833Y042365D03*
X050833Y041365D03*
X051833Y041365D03*
X049833Y041365D03*
X048833Y041365D03*
X047833Y041365D03*
X047833Y042365D03*
X048833Y042365D03*
X049833Y042365D03*
X046833Y042365D03*
X045833Y042365D03*
X045833Y041365D03*
X046833Y041365D03*
X040992Y040292D03*
X039992Y040292D03*
X039992Y039292D03*
X040992Y039292D03*
X034174Y039394D03*
X033174Y039394D03*
X033174Y040394D03*
X034174Y040394D03*
X034174Y041394D03*
X033174Y041394D03*
X033174Y042394D03*
X034174Y042394D03*
X034174Y043394D03*
X033174Y043394D03*
X033174Y044394D03*
X034174Y044394D03*
X034174Y045394D03*
X033174Y045394D03*
X028390Y045373D03*
X027390Y045373D03*
X027390Y044373D03*
X028390Y044373D03*
X028390Y043373D03*
X027390Y043373D03*
X027390Y042373D03*
X028390Y042373D03*
X028390Y041373D03*
X027390Y041373D03*
X027390Y040373D03*
X028390Y040373D03*
X028390Y039373D03*
X027390Y039373D03*
X019374Y043899D03*
X018374Y043899D03*
X017374Y043899D03*
X016374Y043899D03*
X016374Y044899D03*
X017374Y044899D03*
X018374Y044899D03*
X019374Y044899D03*
X008210Y045126D03*
X007210Y045126D03*
X007210Y044126D03*
X008210Y044126D03*
X002265Y035122D03*
X002265Y034122D03*
X001265Y034122D03*
X001265Y035122D03*
X001319Y030944D03*
X002319Y030944D03*
X002319Y029944D03*
X001319Y029944D03*
X002128Y027300D03*
X003128Y027300D03*
X003128Y026300D03*
X003128Y025300D03*
X003128Y024300D03*
X003128Y023300D03*
X003128Y022300D03*
X003128Y021300D03*
X002128Y021300D03*
X002128Y022300D03*
X002128Y023300D03*
X002128Y024300D03*
X002128Y025300D03*
X002128Y026300D03*
X009765Y030405D03*
X010765Y030405D03*
X011765Y030405D03*
X011765Y031405D03*
X010765Y031405D03*
X009765Y031405D03*
X011075Y027300D03*
X012075Y027300D03*
X012075Y026300D03*
X011075Y026300D03*
X011075Y025300D03*
X012075Y025300D03*
X012075Y024300D03*
X011075Y024300D03*
X011075Y023300D03*
X012075Y023300D03*
X012075Y022300D03*
X011075Y022300D03*
X011075Y021300D03*
X012075Y021300D03*
X015505Y021396D03*
X016505Y021396D03*
X016505Y022396D03*
X015505Y022396D03*
X024681Y021200D03*
X025681Y021200D03*
X026681Y021200D03*
X027681Y021200D03*
X028681Y021200D03*
X029681Y021200D03*
X030681Y021200D03*
X031681Y021200D03*
X032681Y021200D03*
X033681Y021200D03*
X034681Y021200D03*
X035681Y021200D03*
X036681Y021200D03*
X037681Y021200D03*
X038681Y021200D03*
X039681Y021200D03*
X040681Y021200D03*
X041681Y021200D03*
X042681Y021200D03*
X043681Y021200D03*
X043681Y020200D03*
X042681Y020200D03*
X041681Y020200D03*
X040681Y020200D03*
X039681Y020200D03*
X038681Y020200D03*
X037681Y020200D03*
X036681Y020200D03*
X035681Y020200D03*
X034681Y020200D03*
X033681Y020200D03*
X032681Y020200D03*
X031681Y020200D03*
X030681Y020200D03*
X029681Y020200D03*
X028681Y020200D03*
X027681Y020200D03*
X026681Y020200D03*
X025681Y020200D03*
X024681Y020200D03*
X018376Y015290D03*
X018376Y014290D03*
X018376Y013290D03*
X018376Y012290D03*
X018376Y011290D03*
X017376Y011290D03*
X017376Y012290D03*
X017376Y013290D03*
X017376Y014290D03*
X017376Y015290D03*
X017376Y010290D03*
X017376Y009290D03*
X017376Y008290D03*
X017376Y007290D03*
X017376Y006290D03*
X017376Y005290D03*
X017376Y004290D03*
X017376Y003290D03*
X018376Y003290D03*
X018376Y004290D03*
X018376Y005290D03*
X018376Y006290D03*
X018376Y007290D03*
X018376Y008290D03*
X018376Y009290D03*
X018376Y010290D03*
X018376Y002290D03*
X018376Y001290D03*
X017376Y001290D03*
X017376Y002290D03*
X067204Y002290D03*
X068204Y002290D03*
X068204Y001290D03*
X067204Y001290D03*
X067204Y003290D03*
X068204Y003290D03*
X068204Y004290D03*
X067204Y004290D03*
X067204Y005290D03*
X068204Y005290D03*
X068204Y006290D03*
X067204Y006290D03*
X067204Y007290D03*
X068204Y007290D03*
X068204Y008290D03*
X067204Y008290D03*
X067204Y009290D03*
X068204Y009290D03*
X068204Y010290D03*
X067204Y010290D03*
X067204Y011290D03*
X068204Y011290D03*
X068204Y012290D03*
X067204Y012290D03*
X067204Y013290D03*
X068204Y013290D03*
X068204Y014290D03*
X067204Y014290D03*
X067204Y015290D03*
X068204Y015290D03*
X068070Y018769D03*
X067070Y018769D03*
X067070Y019769D03*
X068070Y019769D03*
X069676Y019785D03*
X070676Y019785D03*
X070676Y018785D03*
X069676Y018785D03*
D14*
X014570Y018937D02*
X014570Y019477D01*
X013570Y019477D02*
X013570Y018937D01*
D15*
X013355Y044394D03*
X011387Y044394D03*
X040881Y044394D03*
X042850Y044394D03*
D16*
X046393Y028160D03*
X047393Y028160D03*
X047393Y027160D03*
X046393Y027160D03*
D17*
X022043Y043944D02*
X021443Y043944D01*
X021443Y044944D02*
X022043Y044944D01*
X022043Y045944D02*
X021443Y045944D01*
M02*
