%
M48
M72
T01C0.0100
T02C0.0217
T03C0.0360
T04C0.0380
T05C0.0400
T06C0.1398
%
T01
X4047Y2704
X3950Y11965
X3020Y13127
X7518Y12311
X10736Y13712
X10860Y14537
X9928Y15554
X19412Y17295
X20460Y17747
X21420Y17577
X21880Y17577
X22330Y17577
X22570Y17057
X28457Y13267
X28157Y13042
X27917Y12762
X29170Y12587
X29692Y13225
X28700Y13677
X30650Y11807
X30647Y11327
X30647Y10832
X30637Y10342
X30637Y9842
X30637Y9332
X30657Y8822
X30650Y8321
X30650Y7827
X30670Y7317
X30651Y6816
X30660Y6323
X30650Y5807
X33373Y5195
X34570Y6316
X34570Y6847
X34560Y7297
X34570Y7754
X34580Y8292
X34570Y8749
X34570Y9272
X34570Y9772
X34570Y10272
X34570Y10822
X34570Y11337
X34570Y11807
X34570Y12267
X34570Y12787
X37642Y12900
X37660Y12337
X39040Y11807
X39040Y11367
X39040Y10832
X39040Y10332
X39040Y9832
X39040Y9332
X39047Y8832
X39040Y8332
X39040Y7832
X39040Y7327
X39047Y6835
X39047Y6332
X39050Y5807
X41897Y5159
X43100Y6306
X43100Y6837
X43090Y7317
X43100Y7810
X43100Y8312
X43100Y8819
X43100Y9307
X43100Y9807
X43100Y10307
X43100Y10807
X43100Y11307
X43100Y11807
X43100Y12287
X43100Y12787
X45712Y12930
X45710Y12337
X47290Y11807
X47290Y11357
X47290Y10822
X47290Y10322
X47290Y9822
X47290Y9322
X47290Y8822
X47290Y8322
X47290Y7822
X47290Y7327
X47297Y6825
X47297Y6322
X47297Y5807
X50156Y5166
X51520Y6306
X51520Y6837
X51520Y7367
X51520Y7810
X51520Y8312
X51520Y8819
X51520Y9307
X51520Y9807
X51520Y10307
X51520Y10807
X51520Y11307
X51520Y11807
X51520Y12287
X51520Y12787
X53250Y11807
X53730Y11327
X54160Y10807
X55540Y10822
X55540Y11357
X55540Y11807
X54500Y12307
X54612Y12890
X55540Y10322
X55540Y9822
X55530Y9337
X55540Y8827
X55520Y8317
X55540Y7822
X55540Y7337
X55547Y6825
X55547Y6322
X55550Y5817
X58646Y5296
X59960Y6306
X59960Y6837
X59960Y7367
X59960Y7810
X59960Y8312
X59960Y8819
X59960Y9307
X59960Y9807
X59960Y10307
X59960Y10807
X59960Y11307
X59960Y11807
X59960Y12287
X59960Y12787
X58663Y15783
X57450Y16406
X55490Y16587
X55030Y16607
X54680Y16637
X53802Y20368
X52044Y20369
X53750Y23597
X59710Y23917
X59720Y24387
X59710Y24877
X59730Y25377
X59740Y25877
X59750Y26367
X59730Y26897
X59700Y27387
X59710Y27887
X59551Y29546
X61298Y30013
X63420Y28897
X63420Y28377
X63430Y27887
X63420Y27347
X63430Y26887
X63420Y26437
X63420Y25907
X63410Y25407
X63410Y24887
X63390Y24407
X63390Y23897
X63390Y23437
X63410Y22887
X63400Y22387
X62282Y21237
X59780Y21907
X59770Y22387
X59740Y22887
X59720Y23387
X66900Y24137
X67760Y24627
X68646Y24643
X68470Y25307
X68710Y25877
X68670Y26247
X68660Y26647
X68640Y27037
X70700Y26267
X70810Y24767
X61680Y33547
X66470Y33877
X56410Y35697
X56143Y34046
X52670Y36077
X51570Y37987
X49814Y40310
X44000Y36367
X42900Y35977
X41158Y35445
X41160Y33647
X40920Y32887
X40140Y32827
X39132Y32806
X39493Y33623
X37599Y32634
X36748Y32827
X36189Y33034
X34862Y32087
X33953Y31124
X32043Y31151
X32079Y29364
X33971Y29478
X35010Y29599
X34906Y27875
X36494Y27926
X37620Y27857
X38370Y28527
X38650Y28857
X39190Y29267
X39752Y29489
X40053Y29493
X40354Y29490
X40435Y30105
X40972Y30095
X40882Y30408
X41117Y30392
X41840Y30077
X42200Y30517
X42990Y30457
X43471Y30477
X42050Y31067
X43180Y31847
X44070Y32647
X44570Y32427
X45370Y33187
X45890Y32837
X44900Y31657
X45677Y31013
X46300Y31177
X48287Y31013
X48878Y34108
X48523Y34982
X47210Y35147
X46600Y35997
X45780Y35957
X44810Y34987
X40970Y31637
X40967Y31266
X40000Y30567
X38980Y30107
X38390Y30167
X38410Y30517
X37502Y30469
X37456Y30096
X37748Y29663
X37138Y29483
X38286Y31051
X38540Y31367
X34590Y33467
X29860Y37567
X29630Y38357
X29410Y38937
X29860Y40394
X29640Y42394
X29310Y43373
X23445Y42830
X21891Y40923
X20134Y40795
X19662Y41480
X19666Y39829
X20470Y39697
X20794Y39190
X21545Y39050
X22990Y39377
X21771Y38047
X22810Y37557
X24770Y36857
X22840Y35897
X22758Y35431
X22354Y35471
X21969Y35452
X21570Y35477
X20429Y35529
X20350Y35979
X19426Y36297
X19102Y35887
X18916Y36104
X19333Y35688
X19410Y37077
X20070Y37277
X20110Y37667
X20120Y38057
X19080Y37647
X18646Y39078
X17640Y39490
X16450Y38137
X15361Y38684
X15483Y39844
X15407Y41265
X12605Y39142
X11184Y37952
X10535Y38602
X9457Y37438
X11540Y36987
X11240Y35047
X8895Y33754
X7622Y34872
X5863Y34867
X4988Y38381
X3943Y39169
X5216Y40188
X5579Y40130
X6761Y39860
X8266Y39821
X8258Y40981
X6746Y41016
X4233Y40690
X3994Y41158
X9750Y45437
X14941Y43478
X15410Y37127
X16983Y36409
X15432Y35534
X14228Y35470
X19940Y33607
X21836Y34148
X22975Y32620
X24214Y34151
X27401Y34223
X27444Y36315
X19989Y31886
X20038Y30410
X19268Y30330
X23455Y30416
X22875Y24096
X22071Y23792
X21045Y23971
X20587Y23519
X20222Y12925
X21710Y11837
X21670Y11357
X21670Y10827
X21670Y10327
X21670Y9822
X21670Y9327
X21670Y8822
X21670Y8322
X21680Y7787
X21670Y7317
X21671Y6826
X21677Y6327
X21620Y5527
X24610Y5237
X25950Y6327
X25950Y6827
X25940Y7317
X25950Y7810
X25950Y8312
X25950Y8827
X25950Y9327
X25950Y9807
X25950Y10327
X25950Y10827
X25950Y11357
X25950Y11807
X25950Y12307
X25920Y12807
X39130Y22537
X38230Y22737
X38080Y23367
X46310Y23187
X66560Y15283
X66320Y14637
X66510Y13287
X66520Y12277
X66520Y11287
X66510Y10297
X66510Y9277
X66530Y8287
X66520Y7289
X66530Y6302
X66560Y5290
X66550Y4297
X66560Y3287
X63365Y3032
X63095Y4132
X62850Y5417
X62555Y6742
X62310Y7557
X62010Y8077
X61720Y8527
X61440Y9037
X61150Y9517
X58814Y2374
X51120Y2357
X41757Y2912
X33515Y2757
X25570Y2367
X42660Y38900
X38235Y39822
X38180Y40917
X38715Y41262
X38495Y42072
X38993Y42864
X40850Y41907
X42794Y43850
X39464Y45770
X38010Y44927
X36310Y39537
T02
X40881Y44394
X42850Y44394
X13355Y44394
X11387Y44394
T03
X46393Y28160
X47393Y28160
X47393Y27160
X46393Y27160
X14570Y19207
X13570Y19207
T04
X64161Y41649
X65161Y41649
X65161Y42649
X64161Y42649
X66161Y42649
X67161Y42649
X68161Y42649
X69161Y42649
X70161Y42649
X70161Y41649
X69161Y41649
X68161Y41649
X67161Y41649
X66161Y41649
T05
X59833Y41365
X58833Y41365
X58833Y42365
X59833Y42365
X57833Y42365
X56833Y42365
X55833Y42365
X55833Y41365
X56833Y41365
X57833Y41365
X54833Y41365
X53833Y41365
X52833Y41365
X52833Y42365
X53833Y42365
X54833Y42365
X51833Y42365
X50833Y42365
X50833Y41365
X51833Y41365
X49833Y41365
X48833Y41365
X47833Y41365
X47833Y42365
X48833Y42365
X49833Y42365
X46833Y42365
X45833Y42365
X45833Y41365
X46833Y41365
X40992Y40292
X39992Y40292
X39992Y39292
X40992Y39292
X34174Y39394
X33174Y39394
X33174Y40394
X34174Y40394
X34174Y41394
X33174Y41394
X33174Y42394
X34174Y42394
X34174Y43394
X33174Y43394
X33174Y44394
X34174Y44394
X34174Y45394
X33174Y45394
X28390Y45373
X27390Y45373
X27390Y44373
X28390Y44373
X28390Y43373
X27390Y43373
X27390Y42373
X28390Y42373
X28390Y41373
X27390Y41373
X27390Y40373
X28390Y40373
X28390Y39373
X27390Y39373
X21743Y43944
X21743Y44944
X21743Y45944
X19374Y44899
X18374Y44899
X17374Y44899
X16374Y44899
X16374Y43899
X17374Y43899
X18374Y43899
X19374Y43899
X8210Y44126
X7210Y44126
X7210Y45126
X8210Y45126
X2265Y35122
X2265Y34122
X1265Y34122
X1265Y35122
X1319Y30944
X2319Y30944
X2319Y29944
X1319Y29944
X2128Y27300
X3128Y27300
X3128Y26300
X3128Y25300
X3128Y24300
X3128Y23300
X3128Y22300
X3128Y21300
X2128Y21300
X2128Y22300
X2128Y23300
X2128Y24300
X2128Y25300
X2128Y26300
X9765Y30405
X10765Y30405
X11765Y30405
X11765Y31405
X10765Y31405
X9765Y31405
X11075Y27300
X12075Y27300
X12075Y26300
X11075Y26300
X11075Y25300
X12075Y25300
X12075Y24300
X11075Y24300
X11075Y23300
X12075Y23300
X12075Y22300
X11075Y22300
X11075Y21300
X12075Y21300
X15505Y21396
X16505Y21396
X16505Y22396
X15505Y22396
X24681Y21200
X25681Y21200
X26681Y21200
X27681Y21200
X28681Y21200
X29681Y21200
X30681Y21200
X31681Y21200
X32681Y21200
X33681Y21200
X34681Y21200
X35681Y21200
X36681Y21200
X37681Y21200
X38681Y21200
X39681Y21200
X40681Y21200
X41681Y21200
X42681Y21200
X43681Y21200
X43681Y20200
X42681Y20200
X41681Y20200
X40681Y20200
X39681Y20200
X38681Y20200
X37681Y20200
X36681Y20200
X35681Y20200
X34681Y20200
X33681Y20200
X32681Y20200
X31681Y20200
X30681Y20200
X29681Y20200
X28681Y20200
X27681Y20200
X26681Y20200
X25681Y20200
X24681Y20200
X18376Y15290
X18376Y14290
X18376Y13290
X18376Y12290
X18376Y11290
X17376Y11290
X17376Y12290
X17376Y13290
X17376Y14290
X17376Y15290
X17376Y10290
X17376Y9290
X17376Y8290
X17376Y7290
X17376Y6290
X17376Y5290
X17376Y4290
X17376Y3290
X18376Y3290
X18376Y4290
X18376Y5290
X18376Y6290
X18376Y7290
X18376Y8290
X18376Y9290
X18376Y10290
X18376Y2290
X18376Y1290
X17376Y1290
X17376Y2290
X58732Y31817
X59732Y31817
X59732Y32817
X58732Y32817
X58732Y33817
X59732Y33817
X59732Y34817
X58732Y34817
X58732Y35817
X59732Y35817
X59732Y36817
X58732Y36817
X58732Y37817
X59732Y37817
X68128Y35275
X69128Y35275
X69128Y34275
X68128Y34275
X68070Y19769
X67070Y19769
X67070Y18769
X68070Y18769
X69676Y18785
X70676Y18785
X70676Y19785
X69676Y19785
X68204Y15290
X67204Y15290
X67204Y14290
X68204Y14290
X68204Y13290
X67204Y13290
X67204Y12290
X68204Y12290
X68204Y11290
X67204Y11290
X67204Y10290
X68204Y10290
X68204Y9290
X67204Y9290
X67204Y8290
X68204Y8290
X68204Y7290
X67204Y7290
X67204Y6290
X68204Y6290
X68204Y5290
X67204Y5290
X67204Y4290
X68204Y4290
X68204Y3290
X67204Y3290
X67204Y2290
X68204Y2290
X68204Y1290
X67204Y1290
T06
X71858Y2912
X71858Y45207
X1470Y45207
X1470Y2912
M30
