G75*
G70*
%OFA0B0*%
%FSLAX24Y24*%
%IPPOS*%
%LPD*%
%AMOC8*
5,1,8,0,0,1.08239X$1,22.5*
%
%ADD10C,0.1458*%
%ADD11R,0.0180X0.0379*%
%ADD12R,0.0277X0.0532*%
%ADD13R,0.1438X0.0867*%
%ADD14R,0.1635X0.0867*%
%ADD15R,0.0946X0.0257*%
%ADD16R,0.0375X0.0375*%
%ADD17R,0.0630X0.0630*%
%ADD18C,0.0630*%
%ADD19R,0.2029X0.2029*%
%ADD20C,0.0170*%
%ADD21OC8,0.0660*%
%ADD22R,0.0351X0.1241*%
%ADD23R,0.1241X0.0351*%
%ADD24R,0.0197X0.0315*%
%ADD25R,0.0630X0.0157*%
%ADD26R,0.0414X0.0147*%
%ADD27R,0.0375X0.0277*%
%ADD28C,0.0600*%
%ADD29R,0.0380X0.0180*%
%ADD30R,0.0180X0.0380*%
%ADD31R,0.1730X0.1730*%
%ADD32R,0.0808X0.0493*%
%ADD33C,0.0460*%
%ADD34R,0.1560X0.0860*%
%ADD35R,0.0860X0.1560*%
%ADD36R,0.0572X0.0690*%
%ADD37R,0.0611X0.0532*%
%ADD38OC8,0.0600*%
%ADD39C,0.0660*%
%ADD40R,0.1556X0.0336*%
D10*
X001470Y002912D03*
X001470Y045207D03*
X071858Y045207D03*
X071858Y002912D03*
D11*
X005977Y039067D03*
X005781Y039067D03*
X005584Y039067D03*
X005584Y039540D03*
X005781Y039540D03*
X005977Y039540D03*
D12*
X010813Y038460D03*
X011187Y038460D03*
X011561Y038460D03*
X011561Y037436D03*
X010813Y037436D03*
D13*
X003581Y038403D03*
X003581Y041710D03*
D14*
X001908Y041710D03*
X001908Y038403D03*
D15*
X003630Y039426D03*
X003630Y039741D03*
X003630Y040056D03*
X003630Y040371D03*
X003630Y040686D03*
D16*
X007207Y040978D03*
X007807Y040978D03*
X007805Y039854D03*
X007205Y039854D03*
X009978Y036643D03*
X010578Y036643D03*
X013129Y036646D03*
X013129Y036046D03*
X014211Y036057D03*
X014211Y036657D03*
X015406Y036673D03*
X015406Y036073D03*
X017518Y037994D03*
X017518Y038594D03*
X018639Y038697D03*
X018639Y038097D03*
X019670Y040325D03*
X019670Y040925D03*
X020749Y040930D03*
X021349Y040930D03*
X016026Y038148D03*
X015426Y038148D03*
X014918Y039887D03*
X014318Y039887D03*
X013567Y039886D03*
X012967Y039886D03*
X012769Y041272D03*
X013369Y041272D03*
X014237Y041277D03*
X014837Y041277D03*
X014425Y043499D03*
X014425Y044099D03*
X024886Y036336D03*
X025486Y036336D03*
X026470Y036336D03*
X027060Y036336D03*
X025505Y035154D03*
X024905Y035154D03*
X023776Y034766D03*
X023776Y034166D03*
X022986Y034166D03*
X022386Y034166D03*
X021931Y033323D03*
X021331Y033323D03*
X020367Y033610D03*
X020367Y033010D03*
X019080Y033480D03*
X018480Y033480D03*
X018644Y032260D03*
X019244Y032260D03*
X020462Y031852D03*
X021062Y031852D03*
X022380Y032154D03*
X022980Y032154D03*
X022976Y030424D03*
X022376Y030424D03*
X021060Y030406D03*
X020460Y030406D03*
X019276Y030748D03*
X019276Y031348D03*
X026499Y034223D03*
X027090Y034223D03*
X032047Y030681D03*
X032047Y030081D03*
X033950Y030087D03*
X033950Y030687D03*
X035442Y029596D03*
X036042Y029596D03*
X037191Y029050D03*
X037791Y029050D03*
X036040Y027922D03*
X035440Y027922D03*
X035313Y032082D03*
X035913Y032082D03*
X040754Y034839D03*
X040754Y035439D03*
X043647Y035013D03*
X043647Y034413D03*
X045109Y031024D03*
X045109Y030424D03*
X043433Y030936D03*
X042833Y030936D03*
X048995Y031017D03*
X048995Y030417D03*
X048825Y034468D03*
X048825Y035068D03*
X049918Y034386D03*
X050518Y034386D03*
X055684Y034347D03*
X056284Y034347D03*
X060605Y029546D03*
X061205Y029546D03*
X058659Y016479D03*
X058059Y016479D03*
X055338Y012897D03*
X055338Y012297D03*
X046395Y012331D03*
X046395Y012931D03*
X038437Y012970D03*
X038437Y012370D03*
X029736Y012315D03*
X029736Y012915D03*
X020986Y012883D03*
X020986Y012283D03*
X020452Y017297D03*
X019852Y017297D03*
X007276Y034266D03*
X007276Y034857D03*
X008303Y034341D03*
X008903Y034341D03*
X005841Y035335D03*
X005241Y035335D03*
X039512Y042923D03*
X039512Y043523D03*
X039508Y044625D03*
X039508Y045225D03*
X044111Y044624D03*
X044111Y044024D03*
D17*
X070161Y042649D03*
D18*
X069161Y042649D03*
X068161Y042649D03*
X067161Y042649D03*
X066161Y042649D03*
X065161Y042649D03*
X064161Y042649D03*
X064161Y041649D03*
X065161Y041649D03*
X066161Y041649D03*
X067161Y041649D03*
X068161Y041649D03*
X069161Y041649D03*
X070161Y041649D03*
D19*
X021475Y036783D03*
D20*
X023085Y036685D02*
X023299Y036685D01*
X023299Y036881D02*
X023085Y036881D01*
X023085Y037078D02*
X023299Y037078D01*
X023299Y037275D02*
X023085Y037275D01*
X023085Y037472D02*
X023299Y037472D01*
X023299Y037669D02*
X023085Y037669D01*
X023085Y037866D02*
X023299Y037866D01*
X023299Y038063D02*
X023085Y038063D01*
X023085Y038259D02*
X023299Y038259D01*
X022952Y038393D02*
X022952Y038607D01*
X022755Y038607D02*
X022755Y038393D01*
X022558Y038393D02*
X022558Y038607D01*
X022361Y038607D02*
X022361Y038393D01*
X022164Y038393D02*
X022164Y038607D01*
X021967Y038607D02*
X021967Y038393D01*
X021770Y038393D02*
X021770Y038607D01*
X021574Y038607D02*
X021574Y038393D01*
X021377Y038393D02*
X021377Y038607D01*
X021180Y038607D02*
X021180Y038393D01*
X020983Y038393D02*
X020983Y038607D01*
X020786Y038607D02*
X020786Y038393D01*
X020589Y038393D02*
X020589Y038607D01*
X020392Y038607D02*
X020392Y038393D01*
X020196Y038393D02*
X020196Y038607D01*
X019999Y038607D02*
X019999Y038393D01*
X019866Y038259D02*
X019652Y038259D01*
X019652Y038063D02*
X019866Y038063D01*
X019866Y037866D02*
X019652Y037866D01*
X019652Y037669D02*
X019866Y037669D01*
X019866Y037472D02*
X019652Y037472D01*
X019652Y037275D02*
X019866Y037275D01*
X019866Y037078D02*
X019652Y037078D01*
X019652Y036881D02*
X019866Y036881D01*
X019866Y036685D02*
X019652Y036685D01*
X019652Y036488D02*
X019866Y036488D01*
X019866Y036291D02*
X019652Y036291D01*
X019652Y036094D02*
X019866Y036094D01*
X019866Y035897D02*
X019652Y035897D01*
X019652Y035700D02*
X019866Y035700D01*
X019866Y035503D02*
X019652Y035503D01*
X019652Y035307D02*
X019866Y035307D01*
X019999Y035173D02*
X019999Y034959D01*
X020196Y034959D02*
X020196Y035173D01*
X020392Y035173D02*
X020392Y034959D01*
X020589Y034959D02*
X020589Y035173D01*
X020786Y035173D02*
X020786Y034959D01*
X020983Y034959D02*
X020983Y035173D01*
X021180Y035173D02*
X021180Y034959D01*
X021377Y034959D02*
X021377Y035173D01*
X021574Y035173D02*
X021574Y034959D01*
X021770Y034959D02*
X021770Y035173D01*
X021967Y035173D02*
X021967Y034959D01*
X022164Y034959D02*
X022164Y035173D01*
X022361Y035173D02*
X022361Y034959D01*
X022558Y034959D02*
X022558Y035173D01*
X022755Y035173D02*
X022755Y034959D01*
X022952Y034959D02*
X022952Y035173D01*
X023085Y035307D02*
X023299Y035307D01*
X023299Y035503D02*
X023085Y035503D01*
X023085Y035700D02*
X023299Y035700D01*
X023299Y035897D02*
X023085Y035897D01*
X023085Y036094D02*
X023299Y036094D01*
X023299Y036291D02*
X023085Y036291D01*
X023085Y036488D02*
X023299Y036488D01*
D21*
X027390Y039373D03*
X028390Y039373D03*
X028390Y040373D03*
X027390Y040373D03*
X027390Y041373D03*
X028390Y041373D03*
X028390Y042373D03*
X027390Y042373D03*
X027390Y043373D03*
X028390Y043373D03*
X028390Y044373D03*
X027390Y044373D03*
X027390Y045373D03*
X028390Y045373D03*
X033174Y045394D03*
X034174Y045394D03*
X034174Y044394D03*
X033174Y044394D03*
X033174Y043394D03*
X034174Y043394D03*
X034174Y042394D03*
X033174Y042394D03*
X033174Y041394D03*
X034174Y041394D03*
X034174Y040394D03*
X033174Y040394D03*
X033174Y039394D03*
X034174Y039394D03*
X039992Y039292D03*
X040992Y039292D03*
X040992Y040292D03*
X039992Y040292D03*
X045833Y041365D03*
X046833Y041365D03*
X047833Y041365D03*
X048833Y041365D03*
X049833Y041365D03*
X050833Y041365D03*
X051833Y041365D03*
X052833Y041365D03*
X053833Y041365D03*
X054833Y041365D03*
X055833Y041365D03*
X056833Y041365D03*
X057833Y041365D03*
X058833Y041365D03*
X059833Y041365D03*
X059833Y042365D03*
X058833Y042365D03*
X057833Y042365D03*
X056833Y042365D03*
X055833Y042365D03*
X054833Y042365D03*
X053833Y042365D03*
X052833Y042365D03*
X051833Y042365D03*
X050833Y042365D03*
X049833Y042365D03*
X048833Y042365D03*
X047833Y042365D03*
X046833Y042365D03*
X045833Y042365D03*
X058732Y037817D03*
X059732Y037817D03*
X059732Y036817D03*
X058732Y036817D03*
X058732Y035817D03*
X059732Y035817D03*
X059732Y034817D03*
X058732Y034817D03*
X058732Y033817D03*
X059732Y033817D03*
X059732Y032817D03*
X058732Y032817D03*
X058732Y031817D03*
X059732Y031817D03*
X068128Y034275D03*
X069128Y034275D03*
X069128Y035275D03*
X068128Y035275D03*
X068070Y019769D03*
X067070Y019769D03*
X067070Y018769D03*
X068070Y018769D03*
X069676Y018785D03*
X070676Y018785D03*
X070676Y019785D03*
X069676Y019785D03*
X068204Y015290D03*
X067204Y015290D03*
X067204Y014290D03*
X068204Y014290D03*
X068204Y013290D03*
X067204Y013290D03*
X067204Y012290D03*
X068204Y012290D03*
X068204Y011290D03*
X067204Y011290D03*
X067204Y010290D03*
X068204Y010290D03*
X068204Y009290D03*
X067204Y009290D03*
X067204Y008290D03*
X068204Y008290D03*
X068204Y007290D03*
X067204Y007290D03*
X067204Y006290D03*
X068204Y006290D03*
X068204Y005290D03*
X067204Y005290D03*
X067204Y004290D03*
X068204Y004290D03*
X068204Y003290D03*
X067204Y003290D03*
X067204Y002290D03*
X068204Y002290D03*
X068204Y001290D03*
X067204Y001290D03*
X043681Y020200D03*
X042681Y020200D03*
X041681Y020200D03*
X040681Y020200D03*
X039681Y020200D03*
X038681Y020200D03*
X037681Y020200D03*
X036681Y020200D03*
X035681Y020200D03*
X034681Y020200D03*
X033681Y020200D03*
X032681Y020200D03*
X031681Y020200D03*
X030681Y020200D03*
X029681Y020200D03*
X028681Y020200D03*
X027681Y020200D03*
X026681Y020200D03*
X025681Y020200D03*
X024681Y020200D03*
X024681Y021200D03*
X025681Y021200D03*
X026681Y021200D03*
X027681Y021200D03*
X028681Y021200D03*
X029681Y021200D03*
X030681Y021200D03*
X031681Y021200D03*
X032681Y021200D03*
X033681Y021200D03*
X034681Y021200D03*
X035681Y021200D03*
X036681Y021200D03*
X037681Y021200D03*
X038681Y021200D03*
X039681Y021200D03*
X040681Y021200D03*
X041681Y021200D03*
X042681Y021200D03*
X043681Y021200D03*
X018376Y015290D03*
X018376Y014290D03*
X018376Y013290D03*
X018376Y012290D03*
X018376Y011290D03*
X017376Y011290D03*
X017376Y012290D03*
X017376Y013290D03*
X017376Y014290D03*
X017376Y015290D03*
X017376Y010290D03*
X017376Y009290D03*
X017376Y008290D03*
X017376Y007290D03*
X017376Y006290D03*
X017376Y005290D03*
X017376Y004290D03*
X017376Y003290D03*
X018376Y003290D03*
X018376Y004290D03*
X018376Y005290D03*
X018376Y006290D03*
X018376Y007290D03*
X018376Y008290D03*
X018376Y009290D03*
X018376Y010290D03*
X018376Y002290D03*
X018376Y001290D03*
X017376Y001290D03*
X017376Y002290D03*
X016505Y021396D03*
X015505Y021396D03*
X015505Y022396D03*
X016505Y022396D03*
X012075Y022300D03*
X011075Y022300D03*
X011075Y021300D03*
X012075Y021300D03*
X012075Y023300D03*
X011075Y023300D03*
X011075Y024300D03*
X012075Y024300D03*
X012075Y025300D03*
X011075Y025300D03*
X011075Y026300D03*
X012075Y026300D03*
X012075Y027300D03*
X011075Y027300D03*
X010765Y030405D03*
X009765Y030405D03*
X009765Y031405D03*
X010765Y031405D03*
X011765Y031405D03*
X011765Y030405D03*
X003128Y027300D03*
X002128Y027300D03*
X002128Y026300D03*
X002128Y025300D03*
X002128Y024300D03*
X002128Y023300D03*
X002128Y022300D03*
X002128Y021300D03*
X003128Y021300D03*
X003128Y022300D03*
X003128Y023300D03*
X003128Y024300D03*
X003128Y025300D03*
X003128Y026300D03*
X002319Y029944D03*
X002319Y030944D03*
X001319Y030944D03*
X001319Y029944D03*
X001265Y034122D03*
X002265Y034122D03*
X002265Y035122D03*
X001265Y035122D03*
X007210Y044126D03*
X008210Y044126D03*
X008210Y045126D03*
X007210Y045126D03*
X016374Y044899D03*
X017374Y044899D03*
X017374Y043899D03*
X016374Y043899D03*
X018374Y043899D03*
X019374Y043899D03*
X019374Y044899D03*
X018374Y044899D03*
D22*
X010463Y014429D03*
X009963Y014429D03*
X009463Y014429D03*
X008963Y014429D03*
X008463Y014429D03*
X007963Y014429D03*
X007463Y014429D03*
X006963Y014436D03*
X006463Y014429D03*
X005963Y014429D03*
X005479Y014429D03*
X004963Y014429D03*
X004463Y014429D03*
X003971Y014429D03*
X003471Y014429D03*
X003463Y013047D03*
X003963Y013047D03*
X004463Y013047D03*
X004963Y013047D03*
X005463Y013047D03*
X005963Y013047D03*
X006463Y013047D03*
X006963Y013047D03*
X007463Y013047D03*
X007963Y013047D03*
X008463Y013047D03*
X008963Y013047D03*
X009463Y013047D03*
X009963Y013047D03*
X010463Y013047D03*
D23*
X023218Y012822D03*
X023218Y012322D03*
X023218Y011822D03*
X023218Y011322D03*
X023218Y010822D03*
X023218Y010322D03*
X023218Y009822D03*
X023210Y009322D03*
X023218Y008822D03*
X023218Y008322D03*
X023218Y007838D03*
X023218Y007322D03*
X023218Y006822D03*
X023218Y006330D03*
X023218Y005830D03*
X024600Y005822D03*
X024600Y006322D03*
X024600Y006822D03*
X024600Y007322D03*
X024600Y007822D03*
X024600Y008322D03*
X024600Y008822D03*
X024600Y009322D03*
X024600Y009822D03*
X024600Y010322D03*
X024600Y010822D03*
X024600Y011322D03*
X024600Y011822D03*
X024600Y012322D03*
X024600Y012822D03*
X031924Y012822D03*
X031924Y012322D03*
X031924Y011822D03*
X031924Y011322D03*
X031924Y010822D03*
X031924Y010322D03*
X031924Y009822D03*
X031917Y009322D03*
X031924Y008822D03*
X031924Y008322D03*
X031924Y007838D03*
X031924Y007322D03*
X031924Y006822D03*
X031924Y006330D03*
X031924Y005830D03*
X033306Y005822D03*
X033306Y006322D03*
X033306Y006822D03*
X033306Y007322D03*
X033306Y007822D03*
X033306Y008322D03*
X033306Y008822D03*
X033306Y009322D03*
X033306Y009822D03*
X033306Y010322D03*
X033306Y010822D03*
X033306Y011322D03*
X033306Y011822D03*
X033306Y012322D03*
X033306Y012822D03*
X040376Y012822D03*
X040376Y012322D03*
X040376Y011822D03*
X040376Y011322D03*
X040376Y010822D03*
X041758Y010822D03*
X041758Y011322D03*
X041758Y011822D03*
X041758Y012322D03*
X041758Y012822D03*
X041758Y010322D03*
X041758Y009822D03*
X041758Y009322D03*
X041758Y008822D03*
X041758Y008322D03*
X041758Y007822D03*
X041758Y007322D03*
X041758Y006822D03*
X041758Y006322D03*
X041758Y005822D03*
X040376Y005830D03*
X040376Y006330D03*
X040376Y006822D03*
X040376Y007322D03*
X040376Y007838D03*
X040376Y008322D03*
X040376Y008822D03*
X040368Y009322D03*
X040376Y009822D03*
X040376Y010322D03*
X048771Y010322D03*
X048771Y009822D03*
X048763Y009322D03*
X048771Y008822D03*
X048771Y008322D03*
X048771Y007838D03*
X048771Y007322D03*
X048771Y006822D03*
X048771Y006330D03*
X048771Y005830D03*
X050152Y005822D03*
X050152Y006322D03*
X050152Y006822D03*
X050152Y007322D03*
X050152Y007822D03*
X050152Y008322D03*
X050152Y008822D03*
X050152Y009322D03*
X050152Y009822D03*
X050152Y010322D03*
X050152Y010822D03*
X050152Y011322D03*
X050152Y011822D03*
X050152Y012322D03*
X050152Y012822D03*
X048771Y012822D03*
X048771Y012322D03*
X048771Y011822D03*
X048771Y011322D03*
X048771Y010822D03*
X057238Y010822D03*
X057238Y011322D03*
X057238Y011822D03*
X057238Y012322D03*
X057238Y012822D03*
X058620Y012822D03*
X058620Y012322D03*
X058620Y011822D03*
X058620Y011322D03*
X058620Y010822D03*
X058620Y010322D03*
X058620Y009822D03*
X058620Y009322D03*
X058620Y008822D03*
X058620Y008322D03*
X058620Y007822D03*
X058620Y007322D03*
X058620Y006822D03*
X058620Y006322D03*
X058620Y005822D03*
X057238Y005830D03*
X057238Y006330D03*
X057238Y006822D03*
X057238Y007322D03*
X057238Y007838D03*
X057238Y008322D03*
X057238Y008822D03*
X057230Y009322D03*
X057238Y009822D03*
X057238Y010322D03*
X060889Y021900D03*
X060889Y022400D03*
X060889Y022892D03*
X060889Y023392D03*
X060889Y023908D03*
X060889Y024392D03*
X060889Y024892D03*
X062271Y024892D03*
X062271Y024392D03*
X062271Y023892D03*
X062271Y023392D03*
X062271Y022892D03*
X062271Y022392D03*
X062271Y021892D03*
X062271Y025392D03*
X062271Y025892D03*
X062271Y026392D03*
X062271Y026892D03*
X062271Y027392D03*
X062271Y027892D03*
X062271Y028392D03*
X062271Y028892D03*
X060889Y028892D03*
X060889Y028392D03*
X060889Y027892D03*
X060889Y027392D03*
X060889Y026892D03*
X060889Y026392D03*
X060889Y025892D03*
X060881Y025392D03*
D24*
X018253Y036022D03*
X018253Y036612D03*
X017426Y036612D03*
X017426Y036022D03*
X017426Y037203D03*
X018253Y037203D03*
D25*
X017840Y037203D03*
X017840Y036612D03*
X017840Y036022D03*
D26*
X021411Y024092D03*
X021411Y023934D03*
X021411Y023777D03*
X021411Y023620D03*
X021411Y023462D03*
X022446Y023462D03*
X022446Y023620D03*
X022446Y023777D03*
X022446Y023934D03*
X022446Y024092D03*
D27*
X022220Y024407D03*
X021637Y024407D03*
X021637Y023147D03*
X022220Y023147D03*
D28*
X014570Y019477D02*
X014570Y018937D01*
X013570Y018937D02*
X013570Y019477D01*
D29*
X037901Y030074D03*
X037901Y030274D03*
X037901Y030474D03*
X037901Y030664D03*
X037901Y030864D03*
X037901Y031064D03*
X037901Y031254D03*
X037901Y031454D03*
X037901Y031654D03*
X037901Y031854D03*
X037901Y032044D03*
X037901Y032244D03*
X037901Y032444D03*
X037901Y032634D03*
X037901Y032834D03*
X037901Y033034D03*
X041421Y033034D03*
X041421Y032834D03*
X041421Y032634D03*
X041421Y032444D03*
X041421Y032244D03*
X041421Y032044D03*
X041421Y031854D03*
X041421Y031654D03*
X041421Y031454D03*
X041421Y031254D03*
X041421Y031064D03*
X041421Y030864D03*
X041421Y030664D03*
X041421Y030474D03*
X041421Y030274D03*
X041421Y030074D03*
D30*
X041141Y029794D03*
X040941Y029794D03*
X040741Y029794D03*
X040551Y029794D03*
X040351Y029794D03*
X040151Y029794D03*
X039961Y029794D03*
X039761Y029794D03*
X039561Y029794D03*
X039361Y029794D03*
X039171Y029794D03*
X038971Y029794D03*
X038771Y029794D03*
X038581Y029794D03*
X038381Y029794D03*
X038181Y029794D03*
X038181Y033314D03*
X038381Y033314D03*
X038581Y033314D03*
X038771Y033314D03*
X038971Y033314D03*
X039171Y033314D03*
X039361Y033314D03*
X039561Y033314D03*
X039761Y033314D03*
X039961Y033314D03*
X040151Y033314D03*
X040351Y033314D03*
X040551Y033314D03*
X040741Y033314D03*
X040941Y033314D03*
X041141Y033314D03*
D31*
X039661Y031554D03*
D32*
X036595Y031296D03*
X036595Y030312D03*
D33*
X040881Y044394D03*
X042850Y044394D03*
X013355Y044394D03*
X011387Y044394D03*
D34*
X003898Y002163D03*
X024603Y002382D03*
X033294Y002212D03*
X041757Y002352D03*
X050165Y002352D03*
X057745Y002352D03*
X067740Y021615D03*
X070300Y021657D03*
X015798Y025223D03*
X004079Y030090D03*
X003865Y034143D03*
X004056Y044889D03*
X009775Y046023D03*
D35*
X042665Y039956D03*
X070548Y035283D03*
D36*
X011153Y034369D03*
X009953Y034369D03*
D37*
X045324Y034419D03*
X045324Y033632D03*
X047056Y033632D03*
X047056Y034419D03*
X047056Y035994D03*
X047056Y036782D03*
X045324Y036782D03*
X045324Y035994D03*
X052117Y035937D03*
X052117Y036725D03*
X053850Y036725D03*
X053850Y035937D03*
X053850Y034362D03*
X053850Y033575D03*
X052117Y033575D03*
X052117Y034362D03*
X052022Y023108D03*
X052022Y022321D03*
X052022Y020746D03*
X052022Y019959D03*
X053755Y019959D03*
X053755Y020746D03*
X053755Y022321D03*
X053755Y023108D03*
X048507Y023064D03*
X048507Y022276D03*
X048507Y020702D03*
X048507Y019914D03*
X046775Y019914D03*
X046775Y020702D03*
X046775Y022276D03*
X046775Y023064D03*
D38*
X046393Y027160D03*
X047393Y027160D03*
X047393Y028160D03*
X046393Y028160D03*
D39*
X022043Y043944D02*
X021443Y043944D01*
X021443Y044944D02*
X022043Y044944D01*
X022043Y045944D02*
X021443Y045944D01*
D40*
X069645Y028236D03*
X069645Y027842D03*
X069645Y027448D03*
X069645Y027054D03*
X069645Y026661D03*
X069645Y026267D03*
X069645Y025873D03*
X069645Y025480D03*
X069645Y025086D03*
X069645Y024692D03*
M02*
