G75*
%MOIN*%
%OFA0B0*%
%FSLAX24Y24*%
%IPPOS*%
%LPD*%
%AMOC8*
5,1,8,0,0,1.08239X$1,22.5*
%
%ADD10R,0.0276X0.0087*%
%ADD11R,0.0197X0.0394*%
%ADD12R,0.0197X0.0197*%
%ADD13C,0.0240*%
%ADD14C,0.0050*%
%ADD15C,0.0100*%
D10*
X001557Y001065D03*
X001557Y001222D03*
X001557Y001380D03*
X001557Y001537D03*
X001557Y001694D03*
X001557Y001852D03*
X001557Y002009D03*
X001557Y002167D03*
X001557Y002324D03*
X001557Y002482D03*
X001557Y002639D03*
X001557Y002797D03*
X001557Y002954D03*
X001557Y003112D03*
X001557Y003269D03*
X002777Y003269D03*
X002777Y003112D03*
X002777Y002954D03*
X002777Y002797D03*
X002777Y002639D03*
X002777Y002482D03*
X002777Y002324D03*
X002777Y002167D03*
X002777Y002009D03*
X002777Y001852D03*
X002777Y001694D03*
X002777Y001537D03*
X002777Y001380D03*
X002777Y001222D03*
X002777Y001065D03*
D11*
X002738Y000691D03*
X001596Y000691D03*
X001596Y003643D03*
X002738Y003643D03*
D12*
X001034Y002918D03*
X000634Y002918D03*
X000636Y002339D03*
X001036Y002339D03*
D13*
X000633Y002058D03*
X001153Y001698D03*
X000962Y001382D03*
X001926Y001356D03*
X002167Y001077D03*
X003309Y001416D03*
X003471Y002323D03*
X002426Y002984D03*
X001964Y003061D03*
X001131Y003263D03*
X001062Y003686D03*
X002968Y003630D03*
D14*
X002918Y003711D01*
X002788Y003630D01*
X002918Y003549D01*
X002968Y003630D01*
X002788Y003630D01*
X002751Y003630D01*
X002738Y003643D01*
X002447Y003077D02*
X002298Y003112D01*
X002333Y002963D01*
X002426Y002984D01*
X002447Y003077D01*
X002426Y002984D02*
X002298Y003112D01*
X002141Y003269D01*
X001557Y003269D01*
X001549Y003261D01*
X001131Y003263D01*
X001181Y003182D01*
X001311Y003262D01*
X001181Y003343D01*
X001131Y003263D01*
X001103Y003600D02*
X001062Y003686D01*
X001122Y003760D01*
X001241Y003665D01*
X001103Y003600D01*
X001062Y003686D02*
X001241Y003665D01*
X001577Y003625D01*
X001596Y003643D01*
X001577Y003624D01*
X001791Y003112D02*
X001939Y003153D01*
X001964Y003061D01*
X001893Y002998D01*
X001791Y003112D01*
X001913Y003112D01*
X001964Y003061D01*
X001791Y003112D02*
X001557Y003112D01*
X001557Y002797D02*
X001156Y002797D01*
X001034Y002918D01*
X000636Y002917D02*
X000636Y002339D01*
X000636Y002238D01*
X000715Y002107D01*
X000633Y002058D01*
X000553Y002109D01*
X000636Y002238D01*
X000636Y002060D01*
X000633Y002058D01*
X000872Y001698D02*
X000973Y001698D01*
X001103Y001779D01*
X001153Y001698D01*
X001103Y001617D01*
X000973Y001698D01*
X001153Y001698D01*
X001014Y001462D02*
X000962Y001382D01*
X001011Y001301D01*
X001142Y001380D01*
X001014Y001462D01*
X000965Y001380D02*
X000962Y001382D01*
X000965Y001380D02*
X001142Y001380D01*
X001557Y001380D01*
X001557Y001537D02*
X001559Y001540D01*
X001692Y001540D01*
X001694Y001538D01*
X001753Y001538D01*
X001803Y001488D01*
X001951Y001448D01*
X001926Y001356D01*
X001833Y001338D01*
X001803Y001488D01*
X001919Y001372D01*
X001926Y001356D01*
X002167Y001257D02*
X002086Y001127D01*
X002167Y001077D01*
X002248Y001127D01*
X002167Y001257D01*
X002167Y001571D01*
X002043Y001694D01*
X001557Y001694D01*
X001110Y001176D02*
X000749Y001176D01*
X000666Y001259D01*
X000666Y001493D01*
X000872Y001698D01*
X001110Y001176D02*
X001596Y000691D01*
X002167Y001077D02*
X002167Y001257D01*
X002466Y001129D02*
X002466Y000816D01*
X002592Y000691D01*
X002738Y000691D01*
X002779Y001062D02*
X002848Y001062D01*
X002850Y001061D01*
X003323Y001061D01*
X003691Y001429D01*
X003691Y001700D01*
X003471Y001919D01*
X003471Y002143D01*
X003391Y002273D01*
X003471Y002323D01*
X003552Y002273D01*
X003471Y002143D01*
X003471Y002323D01*
X003235Y001476D02*
X003309Y001416D01*
X003287Y001323D01*
X003138Y001358D01*
X003235Y001476D01*
X003196Y001416D02*
X003309Y001416D01*
X003196Y001416D02*
X003138Y001358D01*
X003005Y001224D01*
X002790Y001224D01*
X002777Y001238D01*
X002777Y001222D01*
X002774Y001219D01*
X002556Y001219D01*
X002466Y001129D01*
X002777Y001065D02*
X002779Y001062D01*
X001557Y002482D02*
X001178Y002482D01*
X001036Y002339D01*
X000636Y002917D02*
X000634Y002918D01*
D15*
X000909Y000886D02*
X001243Y000886D01*
X001199Y000930D02*
X001328Y000801D01*
X001348Y000801D01*
X001348Y000691D01*
X001596Y000691D01*
X001596Y000691D01*
X001844Y000691D01*
X001844Y000860D01*
X001876Y000891D01*
X001879Y000884D01*
X001974Y000789D01*
X002099Y000737D01*
X002235Y000737D01*
X002360Y000789D01*
X002455Y000884D01*
X002458Y000891D01*
X002489Y000860D01*
X002489Y000691D01*
X002738Y000691D01*
X002986Y000691D01*
X002986Y000801D01*
X003006Y000801D01*
X003021Y000816D01*
X003347Y000816D01*
X003135Y000641D01*
X002986Y000571D01*
X002986Y000691D01*
X002738Y000691D01*
X002738Y000691D01*
X002738Y000691D01*
X002489Y000691D01*
X002489Y000474D01*
X002500Y000436D01*
X002516Y000408D01*
X002280Y000363D01*
X001828Y000391D01*
X001810Y000397D01*
X001815Y000402D01*
X001834Y000436D01*
X001844Y000474D01*
X001844Y000691D01*
X001596Y000691D01*
X001596Y000691D01*
X001348Y000691D01*
X001348Y000563D01*
X001015Y000774D01*
X000705Y001104D01*
X000486Y001502D01*
X000410Y001800D01*
X000441Y001769D01*
X000566Y001718D01*
X000701Y001718D01*
X000826Y001769D01*
X000921Y001865D01*
X000973Y001990D01*
X000973Y002021D01*
X001199Y002021D01*
X001199Y001634D01*
X001187Y001642D01*
X001177Y001648D01*
X001155Y001670D01*
X001120Y001684D01*
X001105Y001695D01*
X001090Y001697D01*
X001030Y001722D01*
X000895Y001722D01*
X000770Y001670D01*
X000674Y001574D01*
X000622Y001450D01*
X000622Y001314D01*
X000674Y001189D01*
X000770Y001094D01*
X000895Y001042D01*
X001030Y001042D01*
X001082Y001063D01*
X001096Y001066D01*
X001096Y001066D01*
X001096Y001066D01*
X001115Y001077D01*
X001116Y001078D01*
X001155Y001094D01*
X001174Y001112D01*
X001199Y001127D01*
X001199Y000930D01*
X001199Y000985D02*
X000817Y000985D01*
X000794Y001083D02*
X000724Y001083D01*
X000682Y001182D02*
X000662Y001182D01*
X000636Y001280D02*
X000608Y001280D01*
X000622Y001379D02*
X000554Y001379D01*
X000500Y001477D02*
X000634Y001477D01*
X000676Y001576D02*
X000467Y001576D01*
X000442Y001674D02*
X000780Y001674D01*
X000829Y001773D02*
X001199Y001773D01*
X001199Y001674D02*
X001145Y001674D01*
X001187Y001642D02*
X001187Y001642D01*
X001199Y001871D02*
X000924Y001871D01*
X000965Y001970D02*
X001199Y001970D01*
X001914Y001970D02*
X002419Y001970D01*
X002419Y002068D02*
X001914Y002068D01*
X001914Y002032D02*
X001914Y001939D01*
X002092Y001939D01*
X002182Y001902D01*
X002251Y001833D01*
X002375Y001709D01*
X002412Y001619D01*
X002412Y001327D01*
X002419Y001315D01*
X002419Y002644D01*
X002358Y002644D01*
X002233Y002696D01*
X002137Y002792D01*
X002114Y002848D01*
X002106Y002860D01*
X002101Y002880D01*
X002086Y002917D01*
X002086Y002945D01*
X002083Y002955D01*
X001914Y002955D01*
X001914Y003024D02*
X002039Y003024D01*
X002076Y002988D01*
X002083Y002955D01*
X002083Y002955D01*
X002108Y002856D02*
X001914Y002856D01*
X001914Y002758D02*
X002171Y002758D01*
X002322Y002659D02*
X001914Y002659D01*
X001914Y002561D02*
X002419Y002561D01*
X002419Y002462D02*
X001914Y002462D01*
X001914Y002364D02*
X002419Y002364D01*
X002419Y002265D02*
X001914Y002265D01*
X001914Y002167D02*
X002419Y002167D01*
X002419Y001871D02*
X002213Y001871D01*
X002311Y001773D02*
X002419Y001773D01*
X002419Y001674D02*
X002389Y001674D01*
X002412Y001576D02*
X002419Y001576D01*
X002412Y001477D02*
X002419Y001477D01*
X002412Y001379D02*
X002419Y001379D01*
X002456Y000886D02*
X002463Y000886D01*
X002489Y000788D02*
X002358Y000788D01*
X002489Y000689D02*
X001844Y000689D01*
X001844Y000591D02*
X002489Y000591D01*
X002489Y000492D02*
X001844Y000492D01*
X001820Y000394D02*
X002443Y000394D01*
X001976Y000788D02*
X001844Y000788D01*
X001871Y000886D02*
X001878Y000886D01*
X001348Y000788D02*
X001002Y000788D01*
X001148Y000689D02*
X001348Y000689D01*
X001348Y000591D02*
X001304Y000591D01*
X001199Y001083D02*
X001130Y001083D01*
X000437Y001773D02*
X000417Y001773D01*
X001914Y002032D02*
X001914Y003024D01*
X002309Y003447D02*
X002463Y003447D01*
X002489Y003474D02*
X002419Y003404D01*
X002419Y003337D01*
X002348Y003408D01*
X002279Y003477D01*
X002189Y003514D01*
X001844Y003514D01*
X001844Y003643D01*
X001596Y003643D01*
X001348Y003643D01*
X001348Y003533D01*
X001342Y003533D01*
X001324Y003551D01*
X001287Y003566D01*
X001270Y003577D01*
X001255Y003579D01*
X001199Y003603D01*
X001083Y003603D01*
X001348Y003771D01*
X001348Y003643D01*
X001596Y003643D01*
X001596Y003643D01*
X001596Y003643D01*
X001844Y003643D01*
X001844Y003860D01*
X001834Y003898D01*
X001815Y003932D01*
X001810Y003937D01*
X001828Y003942D01*
X002280Y003971D01*
X002516Y003926D01*
X002500Y003898D01*
X002489Y003860D01*
X002489Y003643D01*
X002489Y003474D01*
X002489Y003546D02*
X001844Y003546D01*
X001844Y003644D02*
X002489Y003644D01*
X002489Y003643D02*
X002738Y003643D01*
X002738Y003643D01*
X002986Y003643D01*
X002986Y003533D01*
X003006Y003533D01*
X003135Y003404D01*
X003135Y002616D01*
X003135Y002399D01*
X003183Y002515D01*
X003279Y002611D01*
X003404Y002663D01*
X003539Y002663D01*
X003664Y002611D01*
X003760Y002515D01*
X003811Y002390D01*
X003811Y002255D01*
X003788Y002199D01*
X003786Y002185D01*
X003786Y002185D01*
X003786Y002185D01*
X003775Y002167D01*
X003760Y002130D01*
X003739Y002110D01*
X003716Y002073D01*
X003716Y002021D01*
X003899Y001838D01*
X003925Y001775D01*
X003974Y002167D01*
X003775Y002167D01*
X003811Y002265D02*
X003962Y002265D01*
X003974Y002167D02*
X003918Y002616D01*
X003751Y003038D01*
X003485Y003404D01*
X003135Y003693D01*
X002986Y003763D01*
X002986Y003643D01*
X002738Y003643D01*
X002489Y003643D01*
X002489Y003743D02*
X001844Y003743D01*
X001844Y003841D02*
X002489Y003841D01*
X002443Y003940D02*
X001820Y003940D01*
X001348Y003743D02*
X001304Y003743D01*
X001348Y003644D02*
X001148Y003644D01*
X001329Y003546D02*
X001348Y003546D01*
X002408Y003349D02*
X002419Y003349D01*
X002738Y003643D02*
X002738Y003643D01*
X002986Y003644D02*
X003194Y003644D01*
X003313Y003546D02*
X002986Y003546D01*
X003091Y003447D02*
X003432Y003447D01*
X003525Y003349D02*
X003135Y003349D01*
X003135Y003250D02*
X003596Y003250D01*
X003668Y003152D02*
X003135Y003152D01*
X003135Y003053D02*
X003739Y003053D01*
X003784Y002955D02*
X003135Y002955D01*
X003135Y002856D02*
X003823Y002856D01*
X003862Y002758D02*
X003135Y002758D01*
X003135Y002659D02*
X003396Y002659D01*
X003547Y002659D02*
X003901Y002659D01*
X003925Y002561D02*
X003714Y002561D01*
X003782Y002462D02*
X003937Y002462D01*
X003950Y002364D02*
X003811Y002364D01*
X003716Y002068D02*
X003962Y002068D01*
X003950Y001970D02*
X003767Y001970D01*
X003865Y001871D02*
X003937Y001871D01*
X003446Y001598D02*
X003446Y001530D01*
X003221Y001306D01*
X003135Y001306D01*
X003135Y002247D01*
X003154Y002199D01*
X003157Y002185D01*
X003157Y002185D01*
X003157Y002185D01*
X003168Y002167D01*
X003183Y002130D01*
X003203Y002110D01*
X003226Y002073D01*
X003226Y001870D01*
X003264Y001780D01*
X003333Y001711D01*
X003446Y001598D01*
X003446Y001576D02*
X003135Y001576D01*
X003135Y001674D02*
X003370Y001674D01*
X003271Y001773D02*
X003135Y001773D01*
X003135Y001871D02*
X003226Y001871D01*
X003226Y001970D02*
X003135Y001970D01*
X003135Y002068D02*
X003226Y002068D01*
X003168Y002167D02*
X003135Y002167D01*
X003135Y002462D02*
X003161Y002462D01*
X003135Y002561D02*
X003229Y002561D01*
X003135Y001477D02*
X003393Y001477D01*
X003294Y001379D02*
X003135Y001379D01*
X002986Y000788D02*
X003313Y000788D01*
X003194Y000689D02*
X002986Y000689D01*
X002986Y000591D02*
X003030Y000591D01*
X002986Y003743D02*
X003030Y003743D01*
M02*
