G75*
%MOIN*%
%OFA0B0*%
%FSLAX24Y24*%
%IPPOS*%
%LPD*%
%AMOC8*
5,1,8,0,0,1.08239X$1,22.5*
%
%ADD10R,0.0197X0.0197*%
%ADD11R,0.0276X0.0110*%
%ADD12R,0.0110X0.0276*%
%ADD13C,0.0240*%
%ADD14C,0.0050*%
%ADD15C,0.0100*%
D10*
X001031Y002142D03*
X001031Y002542D03*
X002003Y003674D03*
X002403Y003674D03*
X002907Y003221D03*
X002904Y002894D03*
X003304Y002894D03*
X003307Y003221D03*
D11*
X002718Y002561D03*
X002718Y002364D03*
X002718Y002167D03*
X002718Y001970D03*
X002718Y001773D03*
X001616Y001773D03*
X001616Y001970D03*
X001616Y002167D03*
X001616Y002364D03*
X001616Y002561D03*
D12*
X001970Y002718D03*
X002167Y002718D03*
X002364Y002718D03*
X002364Y001616D03*
X002167Y001616D03*
X001970Y001616D03*
D13*
X001926Y001356D03*
X002167Y001077D03*
X001153Y001698D03*
X000962Y001382D03*
X000633Y002058D03*
X001131Y003263D03*
X001062Y003686D03*
X001964Y003061D03*
X002426Y002984D03*
X002968Y003630D03*
X003471Y002323D03*
X003309Y001416D03*
D14*
X003390Y001466D01*
X003309Y001596D01*
X003228Y001466D01*
X003309Y001416D01*
X003309Y001596D01*
X003309Y001754D01*
X003092Y001970D01*
X002718Y001970D01*
X002721Y001967D01*
X003092Y001967D01*
X003092Y002364D01*
X002718Y002364D01*
X002718Y002561D02*
X002729Y002572D01*
X003073Y002572D01*
X003095Y002549D01*
X003095Y002361D01*
X003092Y002364D01*
X003391Y002373D02*
X003471Y002323D01*
X003552Y002373D01*
X003471Y002503D01*
X003391Y002373D01*
X003471Y002323D02*
X003471Y002503D01*
X003471Y002506D01*
X003298Y002679D01*
X003135Y002679D01*
X002919Y002894D01*
X002904Y002894D01*
X002904Y003218D01*
X002907Y003221D01*
X002904Y002894D02*
X002734Y002724D01*
X002364Y002724D01*
X002364Y002718D01*
X002364Y002815D01*
X002333Y002965D01*
X002426Y002984D01*
X002484Y002910D01*
X002364Y002815D01*
X002364Y002923D01*
X002426Y002984D01*
X002175Y003023D02*
X002403Y003251D01*
X002403Y003674D01*
X002003Y003674D02*
X001443Y003674D01*
X001062Y003686D01*
X001110Y003604D01*
X001242Y003680D01*
X001115Y003765D01*
X001062Y003686D01*
X001188Y003339D02*
X001131Y003263D01*
X001174Y003178D01*
X001310Y003248D01*
X001188Y003339D01*
X001131Y003263D02*
X001295Y003263D01*
X001310Y003248D01*
X001441Y003118D01*
X001441Y002736D01*
X001616Y002561D01*
X001613Y002367D02*
X001369Y002367D01*
X001194Y002542D01*
X001031Y002542D01*
X001056Y002167D02*
X001031Y002142D01*
X001020Y002067D01*
X001056Y002167D02*
X001616Y002167D01*
X001616Y002364D02*
X001613Y002367D01*
X001970Y002718D02*
X001973Y002721D01*
X001973Y002881D01*
X001886Y003007D01*
X001964Y003061D01*
X002047Y003015D01*
X001973Y002881D01*
X001973Y003061D01*
X001964Y003061D01*
X002047Y003107D01*
X001973Y003241D01*
X001886Y003115D01*
X001964Y003061D01*
X001973Y003061D02*
X001973Y003241D01*
X001973Y003644D01*
X001974Y003653D01*
X001979Y003662D01*
X001985Y003668D01*
X001994Y003673D01*
X002003Y003674D01*
X002175Y003023D02*
X002175Y002726D01*
X002167Y002718D01*
X001616Y001970D02*
X001287Y001970D01*
X001237Y001920D01*
X001050Y001920D01*
X000820Y001690D01*
X000820Y001524D01*
X000835Y001509D01*
X000984Y001474D01*
X000962Y001382D01*
X000870Y001360D01*
X000835Y001509D01*
X000962Y001382D01*
X001153Y001698D02*
X001232Y001646D01*
X001317Y001773D01*
X001165Y001792D01*
X001153Y001698D01*
X001228Y001773D01*
X001317Y001773D01*
X001616Y001773D01*
X001970Y001616D02*
X001970Y001531D01*
X002017Y001385D01*
X001926Y001356D01*
X001860Y001425D01*
X001970Y001531D01*
X001970Y001400D01*
X001926Y001356D01*
X002167Y001257D02*
X002086Y001127D01*
X002167Y001077D01*
X002248Y001127D01*
X002167Y001257D01*
X002167Y001077D01*
X002167Y001257D02*
X002167Y001616D01*
X002359Y001591D02*
X002359Y001372D01*
X002436Y001295D01*
X002436Y000938D01*
X002280Y000781D01*
X001994Y000781D01*
X001883Y000892D01*
X001883Y001024D01*
X001675Y001232D01*
X001384Y001232D01*
X001214Y001062D01*
X000841Y001062D01*
X000633Y001270D01*
X000633Y001878D01*
X000552Y002007D01*
X000633Y002058D01*
X000714Y002007D01*
X000633Y001878D01*
X000633Y002058D01*
X002364Y001616D02*
X002374Y001606D01*
X002359Y001591D01*
X003304Y002894D02*
X003304Y003218D01*
X003307Y003221D01*
D15*
X001311Y000830D02*
X000945Y000830D01*
X001257Y000591D01*
X001696Y000409D01*
X002167Y000347D01*
X002638Y000409D01*
X003077Y000591D01*
X002418Y000591D01*
X002376Y000549D02*
X002669Y000841D01*
X002669Y001034D01*
X002669Y001392D01*
X002626Y001434D01*
X002626Y001511D01*
X002942Y001511D01*
X003063Y001632D01*
X003063Y001914D01*
X003008Y001970D01*
X003961Y001970D01*
X003974Y002068D02*
X003680Y002068D01*
X003657Y002045D02*
X003749Y002137D01*
X003799Y002258D01*
X003799Y002388D01*
X003796Y002395D01*
X003800Y002414D01*
X003770Y002463D01*
X003764Y002473D01*
X003749Y002508D01*
X003730Y002528D01*
X003704Y002569D01*
X003704Y002602D01*
X003682Y002624D01*
X003676Y002649D01*
X003640Y002672D01*
X003618Y002707D01*
X003593Y002713D01*
X003548Y002758D01*
X003875Y002758D01*
X003835Y002856D02*
X003552Y002856D01*
X003552Y002894D02*
X003552Y002776D01*
X003548Y002758D01*
X003552Y002894D02*
X003412Y002894D01*
X003412Y002894D01*
X003552Y002894D01*
X003552Y003012D01*
X003542Y003050D01*
X003540Y003055D01*
X003546Y003065D01*
X003556Y003103D01*
X003556Y003221D01*
X003307Y003221D01*
X003307Y003470D01*
X003189Y003470D01*
X003158Y003461D01*
X003092Y003527D01*
X002723Y003527D01*
X002708Y003512D01*
X002708Y003858D01*
X002644Y003922D01*
X003077Y003743D01*
X003438Y003466D01*
X003426Y003470D01*
X003307Y003470D01*
X003307Y003221D01*
X003307Y003221D01*
X003307Y003221D01*
X003556Y003221D01*
X003556Y003321D01*
X003743Y003077D01*
X003925Y002638D01*
X003987Y002167D01*
X003761Y002167D01*
X003799Y002265D02*
X003974Y002265D01*
X003987Y002167D02*
X003925Y001696D01*
X003743Y001257D01*
X003454Y000880D01*
X003077Y000591D01*
X003206Y000689D02*
X002517Y000689D01*
X002615Y000788D02*
X003334Y000788D01*
X003459Y000886D02*
X002669Y000886D01*
X002669Y000985D02*
X003534Y000985D01*
X003610Y001083D02*
X002669Y001083D01*
X002669Y001182D02*
X003686Y001182D01*
X003753Y001280D02*
X002669Y001280D01*
X002669Y001379D02*
X003794Y001379D01*
X003835Y001477D02*
X002626Y001477D01*
X003007Y001576D02*
X003875Y001576D01*
X003916Y001674D02*
X003063Y001674D01*
X003063Y001773D02*
X003935Y001773D01*
X003925Y001696D02*
X003925Y001696D01*
X003948Y001871D02*
X003063Y001871D01*
X003008Y001970D02*
X003063Y002026D01*
X003063Y002308D01*
X003006Y002365D01*
X003006Y002439D01*
X003000Y002462D01*
X003004Y002480D01*
X003038Y002446D01*
X003163Y002446D01*
X003142Y002414D01*
X003142Y002414D01*
X003147Y002395D01*
X003144Y002388D01*
X003144Y002258D01*
X003194Y002137D01*
X003286Y002045D01*
X003406Y001995D01*
X003537Y001995D01*
X003657Y002045D01*
X003799Y002364D02*
X003961Y002364D01*
X003948Y002462D02*
X003770Y002462D01*
X003800Y002414D02*
X003800Y002414D01*
X003800Y002414D01*
X003709Y002561D02*
X003935Y002561D01*
X003916Y002659D02*
X003660Y002659D01*
X003552Y002955D02*
X003794Y002955D01*
X003753Y003053D02*
X003540Y003053D01*
X003556Y003152D02*
X003686Y003152D01*
X003610Y003250D02*
X003556Y003250D01*
X003307Y003250D02*
X003307Y003250D01*
X003307Y003349D02*
X003307Y003349D01*
X003307Y003447D02*
X003307Y003447D01*
X003334Y003546D02*
X002708Y003546D01*
X002708Y003644D02*
X003206Y003644D01*
X003077Y003743D02*
X002708Y003743D01*
X002708Y003841D02*
X002840Y003841D01*
X002223Y003980D02*
X002218Y003980D01*
X002152Y003914D01*
X002121Y003922D01*
X002003Y003922D01*
X002003Y003674D01*
X002003Y003674D01*
X002003Y003425D01*
X002121Y003425D01*
X002152Y003434D01*
X002170Y003416D01*
X002170Y003347D01*
X001943Y003120D01*
X001943Y003006D01*
X001895Y003006D01*
X001857Y002996D01*
X001823Y002976D01*
X001795Y002948D01*
X001775Y002914D01*
X001765Y002876D01*
X001765Y002823D01*
X001682Y002823D01*
X001673Y002832D01*
X001673Y003214D01*
X001529Y003358D01*
X001526Y003377D01*
X001493Y003402D01*
X001474Y003439D01*
X001435Y003452D01*
X001407Y003480D01*
X001392Y003495D01*
X001367Y003495D01*
X001346Y003511D01*
X001317Y003541D01*
X001294Y003550D01*
X001249Y003583D01*
X001223Y003579D01*
X001196Y003590D01*
X001066Y003590D01*
X001048Y003583D01*
X001257Y003743D01*
X001696Y003925D01*
X002167Y003987D01*
X002223Y003980D01*
X002178Y003940D02*
X001809Y003940D01*
X001846Y003912D02*
X001812Y003892D01*
X001784Y003864D01*
X001764Y003830D01*
X001754Y003792D01*
X001754Y003674D01*
X002003Y003674D01*
X002003Y003674D01*
X002003Y003922D01*
X001884Y003922D01*
X001846Y003912D01*
X001771Y003841D02*
X001494Y003841D01*
X001257Y003743D02*
X001754Y003743D01*
X001754Y003674D02*
X001754Y003556D01*
X001764Y003517D01*
X001784Y003483D01*
X001812Y003455D01*
X001846Y003436D01*
X001884Y003425D01*
X002003Y003425D01*
X002003Y003674D01*
X002003Y003674D01*
X001754Y003674D01*
X001754Y003644D02*
X001128Y003644D01*
X001249Y003583D02*
X001249Y003583D01*
X001249Y003583D01*
X001303Y003546D02*
X001757Y003546D01*
X001826Y003447D02*
X001449Y003447D01*
X001538Y003349D02*
X002170Y003349D01*
X002074Y003250D02*
X001637Y003250D01*
X001673Y003152D02*
X001975Y003152D01*
X001943Y003053D02*
X001673Y003053D01*
X001673Y002955D02*
X001802Y002955D01*
X001765Y002856D02*
X001673Y002856D01*
X002003Y003447D02*
X002003Y003447D01*
X002003Y003546D02*
X002003Y003546D01*
X002003Y003644D02*
X002003Y003644D01*
X002003Y003743D02*
X002003Y003743D01*
X002003Y003841D02*
X002003Y003841D01*
X003000Y002462D02*
X003022Y002462D01*
X003007Y002364D02*
X003144Y002364D01*
X003142Y002414D02*
X003142Y002414D01*
X003144Y002265D02*
X003063Y002265D01*
X003063Y002167D02*
X003181Y002167D01*
X003263Y002068D02*
X003063Y002068D01*
X001674Y001568D02*
X001629Y001525D01*
X001629Y001525D01*
X001629Y001494D01*
X001616Y001464D01*
X001287Y001464D01*
X001284Y001461D01*
X001240Y001567D01*
X001148Y001659D01*
X001141Y001662D01*
X001133Y001675D01*
X001146Y001688D01*
X001331Y001688D01*
X001338Y001660D01*
X001358Y001626D01*
X001386Y001598D01*
X001420Y001578D01*
X001458Y001568D01*
X001616Y001568D01*
X001674Y001568D01*
X001616Y001568D02*
X001616Y001707D01*
X001616Y001707D01*
X001616Y001568D01*
X001616Y001576D02*
X001616Y001576D01*
X001629Y001525D02*
X001629Y001525D01*
X001622Y001477D02*
X001277Y001477D01*
X001231Y001576D02*
X001429Y001576D01*
X001334Y001674D02*
X001133Y001674D01*
X001616Y001674D02*
X001616Y001674D01*
X001579Y000999D02*
X001480Y000999D01*
X001447Y000966D01*
X001311Y000830D01*
X001367Y000886D02*
X001650Y000886D01*
X001650Y000927D02*
X001650Y000796D01*
X001761Y000685D01*
X001897Y000549D01*
X002376Y000549D01*
X002525Y000394D02*
X001809Y000394D01*
X001855Y000591D02*
X001257Y000591D01*
X001128Y000689D02*
X001757Y000689D01*
X001658Y000788D02*
X001000Y000788D01*
X001466Y000985D02*
X001593Y000985D01*
X001579Y000999D02*
X001650Y000927D01*
X001494Y000492D02*
X002840Y000492D01*
M02*
