G75*
%MOIN*%
%OFA0B0*%
%FSLAX24Y24*%
%IPPOS*%
%LPD*%
%AMOC8*
5,1,8,0,0,1.08239X$1,22.5*
%
%ADD10C,0.0039*%
%ADD11C,0.0118*%
%ADD12C,0.0080*%
D10*
X000120Y002167D02*
X000122Y002257D01*
X000128Y002347D01*
X000138Y002436D01*
X000152Y002525D01*
X000169Y002613D01*
X000191Y002700D01*
X000216Y002787D01*
X000245Y002872D01*
X000278Y002956D01*
X000314Y003038D01*
X000354Y003118D01*
X000398Y003197D01*
X000445Y003274D01*
X000495Y003348D01*
X000549Y003421D01*
X000605Y003490D01*
X000665Y003558D01*
X000728Y003622D01*
X000793Y003684D01*
X000861Y003743D01*
X000931Y003799D01*
X001004Y003852D01*
X001079Y003901D01*
X001157Y003947D01*
X001236Y003990D01*
X001317Y004029D01*
X001399Y004065D01*
X001483Y004096D01*
X001569Y004125D01*
X001655Y004149D01*
X001743Y004170D01*
X001831Y004186D01*
X001920Y004199D01*
X002010Y004208D01*
X002100Y004213D01*
X002189Y004214D01*
X002279Y004211D01*
X002369Y004204D01*
X002458Y004193D01*
X002547Y004178D01*
X002635Y004160D01*
X002722Y004137D01*
X002808Y004111D01*
X002893Y004081D01*
X002976Y004047D01*
X003058Y004010D01*
X003138Y003969D01*
X003216Y003925D01*
X003293Y003877D01*
X003367Y003826D01*
X003438Y003771D01*
X003507Y003714D01*
X003574Y003654D01*
X003638Y003590D01*
X003699Y003524D01*
X003757Y003456D01*
X003812Y003385D01*
X003864Y003311D01*
X003913Y003236D01*
X003958Y003158D01*
X004000Y003078D01*
X004038Y002997D01*
X004073Y002914D01*
X004104Y002829D01*
X004131Y002744D01*
X004155Y002657D01*
X004174Y002569D01*
X004190Y002481D01*
X004202Y002391D01*
X004210Y002302D01*
X004214Y002212D01*
X004214Y002122D01*
X004210Y002032D01*
X004202Y001943D01*
X004190Y001853D01*
X004174Y001765D01*
X004155Y001677D01*
X004131Y001590D01*
X004104Y001505D01*
X004073Y001420D01*
X004038Y001337D01*
X004000Y001256D01*
X003958Y001176D01*
X003913Y001098D01*
X003864Y001023D01*
X003812Y000949D01*
X003757Y000878D01*
X003699Y000810D01*
X003638Y000744D01*
X003574Y000680D01*
X003507Y000620D01*
X003438Y000563D01*
X003367Y000508D01*
X003293Y000457D01*
X003216Y000409D01*
X003138Y000365D01*
X003058Y000324D01*
X002976Y000287D01*
X002893Y000253D01*
X002808Y000223D01*
X002722Y000197D01*
X002635Y000174D01*
X002547Y000156D01*
X002458Y000141D01*
X002369Y000130D01*
X002279Y000123D01*
X002189Y000120D01*
X002100Y000121D01*
X002010Y000126D01*
X001920Y000135D01*
X001831Y000148D01*
X001743Y000164D01*
X001655Y000185D01*
X001569Y000209D01*
X001483Y000238D01*
X001399Y000269D01*
X001317Y000305D01*
X001236Y000344D01*
X001157Y000387D01*
X001079Y000433D01*
X001004Y000482D01*
X000931Y000535D01*
X000861Y000591D01*
X000793Y000650D01*
X000728Y000712D01*
X000665Y000776D01*
X000605Y000844D01*
X000549Y000913D01*
X000495Y000986D01*
X000445Y001060D01*
X000398Y001137D01*
X000354Y001216D01*
X000314Y001296D01*
X000278Y001378D01*
X000245Y001462D01*
X000216Y001547D01*
X000191Y001634D01*
X000169Y001721D01*
X000152Y001809D01*
X000138Y001898D01*
X000128Y001987D01*
X000122Y002077D01*
X000120Y002167D01*
D11*
X001322Y003620D02*
X001324Y003641D01*
X001330Y003661D01*
X001339Y003681D01*
X001351Y003698D01*
X001366Y003712D01*
X001384Y003724D01*
X001404Y003732D01*
X001424Y003737D01*
X001445Y003738D01*
X001466Y003735D01*
X001486Y003729D01*
X001505Y003718D01*
X001522Y003705D01*
X001535Y003689D01*
X001546Y003671D01*
X001554Y003651D01*
X001558Y003631D01*
X001558Y003609D01*
X001554Y003589D01*
X001546Y003569D01*
X001535Y003551D01*
X001522Y003535D01*
X001505Y003522D01*
X001486Y003511D01*
X001466Y003505D01*
X001445Y003502D01*
X001424Y003503D01*
X001404Y003508D01*
X001384Y003516D01*
X001366Y003528D01*
X001351Y003542D01*
X001339Y003559D01*
X001330Y003579D01*
X001324Y003599D01*
X001322Y003620D01*
D12*
X001526Y001627D02*
X001526Y001516D01*
X001726Y001516D01*
X002606Y001516D02*
X002806Y001516D01*
X002806Y001627D01*
X002806Y002706D02*
X002806Y002816D01*
X002606Y002816D01*
X001627Y002846D02*
X001487Y002706D01*
M02*
