G75*
%MOIN*%
%OFA0B0*%
%FSLAX24Y24*%
%IPPOS*%
%LPD*%
%AMOC8*
5,1,8,0,0,1.08239X$1,22.5*
%
%ADD10R,0.0276X0.0087*%
%ADD11R,0.0197X0.0394*%
%ADD12R,0.0197X0.0197*%
%ADD13C,0.0060*%
%ADD14C,0.0240*%
%ADD15C,0.0100*%
D10*
X001578Y001087D03*
X001578Y001244D03*
X001578Y001402D03*
X001578Y001559D03*
X001578Y001717D03*
X001578Y001874D03*
X001578Y002032D03*
X001578Y002189D03*
X001578Y002347D03*
X001578Y002504D03*
X001578Y002662D03*
X001578Y002819D03*
X001578Y002977D03*
X001578Y003134D03*
X001578Y003292D03*
X002798Y003292D03*
X002798Y003134D03*
X002798Y002977D03*
X002798Y002819D03*
X002798Y002662D03*
X002798Y002504D03*
X002798Y002347D03*
X002798Y002189D03*
X002798Y002032D03*
X002798Y001874D03*
X002798Y001717D03*
X002798Y001559D03*
X002798Y001402D03*
X002798Y001244D03*
X002798Y001087D03*
D11*
X002759Y000713D03*
X001617Y000713D03*
X001617Y003666D03*
X002759Y003666D03*
D12*
X001131Y002850D03*
X000731Y002850D03*
X000730Y002350D03*
X001130Y002350D03*
X003277Y001505D03*
X003277Y001105D03*
X003662Y001266D03*
X003662Y001666D03*
D13*
X003500Y001505D01*
X003277Y001505D01*
X003017Y001244D01*
X002798Y001244D01*
X002793Y001249D01*
X002577Y001249D01*
X002442Y001171D01*
X002397Y001249D01*
X002319Y001204D01*
X002397Y001069D01*
X002475Y001204D01*
X002397Y001249D01*
X002442Y001327D01*
X002577Y001249D01*
X002397Y001249D01*
X002397Y001069D01*
X002397Y000808D01*
X002492Y000713D01*
X002759Y000713D01*
X001617Y000713D01*
X001865Y001326D02*
X001909Y001404D01*
X001863Y001482D01*
X001729Y001402D01*
X001865Y001326D01*
X001909Y001402D02*
X001909Y001404D01*
X001909Y001402D02*
X001729Y001402D01*
X001578Y001402D01*
X001578Y001559D02*
X001450Y001559D01*
X001578Y001559D02*
X001007Y001559D01*
X000886Y001680D01*
X000750Y001756D01*
X000794Y001835D01*
X000884Y001836D01*
X000886Y001680D01*
X000794Y001772D01*
X000794Y001835D01*
X000730Y002350D02*
X000731Y002578D01*
X000731Y002850D01*
X000719Y002862D01*
X000719Y002935D01*
X000641Y003070D01*
X000719Y003115D01*
X000797Y003070D01*
X000719Y002935D01*
X000719Y003115D01*
X001121Y003258D02*
X001128Y003265D01*
X001128Y003517D01*
X001277Y003666D01*
X001617Y003666D01*
X002062Y003666D01*
X002185Y003762D01*
X002240Y003691D01*
X002274Y003607D01*
X002419Y003666D01*
X002296Y003762D01*
X002240Y003691D01*
X002207Y003607D01*
X002062Y003666D01*
X002215Y003666D01*
X002419Y003666D01*
X002759Y003666D01*
X002240Y003691D02*
X002215Y003666D01*
X001928Y003370D02*
X001973Y003292D01*
X001928Y003214D01*
X001793Y003292D01*
X001928Y003370D01*
X001973Y003292D02*
X001973Y003292D01*
X001793Y003292D01*
X001578Y003292D01*
X001578Y003134D02*
X001245Y003134D01*
X001121Y003258D01*
X001131Y002850D02*
X001162Y002819D01*
X001578Y002819D01*
X001578Y002504D02*
X001284Y002504D01*
X001130Y002350D01*
X001578Y001717D02*
X001585Y001709D01*
X001992Y001709D01*
X002292Y002009D01*
X002292Y002752D01*
X002214Y002887D01*
X002292Y002932D01*
X002369Y002887D01*
X002292Y002752D01*
X002292Y002932D01*
X003662Y001266D02*
X003500Y001105D01*
X003277Y001105D01*
X003259Y001087D01*
X002798Y001087D01*
X002801Y001089D01*
X003264Y001089D01*
X003267Y001086D01*
X003267Y001083D01*
X003345Y000948D01*
X003267Y000903D01*
X003189Y000948D01*
X003267Y001083D01*
X003267Y000903D01*
D14*
X003267Y000903D03*
X002397Y001249D03*
X001909Y001404D03*
X000794Y001835D03*
X000719Y003115D03*
X001973Y003292D03*
X002292Y002932D03*
X002240Y003691D03*
D15*
X001266Y000906D02*
X000956Y000906D01*
X001047Y000809D02*
X000740Y001136D01*
X000524Y001528D01*
X000478Y001710D01*
X000506Y001642D01*
X000581Y001567D01*
X000585Y001562D01*
X000587Y001561D01*
X000601Y001546D01*
X000645Y001528D01*
X000734Y001479D01*
X000744Y001468D01*
X000865Y001347D01*
X000957Y001309D01*
X001220Y001309D01*
X001220Y000952D01*
X001349Y000824D01*
X001369Y000824D01*
X001369Y000713D01*
X001617Y000713D01*
X001865Y000713D01*
X001865Y000882D01*
X001935Y000952D01*
X001935Y001064D01*
X001977Y001064D01*
X002102Y001116D01*
X002197Y001212D01*
X002249Y001337D01*
X002249Y001472D01*
X002208Y001572D01*
X002433Y001797D01*
X002440Y001804D01*
X002440Y001267D01*
X002463Y001244D01*
X002440Y001221D01*
X002440Y000952D01*
X002510Y000882D01*
X002510Y000713D01*
X002759Y000713D01*
X002759Y000713D01*
X002510Y000713D01*
X002510Y000496D01*
X002520Y000458D01*
X002528Y000446D01*
X002299Y000402D01*
X001852Y000430D01*
X001841Y000434D01*
X001855Y000458D01*
X001865Y000496D01*
X001865Y000713D01*
X001617Y000713D01*
X001617Y000713D01*
X001617Y000713D01*
X001369Y000713D01*
X001369Y000605D01*
X001047Y000809D01*
X001049Y000808D02*
X001369Y000808D01*
X001369Y000709D02*
X001204Y000709D01*
X001360Y000611D02*
X001369Y000611D01*
X001220Y001005D02*
X000863Y001005D01*
X000771Y001103D02*
X001220Y001103D01*
X001220Y001202D02*
X000704Y001202D01*
X000650Y001300D02*
X001220Y001300D01*
X000814Y001399D02*
X000596Y001399D01*
X000542Y001497D02*
X000701Y001497D01*
X000585Y001562D02*
X000585Y001562D01*
X000585Y001562D01*
X000552Y001596D02*
X000507Y001596D01*
X000484Y001694D02*
X000482Y001694D01*
X001865Y000808D02*
X002510Y000808D01*
X002510Y000709D02*
X001865Y000709D01*
X001865Y000611D02*
X002510Y000611D01*
X002510Y000512D02*
X001865Y000512D01*
X002119Y000414D02*
X002358Y000414D01*
X002487Y000906D02*
X001889Y000906D01*
X001935Y001005D02*
X002440Y001005D01*
X002440Y001103D02*
X002071Y001103D01*
X002188Y001202D02*
X002440Y001202D01*
X002440Y001300D02*
X002234Y001300D01*
X002249Y001399D02*
X002440Y001399D01*
X002440Y001497D02*
X002239Y001497D01*
X002232Y001596D02*
X002440Y001596D01*
X002440Y001694D02*
X002330Y001694D01*
X002429Y001793D02*
X002440Y001793D01*
X003156Y001793D02*
X003416Y001793D01*
X003413Y001784D02*
X003424Y001823D01*
X003443Y001857D01*
X003471Y001885D01*
X003505Y001904D01*
X003544Y001915D01*
X003662Y001915D01*
X003662Y001666D01*
X003662Y001666D01*
X003662Y001915D01*
X003780Y001915D01*
X003818Y001904D01*
X003852Y001885D01*
X003880Y001857D01*
X003900Y001823D01*
X003910Y001784D01*
X003910Y001721D01*
X003918Y001742D01*
X003918Y001742D01*
X003974Y002187D01*
X003156Y002187D01*
X003156Y002285D02*
X003962Y002285D01*
X003974Y002187D02*
X003918Y002631D01*
X003753Y003048D01*
X003490Y003410D01*
X003145Y003696D01*
X003007Y003761D01*
X003007Y003666D01*
X002759Y003666D01*
X002759Y003666D01*
X003007Y003666D01*
X003007Y003555D01*
X003027Y003555D01*
X003156Y003426D01*
X003156Y001752D01*
X003159Y001753D01*
X003277Y001753D01*
X003277Y001505D01*
X003277Y001753D01*
X003395Y001753D01*
X003413Y001748D01*
X003413Y001784D01*
X003482Y001891D02*
X003156Y001891D01*
X003156Y001990D02*
X003950Y001990D01*
X003962Y002088D02*
X003156Y002088D01*
X003156Y002384D02*
X003950Y002384D01*
X003937Y002482D02*
X003156Y002482D01*
X003156Y002581D02*
X003925Y002581D01*
X003899Y002679D02*
X003156Y002679D01*
X003156Y002778D02*
X003860Y002778D01*
X003821Y002876D02*
X003156Y002876D01*
X003156Y002975D02*
X003782Y002975D01*
X003735Y003073D02*
X003156Y003073D01*
X003156Y003172D02*
X003663Y003172D01*
X003592Y003270D02*
X003156Y003270D01*
X003156Y003369D02*
X003520Y003369D01*
X003421Y003467D02*
X003115Y003467D01*
X003007Y003566D02*
X003302Y003566D01*
X003183Y003664D02*
X003007Y003664D01*
X002759Y003666D02*
X002510Y003666D01*
X002759Y003666D01*
X002759Y003666D01*
X002510Y003666D02*
X002510Y003496D01*
X002440Y003426D01*
X002440Y003238D01*
X002359Y003272D01*
X002313Y003272D01*
X002313Y003360D01*
X002261Y003485D01*
X002166Y003580D01*
X002041Y003632D01*
X001906Y003632D01*
X001865Y003615D01*
X001865Y003666D01*
X001865Y003882D01*
X001855Y003920D01*
X001844Y003940D01*
X001852Y003943D01*
X002299Y003971D01*
X002525Y003928D01*
X002520Y003920D01*
X002510Y003882D01*
X002510Y003666D01*
X002510Y003664D02*
X001865Y003664D01*
X001865Y003666D02*
X001617Y003666D01*
X001865Y003666D01*
X001865Y003763D02*
X002510Y003763D01*
X002510Y003861D02*
X001865Y003861D01*
X002119Y003960D02*
X002358Y003960D01*
X002510Y003566D02*
X002180Y003566D01*
X002269Y003467D02*
X002481Y003467D01*
X002440Y003369D02*
X002309Y003369D01*
X002363Y003270D02*
X002440Y003270D01*
X001617Y003666D02*
X001617Y003666D01*
X001617Y003666D01*
X001369Y003666D01*
X001369Y003768D01*
X001047Y003564D01*
X000900Y003408D01*
X000912Y003403D01*
X001008Y003308D01*
X001059Y003183D01*
X001059Y003169D01*
X001220Y003169D01*
X001220Y003426D01*
X001349Y003555D01*
X001369Y003555D01*
X001369Y003666D01*
X001617Y003666D01*
X001369Y003664D02*
X001204Y003664D01*
X001049Y003566D02*
X001369Y003566D01*
X001261Y003467D02*
X000956Y003467D01*
X000947Y003369D02*
X001220Y003369D01*
X001220Y003270D02*
X001023Y003270D01*
X001059Y003172D02*
X001220Y003172D01*
X001360Y003763D02*
X001369Y003763D01*
X003277Y001694D02*
X003277Y001694D01*
X003277Y001596D02*
X003277Y001596D01*
X003277Y001505D02*
X003277Y001505D01*
X003662Y001694D02*
X003662Y001694D01*
X003662Y001793D02*
X003662Y001793D01*
X003662Y001891D02*
X003662Y001891D01*
X003841Y001891D02*
X003937Y001891D01*
X003925Y001793D02*
X003908Y001793D01*
M02*
