G75*
%MOIN*%
%OFA0B0*%
%FSLAX24Y24*%
%IPPOS*%
%LPD*%
%AMOC8*
5,1,8,0,0,1.08239X$1,22.5*
%
%ADD10R,0.0276X0.0087*%
%ADD11R,0.0197X0.0394*%
%ADD12R,0.0197X0.0197*%
%ADD13C,0.0060*%
%ADD14C,0.0240*%
%ADD15C,0.0100*%
%ADD16C,0.0050*%
D10*
X001578Y001087D03*
X001578Y001244D03*
X001578Y001402D03*
X001578Y001559D03*
X001578Y001717D03*
X001578Y001874D03*
X001578Y002032D03*
X001578Y002189D03*
X001578Y002347D03*
X001578Y002504D03*
X001578Y002662D03*
X001578Y002819D03*
X001578Y002977D03*
X001578Y003134D03*
X001578Y003292D03*
X002798Y003292D03*
X002798Y003134D03*
X002798Y002977D03*
X002798Y002819D03*
X002798Y002662D03*
X002798Y002504D03*
X002798Y002347D03*
X002798Y002189D03*
X002798Y002032D03*
X002798Y001874D03*
X002798Y001717D03*
X002798Y001559D03*
X002798Y001402D03*
X002798Y001244D03*
X002798Y001087D03*
D11*
X002759Y000713D03*
X001617Y000713D03*
X001617Y003666D03*
X002759Y003666D03*
D12*
X001011Y002605D03*
X001004Y002917D03*
X000604Y002917D03*
X000611Y002605D03*
X003277Y001505D03*
X003277Y001105D03*
X003662Y001266D03*
X003662Y001666D03*
D13*
X003500Y001505D01*
X003277Y001505D01*
X003017Y001244D01*
X002798Y001244D01*
X002798Y001087D02*
X002793Y001082D01*
X002524Y001082D01*
X001963Y001643D01*
X001963Y002235D01*
X001885Y002370D01*
X001963Y002415D01*
X002041Y002370D01*
X001963Y002235D01*
X001963Y002415D01*
X001893Y003134D02*
X001578Y003134D01*
X001578Y003292D02*
X001332Y003292D01*
X001229Y003175D01*
X001162Y003235D01*
X001180Y003323D01*
X001332Y003292D01*
X001218Y003292D01*
X001162Y003235D01*
X001617Y003666D02*
X001940Y003666D01*
X001941Y003665D01*
X001978Y003627D01*
X001978Y003219D01*
X001893Y003134D01*
X001941Y003665D02*
X002758Y003665D01*
X002759Y003666D01*
X002880Y003666D01*
X003021Y003732D01*
X003059Y003650D01*
X003008Y003576D01*
X002880Y003666D01*
X003044Y003666D01*
X003059Y003650D01*
X002041Y003820D02*
X001963Y003865D01*
X001885Y003820D01*
X001963Y003685D01*
X002041Y003820D01*
X001963Y003865D02*
X001963Y003685D01*
X001963Y003666D01*
X001617Y003666D01*
X000626Y002396D02*
X000683Y002326D01*
X000650Y002242D01*
X000505Y002298D01*
X000626Y002396D01*
X000683Y002326D02*
X000532Y002326D01*
X000505Y002298D01*
X000372Y002165D01*
X000372Y001949D01*
X000930Y001391D01*
X001567Y001391D01*
X001578Y001402D01*
X001577Y001559D02*
X000966Y001559D01*
X000693Y001832D01*
X000693Y001892D01*
X000742Y001942D01*
X000783Y002093D01*
X000870Y002069D01*
X000893Y001982D01*
X000742Y001942D01*
X000870Y002069D01*
X001095Y001834D02*
X001072Y001747D01*
X001222Y001707D01*
X001182Y001858D01*
X001095Y001834D01*
X001095Y001832D01*
X001219Y001707D01*
X001222Y001707D01*
X001568Y001707D01*
X001578Y001559D02*
X001577Y001559D01*
X001617Y000713D02*
X002759Y000713D01*
X002798Y001087D02*
X003259Y001087D01*
X003277Y001105D01*
X003500Y001105D01*
X003662Y001266D01*
X003277Y001505D02*
X003277Y001634D01*
X003191Y001764D01*
X003266Y001813D01*
X003346Y001773D01*
X003277Y001634D01*
X003277Y001802D01*
X003266Y001813D01*
D14*
X003266Y001813D03*
X002221Y000871D03*
X001095Y001834D03*
X000870Y002069D03*
X000683Y002326D03*
X001162Y003235D03*
X000792Y003328D03*
X001963Y003865D03*
X003059Y003650D03*
X001963Y002415D03*
D15*
X001266Y000906D02*
X000956Y000906D01*
X001047Y000809D02*
X000740Y001136D01*
X000629Y001339D01*
X000788Y001179D01*
X000880Y001141D01*
X001220Y001141D01*
X001220Y000952D01*
X001349Y000824D01*
X001369Y000824D01*
X001369Y000713D01*
X001617Y000713D01*
X001865Y000713D01*
X001865Y000882D01*
X001935Y000952D01*
X001935Y001317D01*
X002312Y000941D01*
X002312Y000941D01*
X002383Y000870D01*
X002474Y000832D01*
X002510Y000832D01*
X002510Y000713D01*
X002759Y000713D01*
X003007Y000713D01*
X003007Y000824D01*
X003027Y000824D01*
X003039Y000835D01*
X003087Y000786D01*
X003277Y000786D01*
X003145Y000677D01*
X003007Y000612D01*
X003007Y000713D01*
X002759Y000713D01*
X002759Y000713D01*
X002759Y000713D01*
X002510Y000713D01*
X002510Y000496D01*
X002520Y000458D01*
X002528Y000446D01*
X002299Y000402D01*
X001852Y000430D01*
X001841Y000434D01*
X001855Y000458D01*
X001865Y000496D01*
X001865Y000713D01*
X001617Y000713D01*
X001617Y000713D01*
X001617Y000713D01*
X001369Y000713D01*
X001369Y000605D01*
X001047Y000809D01*
X001049Y000808D02*
X001369Y000808D01*
X001369Y000709D02*
X001204Y000709D01*
X001360Y000611D02*
X001369Y000611D01*
X001220Y001005D02*
X000863Y001005D01*
X000771Y001103D02*
X001220Y001103D01*
X000766Y001202D02*
X000704Y001202D01*
X000667Y001300D02*
X000650Y001300D01*
X001865Y000808D02*
X002510Y000808D01*
X002510Y000709D02*
X001865Y000709D01*
X001865Y000611D02*
X002510Y000611D01*
X002510Y000512D02*
X001865Y000512D01*
X002119Y000414D02*
X002358Y000414D01*
X002347Y000906D02*
X001889Y000906D01*
X001935Y001005D02*
X002248Y001005D01*
X002150Y001103D02*
X001935Y001103D01*
X001935Y001202D02*
X002051Y001202D01*
X001953Y001300D02*
X001935Y001300D01*
X002266Y001694D02*
X002440Y001694D01*
X002440Y001596D02*
X002364Y001596D01*
X002440Y001520D02*
X002213Y001747D01*
X002213Y002168D01*
X002235Y002207D01*
X002251Y002223D01*
X002269Y002265D01*
X002282Y002288D01*
X002284Y002302D01*
X002303Y002348D01*
X002303Y002483D01*
X002251Y002608D01*
X002156Y002704D01*
X002031Y002755D01*
X001935Y002755D01*
X001935Y002842D01*
X001935Y003111D01*
X001912Y003134D01*
X001935Y003157D01*
X001935Y003426D01*
X001865Y003496D01*
X001865Y003666D01*
X001865Y003882D01*
X001855Y003920D01*
X001844Y003940D01*
X001852Y003943D01*
X002299Y003971D01*
X002525Y003928D01*
X002520Y003920D01*
X002510Y003882D01*
X002510Y003666D01*
X002759Y003666D01*
X003007Y003666D01*
X003007Y003761D01*
X003145Y003696D01*
X003490Y003410D01*
X003753Y003048D01*
X003918Y002631D01*
X003974Y002187D01*
X003156Y002187D01*
X003156Y002285D02*
X003962Y002285D01*
X003974Y002187D02*
X003918Y001742D01*
X003910Y001721D01*
X003910Y001784D01*
X003900Y001823D01*
X003880Y001857D01*
X003852Y001885D01*
X003818Y001904D01*
X003780Y001915D01*
X003662Y001915D01*
X003662Y001666D01*
X003662Y001666D01*
X003662Y001915D01*
X003544Y001915D01*
X003505Y001904D01*
X003471Y001885D01*
X003443Y001857D01*
X003424Y001823D01*
X003413Y001784D01*
X003413Y001748D01*
X003395Y001753D01*
X003277Y001753D01*
X003277Y001505D01*
X003277Y001753D01*
X003159Y001753D01*
X003156Y001752D01*
X003156Y003426D01*
X003027Y003555D01*
X003007Y003555D01*
X003007Y003666D01*
X002759Y003666D01*
X002759Y003666D01*
X002759Y003666D01*
X002510Y003666D01*
X002510Y003496D01*
X002440Y003426D01*
X002440Y001520D01*
X002440Y001793D02*
X002213Y001793D01*
X002213Y001891D02*
X002440Y001891D01*
X002440Y001990D02*
X002213Y001990D01*
X002213Y002088D02*
X002440Y002088D01*
X002440Y002187D02*
X002224Y002187D01*
X002281Y002285D02*
X002440Y002285D01*
X002440Y002384D02*
X002303Y002384D01*
X002303Y002482D02*
X002440Y002482D01*
X002440Y002581D02*
X002263Y002581D01*
X002180Y002679D02*
X002440Y002679D01*
X002440Y002778D02*
X001935Y002778D01*
X001935Y002876D02*
X002440Y002876D01*
X002440Y002975D02*
X001935Y002975D01*
X001935Y003073D02*
X002440Y003073D01*
X002440Y003172D02*
X001935Y003172D01*
X001935Y003270D02*
X002440Y003270D01*
X002440Y003369D02*
X001935Y003369D01*
X001894Y003467D02*
X002481Y003467D01*
X002510Y003566D02*
X001865Y003566D01*
X001865Y003664D02*
X002510Y003664D01*
X002510Y003763D02*
X001865Y003763D01*
X001865Y003861D02*
X002510Y003861D01*
X002358Y003960D02*
X002119Y003960D01*
X001865Y003666D02*
X001617Y003666D01*
X001617Y003666D01*
X001617Y003666D01*
X001369Y003666D01*
X001369Y003768D01*
X001047Y003564D01*
X001042Y003559D01*
X001046Y003555D01*
X001094Y003575D01*
X001166Y003575D01*
X001182Y003578D01*
X001182Y003578D01*
X001196Y003575D01*
X001229Y003575D01*
X001262Y003561D01*
X001339Y003545D01*
X001349Y003555D01*
X001369Y003555D01*
X001369Y003666D01*
X001617Y003666D01*
X001865Y003666D01*
X001369Y003664D02*
X001204Y003664D01*
X001182Y003578D02*
X001182Y003578D01*
X001252Y003566D02*
X001369Y003566D01*
X001360Y003763D02*
X001369Y003763D01*
X001071Y003566D02*
X001049Y003566D01*
X003007Y003566D02*
X003302Y003566D01*
X003183Y003664D02*
X003007Y003664D01*
X003115Y003467D02*
X003421Y003467D01*
X003520Y003369D02*
X003156Y003369D01*
X003156Y003270D02*
X003592Y003270D01*
X003663Y003172D02*
X003156Y003172D01*
X003156Y003073D02*
X003735Y003073D01*
X003782Y002975D02*
X003156Y002975D01*
X003156Y002876D02*
X003821Y002876D01*
X003860Y002778D02*
X003156Y002778D01*
X003156Y002679D02*
X003899Y002679D01*
X003925Y002581D02*
X003156Y002581D01*
X003156Y002482D02*
X003937Y002482D01*
X003950Y002384D02*
X003156Y002384D01*
X003156Y002088D02*
X003962Y002088D01*
X003950Y001990D02*
X003156Y001990D01*
X003156Y001891D02*
X003482Y001891D01*
X003416Y001793D02*
X003156Y001793D01*
X003277Y001694D02*
X003277Y001694D01*
X003277Y001596D02*
X003277Y001596D01*
X003277Y001505D02*
X003277Y001505D01*
X003662Y001694D02*
X003662Y001694D01*
X003662Y001793D02*
X003662Y001793D01*
X003662Y001891D02*
X003662Y001891D01*
X003841Y001891D02*
X003937Y001891D01*
X003925Y001793D02*
X003908Y001793D01*
X003918Y001742D02*
X003918Y001742D01*
X003066Y000808D02*
X003007Y000808D01*
X003007Y000709D02*
X003183Y000709D01*
D16*
X001578Y002504D02*
X001349Y002504D01*
X001252Y002601D01*
X001015Y002601D01*
X001011Y002605D01*
X001221Y002819D02*
X001578Y002819D01*
X001221Y002819D02*
X001154Y002886D01*
X001035Y002886D01*
X001004Y002917D01*
X000792Y003105D02*
X000604Y002917D01*
X000612Y002909D01*
X000612Y002571D01*
X000629Y002587D01*
X000686Y002587D01*
X000611Y002605D02*
X000611Y002910D01*
X000604Y002917D01*
X000792Y003105D02*
X000792Y003148D01*
X000711Y003278D01*
X000792Y003328D01*
X000873Y003278D01*
X000792Y003148D01*
X000792Y003328D01*
M02*
