G75*
%MOIN*%
%OFA0B0*%
%FSLAX24Y24*%
%IPPOS*%
%LPD*%
%AMOC8*
5,1,8,0,0,1.08239X$1,22.5*
%
%ADD10R,0.0276X0.0087*%
%ADD11R,0.0197X0.0394*%
%ADD12R,0.0197X0.0197*%
D10*
X001578Y001087D03*
X001578Y001244D03*
X001578Y001402D03*
X001578Y001559D03*
X001578Y001717D03*
X001578Y001874D03*
X001578Y002032D03*
X001578Y002189D03*
X001578Y002347D03*
X001578Y002504D03*
X001578Y002662D03*
X001578Y002819D03*
X001578Y002977D03*
X001578Y003134D03*
X001578Y003292D03*
X002798Y003292D03*
X002798Y003134D03*
X002798Y002977D03*
X002798Y002819D03*
X002798Y002662D03*
X002798Y002504D03*
X002798Y002347D03*
X002798Y002189D03*
X002798Y002032D03*
X002798Y001874D03*
X002798Y001717D03*
X002798Y001559D03*
X002798Y001402D03*
X002798Y001244D03*
X002798Y001087D03*
D11*
X001617Y000713D03*
X002759Y000713D03*
X002759Y003666D03*
X001617Y003666D03*
D12*
X001004Y002917D03*
X001011Y002605D03*
X000611Y002605D03*
X000604Y002917D03*
X003277Y001505D03*
X003277Y001105D03*
X003662Y001266D03*
X003662Y001666D03*
M02*
