G75*
%MOIN*%
%OFA0B0*%
%FSLAX24Y24*%
%IPPOS*%
%LPD*%
%AMOC8*
5,1,8,0,0,1.08239X$1,22.5*
%
%ADD10R,0.0237X0.0237*%
%ADD11R,0.0237X0.0237*%
%ADD12R,0.0127X0.0186*%
%ADD13R,0.0127X0.0186*%
%ADD14R,0.0186X0.0127*%
D10*
G36*
X002871Y001118D02*
X003063Y001254D01*
X003199Y001062D01*
X003007Y000926D01*
X002871Y001118D01*
G37*
G36*
X003199Y001348D02*
X003391Y001484D01*
X003527Y001292D01*
X003335Y001156D01*
X003199Y001348D01*
G37*
D11*
X000559Y001669D03*
X000930Y001678D03*
X000930Y002078D03*
X000559Y002069D03*
X000735Y002441D03*
X001135Y002441D03*
X001135Y002994D03*
X000735Y002994D03*
X002040Y003484D03*
X002055Y003819D03*
X002455Y003819D03*
X002440Y003484D03*
X003219Y002790D03*
X003619Y002790D03*
X003505Y002335D03*
X003717Y001943D03*
X003717Y001543D03*
X003905Y002335D03*
D12*
X001677Y001485D03*
D13*
X001874Y001485D03*
X002071Y001484D03*
X002267Y001486D03*
X002465Y001485D03*
X002661Y001485D03*
X002661Y002843D03*
X002464Y002843D03*
X002266Y002843D03*
X002069Y002843D03*
X001874Y002843D03*
X001676Y002842D03*
D14*
X001492Y002656D03*
X001492Y002460D03*
X001492Y002262D03*
X001491Y002064D03*
X001491Y001869D03*
X001492Y001672D03*
X002849Y001673D03*
X002848Y001868D03*
X002849Y002066D03*
X002848Y002261D03*
X002848Y002459D03*
X002848Y002657D03*
M02*
