G75*
%MOIN*%
%OFA0B0*%
%FSLAX24Y24*%
%IPPOS*%
%LPD*%
%AMOC8*
5,1,8,0,0,1.08239X$1,22.5*
%
%ADD10R,0.0197X0.0197*%
%ADD11R,0.0197X0.0197*%
%ADD12R,0.0118X0.0177*%
%ADD13R,0.0177X0.0118*%
D10*
G36*
X002899Y001114D02*
X003059Y001226D01*
X003171Y001066D01*
X003011Y000954D01*
X002899Y001114D01*
G37*
G36*
X003227Y001344D02*
X003387Y001456D01*
X003499Y001296D01*
X003339Y001184D01*
X003227Y001344D01*
G37*
D11*
X000559Y001669D03*
X000930Y001678D03*
X000930Y002078D03*
X000559Y002069D03*
X000735Y002441D03*
X001135Y002441D03*
X001135Y002994D03*
X000735Y002994D03*
X002040Y003484D03*
X002055Y003819D03*
X002455Y003819D03*
X002440Y003484D03*
X003219Y002790D03*
X003619Y002790D03*
X003505Y002335D03*
X003717Y001943D03*
X003717Y001543D03*
X003905Y002335D03*
D12*
X002661Y002843D03*
X002465Y002843D03*
X002268Y002843D03*
X002071Y002843D03*
X001874Y002843D03*
X001677Y002843D03*
X001677Y001485D03*
X001874Y001485D03*
X002071Y001485D03*
X002268Y001485D03*
X002465Y001485D03*
X002661Y001485D03*
D13*
X002848Y001672D03*
X002848Y001869D03*
X002848Y002066D03*
X002848Y002263D03*
X002848Y002459D03*
X002848Y002656D03*
X001490Y002656D03*
X001490Y002459D03*
X001490Y002263D03*
X001490Y002066D03*
X001490Y001869D03*
X001490Y001672D03*
M02*
