G75*
%MOIN*%
%OFA0B0*%
%FSLAX24Y24*%
%IPPOS*%
%LPD*%
%AMOC8*
5,1,8,0,0,1.08239X$1,22.5*
%
%ADD10R,0.0276X0.0087*%
%ADD11R,0.0197X0.0394*%
%ADD12R,0.0197X0.0197*%
%ADD13C,0.0079*%
%ADD14C,0.0050*%
%ADD15C,0.0240*%
D10*
X001686Y001070D03*
X001686Y001227D03*
X001686Y001385D03*
X001686Y001542D03*
X001686Y001700D03*
X001686Y001857D03*
X001686Y002015D03*
X001686Y002172D03*
X001686Y002330D03*
X001686Y002487D03*
X001686Y002645D03*
X001686Y002802D03*
X001686Y002960D03*
X001686Y003117D03*
X001686Y003275D03*
X002907Y003275D03*
X002907Y003117D03*
X002907Y002960D03*
X002907Y002802D03*
X002907Y002645D03*
X002907Y002487D03*
X002907Y002330D03*
X002907Y002172D03*
X002907Y002015D03*
X002907Y001857D03*
X002907Y001700D03*
X002907Y001542D03*
X002907Y001385D03*
X002907Y001227D03*
X002907Y001070D03*
D11*
X002867Y000696D03*
X001725Y000696D03*
X001725Y003649D03*
X002867Y003649D03*
D12*
X001323Y002818D03*
X000923Y002818D03*
X000899Y002136D03*
X000899Y001736D03*
D13*
X000835Y000859D02*
X000994Y000859D01*
X000979Y000865D02*
X001077Y000824D01*
X001405Y000824D01*
X001410Y000820D01*
X001488Y000787D01*
X001488Y000706D01*
X001716Y000706D01*
X001716Y000686D01*
X001735Y000686D01*
X001735Y000360D01*
X001842Y000360D01*
X001878Y000369D01*
X001909Y000387D01*
X001935Y000413D01*
X001954Y000445D01*
X001963Y000481D01*
X001963Y000664D01*
X002015Y000612D01*
X002149Y000556D01*
X002294Y000556D01*
X002428Y000612D01*
X002530Y000714D01*
X002540Y000737D01*
X002546Y000737D01*
X002629Y000772D01*
X002629Y000706D01*
X002857Y000706D01*
X002857Y000686D01*
X002629Y000686D01*
X002629Y000481D01*
X002639Y000445D01*
X002657Y000413D01*
X002683Y000387D01*
X002715Y000369D01*
X002750Y000360D01*
X002857Y000360D01*
X002857Y000686D01*
X002877Y000686D01*
X002877Y000360D01*
X002984Y000360D01*
X003019Y000369D01*
X003051Y000387D01*
X003077Y000413D01*
X003096Y000445D01*
X003105Y000481D01*
X003105Y000686D01*
X002877Y000686D01*
X002877Y000706D01*
X002857Y000706D01*
X002857Y000782D01*
X002877Y000782D01*
X002877Y000706D01*
X003082Y000706D01*
X003196Y000659D01*
X003341Y000659D01*
X003475Y000714D01*
X003577Y000816D01*
X003633Y000950D01*
X003633Y001095D01*
X003611Y001147D01*
X003751Y001147D01*
X003884Y001202D01*
X003987Y001305D01*
X004042Y001438D01*
X004042Y001549D01*
X004113Y001620D01*
X004168Y001753D01*
X004168Y001898D01*
X004141Y001963D01*
X004148Y001970D01*
X004204Y002104D01*
X004204Y002249D01*
X004152Y002374D01*
X004188Y002462D01*
X004188Y002607D01*
X004133Y002741D01*
X004030Y002843D01*
X003896Y002899D01*
X003751Y002899D01*
X003618Y002843D01*
X003515Y002741D01*
X003460Y002607D01*
X003460Y002462D01*
X003512Y002336D01*
X003476Y002249D01*
X003288Y002249D01*
X003288Y002172D02*
X003476Y002172D01*
X003476Y002104D02*
X003502Y002039D01*
X003496Y002032D01*
X003440Y001898D01*
X003440Y001788D01*
X003370Y001717D01*
X003314Y001583D01*
X003314Y001438D01*
X003336Y001387D01*
X003288Y001387D01*
X003288Y003366D01*
X003251Y003456D01*
X003183Y003525D01*
X003105Y003557D01*
X003105Y003639D01*
X002877Y003639D01*
X002877Y003658D01*
X003105Y003658D01*
X003105Y003864D01*
X003096Y003899D01*
X003077Y003931D01*
X003051Y003957D01*
X003019Y003975D01*
X002984Y003985D01*
X002877Y003985D01*
X002877Y003658D01*
X002857Y003658D01*
X002857Y003639D01*
X002629Y003639D01*
X002629Y003606D01*
X002550Y003639D01*
X002405Y003639D01*
X002347Y003615D01*
X002331Y003612D01*
X002331Y003612D01*
X002331Y003612D01*
X002311Y003600D01*
X002271Y003583D01*
X002250Y003562D01*
X002221Y003544D01*
X001963Y003544D01*
X001963Y003639D01*
X001735Y003639D01*
X001735Y003658D01*
X001963Y003658D01*
X001963Y003864D01*
X001954Y003899D01*
X001935Y003931D01*
X001909Y003957D01*
X001878Y003975D01*
X001842Y003985D01*
X001735Y003985D01*
X001735Y003658D01*
X001716Y003658D01*
X001716Y003639D01*
X001488Y003639D01*
X001488Y003557D01*
X001410Y003525D01*
X001341Y003456D01*
X001304Y003366D01*
X001304Y003183D01*
X001313Y003160D01*
X001176Y003160D01*
X001123Y003138D01*
X001070Y003160D01*
X000776Y003160D01*
X000738Y003145D01*
X000676Y003170D01*
X000601Y003170D01*
X000735Y003371D01*
X000904Y003564D01*
X001098Y003734D01*
X001312Y003877D01*
X001543Y003991D01*
X001787Y004074D01*
X002039Y004124D01*
X002296Y004141D01*
X002553Y004124D01*
X002806Y004074D01*
X003050Y003991D01*
X003281Y003877D01*
X003495Y003734D01*
X003688Y003564D01*
X003858Y003371D01*
X004001Y003156D01*
X004115Y002926D01*
X004198Y002682D01*
X004248Y002429D01*
X004265Y002172D01*
X004204Y002172D01*
X004265Y002172D02*
X004248Y001915D01*
X004198Y001663D01*
X004115Y001419D01*
X004001Y001188D01*
X003858Y000974D01*
X003688Y000780D01*
X003495Y000611D01*
X003281Y000467D01*
X003050Y000354D01*
X002806Y000271D01*
X002553Y000221D01*
X002296Y000204D01*
X002039Y000221D01*
X001787Y000271D01*
X001543Y000354D01*
X001312Y000467D01*
X001098Y000611D01*
X000904Y000780D01*
X000742Y000966D01*
X000794Y000966D01*
X000854Y000990D01*
X000903Y000941D01*
X000979Y000865D01*
X000908Y000936D02*
X000768Y000936D01*
X000903Y000782D02*
X001488Y000782D01*
X001488Y000686D02*
X001488Y000481D01*
X001497Y000445D01*
X001516Y000413D01*
X001541Y000387D01*
X001573Y000369D01*
X001609Y000360D01*
X001716Y000360D01*
X001716Y000686D01*
X001488Y000686D01*
X001488Y000627D02*
X001079Y000627D01*
X000991Y000705D02*
X001716Y000705D01*
X001716Y000627D02*
X001735Y000627D01*
X001735Y000550D02*
X001716Y000550D01*
X001716Y000473D02*
X001735Y000473D01*
X001735Y000396D02*
X001716Y000396D01*
X001646Y000318D02*
X002946Y000318D01*
X002877Y000396D02*
X002857Y000396D01*
X002857Y000473D02*
X002877Y000473D01*
X002877Y000550D02*
X002857Y000550D01*
X002857Y000627D02*
X002877Y000627D01*
X002877Y000705D02*
X003085Y000705D01*
X003105Y000627D02*
X003514Y000627D01*
X003453Y000705D02*
X003602Y000705D01*
X003543Y000782D02*
X003690Y000782D01*
X003757Y000859D02*
X003595Y000859D01*
X003627Y000936D02*
X003825Y000936D01*
X003885Y001014D02*
X003633Y001014D01*
X003633Y001091D02*
X003936Y001091D01*
X003988Y001168D02*
X003802Y001168D01*
X003928Y001245D02*
X004029Y001245D01*
X003994Y001323D02*
X004067Y001323D01*
X004106Y001400D02*
X004026Y001400D01*
X004042Y001477D02*
X004135Y001477D01*
X004161Y001554D02*
X004048Y001554D01*
X004118Y001632D02*
X004187Y001632D01*
X004207Y001709D02*
X004150Y001709D01*
X004168Y001786D02*
X004222Y001786D01*
X004238Y001863D02*
X004168Y001863D01*
X004151Y001941D02*
X004250Y001941D01*
X004255Y002018D02*
X004168Y002018D01*
X004200Y002095D02*
X004260Y002095D01*
X004260Y002249D02*
X004203Y002249D01*
X004171Y002327D02*
X004255Y002327D01*
X004250Y002404D02*
X004164Y002404D01*
X004188Y002481D02*
X004238Y002481D01*
X004222Y002558D02*
X004188Y002558D01*
X004176Y002636D02*
X004207Y002636D01*
X004187Y002713D02*
X004144Y002713D01*
X004161Y002790D02*
X004083Y002790D01*
X004135Y002867D02*
X003971Y002867D01*
X004106Y002945D02*
X003288Y002945D01*
X003288Y003022D02*
X004067Y003022D01*
X004029Y003099D02*
X003288Y003099D01*
X003288Y003176D02*
X003988Y003176D01*
X003936Y003254D02*
X003288Y003254D01*
X003288Y003331D02*
X003885Y003331D01*
X003825Y003408D02*
X003271Y003408D01*
X003222Y003485D02*
X003757Y003485D01*
X003690Y003563D02*
X003105Y003563D01*
X003105Y003717D02*
X003514Y003717D01*
X003602Y003640D02*
X002877Y003640D01*
X002857Y003640D02*
X001735Y003640D01*
X001716Y003640D02*
X000991Y003640D01*
X001079Y003717D02*
X001488Y003717D01*
X001488Y003658D02*
X001716Y003658D01*
X001716Y003985D01*
X001609Y003985D01*
X001573Y003975D01*
X001541Y003957D01*
X001516Y003931D01*
X001497Y003899D01*
X001488Y003864D01*
X001488Y003658D01*
X001488Y003563D02*
X000903Y003563D01*
X000835Y003485D02*
X001371Y003485D01*
X001321Y003408D02*
X000768Y003408D01*
X000708Y003331D02*
X001304Y003331D01*
X001304Y003254D02*
X000656Y003254D01*
X000605Y003176D02*
X001307Y003176D01*
X001716Y003717D02*
X001735Y003717D01*
X001735Y003794D02*
X001716Y003794D01*
X001716Y003872D02*
X001735Y003872D01*
X001735Y003949D02*
X001716Y003949D01*
X001646Y004026D02*
X002946Y004026D01*
X002857Y003985D02*
X002750Y003985D01*
X002715Y003975D01*
X002683Y003957D01*
X002657Y003931D01*
X002639Y003899D01*
X002629Y003864D01*
X002629Y003658D01*
X002857Y003658D01*
X002857Y003985D01*
X002857Y003949D02*
X002877Y003949D01*
X002877Y003872D02*
X002857Y003872D01*
X002857Y003794D02*
X002877Y003794D01*
X002877Y003717D02*
X002857Y003717D01*
X002629Y003717D02*
X001963Y003717D01*
X001963Y003794D02*
X002629Y003794D01*
X002631Y003872D02*
X001961Y003872D01*
X001918Y003949D02*
X002675Y003949D01*
X002657Y004103D02*
X001936Y004103D01*
X001533Y003949D02*
X001458Y003949D01*
X001490Y003872D02*
X001304Y003872D01*
X001188Y003794D02*
X001488Y003794D01*
X001963Y003563D02*
X002250Y003563D01*
X003059Y003949D02*
X003135Y003949D01*
X003103Y003872D02*
X003289Y003872D01*
X003404Y003794D02*
X003105Y003794D01*
X003288Y002867D02*
X003676Y002867D01*
X003565Y002790D02*
X003288Y002790D01*
X003288Y002713D02*
X003504Y002713D01*
X003472Y002636D02*
X003288Y002636D01*
X003288Y002558D02*
X003460Y002558D01*
X003460Y002481D02*
X003288Y002481D01*
X003288Y002404D02*
X003484Y002404D01*
X003508Y002327D02*
X003288Y002327D01*
X003476Y002249D02*
X003476Y002104D01*
X003479Y002095D02*
X003288Y002095D01*
X003288Y002018D02*
X003490Y002018D01*
X003458Y001941D02*
X003288Y001941D01*
X003288Y001863D02*
X003440Y001863D01*
X003439Y001786D02*
X003288Y001786D01*
X003288Y001709D02*
X003366Y001709D01*
X003334Y001632D02*
X003288Y001632D01*
X003288Y001554D02*
X003314Y001554D01*
X003314Y001477D02*
X003288Y001477D01*
X003288Y001400D02*
X003330Y001400D01*
X002877Y000782D02*
X002857Y000782D01*
X002857Y000705D02*
X002521Y000705D01*
X002444Y000627D02*
X002629Y000627D01*
X002629Y000550D02*
X001963Y000550D01*
X001961Y000473D02*
X002631Y000473D01*
X002675Y000396D02*
X001918Y000396D01*
X001936Y000241D02*
X002657Y000241D01*
X003059Y000396D02*
X003135Y000396D01*
X003103Y000473D02*
X003289Y000473D01*
X003404Y000550D02*
X003105Y000550D01*
X001999Y000627D02*
X001963Y000627D01*
X001533Y000396D02*
X001458Y000396D01*
X001490Y000473D02*
X001304Y000473D01*
X001188Y000550D02*
X001488Y000550D01*
D14*
X001725Y000696D02*
X002867Y000696D01*
X002917Y000696D01*
X003056Y000759D01*
X003096Y000672D01*
X003035Y000599D01*
X002917Y000696D01*
X003072Y000696D01*
X003096Y000672D01*
X002867Y000696D02*
X002867Y000708D01*
X003199Y000958D02*
X003269Y001023D01*
X003242Y001114D01*
X003095Y001070D01*
X003199Y000958D01*
X003269Y001023D02*
X003344Y001070D01*
X003095Y001070D01*
X002907Y001070D01*
X002690Y001070D01*
X002690Y001424D01*
X002481Y001633D01*
X002481Y003095D01*
X002398Y003223D01*
X002477Y003275D01*
X002559Y003226D01*
X002481Y003095D01*
X002481Y003271D01*
X002477Y003275D01*
X002427Y003355D01*
X002297Y003275D01*
X002427Y003194D01*
X002477Y003275D01*
X002297Y003275D01*
X001686Y003275D01*
X001682Y003121D02*
X001434Y003121D01*
X001332Y003223D01*
X001256Y003223D01*
X001126Y003143D01*
X001076Y003223D01*
X001126Y003304D01*
X001256Y003223D01*
X001076Y003223D01*
X000923Y002818D02*
X000923Y002153D01*
X000899Y002136D01*
X001174Y001868D01*
X001174Y001809D01*
X001255Y001679D01*
X001174Y001629D01*
X001094Y001679D01*
X001174Y001809D01*
X001174Y001629D01*
X001192Y001396D02*
X001337Y001444D01*
X001316Y001293D01*
X001222Y001306D01*
X001192Y001396D01*
X001222Y001306D02*
X001337Y001444D01*
X001418Y001542D01*
X001686Y001542D01*
X001686Y001385D02*
X002092Y001385D01*
X002092Y001050D01*
X002094Y001048D01*
X002243Y001013D01*
X002222Y000920D01*
X002129Y000899D01*
X002094Y001048D01*
X002222Y000920D01*
X002381Y001080D02*
X002474Y001101D01*
X002495Y001194D01*
X002346Y001229D01*
X002381Y001080D01*
X002474Y001101D02*
X002346Y001229D01*
X002285Y001290D01*
X002285Y001397D01*
X001981Y001700D01*
X001686Y001700D01*
X001686Y001227D02*
X001493Y001227D01*
X001359Y001094D01*
X001131Y001094D01*
X000981Y001243D01*
X000981Y001471D01*
X000899Y001554D01*
X000899Y001736D01*
X000981Y001752D01*
X000993Y002787D02*
X000923Y002818D01*
X001323Y002818D02*
X001378Y002802D01*
X001686Y002802D01*
X001686Y003117D02*
X001682Y003121D01*
X002610Y003875D02*
X002560Y003956D01*
X002610Y004036D01*
X002740Y003956D01*
X002610Y003875D01*
X002560Y003956D02*
X002740Y003956D01*
X002867Y003956D01*
X002867Y003649D01*
X003261Y001527D02*
X003177Y001483D01*
X003247Y001347D01*
X003337Y001470D01*
X003261Y001527D01*
X003261Y001361D01*
X003247Y001347D01*
X003127Y001227D01*
X002907Y001227D01*
D15*
X003261Y001527D03*
X003678Y001511D03*
X003804Y001826D03*
X003840Y002176D03*
X003824Y002534D03*
X003265Y002806D03*
X002477Y003275D03*
X002560Y003956D03*
X001076Y003223D03*
X000603Y002806D03*
X000513Y002397D03*
X000505Y002027D03*
X000588Y001668D03*
X000722Y001330D03*
X001174Y001629D03*
X001222Y001306D03*
X002222Y000920D03*
X002474Y001101D03*
X003096Y000672D03*
X003269Y001023D03*
M02*
