G75*
%MOIN*%
%OFA0B0*%
%FSLAX24Y24*%
%IPPOS*%
%LPD*%
%AMOC8*
5,1,8,0,0,1.08239X$1,22.5*
%
%ADD10C,0.0118*%
%ADD11C,0.0050*%
%ADD12C,0.0157*%
D10*
X001269Y003570D02*
X001271Y003591D01*
X001277Y003611D01*
X001286Y003631D01*
X001298Y003648D01*
X001313Y003662D01*
X001331Y003674D01*
X001351Y003682D01*
X001371Y003687D01*
X001392Y003688D01*
X001413Y003685D01*
X001433Y003679D01*
X001452Y003668D01*
X001469Y003655D01*
X001482Y003639D01*
X001493Y003621D01*
X001501Y003601D01*
X001505Y003581D01*
X001505Y003559D01*
X001501Y003539D01*
X001493Y003519D01*
X001482Y003501D01*
X001469Y003485D01*
X001452Y003472D01*
X001433Y003461D01*
X001413Y003455D01*
X001392Y003452D01*
X001371Y003453D01*
X001351Y003458D01*
X001331Y003466D01*
X001313Y003478D01*
X001298Y003492D01*
X001286Y003509D01*
X001277Y003529D01*
X001271Y003549D01*
X001269Y003570D01*
D11*
X000249Y002172D02*
X000251Y002262D01*
X000257Y002352D01*
X000267Y002441D01*
X000281Y002530D01*
X000298Y002618D01*
X000320Y002705D01*
X000345Y002792D01*
X000374Y002877D01*
X000407Y002961D01*
X000443Y003043D01*
X000483Y003123D01*
X000527Y003202D01*
X000574Y003279D01*
X000624Y003353D01*
X000678Y003426D01*
X000734Y003495D01*
X000794Y003563D01*
X000857Y003627D01*
X000922Y003689D01*
X000990Y003748D01*
X001060Y003804D01*
X001133Y003857D01*
X001208Y003906D01*
X001286Y003952D01*
X001365Y003995D01*
X001446Y004034D01*
X001528Y004070D01*
X001612Y004101D01*
X001698Y004130D01*
X001784Y004154D01*
X001872Y004175D01*
X001960Y004191D01*
X002049Y004204D01*
X002139Y004213D01*
X002229Y004218D01*
X002318Y004219D01*
X002408Y004216D01*
X002498Y004209D01*
X002587Y004198D01*
X002676Y004183D01*
X002764Y004165D01*
X002851Y004142D01*
X002937Y004116D01*
X003022Y004086D01*
X003105Y004052D01*
X003187Y004015D01*
X003267Y003974D01*
X003345Y003930D01*
X003422Y003882D01*
X003496Y003831D01*
X003567Y003776D01*
X003636Y003719D01*
X003703Y003659D01*
X003767Y003595D01*
X003828Y003529D01*
X003886Y003461D01*
X003941Y003390D01*
X003993Y003316D01*
X004042Y003241D01*
X004087Y003163D01*
X004129Y003083D01*
X004167Y003002D01*
X004202Y002919D01*
X004233Y002834D01*
X004260Y002749D01*
X004284Y002662D01*
X004303Y002574D01*
X004319Y002486D01*
X004331Y002396D01*
X004339Y002307D01*
X004343Y002217D01*
X004343Y002127D01*
X004339Y002037D01*
X004331Y001948D01*
X004319Y001858D01*
X004303Y001770D01*
X004284Y001682D01*
X004260Y001595D01*
X004233Y001510D01*
X004202Y001425D01*
X004167Y001342D01*
X004129Y001261D01*
X004087Y001181D01*
X004042Y001103D01*
X003993Y001028D01*
X003941Y000954D01*
X003886Y000883D01*
X003828Y000815D01*
X003767Y000749D01*
X003703Y000685D01*
X003636Y000625D01*
X003567Y000568D01*
X003496Y000513D01*
X003422Y000462D01*
X003345Y000414D01*
X003267Y000370D01*
X003187Y000329D01*
X003105Y000292D01*
X003022Y000258D01*
X002937Y000228D01*
X002851Y000202D01*
X002764Y000179D01*
X002676Y000161D01*
X002587Y000146D01*
X002498Y000135D01*
X002408Y000128D01*
X002318Y000125D01*
X002229Y000126D01*
X002139Y000131D01*
X002049Y000140D01*
X001960Y000153D01*
X001872Y000169D01*
X001784Y000190D01*
X001698Y000214D01*
X001612Y000243D01*
X001528Y000274D01*
X001446Y000310D01*
X001365Y000349D01*
X001286Y000392D01*
X001208Y000438D01*
X001133Y000487D01*
X001060Y000540D01*
X000990Y000596D01*
X000922Y000655D01*
X000857Y000717D01*
X000794Y000781D01*
X000734Y000849D01*
X000678Y000918D01*
X000624Y000991D01*
X000574Y001065D01*
X000527Y001142D01*
X000483Y001221D01*
X000443Y001301D01*
X000407Y001383D01*
X000374Y001467D01*
X000345Y001552D01*
X000320Y001639D01*
X000298Y001726D01*
X000281Y001814D01*
X000267Y001903D01*
X000257Y001992D01*
X000251Y002082D01*
X000249Y002172D01*
D12*
X003099Y002975D03*
M02*
