G75*
%MOIN*%
%OFA0B0*%
%FSLAX24Y24*%
%IPPOS*%
%LPD*%
%AMOC8*
5,1,8,0,0,1.08239X$1,22.5*
%
%ADD10R,0.0984X0.0984*%
%ADD11R,0.0118X0.0315*%
%ADD12R,0.0315X0.0118*%
%ADD13R,0.0197X0.0197*%
%ADD14C,0.0079*%
%ADD15C,0.0050*%
%ADD16C,0.0240*%
D10*
X002296Y002172D03*
D11*
X002296Y001424D03*
X002493Y001424D03*
X002690Y001424D03*
X002099Y001424D03*
X001903Y001424D03*
X001903Y002920D03*
X002099Y002920D03*
X002296Y002920D03*
X002493Y002920D03*
X002690Y002920D03*
D12*
X003044Y002566D03*
X003044Y002369D03*
X003044Y002172D03*
X003044Y001975D03*
X003044Y001779D03*
X001548Y001779D03*
X001548Y001975D03*
X001548Y002172D03*
X001548Y002369D03*
X001548Y002566D03*
D13*
X002025Y003512D03*
X002025Y003912D03*
X002549Y003696D03*
X002949Y003696D03*
X003414Y003443D03*
X003414Y003043D03*
D14*
X001212Y000859D02*
X000835Y000859D01*
X000768Y000936D02*
X001127Y000936D01*
X001138Y000922D02*
X001150Y000921D01*
X001157Y000913D01*
X001298Y000773D01*
X001948Y000773D01*
X001959Y000745D01*
X002046Y000658D01*
X002160Y000611D01*
X002283Y000611D01*
X002397Y000658D01*
X002484Y000745D01*
X002503Y000792D01*
X002535Y000792D01*
X002649Y000839D01*
X002736Y000926D01*
X002783Y001040D01*
X002783Y001077D01*
X002828Y001077D01*
X002842Y001091D01*
X002841Y001091D01*
X002842Y001091D02*
X002903Y001031D01*
X002940Y000994D01*
X002986Y000896D01*
X003007Y000847D01*
X003013Y000841D01*
X003028Y000809D01*
X003028Y000809D01*
X003028Y000809D01*
X003054Y000800D01*
X003094Y000760D01*
X003207Y000713D01*
X003330Y000713D01*
X003444Y000760D01*
X003531Y000847D01*
X003578Y000961D01*
X003578Y001084D01*
X003531Y001198D01*
X003444Y001285D01*
X003380Y001311D01*
X003361Y001331D01*
X003332Y001331D01*
X003330Y001332D01*
X003271Y001332D01*
X003207Y001333D01*
X003206Y001334D01*
X003009Y001530D01*
X003280Y001530D01*
X003314Y001564D01*
X003345Y001564D01*
X003358Y001550D01*
X003369Y001485D01*
X003369Y001449D01*
X003379Y001425D01*
X003388Y001372D01*
X003388Y001372D01*
X003388Y001372D01*
X003406Y001359D01*
X003416Y001336D01*
X003503Y001249D01*
X003617Y001201D01*
X003740Y001201D01*
X003853Y001249D01*
X003940Y001336D01*
X003988Y001449D01*
X003988Y001572D01*
X004066Y001651D01*
X004114Y001764D01*
X004114Y001887D01*
X004077Y001976D01*
X004102Y002001D01*
X004149Y002115D01*
X004149Y002238D01*
X004102Y002351D01*
X004089Y002365D01*
X004133Y002473D01*
X004133Y002596D01*
X004086Y002710D01*
X003999Y002797D01*
X003885Y002844D01*
X003762Y002844D01*
X003649Y002797D01*
X003562Y002710D01*
X003558Y002701D01*
X003543Y002691D01*
X003528Y002629D01*
X003519Y002607D01*
X003391Y002607D01*
X003391Y002703D01*
X003286Y002808D01*
X003298Y002805D01*
X003405Y002805D01*
X003405Y003033D01*
X003424Y003033D01*
X003424Y002805D01*
X003531Y002805D01*
X003567Y002815D01*
X003598Y002833D01*
X003624Y002859D01*
X003643Y002891D01*
X003652Y002926D01*
X003652Y003033D01*
X003424Y003033D01*
X003424Y003053D01*
X003652Y003053D01*
X003652Y003160D01*
X003643Y003195D01*
X003639Y003203D01*
X003702Y003266D01*
X003702Y003548D01*
X003858Y003371D01*
X004001Y003156D01*
X004115Y002926D01*
X004198Y002682D01*
X004248Y002429D01*
X004265Y002172D01*
X004149Y002172D01*
X004141Y002095D02*
X004260Y002095D01*
X004255Y002018D02*
X004109Y002018D01*
X004092Y001941D02*
X004250Y001941D01*
X004248Y001915D02*
X004198Y001663D01*
X004115Y001419D01*
X004001Y001188D01*
X003858Y000974D01*
X003688Y000780D01*
X003495Y000611D01*
X003281Y000467D01*
X003050Y000354D01*
X002806Y000271D01*
X002553Y000221D01*
X002296Y000204D01*
X002039Y000221D01*
X001787Y000271D01*
X001543Y000354D01*
X001312Y000467D01*
X001098Y000611D01*
X000904Y000780D01*
X000735Y000974D01*
X000704Y001020D01*
X000783Y001020D01*
X000897Y001067D01*
X000960Y001130D01*
X000993Y001097D01*
X001007Y001080D01*
X001007Y001064D01*
X001063Y001008D01*
X001078Y000968D01*
X001114Y000952D01*
X001138Y000922D01*
X001057Y001014D02*
X000708Y001014D01*
X000920Y001091D02*
X000998Y001091D01*
X000903Y000782D02*
X001289Y000782D01*
X001079Y000627D02*
X002120Y000627D01*
X002000Y000705D02*
X000991Y000705D01*
X001188Y000550D02*
X003404Y000550D01*
X003514Y000627D02*
X002323Y000627D01*
X002443Y000705D02*
X003602Y000705D01*
X003690Y000782D02*
X003466Y000782D01*
X003536Y000859D02*
X003757Y000859D01*
X003825Y000936D02*
X003568Y000936D01*
X003578Y001014D02*
X003885Y001014D01*
X003936Y001091D02*
X003575Y001091D01*
X003543Y001168D02*
X003988Y001168D01*
X004029Y001245D02*
X003846Y001245D01*
X003928Y001323D02*
X004067Y001323D01*
X004106Y001400D02*
X003967Y001400D01*
X003988Y001477D02*
X004135Y001477D01*
X004161Y001554D02*
X003988Y001554D01*
X004048Y001632D02*
X004187Y001632D01*
X004207Y001709D02*
X004091Y001709D01*
X004114Y001786D02*
X004222Y001786D01*
X004238Y001863D02*
X004114Y001863D01*
X004248Y001915D02*
X004265Y002172D01*
X004260Y002249D02*
X004144Y002249D01*
X004112Y002327D02*
X004255Y002327D01*
X004250Y002404D02*
X004105Y002404D01*
X004133Y002481D02*
X004238Y002481D01*
X004222Y002558D02*
X004133Y002558D01*
X004117Y002636D02*
X004207Y002636D01*
X004187Y002713D02*
X004083Y002713D01*
X004006Y002790D02*
X004161Y002790D01*
X004135Y002867D02*
X003629Y002867D01*
X003642Y002790D02*
X003304Y002790D01*
X003382Y002713D02*
X003565Y002713D01*
X003530Y002636D02*
X003391Y002636D01*
X003405Y002867D02*
X003424Y002867D01*
X003424Y002945D02*
X003405Y002945D01*
X003405Y003022D02*
X003424Y003022D01*
X003405Y003033D02*
X003177Y003033D01*
X003177Y003012D01*
X003160Y003029D01*
X003035Y003154D01*
X002938Y003154D01*
X002938Y003156D01*
X002844Y003251D01*
X002845Y003260D01*
X002852Y003267D01*
X002993Y003408D01*
X003126Y003408D01*
X003127Y003409D01*
X003127Y003266D01*
X003190Y003203D01*
X003186Y003195D01*
X003177Y003160D01*
X003177Y003053D01*
X003405Y003053D01*
X003405Y003033D01*
X003177Y003022D02*
X003167Y003022D01*
X003177Y003099D02*
X003090Y003099D01*
X003181Y003176D02*
X002918Y003176D01*
X002844Y003254D02*
X003139Y003254D01*
X003127Y003331D02*
X002916Y003331D01*
X003126Y003408D02*
X003127Y003408D01*
X002661Y003686D02*
X002559Y003686D01*
X002559Y003706D01*
X002539Y003706D01*
X002539Y003934D01*
X002432Y003934D01*
X002397Y003924D01*
X002365Y003906D01*
X002339Y003880D01*
X002321Y003848D01*
X002311Y003813D01*
X002311Y003706D01*
X002539Y003706D01*
X002539Y003686D01*
X002312Y003686D01*
X002312Y003688D01*
X002249Y003752D01*
X002253Y003759D01*
X002262Y003795D01*
X002262Y003902D01*
X002035Y003902D01*
X002035Y003921D01*
X002262Y003921D01*
X002262Y004028D01*
X002253Y004064D01*
X002235Y004096D01*
X002209Y004122D01*
X002188Y004134D01*
X002296Y004141D01*
X002553Y004124D01*
X002806Y004074D01*
X003050Y003991D01*
X003064Y003984D01*
X002772Y003984D01*
X002709Y003920D01*
X002701Y003924D01*
X002666Y003934D01*
X002559Y003934D01*
X002559Y003706D01*
X002661Y003706D01*
X002661Y003686D01*
X002559Y003686D02*
X002559Y003581D01*
X002557Y003578D01*
X002552Y003579D01*
X002539Y003584D01*
X002539Y003686D01*
X002559Y003686D01*
X002559Y003717D02*
X002539Y003717D01*
X002539Y003640D02*
X002559Y003640D01*
X002559Y003794D02*
X002539Y003794D01*
X002539Y003872D02*
X002559Y003872D01*
X002737Y003949D02*
X002262Y003949D01*
X002262Y004026D02*
X002946Y004026D01*
X002657Y004103D02*
X002227Y004103D01*
X002015Y003921D02*
X002015Y003902D01*
X001787Y003902D01*
X001787Y003795D01*
X001796Y003759D01*
X001801Y003752D01*
X001737Y003688D01*
X001737Y003335D01*
X001848Y003224D01*
X002009Y003224D01*
X002017Y003216D01*
X002001Y003211D01*
X001980Y003217D01*
X001903Y003217D01*
X001903Y003102D01*
X001903Y003102D01*
X001903Y003217D01*
X001825Y003217D01*
X001790Y003208D01*
X001758Y003189D01*
X001732Y003163D01*
X001714Y003132D01*
X001704Y003096D01*
X001704Y002920D01*
X001704Y002832D01*
X001686Y002814D01*
X001312Y002814D01*
X001278Y002780D01*
X000932Y002780D01*
X000926Y002787D01*
X000913Y002842D01*
X000913Y002868D01*
X000899Y002901D01*
X000884Y002963D01*
X000869Y002972D01*
X000866Y002981D01*
X000779Y003068D01*
X000665Y003115D01*
X000571Y003115D01*
X000592Y003156D01*
X000735Y003371D01*
X000904Y003564D01*
X001098Y003734D01*
X001312Y003877D01*
X001543Y003991D01*
X001787Y004074D01*
X001804Y004077D01*
X001796Y004064D01*
X001787Y004028D01*
X001787Y003921D01*
X002015Y003921D01*
X002262Y003872D02*
X002334Y003872D01*
X002311Y003794D02*
X002262Y003794D01*
X002284Y003717D02*
X002311Y003717D01*
X001818Y003254D02*
X000656Y003254D01*
X000605Y003176D02*
X001745Y003176D01*
X001705Y003099D02*
X000704Y003099D01*
X000825Y003022D02*
X001704Y003022D01*
X001704Y002945D02*
X000889Y002945D01*
X000913Y002867D02*
X001704Y002867D01*
X001704Y002920D02*
X001903Y002920D01*
X001903Y002920D01*
X002048Y002920D01*
X002048Y002920D01*
X001903Y002920D01*
X001903Y002920D01*
X001704Y002920D01*
X001903Y003176D02*
X001903Y003176D01*
X001741Y003331D02*
X000708Y003331D01*
X000768Y003408D02*
X001737Y003408D01*
X001737Y003485D02*
X000835Y003485D01*
X000903Y003563D02*
X001737Y003563D01*
X001737Y003640D02*
X000991Y003640D01*
X001079Y003717D02*
X001765Y003717D01*
X001787Y003794D02*
X001188Y003794D01*
X001304Y003872D02*
X001787Y003872D01*
X001787Y003949D02*
X001458Y003949D01*
X001646Y004026D02*
X001787Y004026D01*
X001288Y002790D02*
X000925Y002790D01*
X002772Y001014D02*
X002919Y001014D01*
X002967Y000936D02*
X002740Y000936D01*
X002669Y000859D02*
X003002Y000859D01*
X003072Y000782D02*
X002499Y000782D01*
X002946Y000318D02*
X001646Y000318D01*
X001458Y000396D02*
X003135Y000396D01*
X003289Y000473D02*
X001304Y000473D01*
X001936Y000241D02*
X002657Y000241D01*
X003484Y001245D02*
X003511Y001245D01*
X003429Y001323D02*
X003369Y001323D01*
X003383Y001400D02*
X003140Y001400D01*
X003062Y001477D02*
X003369Y001477D01*
X003354Y001554D02*
X003304Y001554D01*
X003652Y002945D02*
X004106Y002945D01*
X004067Y003022D02*
X003652Y003022D01*
X003652Y003099D02*
X004029Y003099D01*
X003988Y003176D02*
X003648Y003176D01*
X003690Y003254D02*
X003936Y003254D01*
X003885Y003331D02*
X003702Y003331D01*
X003702Y003408D02*
X003825Y003408D01*
X003757Y003485D02*
X003702Y003485D01*
D15*
X003414Y003443D02*
X003162Y003696D01*
X002949Y003696D01*
X002949Y003668D01*
X002638Y003356D01*
X002559Y003225D01*
X002477Y003275D01*
X002397Y003224D01*
X002477Y003095D01*
X002558Y003224D01*
X002477Y003275D01*
X002486Y003369D01*
X002638Y003356D01*
X002556Y003275D01*
X002477Y003275D01*
X002427Y003355D01*
X002297Y003275D01*
X002427Y003194D01*
X002477Y003275D01*
X002477Y003095D01*
X002477Y002936D01*
X002493Y002920D01*
X002477Y002920D01*
X002493Y002920D02*
X002690Y002920D01*
X002710Y002940D01*
X002946Y002940D01*
X003044Y002842D01*
X003044Y002566D01*
X003068Y002393D02*
X003682Y002393D01*
X003697Y002407D01*
X003731Y002556D01*
X003824Y002534D01*
X003846Y002442D01*
X003697Y002407D01*
X003824Y002534D01*
X003788Y002256D02*
X003840Y002176D01*
X003791Y002094D01*
X003660Y002172D01*
X003788Y002256D01*
X003840Y002176D02*
X003836Y002172D01*
X003660Y002172D01*
X003044Y002172D01*
X003044Y001975D02*
X003655Y001975D01*
X003677Y001953D01*
X003826Y001918D01*
X003804Y001826D01*
X003712Y001804D01*
X003677Y001953D01*
X003804Y001826D01*
X003706Y001602D02*
X003678Y001511D01*
X003585Y001495D01*
X003559Y001646D01*
X003706Y001602D01*
X003678Y001511D02*
X003559Y001646D01*
X003442Y001779D01*
X003044Y001779D01*
X002690Y001424D02*
X002737Y001377D01*
X002859Y001377D01*
X003117Y001119D01*
X003270Y001118D01*
X003269Y001023D01*
X003183Y000982D01*
X003117Y001119D01*
X003178Y001058D01*
X003269Y001023D01*
X002559Y001142D02*
X002474Y001101D01*
X002399Y001160D01*
X002493Y001280D01*
X002559Y001142D01*
X002493Y001121D02*
X002474Y001101D01*
X002493Y001121D02*
X002493Y001280D01*
X002493Y001424D01*
X002300Y001420D02*
X002296Y001424D01*
X002269Y001424D01*
X002269Y001094D01*
X002313Y000947D01*
X002222Y000920D01*
X002157Y000990D01*
X002269Y001094D01*
X002269Y000968D01*
X002222Y000920D01*
X002084Y001101D02*
X002084Y001408D01*
X002083Y001408D02*
X002084Y001414D01*
X002088Y001419D01*
X002093Y001423D01*
X002099Y001424D01*
X002111Y001412D01*
X001903Y001424D02*
X001552Y001424D01*
X001434Y001542D01*
X001332Y001542D01*
X001179Y001534D01*
X001174Y001629D01*
X001257Y001676D01*
X001332Y001542D01*
X001257Y001542D01*
X001174Y001629D01*
X001320Y001779D02*
X001548Y001779D01*
X001548Y001975D02*
X000895Y001975D01*
X000715Y001796D01*
X000680Y001647D01*
X000588Y001668D01*
X000566Y001761D01*
X000715Y001796D01*
X000588Y001668D01*
X000700Y001422D02*
X000849Y001457D01*
X000814Y001308D01*
X000722Y001330D01*
X000700Y001422D01*
X000722Y001330D02*
X000849Y001457D01*
X000942Y001550D01*
X000942Y001814D01*
X000989Y001861D01*
X001237Y001861D01*
X001320Y001779D01*
X001548Y002172D02*
X000651Y002172D01*
X000632Y002154D01*
X000598Y002005D01*
X000505Y002027D01*
X000483Y002119D01*
X000632Y002154D01*
X000505Y002027D01*
X000550Y002309D02*
X000513Y002397D01*
X000575Y002469D01*
X000691Y002369D01*
X000550Y002309D01*
X000540Y002369D02*
X000513Y002397D01*
X000540Y002369D02*
X000691Y002369D01*
X001548Y002369D01*
X001548Y002566D02*
X000844Y002566D01*
X000731Y002679D01*
X000582Y002714D01*
X000603Y002806D01*
X000696Y002828D01*
X000731Y002679D01*
X000603Y002806D01*
X002025Y003512D02*
X002262Y003275D01*
X002297Y003275D01*
X002477Y003275D01*
X002549Y003612D02*
X002549Y003696D01*
X002560Y003696D01*
X002560Y003776D01*
X002479Y003906D01*
X002560Y003956D01*
X002641Y003906D01*
X002560Y003776D01*
X002560Y003956D01*
X002333Y003912D02*
X002025Y003912D01*
X002333Y003912D02*
X002549Y003696D01*
X003213Y002886D02*
X003341Y002969D01*
X003359Y002818D01*
X003265Y002806D01*
X003213Y002886D01*
X003265Y002894D02*
X003265Y002806D01*
X003265Y002894D02*
X003341Y002969D01*
X003414Y003043D01*
X003068Y002393D02*
X003044Y002369D01*
X002084Y001101D02*
X001970Y000987D01*
X001387Y000987D01*
X001246Y001128D01*
X001149Y001245D01*
X001222Y001306D01*
X001308Y001268D01*
X001246Y001128D01*
X001222Y001153D01*
X001222Y001306D01*
D16*
X001222Y001306D03*
X001174Y001629D03*
X000722Y001330D03*
X000588Y001668D03*
X000505Y002027D03*
X000513Y002397D03*
X000603Y002806D03*
X001076Y003223D03*
X002477Y003275D03*
X002560Y003956D03*
X003265Y002806D03*
X003824Y002534D03*
X003840Y002176D03*
X003804Y001826D03*
X003678Y001511D03*
X003261Y001527D03*
X003269Y001023D03*
X003096Y000672D03*
X002474Y001101D03*
X002222Y000920D03*
M02*
