G75*
%MOIN*%
%OFA0B0*%
%FSLAX24Y24*%
%IPPOS*%
%LPD*%
%AMOC8*
5,1,8,0,0,1.08239X$1,22.5*
%
%ADD10C,0.0010*%
%ADD11C,0.0150*%
%ADD12C,0.0080*%
%ADD13C,0.0217*%
%ADD14C,0.0050*%
D10*
X000200Y002750D02*
X000202Y002847D01*
X000208Y002944D01*
X000218Y003041D01*
X000232Y003138D01*
X000250Y003233D01*
X000272Y003328D01*
X000297Y003422D01*
X000327Y003515D01*
X000360Y003606D01*
X000397Y003696D01*
X000438Y003785D01*
X000482Y003871D01*
X000530Y003956D01*
X000581Y004039D01*
X000636Y004119D01*
X000693Y004198D01*
X000754Y004273D01*
X000819Y004347D01*
X000886Y004417D01*
X000955Y004485D01*
X001028Y004550D01*
X001103Y004612D01*
X001181Y004670D01*
X001261Y004726D01*
X001343Y004778D01*
X001427Y004826D01*
X001514Y004872D01*
X001602Y004913D01*
X001691Y004951D01*
X001782Y004985D01*
X001875Y005016D01*
X001968Y005042D01*
X002063Y005065D01*
X002158Y005084D01*
X002255Y005099D01*
X002351Y005110D01*
X002448Y005117D01*
X002546Y005120D01*
X002643Y005119D01*
X002740Y005114D01*
X002837Y005105D01*
X002934Y005092D01*
X003029Y005075D01*
X003124Y005054D01*
X003219Y005030D01*
X003312Y005001D01*
X003403Y004969D01*
X003494Y004933D01*
X003583Y004893D01*
X003670Y004849D01*
X003755Y004802D01*
X003838Y004752D01*
X003919Y004698D01*
X003998Y004641D01*
X004075Y004581D01*
X004149Y004518D01*
X004220Y004451D01*
X004288Y004382D01*
X004354Y004310D01*
X004416Y004236D01*
X004476Y004159D01*
X004532Y004079D01*
X004585Y003998D01*
X004635Y003914D01*
X004681Y003828D01*
X004723Y003741D01*
X004762Y003651D01*
X004797Y003561D01*
X004828Y003468D01*
X004856Y003375D01*
X004880Y003281D01*
X004900Y003185D01*
X004916Y003089D01*
X004928Y002993D01*
X004936Y002896D01*
X004940Y002799D01*
X004940Y002701D01*
X004936Y002604D01*
X004928Y002507D01*
X004916Y002411D01*
X004900Y002315D01*
X004880Y002219D01*
X004856Y002125D01*
X004828Y002032D01*
X004797Y001939D01*
X004762Y001849D01*
X004723Y001759D01*
X004681Y001672D01*
X004635Y001586D01*
X004585Y001502D01*
X004532Y001421D01*
X004476Y001341D01*
X004416Y001264D01*
X004354Y001190D01*
X004288Y001118D01*
X004220Y001049D01*
X004149Y000982D01*
X004075Y000919D01*
X003998Y000859D01*
X003919Y000802D01*
X003838Y000748D01*
X003755Y000698D01*
X003670Y000651D01*
X003583Y000607D01*
X003494Y000567D01*
X003403Y000531D01*
X003312Y000499D01*
X003219Y000470D01*
X003124Y000446D01*
X003029Y000425D01*
X002934Y000408D01*
X002837Y000395D01*
X002740Y000386D01*
X002643Y000381D01*
X002546Y000380D01*
X002448Y000383D01*
X002351Y000390D01*
X002255Y000401D01*
X002158Y000416D01*
X002063Y000435D01*
X001968Y000458D01*
X001875Y000484D01*
X001782Y000515D01*
X001691Y000549D01*
X001602Y000587D01*
X001514Y000628D01*
X001427Y000674D01*
X001343Y000722D01*
X001261Y000774D01*
X001181Y000830D01*
X001103Y000888D01*
X001028Y000950D01*
X000955Y001015D01*
X000886Y001083D01*
X000819Y001153D01*
X000754Y001227D01*
X000693Y001302D01*
X000636Y001381D01*
X000581Y001461D01*
X000530Y001544D01*
X000482Y001629D01*
X000438Y001715D01*
X000397Y001804D01*
X000360Y001894D01*
X000327Y001985D01*
X000297Y002078D01*
X000272Y002172D01*
X000250Y002267D01*
X000232Y002362D01*
X000218Y002459D01*
X000208Y002556D01*
X000202Y002653D01*
X000200Y002750D01*
D11*
X001380Y004320D02*
X001382Y004340D01*
X001388Y004358D01*
X001397Y004376D01*
X001409Y004391D01*
X001424Y004403D01*
X001442Y004412D01*
X001460Y004418D01*
X001480Y004420D01*
X001500Y004418D01*
X001518Y004412D01*
X001536Y004403D01*
X001551Y004391D01*
X001563Y004376D01*
X001572Y004358D01*
X001578Y004340D01*
X001580Y004320D01*
X001578Y004300D01*
X001572Y004282D01*
X001563Y004264D01*
X001551Y004249D01*
X001536Y004237D01*
X001518Y004228D01*
X001500Y004222D01*
X001480Y004220D01*
X001460Y004222D01*
X001442Y004228D01*
X001424Y004237D01*
X001409Y004249D01*
X001397Y004264D01*
X001388Y004282D01*
X001382Y004300D01*
X001380Y004320D01*
D12*
X003519Y003381D02*
X003519Y002279D01*
X004621Y002279D02*
X004621Y003381D01*
D13*
X004699Y002078D03*
D14*
X003161Y001009D02*
X001979Y001009D01*
X001979Y004493D02*
X003161Y004493D01*
M02*
