G75*
%MOIN*%
%OFA0B0*%
%FSLAX24Y24*%
%IPPOS*%
%LPD*%
%AMOC8*
5,1,8,0,0,1.08239X$1,22.5*
%
%ADD10R,0.0937X0.0650*%
%ADD11C,0.0030*%
%ADD12R,0.0197X0.0197*%
%ADD13R,0.0276X0.0087*%
%ADD14R,0.0197X0.0394*%
D10*
X004070Y002830D03*
D11*
X004026Y002372D02*
X004114Y002372D01*
X004114Y002068D01*
X004026Y002068D01*
X004026Y002372D01*
X004026Y002097D02*
X004114Y002097D01*
X004114Y002126D02*
X004026Y002126D01*
X004026Y002155D02*
X004114Y002155D01*
X004114Y002184D02*
X004026Y002184D01*
X004026Y002213D02*
X004114Y002213D01*
X004114Y002242D02*
X004026Y002242D01*
X004026Y002271D02*
X004114Y002271D01*
X004114Y002300D02*
X004026Y002300D01*
X004026Y002329D02*
X004114Y002329D01*
X004114Y002358D02*
X004026Y002358D01*
X003917Y002372D02*
X003829Y002372D01*
X003917Y002372D02*
X003917Y002068D01*
X003829Y002068D01*
X003829Y002372D01*
X003829Y002097D02*
X003917Y002097D01*
X003917Y002126D02*
X003829Y002126D01*
X003829Y002155D02*
X003917Y002155D01*
X003917Y002184D02*
X003829Y002184D01*
X003829Y002213D02*
X003917Y002213D01*
X003917Y002242D02*
X003829Y002242D01*
X003829Y002271D02*
X003917Y002271D01*
X003917Y002300D02*
X003829Y002300D01*
X003829Y002329D02*
X003917Y002329D01*
X003917Y002358D02*
X003829Y002358D01*
X003720Y002372D02*
X003632Y002372D01*
X003720Y002372D02*
X003720Y002068D01*
X003632Y002068D01*
X003632Y002372D01*
X003632Y002097D02*
X003720Y002097D01*
X003720Y002126D02*
X003632Y002126D01*
X003632Y002155D02*
X003720Y002155D01*
X003720Y002184D02*
X003632Y002184D01*
X003632Y002213D02*
X003720Y002213D01*
X003720Y002242D02*
X003632Y002242D01*
X003632Y002271D02*
X003720Y002271D01*
X003720Y002300D02*
X003632Y002300D01*
X003632Y002329D02*
X003720Y002329D01*
X003720Y002358D02*
X003632Y002358D01*
X004223Y002372D02*
X004311Y002372D01*
X004311Y002068D01*
X004223Y002068D01*
X004223Y002372D01*
X004223Y002097D02*
X004311Y002097D01*
X004311Y002126D02*
X004223Y002126D01*
X004223Y002155D02*
X004311Y002155D01*
X004311Y002184D02*
X004223Y002184D01*
X004223Y002213D02*
X004311Y002213D01*
X004311Y002242D02*
X004223Y002242D01*
X004223Y002271D02*
X004311Y002271D01*
X004311Y002300D02*
X004223Y002300D01*
X004223Y002329D02*
X004311Y002329D01*
X004311Y002358D02*
X004223Y002358D01*
X004420Y002372D02*
X004508Y002372D01*
X004508Y002068D01*
X004420Y002068D01*
X004420Y002372D01*
X004420Y002097D02*
X004508Y002097D01*
X004508Y002126D02*
X004420Y002126D01*
X004420Y002155D02*
X004508Y002155D01*
X004508Y002184D02*
X004420Y002184D01*
X004420Y002213D02*
X004508Y002213D01*
X004508Y002242D02*
X004420Y002242D01*
X004420Y002271D02*
X004508Y002271D01*
X004508Y002300D02*
X004420Y002300D01*
X004420Y002329D02*
X004508Y002329D01*
X004508Y002358D02*
X004420Y002358D01*
X004420Y003592D02*
X004508Y003592D01*
X004508Y003288D01*
X004420Y003288D01*
X004420Y003592D01*
X004420Y003317D02*
X004508Y003317D01*
X004508Y003346D02*
X004420Y003346D01*
X004420Y003375D02*
X004508Y003375D01*
X004508Y003404D02*
X004420Y003404D01*
X004420Y003433D02*
X004508Y003433D01*
X004508Y003462D02*
X004420Y003462D01*
X004420Y003491D02*
X004508Y003491D01*
X004508Y003520D02*
X004420Y003520D01*
X004420Y003549D02*
X004508Y003549D01*
X004508Y003578D02*
X004420Y003578D01*
X004311Y003592D02*
X004223Y003592D01*
X004311Y003592D02*
X004311Y003288D01*
X004223Y003288D01*
X004223Y003592D01*
X004223Y003317D02*
X004311Y003317D01*
X004311Y003346D02*
X004223Y003346D01*
X004223Y003375D02*
X004311Y003375D01*
X004311Y003404D02*
X004223Y003404D01*
X004223Y003433D02*
X004311Y003433D01*
X004311Y003462D02*
X004223Y003462D01*
X004223Y003491D02*
X004311Y003491D01*
X004311Y003520D02*
X004223Y003520D01*
X004223Y003549D02*
X004311Y003549D01*
X004311Y003578D02*
X004223Y003578D01*
X004114Y003592D02*
X004026Y003592D01*
X004114Y003592D02*
X004114Y003288D01*
X004026Y003288D01*
X004026Y003592D01*
X004026Y003317D02*
X004114Y003317D01*
X004114Y003346D02*
X004026Y003346D01*
X004026Y003375D02*
X004114Y003375D01*
X004114Y003404D02*
X004026Y003404D01*
X004026Y003433D02*
X004114Y003433D01*
X004114Y003462D02*
X004026Y003462D01*
X004026Y003491D02*
X004114Y003491D01*
X004114Y003520D02*
X004026Y003520D01*
X004026Y003549D02*
X004114Y003549D01*
X004114Y003578D02*
X004026Y003578D01*
X003917Y003592D02*
X003829Y003592D01*
X003917Y003592D02*
X003917Y003288D01*
X003829Y003288D01*
X003829Y003592D01*
X003829Y003317D02*
X003917Y003317D01*
X003917Y003346D02*
X003829Y003346D01*
X003829Y003375D02*
X003917Y003375D01*
X003917Y003404D02*
X003829Y003404D01*
X003829Y003433D02*
X003917Y003433D01*
X003917Y003462D02*
X003829Y003462D01*
X003829Y003491D02*
X003917Y003491D01*
X003917Y003520D02*
X003829Y003520D01*
X003829Y003549D02*
X003917Y003549D01*
X003917Y003578D02*
X003829Y003578D01*
X003720Y003592D02*
X003632Y003592D01*
X003720Y003592D02*
X003720Y003288D01*
X003632Y003288D01*
X003632Y003592D01*
X003632Y003317D02*
X003720Y003317D01*
X003720Y003346D02*
X003632Y003346D01*
X003632Y003375D02*
X003720Y003375D01*
X003720Y003404D02*
X003632Y003404D01*
X003632Y003433D02*
X003720Y003433D01*
X003720Y003462D02*
X003632Y003462D01*
X003632Y003491D02*
X003720Y003491D01*
X003720Y003520D02*
X003632Y003520D01*
X003632Y003549D02*
X003720Y003549D01*
X003720Y003578D02*
X003632Y003578D01*
D12*
X001080Y002720D03*
X001080Y002320D03*
D13*
X001960Y001648D03*
X001960Y001805D03*
X001960Y001963D03*
X001960Y002120D03*
X001960Y002278D03*
X001960Y002435D03*
X001960Y002593D03*
X001960Y002750D03*
X001960Y002907D03*
X001960Y003065D03*
X001960Y003222D03*
X001960Y003380D03*
X001960Y003537D03*
X001960Y003695D03*
X001960Y003852D03*
X003180Y003852D03*
X003180Y003695D03*
X003180Y003537D03*
X003180Y003380D03*
X003180Y003222D03*
X003180Y003065D03*
X003180Y002907D03*
X003180Y002750D03*
X003180Y002593D03*
X003180Y002435D03*
X003180Y002278D03*
X003180Y002120D03*
X003180Y001963D03*
X003180Y001805D03*
X003180Y001648D03*
D14*
X003141Y001274D03*
X001999Y001274D03*
X001999Y004226D03*
X003141Y004226D03*
M02*
