G75*
%MOIN*%
%OFA0B0*%
%FSLAX24Y24*%
%IPPOS*%
%LPD*%
%AMOC8*
5,1,8,0,0,1.08239X$1,22.5*
%
%ADD10R,0.0937X0.0650*%
%ADD11C,0.0030*%
%ADD12R,0.0197X0.0197*%
%ADD13R,0.0276X0.0087*%
%ADD14R,0.0197X0.0394*%
%ADD15C,0.0180*%
%ADD16C,0.0070*%
%ADD17C,0.0055*%
%ADD18C,0.0230*%
%ADD19C,0.0237*%
D10*
X004070Y002830D03*
D11*
X004026Y002372D02*
X004114Y002372D01*
X004114Y002068D01*
X004026Y002068D01*
X004026Y002372D01*
X004026Y002097D02*
X004114Y002097D01*
X004114Y002126D02*
X004026Y002126D01*
X004026Y002155D02*
X004114Y002155D01*
X004114Y002184D02*
X004026Y002184D01*
X004026Y002213D02*
X004114Y002213D01*
X004114Y002242D02*
X004026Y002242D01*
X004026Y002271D02*
X004114Y002271D01*
X004114Y002300D02*
X004026Y002300D01*
X004026Y002329D02*
X004114Y002329D01*
X004114Y002358D02*
X004026Y002358D01*
X003917Y002372D02*
X003829Y002372D01*
X003917Y002372D02*
X003917Y002068D01*
X003829Y002068D01*
X003829Y002372D01*
X003829Y002097D02*
X003917Y002097D01*
X003917Y002126D02*
X003829Y002126D01*
X003829Y002155D02*
X003917Y002155D01*
X003917Y002184D02*
X003829Y002184D01*
X003829Y002213D02*
X003917Y002213D01*
X003917Y002242D02*
X003829Y002242D01*
X003829Y002271D02*
X003917Y002271D01*
X003917Y002300D02*
X003829Y002300D01*
X003829Y002329D02*
X003917Y002329D01*
X003917Y002358D02*
X003829Y002358D01*
X003720Y002372D02*
X003632Y002372D01*
X003720Y002372D02*
X003720Y002068D01*
X003632Y002068D01*
X003632Y002372D01*
X003632Y002097D02*
X003720Y002097D01*
X003720Y002126D02*
X003632Y002126D01*
X003632Y002155D02*
X003720Y002155D01*
X003720Y002184D02*
X003632Y002184D01*
X003632Y002213D02*
X003720Y002213D01*
X003720Y002242D02*
X003632Y002242D01*
X003632Y002271D02*
X003720Y002271D01*
X003720Y002300D02*
X003632Y002300D01*
X003632Y002329D02*
X003720Y002329D01*
X003720Y002358D02*
X003632Y002358D01*
X004223Y002372D02*
X004311Y002372D01*
X004311Y002068D01*
X004223Y002068D01*
X004223Y002372D01*
X004223Y002097D02*
X004311Y002097D01*
X004311Y002126D02*
X004223Y002126D01*
X004223Y002155D02*
X004311Y002155D01*
X004311Y002184D02*
X004223Y002184D01*
X004223Y002213D02*
X004311Y002213D01*
X004311Y002242D02*
X004223Y002242D01*
X004223Y002271D02*
X004311Y002271D01*
X004311Y002300D02*
X004223Y002300D01*
X004223Y002329D02*
X004311Y002329D01*
X004311Y002358D02*
X004223Y002358D01*
X004420Y002372D02*
X004508Y002372D01*
X004508Y002068D01*
X004420Y002068D01*
X004420Y002372D01*
X004420Y002097D02*
X004508Y002097D01*
X004508Y002126D02*
X004420Y002126D01*
X004420Y002155D02*
X004508Y002155D01*
X004508Y002184D02*
X004420Y002184D01*
X004420Y002213D02*
X004508Y002213D01*
X004508Y002242D02*
X004420Y002242D01*
X004420Y002271D02*
X004508Y002271D01*
X004508Y002300D02*
X004420Y002300D01*
X004420Y002329D02*
X004508Y002329D01*
X004508Y002358D02*
X004420Y002358D01*
X004420Y003592D02*
X004508Y003592D01*
X004508Y003288D01*
X004420Y003288D01*
X004420Y003592D01*
X004420Y003317D02*
X004508Y003317D01*
X004508Y003346D02*
X004420Y003346D01*
X004420Y003375D02*
X004508Y003375D01*
X004508Y003404D02*
X004420Y003404D01*
X004420Y003433D02*
X004508Y003433D01*
X004508Y003462D02*
X004420Y003462D01*
X004420Y003491D02*
X004508Y003491D01*
X004508Y003520D02*
X004420Y003520D01*
X004420Y003549D02*
X004508Y003549D01*
X004508Y003578D02*
X004420Y003578D01*
X004311Y003592D02*
X004223Y003592D01*
X004311Y003592D02*
X004311Y003288D01*
X004223Y003288D01*
X004223Y003592D01*
X004223Y003317D02*
X004311Y003317D01*
X004311Y003346D02*
X004223Y003346D01*
X004223Y003375D02*
X004311Y003375D01*
X004311Y003404D02*
X004223Y003404D01*
X004223Y003433D02*
X004311Y003433D01*
X004311Y003462D02*
X004223Y003462D01*
X004223Y003491D02*
X004311Y003491D01*
X004311Y003520D02*
X004223Y003520D01*
X004223Y003549D02*
X004311Y003549D01*
X004311Y003578D02*
X004223Y003578D01*
X004114Y003592D02*
X004026Y003592D01*
X004114Y003592D02*
X004114Y003288D01*
X004026Y003288D01*
X004026Y003592D01*
X004026Y003317D02*
X004114Y003317D01*
X004114Y003346D02*
X004026Y003346D01*
X004026Y003375D02*
X004114Y003375D01*
X004114Y003404D02*
X004026Y003404D01*
X004026Y003433D02*
X004114Y003433D01*
X004114Y003462D02*
X004026Y003462D01*
X004026Y003491D02*
X004114Y003491D01*
X004114Y003520D02*
X004026Y003520D01*
X004026Y003549D02*
X004114Y003549D01*
X004114Y003578D02*
X004026Y003578D01*
X003917Y003592D02*
X003829Y003592D01*
X003917Y003592D02*
X003917Y003288D01*
X003829Y003288D01*
X003829Y003592D01*
X003829Y003317D02*
X003917Y003317D01*
X003917Y003346D02*
X003829Y003346D01*
X003829Y003375D02*
X003917Y003375D01*
X003917Y003404D02*
X003829Y003404D01*
X003829Y003433D02*
X003917Y003433D01*
X003917Y003462D02*
X003829Y003462D01*
X003829Y003491D02*
X003917Y003491D01*
X003917Y003520D02*
X003829Y003520D01*
X003829Y003549D02*
X003917Y003549D01*
X003917Y003578D02*
X003829Y003578D01*
X003720Y003592D02*
X003632Y003592D01*
X003720Y003592D02*
X003720Y003288D01*
X003632Y003288D01*
X003632Y003592D01*
X003632Y003317D02*
X003720Y003317D01*
X003720Y003346D02*
X003632Y003346D01*
X003632Y003375D02*
X003720Y003375D01*
X003720Y003404D02*
X003632Y003404D01*
X003632Y003433D02*
X003720Y003433D01*
X003720Y003462D02*
X003632Y003462D01*
X003632Y003491D02*
X003720Y003491D01*
X003720Y003520D02*
X003632Y003520D01*
X003632Y003549D02*
X003720Y003549D01*
X003720Y003578D02*
X003632Y003578D01*
D12*
X001080Y002720D03*
X001080Y002320D03*
D13*
X001960Y002278D03*
X001960Y002435D03*
X001960Y002593D03*
X001960Y002750D03*
X001960Y002907D03*
X001960Y003065D03*
X001960Y003222D03*
X001960Y003380D03*
X001960Y003537D03*
X001960Y003695D03*
X001960Y003852D03*
X003180Y003852D03*
X003180Y003695D03*
X003180Y003537D03*
X003180Y003380D03*
X003180Y003222D03*
X003180Y003065D03*
X003180Y002907D03*
X003180Y002750D03*
X003180Y002593D03*
X003180Y002435D03*
X003180Y002278D03*
X003180Y002120D03*
X003180Y001963D03*
X003180Y001805D03*
X003180Y001648D03*
X001960Y001648D03*
X001960Y001805D03*
X001960Y001963D03*
X001960Y002120D03*
D14*
X001999Y001274D03*
X003141Y001274D03*
X003141Y004226D03*
X001999Y004226D03*
D15*
X001640Y003540D03*
X002370Y003250D03*
X001350Y002740D03*
X000820Y002320D03*
X001090Y001910D03*
X002800Y001810D03*
X003490Y001430D03*
X003750Y001610D03*
X004720Y002840D03*
X004035Y003760D03*
X003500Y004590D03*
D16*
X001656Y001174D02*
X001175Y001174D01*
X001252Y001106D02*
X001656Y001106D01*
X001656Y001037D02*
X001329Y001037D01*
X001366Y001005D02*
X000983Y001344D01*
X000783Y001635D01*
X000904Y001685D01*
X001005Y001786D01*
X001060Y001918D01*
X001060Y001977D01*
X001227Y001977D01*
X001317Y002014D01*
X001386Y002083D01*
X001423Y002173D01*
X001423Y002467D01*
X001386Y002557D01*
X001317Y002626D01*
X001313Y002628D01*
X001313Y002706D01*
X001100Y002706D01*
X001100Y002734D01*
X001313Y002734D01*
X001313Y002836D01*
X001304Y002871D01*
X001286Y002901D01*
X001261Y002926D01*
X001231Y002944D01*
X001196Y002953D01*
X001100Y002953D01*
X001100Y003014D01*
X001396Y003310D01*
X001450Y003256D01*
X001573Y003205D01*
X001577Y003205D01*
X001577Y001556D01*
X001614Y001466D01*
X001656Y001424D01*
X001656Y001028D01*
X001693Y000938D01*
X001762Y000869D01*
X001852Y000832D01*
X002146Y000832D01*
X002236Y000869D01*
X002305Y000938D01*
X002343Y001028D01*
X002343Y001360D01*
X002460Y001360D01*
X002460Y000874D01*
X002503Y000771D01*
X002581Y000693D01*
X002581Y000693D01*
X002629Y000645D01*
X002314Y000645D01*
X001818Y000768D01*
X001366Y001005D01*
X001435Y000969D02*
X001680Y000969D01*
X001731Y000900D02*
X001565Y000900D01*
X001696Y000832D02*
X001851Y000832D01*
X001836Y000763D02*
X002511Y000763D01*
X002478Y000832D02*
X002147Y000832D01*
X002268Y000900D02*
X002460Y000900D01*
X002460Y000969D02*
X002318Y000969D01*
X002343Y001037D02*
X002460Y001037D01*
X002460Y001106D02*
X002343Y001106D01*
X002343Y001174D02*
X002460Y001174D01*
X002460Y001243D02*
X002343Y001243D01*
X002343Y001311D02*
X002460Y001311D01*
X002740Y001480D02*
X002740Y000930D01*
X002890Y000780D01*
X003400Y000780D01*
X004480Y001860D01*
X004480Y002203D01*
X004464Y002220D01*
X004267Y002220D02*
X004260Y002213D01*
X004070Y002220D02*
X004070Y002830D01*
X004720Y002840D01*
X004699Y002891D01*
X004570Y002838D01*
X004701Y002789D01*
X004720Y002840D01*
X004682Y002819D02*
X004105Y002819D01*
X004105Y002795D02*
X004105Y002865D01*
X004674Y002865D01*
X004674Y002886D01*
X004690Y002750D01*
X004674Y002750D01*
X004690Y002750D02*
X004674Y002614D01*
X004674Y002795D01*
X004105Y002795D01*
X003619Y002278D02*
X003676Y002220D01*
X003619Y002278D02*
X003180Y002278D01*
X002797Y002270D02*
X002343Y002270D01*
X002343Y002339D02*
X002797Y002339D01*
X002797Y002407D02*
X002343Y002407D01*
X002343Y002476D02*
X002797Y002476D01*
X002797Y002544D02*
X002343Y002544D01*
X002343Y002613D02*
X002797Y002613D01*
X002797Y002681D02*
X002343Y002681D01*
X002343Y002750D02*
X002797Y002750D01*
X002797Y002819D02*
X002343Y002819D01*
X002343Y002887D02*
X002797Y002887D01*
X002797Y002956D02*
X002343Y002956D01*
X002343Y003024D02*
X002797Y003024D01*
X002797Y003093D02*
X002343Y003093D01*
X002343Y003161D02*
X002797Y003161D01*
X002797Y003230D02*
X002343Y003230D01*
X002370Y003250D02*
X002319Y003270D01*
X002370Y003400D01*
X002421Y003270D01*
X002370Y003250D01*
X002421Y003270D01*
X002370Y003400D01*
X002319Y003270D01*
X002370Y003250D01*
X002370Y003400D01*
X002421Y003270D01*
X002343Y003298D02*
X002797Y003298D01*
X002797Y003367D02*
X002343Y003367D01*
X002370Y003400D02*
X002319Y003270D01*
X002370Y003400D02*
X002370Y003695D01*
X001960Y003695D01*
X001960Y003850D02*
X001960Y003852D01*
X001542Y003852D01*
X000820Y003130D01*
X000820Y002470D01*
X000871Y002340D01*
X000820Y002320D01*
X000769Y002340D01*
X000820Y002470D01*
X000769Y002340D01*
X000820Y002320D01*
X000840Y002269D01*
X000970Y002320D01*
X000840Y002371D01*
X000820Y002320D01*
X000871Y002340D01*
X000820Y002470D01*
X000871Y002340D01*
X000840Y002371D02*
X000970Y002320D01*
X000840Y002269D01*
X000970Y002320D01*
X000840Y002371D01*
X000820Y002320D01*
X000840Y002269D01*
X000820Y002320D02*
X000820Y002470D01*
X000769Y002340D01*
X000820Y002320D02*
X000970Y002320D01*
X001080Y002320D01*
X001330Y002613D02*
X001577Y002613D01*
X001577Y002544D02*
X001391Y002544D01*
X001420Y002476D02*
X001577Y002476D01*
X001577Y002407D02*
X001423Y002407D01*
X001423Y002339D02*
X001577Y002339D01*
X001577Y002270D02*
X001423Y002270D01*
X001423Y002202D02*
X001577Y002202D01*
X001577Y002133D02*
X001407Y002133D01*
X001368Y002065D02*
X001577Y002065D01*
X001577Y001996D02*
X001275Y001996D01*
X001060Y001928D02*
X001577Y001928D01*
X001577Y001859D02*
X001036Y001859D01*
X001007Y001791D02*
X001577Y001791D01*
X001577Y001722D02*
X000942Y001722D01*
X000830Y001654D02*
X001577Y001654D01*
X001577Y001585D02*
X000817Y001585D01*
X000864Y001517D02*
X001593Y001517D01*
X001631Y001448D02*
X000911Y001448D01*
X000958Y001380D02*
X001656Y001380D01*
X001656Y001311D02*
X001020Y001311D01*
X001097Y001243D02*
X001656Y001243D01*
X001960Y001648D02*
X001962Y001650D01*
X001972Y001640D01*
X002580Y001640D01*
X002740Y001480D01*
X002820Y001759D02*
X002800Y001810D01*
X002820Y001861D01*
X002950Y001810D01*
X002820Y001759D01*
X002821Y001795D02*
X002739Y001877D01*
X002636Y001920D01*
X002343Y001920D01*
X002343Y002055D01*
X002343Y003629D01*
X002315Y003695D01*
X002343Y003760D01*
X002343Y003944D01*
X002335Y003963D01*
X002343Y003981D01*
X002343Y004472D01*
X002305Y004562D01*
X002236Y004631D01*
X002146Y004668D01*
X001852Y004668D01*
X001762Y004631D01*
X001693Y004562D01*
X001656Y004472D01*
X001656Y004132D01*
X001487Y004132D01*
X001384Y004090D01*
X000661Y003367D01*
X000583Y003289D01*
X000540Y003186D01*
X000540Y002523D01*
X000509Y002446D01*
X000492Y002404D01*
X000450Y002750D01*
X000540Y002750D01*
X000540Y002681D02*
X000458Y002681D01*
X000450Y002750D02*
X000512Y003257D01*
X000693Y003735D01*
X000983Y004156D01*
X001366Y004495D01*
X001818Y004732D01*
X002314Y004855D01*
X002826Y004855D01*
X003322Y004732D01*
X003552Y004612D01*
X003506Y004502D01*
X003506Y004358D01*
X003514Y004338D01*
X003484Y004326D01*
X003484Y004472D01*
X003447Y004562D01*
X003378Y004631D01*
X003288Y004668D01*
X002994Y004668D01*
X002904Y004631D01*
X002835Y004562D01*
X002797Y004472D01*
X002797Y003981D01*
X002805Y003963D01*
X002797Y003944D01*
X002797Y001871D01*
X002825Y001805D01*
X002821Y001795D01*
X002800Y001810D02*
X002950Y001810D01*
X003175Y001810D01*
X003180Y001805D01*
X003185Y001810D01*
X003180Y001648D02*
X003188Y001640D01*
X002802Y001859D02*
X002756Y001859D01*
X002797Y001928D02*
X002343Y001928D01*
X002343Y001996D02*
X002797Y001996D01*
X002797Y002065D02*
X002343Y002065D01*
X002343Y002133D02*
X002797Y002133D01*
X002797Y002202D02*
X002343Y002202D01*
X001577Y002681D02*
X001313Y002681D01*
X001330Y002689D02*
X001350Y002740D01*
X001330Y002791D01*
X001200Y002740D01*
X001330Y002791D01*
X001350Y002740D01*
X001330Y002689D01*
X001200Y002740D01*
X001330Y002689D01*
X001200Y002740D01*
X001330Y002791D01*
X001313Y002819D02*
X001577Y002819D01*
X001577Y002887D02*
X001295Y002887D01*
X001313Y002750D02*
X001577Y002750D01*
X001577Y002956D02*
X001100Y002956D01*
X001110Y003024D02*
X001577Y003024D01*
X001577Y003093D02*
X001178Y003093D01*
X001247Y003161D02*
X001577Y003161D01*
X001514Y003230D02*
X001315Y003230D01*
X001384Y003298D02*
X001408Y003298D01*
X001660Y003489D02*
X001640Y003540D01*
X001660Y003591D01*
X001790Y003540D01*
X001660Y003489D01*
X001790Y003540D01*
X001660Y003591D01*
X001640Y003540D01*
X001660Y003489D01*
X001790Y003540D01*
X001660Y003591D01*
X001640Y003540D02*
X001790Y003540D01*
X001957Y003540D01*
X001960Y003537D01*
X002343Y003504D02*
X002797Y003504D01*
X002797Y003572D02*
X002343Y003572D01*
X002338Y003641D02*
X002797Y003641D01*
X002797Y003709D02*
X002321Y003709D01*
X002343Y003778D02*
X002797Y003778D01*
X002797Y003846D02*
X002343Y003846D01*
X002343Y003915D02*
X002797Y003915D01*
X002797Y003983D02*
X002343Y003983D01*
X002343Y004052D02*
X002797Y004052D01*
X002797Y004120D02*
X002343Y004120D01*
X002343Y004189D02*
X002797Y004189D01*
X002797Y004257D02*
X002343Y004257D01*
X002343Y004326D02*
X002797Y004326D01*
X002797Y004394D02*
X002343Y004394D01*
X002343Y004463D02*
X002797Y004463D01*
X002822Y004531D02*
X002318Y004531D01*
X002268Y004600D02*
X002872Y004600D01*
X002993Y004668D02*
X002147Y004668D01*
X002113Y004805D02*
X003027Y004805D01*
X003289Y004668D02*
X003444Y004668D01*
X003409Y004600D02*
X003547Y004600D01*
X003518Y004531D02*
X003460Y004531D01*
X003484Y004463D02*
X003506Y004463D01*
X003506Y004394D02*
X003484Y004394D01*
X003791Y004404D02*
X003870Y004430D01*
X003947Y004397D01*
X003860Y004194D01*
X003791Y004404D01*
X003860Y004430D02*
X003870Y004430D01*
X003860Y004430D02*
X003860Y004194D01*
X003860Y003463D01*
X003870Y003463D01*
X003860Y003453D01*
X003873Y003440D01*
X004070Y003440D02*
X004070Y003614D01*
X003990Y003728D01*
X004035Y003760D01*
X004089Y003752D01*
X004070Y003614D01*
X004070Y003760D01*
X004035Y003760D01*
X004336Y003816D02*
X004400Y003870D01*
X004484Y003869D01*
X004480Y003648D01*
X004336Y003816D01*
X004400Y003870D02*
X004480Y003760D01*
X004480Y003648D01*
X004480Y003457D01*
X004464Y003440D01*
X004267Y003440D02*
X004250Y003457D01*
X003680Y003444D02*
X003680Y003758D01*
X003536Y003926D01*
X003600Y003980D01*
X003684Y003979D01*
X003680Y003758D01*
X003680Y003900D01*
X003600Y003980D01*
X003680Y003444D02*
X003676Y003440D01*
X002797Y003435D02*
X002343Y003435D01*
X001656Y004189D02*
X001020Y004189D01*
X000958Y004120D02*
X001457Y004120D01*
X001346Y004052D02*
X000911Y004052D01*
X000864Y003983D02*
X001277Y003983D01*
X001209Y003915D02*
X000817Y003915D01*
X000769Y003846D02*
X001140Y003846D01*
X001072Y003778D02*
X000722Y003778D01*
X000683Y003709D02*
X001003Y003709D01*
X000935Y003641D02*
X000657Y003641D01*
X000631Y003572D02*
X000866Y003572D01*
X000798Y003504D02*
X000605Y003504D01*
X000579Y003435D02*
X000729Y003435D01*
X000661Y003367D02*
X000553Y003367D01*
X000527Y003298D02*
X000592Y003298D01*
X000558Y003230D02*
X000508Y003230D01*
X000500Y003161D02*
X000540Y003161D01*
X000540Y003093D02*
X000492Y003093D01*
X000483Y003024D02*
X000540Y003024D01*
X000540Y002956D02*
X000475Y002956D01*
X000467Y002887D02*
X000540Y002887D01*
X000540Y002819D02*
X000458Y002819D01*
X000467Y002613D02*
X000540Y002613D01*
X000540Y002544D02*
X000475Y002544D01*
X000483Y002476D02*
X000521Y002476D01*
X000492Y002407D02*
X000494Y002407D01*
X001080Y002720D02*
X001100Y002740D01*
X001200Y002740D01*
X001350Y002740D01*
X001097Y004257D02*
X001656Y004257D01*
X001656Y004326D02*
X001175Y004326D01*
X001252Y004394D02*
X001656Y004394D01*
X001656Y004463D02*
X001329Y004463D01*
X001435Y004531D02*
X001680Y004531D01*
X001731Y004600D02*
X001565Y004600D01*
X001696Y004668D02*
X001851Y004668D01*
X001836Y004737D02*
X003304Y004737D01*
X004674Y002681D02*
X004682Y002681D01*
X003880Y002213D02*
X003873Y002220D01*
X002579Y000695D02*
X002113Y000695D01*
D17*
X003188Y001640D02*
X003400Y001640D01*
X003463Y001577D01*
X003541Y001466D01*
X003490Y001430D01*
X003429Y001445D01*
X003463Y001577D01*
X003490Y001550D01*
X003490Y001430D01*
X003620Y001610D02*
X003601Y001629D01*
X003731Y001670D01*
X003750Y001610D01*
X003731Y001670D01*
X003601Y001629D01*
X003717Y001557D01*
X003750Y001610D01*
X003717Y001557D01*
X003601Y001629D01*
X003420Y001810D01*
X003185Y001810D01*
X003180Y001963D02*
X003417Y001963D01*
X003590Y001790D01*
X004130Y001790D01*
X004260Y001920D01*
X004260Y002213D01*
X003880Y002213D02*
X003880Y001990D01*
X003830Y001940D01*
X003600Y001940D01*
X003420Y002120D01*
X003180Y002120D01*
X003620Y001610D02*
X003750Y001610D01*
X004250Y003457D02*
X004250Y003680D01*
X004150Y003920D01*
X004150Y003954D01*
X004066Y004155D01*
X004150Y004190D01*
X004234Y004155D01*
X004150Y003954D01*
X004066Y004155D01*
X004150Y004190D01*
X004234Y004155D01*
X004150Y003954D01*
X004066Y004155D01*
X004150Y004190D02*
X004150Y003954D01*
X004234Y004155D01*
D18*
X002590Y000650D03*
X000700Y001990D03*
D19*
X003600Y003980D03*
X003870Y004430D03*
X004150Y004190D03*
X004400Y003870D03*
M02*
