G75*
%MOIN*%
%OFA0B0*%
%FSLAX24Y24*%
%IPPOS*%
%LPD*%
%AMOC8*
5,1,8,0,0,1.08239X$1,22.5*
%
%ADD10C,0.0000*%
%ADD11C,0.0060*%
%ADD12C,0.0020*%
%ADD13C,0.0039*%
%ADD14C,0.0020*%
D10*
X000158Y002360D02*
X000160Y002451D01*
X000166Y002541D01*
X000176Y002632D01*
X000190Y002721D01*
X000208Y002810D01*
X000229Y002899D01*
X000255Y002986D01*
X000284Y003072D01*
X000318Y003156D01*
X000354Y003239D01*
X000395Y003321D01*
X000439Y003400D01*
X000486Y003478D01*
X000537Y003553D01*
X000591Y003626D01*
X000648Y003696D01*
X000708Y003764D01*
X000771Y003830D01*
X000837Y003892D01*
X000906Y003951D01*
X000977Y004008D01*
X001051Y004061D01*
X001127Y004111D01*
X001205Y004158D01*
X001285Y004201D01*
X001366Y004240D01*
X001450Y004276D01*
X001535Y004308D01*
X001621Y004337D01*
X001708Y004361D01*
X001797Y004382D01*
X001886Y004399D01*
X001976Y004412D01*
X002066Y004421D01*
X002157Y004426D01*
X002248Y004427D01*
X002338Y004424D01*
X002429Y004417D01*
X002519Y004406D01*
X002609Y004391D01*
X002698Y004372D01*
X002786Y004350D01*
X002872Y004323D01*
X002958Y004293D01*
X003042Y004259D01*
X003125Y004221D01*
X003206Y004180D01*
X003285Y004135D01*
X003362Y004086D01*
X003436Y004035D01*
X003509Y003980D01*
X003579Y003922D01*
X003646Y003861D01*
X003710Y003797D01*
X003772Y003731D01*
X003831Y003661D01*
X003886Y003590D01*
X003939Y003515D01*
X003988Y003439D01*
X004034Y003361D01*
X004076Y003280D01*
X004115Y003198D01*
X004150Y003114D01*
X004181Y003029D01*
X004208Y002942D01*
X004232Y002855D01*
X004252Y002766D01*
X004268Y002677D01*
X004280Y002587D01*
X004288Y002496D01*
X004292Y002405D01*
X004292Y002315D01*
X004288Y002224D01*
X004280Y002133D01*
X004268Y002043D01*
X004252Y001954D01*
X004232Y001865D01*
X004208Y001778D01*
X004181Y001691D01*
X004150Y001606D01*
X004115Y001522D01*
X004076Y001440D01*
X004034Y001359D01*
X003988Y001281D01*
X003939Y001205D01*
X003886Y001130D01*
X003831Y001059D01*
X003772Y000989D01*
X003710Y000923D01*
X003646Y000859D01*
X003579Y000798D01*
X003509Y000740D01*
X003436Y000685D01*
X003362Y000634D01*
X003285Y000585D01*
X003206Y000540D01*
X003125Y000499D01*
X003042Y000461D01*
X002958Y000427D01*
X002872Y000397D01*
X002786Y000370D01*
X002698Y000348D01*
X002609Y000329D01*
X002519Y000314D01*
X002429Y000303D01*
X002338Y000296D01*
X002248Y000293D01*
X002157Y000294D01*
X002066Y000299D01*
X001976Y000308D01*
X001886Y000321D01*
X001797Y000338D01*
X001708Y000359D01*
X001621Y000383D01*
X001535Y000412D01*
X001450Y000444D01*
X001366Y000480D01*
X001285Y000519D01*
X001205Y000562D01*
X001127Y000609D01*
X001051Y000659D01*
X000977Y000712D01*
X000906Y000769D01*
X000837Y000828D01*
X000771Y000890D01*
X000708Y000956D01*
X000648Y001024D01*
X000591Y001094D01*
X000537Y001167D01*
X000486Y001242D01*
X000439Y001320D01*
X000395Y001399D01*
X000354Y001481D01*
X000318Y001564D01*
X000284Y001648D01*
X000255Y001734D01*
X000229Y001821D01*
X000208Y001910D01*
X000190Y001999D01*
X000176Y002088D01*
X000166Y002179D01*
X000160Y002269D01*
X000158Y002360D01*
D11*
X001385Y001284D02*
X001615Y001284D01*
X001385Y001284D02*
X001385Y001514D01*
X001385Y002674D02*
X001385Y002904D01*
X001615Y002904D01*
X002775Y002904D02*
X003005Y002904D01*
X003005Y002674D01*
X003005Y001514D02*
X003005Y001284D01*
X002775Y001284D01*
D12*
X003398Y001460D02*
X003585Y001647D01*
X003585Y001554D02*
X003398Y001554D01*
X003398Y001647D02*
X003585Y001460D01*
X003492Y001460D02*
X003492Y001647D01*
D13*
X002925Y003230D02*
X002925Y004293D01*
X001547Y004293D01*
X001547Y003230D01*
X002925Y003230D01*
D14*
X001163Y002416D02*
X001163Y001904D01*
X000375Y001904D02*
X000375Y002416D01*
M02*
