%
M48
M72
T01C0.0100
T02C0.0138
%
T01
X1462Y1484
X769Y1609
X769Y2171
X505Y2707
X765Y3241
X1163Y3242
X1129Y3819
X2166Y4119
X2673Y3741
X2431Y3170
X3073Y2716
X3606Y2873
X3426Y2105
X3329Y1893
X3602Y1876
X3682Y1361
X3053Y798
X2842Y1282
X2098Y1907
X2029Y557
X2382Y505
T02
X516Y1617
M30
