G75*
%MOIN*%
%OFA0B0*%
%FSLAX24Y24*%
%IPPOS*%
%LPD*%
%AMOC8*
5,1,8,0,0,1.08239X$1,22.5*
%
%ADD10C,0.0180*%
%ADD11C,0.0079*%
%ADD12C,0.0218*%
D10*
X001462Y001484D03*
X000769Y001609D03*
X000769Y002171D03*
X000505Y002707D03*
X000765Y003241D03*
X001163Y003242D03*
X001129Y003819D03*
X002166Y004119D03*
X002673Y003741D03*
X002431Y003170D03*
X003073Y002716D03*
X003606Y002873D03*
X003426Y002105D03*
X003329Y001893D03*
X003602Y001876D03*
X003682Y001361D03*
X003053Y000798D03*
X002842Y001282D03*
X002098Y001907D03*
X002029Y000557D03*
X002382Y000505D03*
D11*
X002931Y000969D02*
X000898Y000969D01*
X000862Y000997D02*
X000560Y001390D01*
X000610Y001390D01*
X000652Y001432D01*
X000683Y001401D01*
X000855Y001401D01*
X000977Y001523D01*
X000977Y001695D01*
X000855Y001817D01*
X000683Y001817D01*
X000660Y001795D01*
X000610Y001844D01*
X000422Y001844D01*
X000385Y001807D01*
X000363Y001861D01*
X000297Y002360D01*
X000663Y002360D01*
X000683Y002379D02*
X000561Y002257D01*
X000561Y002085D01*
X000683Y001963D01*
X000855Y001963D01*
X000977Y002085D01*
X000977Y002257D01*
X000855Y002379D01*
X000683Y002379D01*
X000586Y002282D02*
X000307Y002282D01*
X000318Y002205D02*
X000561Y002205D01*
X000561Y002128D02*
X000328Y002128D01*
X000338Y002051D02*
X000594Y002051D01*
X000672Y001973D02*
X000348Y001973D01*
X000358Y001896D02*
X001890Y001896D01*
X001890Y001973D02*
X000866Y001973D01*
X000943Y002051D02*
X001948Y002051D01*
X001890Y001993D02*
X001890Y001821D01*
X002012Y001699D01*
X002185Y001699D01*
X002307Y001821D01*
X002307Y001993D01*
X002185Y002115D01*
X002012Y002115D01*
X001890Y001993D01*
X001892Y001819D02*
X000636Y001819D01*
X000397Y001819D02*
X000380Y001819D01*
X000587Y001356D02*
X002634Y001356D01*
X002634Y001368D02*
X002634Y001195D01*
X002756Y001074D01*
X002928Y001074D01*
X003050Y001195D01*
X003050Y001368D01*
X002928Y001490D01*
X002756Y001490D01*
X002634Y001368D01*
X002699Y001433D02*
X000887Y001433D01*
X000964Y001510D02*
X003941Y001510D01*
X003909Y001433D02*
X002985Y001433D01*
X003050Y001356D02*
X003863Y001356D01*
X003894Y001396D02*
X003588Y000997D01*
X003261Y000747D01*
X003261Y000884D01*
X003140Y001006D01*
X002967Y001006D01*
X002845Y000884D01*
X002845Y000712D01*
X002961Y000596D01*
X002723Y000498D01*
X002225Y000432D01*
X002201Y000435D01*
X002237Y000471D01*
X002237Y000644D01*
X002115Y000765D01*
X001942Y000765D01*
X001821Y000644D01*
X001821Y000486D01*
X001726Y000498D01*
X001261Y000691D01*
X000862Y000997D01*
X000824Y001047D02*
X003626Y001047D01*
X003685Y001124D02*
X002978Y001124D01*
X003050Y001201D02*
X003744Y001201D01*
X003803Y001278D02*
X003050Y001278D01*
X003176Y000969D02*
X003552Y000969D01*
X003451Y000892D02*
X003253Y000892D01*
X003261Y000815D02*
X003350Y000815D01*
X002929Y000583D02*
X002237Y000583D01*
X002237Y000506D02*
X002743Y000506D01*
X002896Y000660D02*
X002220Y000660D01*
X002143Y000738D02*
X002845Y000738D01*
X002845Y000815D02*
X001099Y000815D01*
X000998Y000892D02*
X002853Y000892D01*
X002705Y001124D02*
X000764Y001124D01*
X000705Y001201D02*
X002634Y001201D01*
X002634Y001278D02*
X000646Y001278D01*
X000977Y001587D02*
X003973Y001587D01*
X004005Y001665D02*
X000977Y001665D01*
X000930Y001742D02*
X001970Y001742D01*
X002227Y001742D02*
X003187Y001742D01*
X003243Y001685D02*
X003416Y001685D01*
X003457Y001727D01*
X003516Y001668D01*
X003688Y001668D01*
X003810Y001790D01*
X003810Y001963D01*
X003688Y002085D01*
X003634Y002085D01*
X003634Y002191D01*
X003512Y002313D01*
X003339Y002313D01*
X003217Y002191D01*
X003217Y002076D01*
X003121Y001980D01*
X003121Y001807D01*
X003243Y001685D01*
X003121Y001819D02*
X002305Y001819D01*
X002307Y001896D02*
X003121Y001896D01*
X003121Y001973D02*
X002307Y001973D01*
X002249Y002051D02*
X003192Y002051D01*
X003217Y002128D02*
X000977Y002128D01*
X000977Y002205D02*
X003231Y002205D01*
X003309Y002282D02*
X000951Y002282D01*
X000874Y002360D02*
X004152Y002360D01*
X004086Y001861D01*
X003894Y001396D01*
X003762Y001742D02*
X004037Y001742D01*
X004069Y001819D02*
X003810Y001819D01*
X003810Y001896D02*
X004091Y001896D01*
X004086Y001861D02*
X004086Y001861D01*
X004101Y001973D02*
X003799Y001973D01*
X003722Y002051D02*
X004111Y002051D01*
X004122Y002128D02*
X003634Y002128D01*
X003620Y002205D02*
X004132Y002205D01*
X004142Y002282D02*
X003543Y002282D01*
X003243Y002591D02*
X004122Y002591D01*
X004111Y002669D02*
X003696Y002669D01*
X003692Y002665D02*
X003814Y002787D01*
X003814Y002960D01*
X003692Y003081D01*
X003520Y003081D01*
X003398Y002960D01*
X003398Y002787D01*
X003520Y002665D01*
X003692Y002665D01*
X003773Y002746D02*
X004101Y002746D01*
X004091Y002823D02*
X003814Y002823D01*
X003814Y002900D02*
X004069Y002900D01*
X004086Y002859D02*
X004152Y002360D01*
X004142Y002437D02*
X000307Y002437D01*
X000297Y002360D02*
X000328Y002590D01*
X000419Y002499D01*
X000591Y002499D01*
X000713Y002621D01*
X000713Y002793D01*
X000591Y002915D01*
X000419Y002915D01*
X000364Y002860D01*
X000556Y003323D01*
X000556Y003325D01*
X000556Y003154D01*
X000678Y003032D01*
X000851Y003032D01*
X000973Y003154D01*
X000973Y003327D01*
X000851Y003449D01*
X000678Y003449D01*
X000564Y003334D01*
X000862Y003723D01*
X000921Y003768D01*
X000921Y003733D01*
X001043Y003611D01*
X001215Y003611D01*
X001337Y003733D01*
X001337Y003905D01*
X001234Y004008D01*
X001261Y004029D01*
X001726Y004221D01*
X002225Y004287D01*
X002723Y004221D01*
X003188Y004029D01*
X003588Y003723D01*
X003894Y003323D01*
X004086Y002859D01*
X004037Y002978D02*
X003796Y002978D01*
X003719Y003055D02*
X004005Y003055D01*
X003973Y003132D02*
X002639Y003132D01*
X002639Y003084D02*
X002517Y002962D01*
X002345Y002962D01*
X002223Y003084D01*
X002223Y003257D01*
X002345Y003379D01*
X002517Y003379D01*
X002639Y003257D01*
X002639Y003084D01*
X002610Y003055D02*
X003493Y003055D01*
X003416Y002978D02*
X002532Y002978D01*
X002329Y002978D02*
X000412Y002978D01*
X000404Y002900D02*
X000380Y002900D01*
X000444Y003055D02*
X000656Y003055D01*
X000579Y003132D02*
X000476Y003132D01*
X000508Y003209D02*
X000556Y003209D01*
X000556Y003287D02*
X000540Y003287D01*
X000587Y003364D02*
X000593Y003364D01*
X000646Y003441D02*
X000671Y003441D01*
X000705Y003518D02*
X003744Y003518D01*
X003685Y003596D02*
X002822Y003596D01*
X002881Y003655D02*
X002759Y003533D01*
X002587Y003533D01*
X002465Y003655D01*
X002465Y003828D01*
X002587Y003949D01*
X002759Y003949D01*
X002881Y003828D01*
X002881Y003655D01*
X002881Y003673D02*
X003626Y003673D01*
X003552Y003750D02*
X002881Y003750D01*
X002881Y003827D02*
X003451Y003827D01*
X003350Y003904D02*
X002804Y003904D01*
X002929Y004136D02*
X001520Y004136D01*
X001707Y004213D02*
X002743Y004213D01*
X002542Y003904D02*
X001337Y003904D01*
X001337Y003827D02*
X002465Y003827D01*
X002465Y003750D02*
X001337Y003750D01*
X001277Y003673D02*
X002465Y003673D01*
X002525Y003596D02*
X000764Y003596D01*
X000824Y003673D02*
X000981Y003673D01*
X000921Y003750D02*
X000898Y003750D01*
X000858Y003441D02*
X003803Y003441D01*
X003863Y003364D02*
X002532Y003364D01*
X002609Y003287D02*
X003909Y003287D01*
X003941Y003209D02*
X002639Y003209D01*
X002330Y003364D02*
X000936Y003364D01*
X000973Y003287D02*
X002253Y003287D01*
X002223Y003209D02*
X000973Y003209D01*
X000950Y003132D02*
X002223Y003132D01*
X002252Y003055D02*
X000873Y003055D01*
X000683Y002823D02*
X002886Y002823D01*
X002865Y002802D02*
X002865Y002630D01*
X002987Y002508D01*
X003159Y002508D01*
X003281Y002630D01*
X003281Y002802D01*
X003159Y002924D01*
X002987Y002924D01*
X002865Y002802D01*
X002865Y002746D02*
X000713Y002746D01*
X000713Y002669D02*
X002865Y002669D01*
X002903Y002591D02*
X000684Y002591D01*
X000606Y002514D02*
X002980Y002514D01*
X003166Y002514D02*
X004132Y002514D01*
X003517Y002669D02*
X003281Y002669D01*
X003281Y002746D02*
X003439Y002746D01*
X003398Y002823D02*
X003260Y002823D01*
X003183Y002900D02*
X003398Y002900D01*
X002963Y002900D02*
X000606Y002900D01*
X000404Y002514D02*
X000318Y002514D01*
X001261Y003982D02*
X003250Y003982D01*
X003116Y004059D02*
X001334Y004059D01*
X001200Y000738D02*
X001915Y000738D01*
X001837Y000660D02*
X001334Y000660D01*
X001520Y000583D02*
X001821Y000583D01*
X001821Y000506D02*
X001707Y000506D01*
D12*
X000516Y001617D03*
M02*
