G75*
%MOIN*%
%OFA0B0*%
%FSLAX24Y24*%
%IPPOS*%
%LPD*%
%AMOC8*
5,1,8,0,0,1.08239X$1,22.5*
%
%ADD10R,0.0400X0.0120*%
%ADD11R,0.0835X0.0835*%
%ADD12R,0.0120X0.0400*%
%ADD13R,0.0197X0.0197*%
%ADD14R,0.0394X0.0315*%
%ADD15R,0.0138X0.0256*%
D10*
X001465Y001704D03*
X001465Y001894D03*
X001465Y002094D03*
X001465Y002294D03*
X001465Y002484D03*
X002925Y002484D03*
X002925Y002294D03*
X002925Y002094D03*
X002925Y001894D03*
X002925Y001704D03*
D11*
X002195Y002094D03*
D12*
X002195Y002824D03*
X002395Y002824D03*
X002585Y002824D03*
X001995Y002824D03*
X001805Y002824D03*
X001805Y001364D03*
X001995Y001364D03*
X002195Y001364D03*
X002395Y001364D03*
X002585Y001364D03*
D13*
X001048Y000984D03*
X001418Y001103D03*
X001744Y000973D03*
X001418Y000703D03*
X001744Y000573D03*
X002381Y000729D03*
X002781Y000729D03*
X003964Y001975D03*
X003964Y002375D03*
X003320Y003075D03*
X002920Y003075D03*
X003128Y003496D03*
X003128Y003896D03*
X001376Y003925D03*
X001376Y003525D03*
X001163Y003008D03*
X000763Y003008D03*
X001048Y001384D03*
D14*
X001803Y003466D03*
X001803Y004057D03*
X002670Y004057D03*
X002670Y003466D03*
D15*
X001025Y002416D03*
X000769Y002416D03*
X000513Y002416D03*
X000513Y001904D03*
X000769Y001904D03*
X001025Y001904D03*
M02*
