G75*
%MOIN*%
%OFA0B0*%
%FSLAX24Y24*%
%IPPOS*%
%LPD*%
%AMOC8*
5,1,8,0,0,1.08239X$1,22.5*
%
%ADD10R,0.0276X0.0087*%
%ADD11R,0.0197X0.0394*%
%ADD12R,0.0197X0.0197*%
D10*
X001562Y001127D03*
X001562Y001285D03*
X001562Y001442D03*
X001562Y001599D03*
X001562Y001757D03*
X001562Y001914D03*
X001562Y002072D03*
X001562Y002229D03*
X001562Y002387D03*
X001562Y002544D03*
X001562Y002702D03*
X001562Y002859D03*
X001562Y003017D03*
X001562Y003174D03*
X001562Y003332D03*
X002782Y003332D03*
X002782Y003174D03*
X002782Y003017D03*
X002782Y002859D03*
X002782Y002702D03*
X002782Y002544D03*
X002782Y002387D03*
X002782Y002229D03*
X002782Y002072D03*
X002782Y001914D03*
X002782Y001757D03*
X002782Y001599D03*
X002782Y001442D03*
X002782Y001285D03*
X002782Y001127D03*
D11*
X002743Y000753D03*
X001601Y000753D03*
X001601Y003706D03*
X002743Y003706D03*
D12*
X003090Y002808D03*
X003490Y002808D03*
X003624Y001501D03*
X003224Y001501D03*
X000897Y001809D03*
X000897Y002209D03*
X000905Y002459D03*
X000905Y002859D03*
M02*
