G75*
%MOIN*%
%OFA0B0*%
%FSLAX24Y24*%
%IPPOS*%
%LPD*%
%AMOC8*
5,1,8,0,0,1.08239X$1,22.5*
%
%ADD10R,0.0984X0.0984*%
%ADD11R,0.0118X0.0315*%
%ADD12R,0.0315X0.0118*%
%ADD13R,0.0197X0.0197*%
%ADD14R,0.0140X0.0420*%
%ADD15R,0.0420X0.0140*%
D10*
X001271Y002536D03*
D11*
X000877Y001788D03*
X001074Y001788D03*
X001271Y001788D03*
X001468Y001788D03*
X001664Y001788D03*
X001664Y003285D03*
X001468Y003285D03*
X001271Y003285D03*
X001074Y003285D03*
X000877Y003285D03*
D12*
X000523Y002930D03*
X000523Y002733D03*
X000523Y002536D03*
X000523Y002340D03*
X000523Y002143D03*
X002019Y002143D03*
X002019Y002340D03*
X002019Y002536D03*
X002019Y002733D03*
X002019Y002930D03*
D13*
X002279Y003372D03*
X002621Y003364D03*
X002991Y003419D03*
X002621Y003764D03*
X002279Y003772D03*
X001928Y003965D03*
X001928Y003565D03*
X002991Y003819D03*
X003022Y000737D03*
X002622Y000737D03*
D14*
X002824Y001522D03*
X003074Y001522D03*
X003334Y001522D03*
X003584Y001522D03*
X003584Y002922D03*
X003334Y002922D03*
X003074Y002922D03*
X002824Y002922D03*
D15*
X002504Y002602D03*
X002504Y002352D03*
X002504Y002092D03*
X002504Y001842D03*
X003904Y001842D03*
X003904Y002092D03*
X003904Y002352D03*
X003904Y002602D03*
M02*
