G75*
%MOIN*%
%OFA0B0*%
%FSLAX24Y24*%
%IPPOS*%
%LPD*%
%AMOC8*
5,1,8,0,0,1.08239X$1,22.5*
%
%ADD10R,0.0276X0.0087*%
%ADD11R,0.0197X0.0394*%
%ADD12R,0.0197X0.0197*%
%ADD13C,0.0079*%
%ADD14C,0.0240*%
%ADD15C,0.0060*%
%ADD16C,0.0100*%
D10*
X001562Y001127D03*
X001562Y001285D03*
X001562Y001442D03*
X001562Y001599D03*
X001562Y001757D03*
X001562Y001914D03*
X001562Y002072D03*
X001562Y002229D03*
X001562Y002387D03*
X001562Y002544D03*
X001562Y002702D03*
X001562Y002859D03*
X001562Y003017D03*
X001562Y003174D03*
X001562Y003332D03*
X002782Y003332D03*
X002782Y003174D03*
X002782Y003017D03*
X002782Y002859D03*
X002782Y002702D03*
X002782Y002544D03*
X002782Y002387D03*
X002782Y002229D03*
X002782Y002072D03*
X002782Y001914D03*
X002782Y001757D03*
X002782Y001599D03*
X002782Y001442D03*
X002782Y001285D03*
X002782Y001127D03*
D11*
X002743Y000753D03*
X001601Y000753D03*
X001601Y003706D03*
X002743Y003706D03*
D12*
X003090Y002808D03*
X003490Y002808D03*
X003624Y001501D03*
X003224Y001501D03*
X000897Y001809D03*
X000897Y002209D03*
X000905Y002459D03*
X000905Y002859D03*
D13*
X000960Y000831D02*
X001014Y000831D01*
X001089Y000906D01*
X001310Y000906D01*
X001343Y000940D01*
X001358Y000924D01*
X001364Y000924D01*
X001364Y000763D01*
X001592Y000763D01*
X001592Y000743D01*
X001364Y000743D01*
X001364Y000565D01*
X001241Y000616D01*
X000960Y000831D01*
X001022Y000839D02*
X001364Y000839D01*
X001364Y000916D02*
X001320Y000916D01*
X001364Y000685D02*
X001152Y000685D01*
X001051Y000762D02*
X001592Y000762D01*
X001611Y000762D02*
X002733Y000762D01*
X002733Y000763D02*
X002733Y000743D01*
X002505Y000743D01*
X002505Y000538D01*
X002515Y000502D01*
X002533Y000471D01*
X002559Y000445D01*
X002591Y000426D01*
X002603Y000423D01*
X002172Y000367D01*
X001742Y000423D01*
X001754Y000426D01*
X001785Y000445D01*
X001811Y000471D01*
X001830Y000502D01*
X001839Y000538D01*
X001839Y000743D01*
X001611Y000743D01*
X001611Y000763D01*
X001839Y000763D01*
X001839Y000968D01*
X001833Y000991D01*
X001859Y001018D01*
X001859Y001123D01*
X001956Y001123D01*
X001983Y001134D01*
X001983Y001096D01*
X002144Y000934D01*
X002255Y000824D01*
X002505Y000824D01*
X002505Y000763D01*
X002733Y000763D01*
X002733Y000743D02*
X002753Y000743D01*
X002753Y000471D01*
X002733Y000463D01*
X002733Y000743D01*
X002753Y000743D02*
X002753Y000763D01*
X002981Y000763D01*
X002981Y000804D01*
X003046Y000777D01*
X003157Y000777D01*
X003260Y000819D01*
X003304Y000864D01*
X003357Y000811D01*
X003104Y000616D01*
X002981Y000565D01*
X002981Y000743D01*
X002753Y000743D01*
X002753Y000762D02*
X003294Y000762D01*
X003279Y000839D02*
X003329Y000839D01*
X003193Y000685D02*
X002981Y000685D01*
X002981Y000607D02*
X003083Y000607D01*
X002753Y000607D02*
X002733Y000607D01*
X002733Y000530D02*
X002753Y000530D01*
X002753Y000685D02*
X002733Y000685D01*
X002505Y000685D02*
X001839Y000685D01*
X001839Y000607D02*
X002505Y000607D01*
X002507Y000530D02*
X001837Y000530D01*
X001794Y000453D02*
X002551Y000453D01*
X002241Y000376D02*
X002103Y000376D01*
X002240Y000839D02*
X001839Y000839D01*
X001839Y000916D02*
X002162Y000916D01*
X002085Y000994D02*
X001835Y000994D01*
X001859Y001071D02*
X002008Y001071D01*
X002362Y001253D02*
X002362Y001674D01*
X002251Y001785D01*
X002249Y001787D01*
X002242Y001813D01*
X002231Y001853D01*
X002231Y001872D01*
X002220Y001898D01*
X002220Y001899D01*
X002223Y001918D01*
X002223Y001918D01*
X002223Y001918D01*
X002208Y001939D01*
X002201Y001964D01*
X002190Y001971D01*
X002189Y001974D01*
X002164Y001998D01*
X002131Y002045D01*
X002131Y002045D01*
X002121Y002057D01*
X002121Y002876D01*
X002121Y002876D01*
X002121Y002904D01*
X002135Y002927D01*
X002156Y002963D01*
X002169Y002977D01*
X002172Y002984D01*
X002199Y003011D01*
X002199Y003039D01*
X002213Y003063D01*
X002213Y003063D01*
X002213Y003063D01*
X002210Y003076D01*
X002211Y003079D01*
X002485Y003079D01*
X002485Y003156D02*
X002211Y003156D01*
X002211Y003190D02*
X002211Y003079D01*
X002190Y003002D02*
X002485Y003002D01*
X002485Y002925D02*
X002133Y002925D01*
X002135Y002927D02*
X002135Y002927D01*
X002121Y002847D02*
X002485Y002847D01*
X002485Y002770D02*
X002121Y002770D01*
X002121Y002693D02*
X002485Y002693D01*
X002485Y002616D02*
X002121Y002616D01*
X002121Y002538D02*
X002485Y002538D01*
X002485Y002461D02*
X002121Y002461D01*
X002121Y002384D02*
X002485Y002384D01*
X002485Y002307D02*
X002121Y002307D01*
X002121Y002229D02*
X002485Y002229D01*
X002485Y002152D02*
X002121Y002152D01*
X002121Y002075D02*
X002485Y002075D01*
X002485Y001998D02*
X002165Y001998D01*
X002222Y001920D02*
X002485Y001920D01*
X002485Y001843D02*
X002234Y001843D01*
X002270Y001766D02*
X002485Y001766D01*
X002485Y001689D02*
X002347Y001689D01*
X002362Y001611D02*
X002485Y001611D01*
X002485Y001534D02*
X002362Y001534D01*
X002362Y001457D02*
X002485Y001457D01*
X002485Y001380D02*
X002362Y001380D01*
X002362Y001303D02*
X002505Y001303D01*
X002505Y001313D02*
X002505Y001285D01*
X002533Y001285D01*
X002533Y001285D01*
X002505Y001285D01*
X002505Y001256D01*
X002485Y001236D01*
X002485Y001232D01*
X002459Y001205D01*
X002456Y001202D01*
X002412Y001202D01*
X002362Y001253D01*
X002389Y001225D02*
X002479Y001225D01*
X002533Y001285D02*
X002533Y001285D01*
X002505Y001313D02*
X002485Y001333D01*
X002485Y003441D01*
X002512Y003467D01*
X002505Y003491D01*
X002505Y003696D01*
X002733Y003696D01*
X002733Y003716D01*
X002733Y003996D01*
X002753Y003988D01*
X002753Y003716D01*
X002733Y003716D01*
X002505Y003716D01*
X002505Y003921D01*
X002515Y003956D01*
X002533Y003988D01*
X002559Y004014D01*
X002591Y004033D01*
X002603Y004036D01*
X002172Y004092D01*
X001742Y004036D01*
X001754Y004033D01*
X001785Y004014D01*
X001811Y003988D01*
X001830Y003956D01*
X001839Y003921D01*
X001839Y003716D01*
X001611Y003716D01*
X001592Y003716D01*
X001592Y003988D01*
X001611Y003996D01*
X001611Y003716D01*
X001611Y003696D01*
X001839Y003696D01*
X001839Y003496D01*
X001903Y003432D01*
X001969Y003414D01*
X001988Y003414D01*
X002022Y003400D01*
X002080Y003384D01*
X002087Y003373D01*
X002090Y003372D01*
X002169Y003293D01*
X002211Y003190D01*
X002194Y003234D02*
X002485Y003234D01*
X002485Y003311D02*
X002151Y003311D01*
X002067Y003388D02*
X002485Y003388D01*
X002509Y003465D02*
X001870Y003465D01*
X001839Y003542D02*
X002505Y003542D01*
X002505Y003620D02*
X001839Y003620D01*
X001839Y003774D02*
X002505Y003774D01*
X002505Y003851D02*
X001839Y003851D01*
X001837Y003929D02*
X002507Y003929D01*
X002551Y004006D02*
X001794Y004006D01*
X001611Y003929D02*
X001592Y003929D01*
X001592Y003851D02*
X001611Y003851D01*
X001611Y003774D02*
X001592Y003774D01*
X001592Y003716D02*
X001592Y003696D01*
X001364Y003696D01*
X001364Y003534D01*
X001358Y003534D01*
X001265Y003441D01*
X001265Y003222D01*
X001285Y003202D01*
X001285Y003174D01*
X001285Y003146D01*
X001265Y003126D01*
X001265Y003049D01*
X001215Y003049D01*
X001137Y003049D01*
X001069Y003116D01*
X000740Y003116D01*
X000647Y003023D01*
X000647Y002694D01*
X000682Y002659D01*
X000647Y002623D01*
X000647Y002381D01*
X000639Y002373D01*
X000639Y002202D01*
X000598Y002155D01*
X000581Y002136D01*
X000572Y002133D01*
X000509Y002113D01*
X000492Y002119D01*
X000436Y002091D01*
X000376Y002072D01*
X000368Y002057D01*
X000352Y002049D01*
X000339Y002008D01*
X000309Y002229D01*
X000373Y002712D01*
X000559Y003161D01*
X000855Y003547D01*
X001241Y003843D01*
X001364Y003894D01*
X001364Y003716D01*
X001592Y003716D01*
X001592Y003697D02*
X001051Y003697D01*
X001152Y003774D02*
X001364Y003774D01*
X001364Y003851D02*
X001262Y003851D01*
X001364Y003620D02*
X000950Y003620D01*
X000852Y003542D02*
X001364Y003542D01*
X001289Y003465D02*
X000793Y003465D01*
X000733Y003388D02*
X001265Y003388D01*
X001265Y003311D02*
X000674Y003311D01*
X000615Y003234D02*
X001265Y003234D01*
X001285Y003174D02*
X001313Y003174D01*
X001285Y003174D01*
X001285Y003156D02*
X000557Y003156D01*
X000525Y003079D02*
X000703Y003079D01*
X000647Y003002D02*
X000493Y003002D01*
X000461Y002925D02*
X000647Y002925D01*
X000647Y002847D02*
X000429Y002847D01*
X000397Y002770D02*
X000647Y002770D01*
X000648Y002693D02*
X000370Y002693D01*
X000360Y002616D02*
X000647Y002616D01*
X000647Y002538D02*
X000350Y002538D01*
X000340Y002461D02*
X000647Y002461D01*
X000647Y002384D02*
X000330Y002384D01*
X000320Y002307D02*
X000639Y002307D01*
X000639Y002229D02*
X000309Y002229D01*
X000320Y002152D02*
X000595Y002152D01*
X000385Y002075D02*
X000330Y002075D01*
X001106Y003079D02*
X001265Y003079D01*
X001313Y003174D02*
X001313Y003174D01*
X001313Y003174D01*
X001611Y003697D02*
X002733Y003697D01*
X002753Y003697D02*
X003294Y003697D01*
X003291Y003694D02*
X003180Y003694D01*
X003077Y003651D01*
X002998Y003573D01*
X002983Y003534D01*
X002981Y003534D01*
X002981Y003696D01*
X002753Y003696D01*
X002753Y003716D01*
X002981Y003716D01*
X002981Y003894D01*
X003104Y003843D01*
X003306Y003688D01*
X003291Y003694D01*
X003193Y003774D02*
X002981Y003774D01*
X002981Y003851D02*
X003083Y003851D01*
X003045Y003620D02*
X002981Y003620D01*
X002981Y003542D02*
X002986Y003542D01*
X002753Y003774D02*
X002733Y003774D01*
X002733Y003851D02*
X002753Y003851D01*
X002753Y003929D02*
X002733Y003929D01*
X002241Y004083D02*
X002103Y004083D01*
X003080Y003177D02*
X003180Y003135D01*
X003291Y003135D01*
X003393Y003178D01*
X003431Y003216D01*
X003447Y003177D01*
X003526Y003099D01*
X003605Y003066D01*
X003326Y003066D01*
X003290Y003030D01*
X003255Y003066D01*
X003080Y003066D01*
X003080Y003177D01*
X003080Y003156D02*
X003128Y003156D01*
X003080Y003079D02*
X003574Y003079D01*
X003664Y003056D02*
X003740Y003056D01*
X003816Y003088D01*
X003972Y002712D01*
X004035Y002229D01*
X003972Y001747D01*
X003972Y001747D01*
X003882Y001531D01*
X003882Y001666D01*
X003814Y001733D01*
X003814Y001820D01*
X003686Y001948D01*
X003666Y001968D01*
X003648Y002034D01*
X003648Y002053D01*
X003634Y002087D01*
X003619Y002145D01*
X003607Y002152D01*
X004025Y002152D01*
X004015Y002075D02*
X003639Y002075D01*
X003658Y001998D02*
X004005Y001998D01*
X003994Y001920D02*
X003714Y001920D01*
X003791Y001843D02*
X003984Y001843D01*
X003974Y001766D02*
X003814Y001766D01*
X003859Y001689D02*
X003947Y001689D01*
X003915Y001611D02*
X003882Y001611D01*
X003882Y001534D02*
X003883Y001534D01*
X003607Y002152D02*
X003606Y002155D01*
X003549Y002213D01*
X003626Y002245D01*
X003704Y002323D01*
X003747Y002426D01*
X003747Y002496D01*
X003756Y002517D01*
X003725Y002589D01*
X003716Y002612D01*
X003748Y002644D01*
X003748Y002973D01*
X003664Y003056D01*
X003719Y003002D02*
X003851Y003002D01*
X003819Y003079D02*
X003794Y003079D01*
X003748Y002925D02*
X003883Y002925D01*
X003915Y002847D02*
X003748Y002847D01*
X003748Y002770D02*
X003947Y002770D01*
X003974Y002693D02*
X003748Y002693D01*
X003720Y002616D02*
X003984Y002616D01*
X003994Y002538D02*
X003747Y002538D01*
X003747Y002461D02*
X004005Y002461D01*
X004015Y002384D02*
X003730Y002384D01*
X003688Y002307D02*
X004025Y002307D01*
X004035Y002229D02*
X003589Y002229D01*
X003468Y003156D02*
X003342Y003156D01*
X001364Y000607D02*
X001262Y000607D01*
D14*
X000814Y001249D03*
X001078Y001450D03*
X000570Y001836D03*
X001901Y001403D03*
X001952Y001816D03*
X002464Y001285D03*
X003101Y001056D03*
X003519Y001044D03*
X003094Y001903D03*
X003369Y001997D03*
X003468Y002481D03*
X003121Y002477D03*
X002432Y002832D03*
X001932Y003135D03*
X001680Y004013D03*
X001062Y003615D03*
X002672Y004001D03*
X003235Y003414D03*
X003684Y003336D03*
X003928Y002820D03*
X002531Y000505D03*
D15*
X002617Y000482D01*
X002658Y000632D01*
X002507Y000592D01*
X002531Y000505D01*
X002658Y000632D01*
X002743Y000718D01*
X002743Y000753D01*
X002727Y000737D02*
X002622Y000737D01*
X002606Y000753D01*
X002582Y000729D01*
X002534Y001013D02*
X002334Y001013D01*
X002172Y001174D01*
X002172Y001596D01*
X002079Y001689D01*
X001928Y001729D01*
X001952Y001816D01*
X002024Y001869D01*
X001932Y001995D01*
X001869Y001852D01*
X001952Y001816D01*
X002039Y001839D01*
X002079Y001689D01*
X001952Y001816D01*
X001932Y001836D01*
X001932Y001995D01*
X001932Y002955D01*
X001854Y003090D01*
X001932Y003135D01*
X002010Y003090D01*
X001932Y003135D01*
X001854Y003090D01*
X001932Y002955D01*
X002010Y003090D01*
X002010Y003090D01*
X001932Y002955D01*
X001854Y003090D01*
X001845Y003112D02*
X001932Y003135D01*
X001955Y003222D01*
X001805Y003262D01*
X001845Y003112D01*
X001932Y003135D02*
X001932Y002955D01*
X001932Y002955D01*
X001932Y002955D01*
X001932Y003135D02*
X001805Y003262D01*
X001735Y003332D01*
X001562Y003332D01*
X001562Y003174D02*
X001160Y003174D01*
X001094Y003241D01*
X001094Y003438D01*
X000993Y003557D01*
X001062Y003615D01*
X001147Y003585D01*
X001094Y003438D01*
X001094Y003592D01*
X001046Y003639D01*
X001046Y003631D01*
X001062Y003615D01*
X001601Y003851D02*
X001590Y004007D01*
X001680Y004013D01*
X001731Y003938D01*
X001601Y003851D01*
X001601Y003934D01*
X001680Y004013D01*
X001601Y003851D02*
X001601Y003706D01*
X002416Y003332D02*
X002416Y003011D01*
X002506Y002883D01*
X002432Y002832D01*
X002354Y002787D01*
X002432Y002652D01*
X002510Y002787D01*
X002432Y002832D01*
X002351Y002870D01*
X002416Y003011D01*
X002416Y002848D01*
X002432Y002832D01*
X002432Y002652D01*
X002432Y001462D01*
X002532Y001342D01*
X002464Y001285D01*
X002379Y001315D01*
X002432Y001462D01*
X002432Y001439D01*
X002509Y001362D01*
X002464Y001285D01*
X002509Y001207D01*
X002464Y001285D01*
X002509Y001207D01*
X002644Y001285D01*
X002509Y001207D01*
X002644Y001285D01*
X002509Y001362D01*
X002644Y001285D01*
X002644Y001285D01*
X002509Y001362D01*
X002509Y001362D01*
X002464Y001285D01*
X002509Y001362D01*
X002464Y001285D02*
X002644Y001285D01*
X002644Y001285D01*
X002782Y001285D01*
X002786Y001281D01*
X002782Y001127D02*
X002649Y001127D01*
X002534Y001013D01*
X003086Y001553D02*
X003086Y001723D01*
X003014Y001861D01*
X003094Y001903D01*
X003169Y001854D01*
X003086Y001723D01*
X003086Y001903D01*
X003094Y001903D01*
X003346Y001910D02*
X003369Y001997D01*
X003456Y002020D01*
X003496Y001870D01*
X003346Y001910D01*
X003369Y001997D02*
X003496Y001870D01*
X003625Y001741D01*
X003625Y001422D01*
X003624Y001501D01*
X003224Y001501D02*
X003094Y001553D01*
X003086Y001553D01*
X003121Y002477D02*
X003182Y002544D01*
X003067Y002649D01*
X003033Y002497D01*
X003121Y002477D01*
X003121Y002596D01*
X003067Y002649D01*
X003058Y002659D01*
X003058Y002776D01*
X003090Y002808D01*
X003396Y002536D02*
X003468Y002481D01*
X003551Y002516D01*
X003490Y002660D01*
X003396Y002536D01*
X003468Y002481D02*
X003490Y002572D01*
X003490Y002660D01*
X003490Y002808D01*
X003700Y002871D02*
X003700Y003001D01*
X003617Y003084D01*
X003503Y003084D01*
X003456Y003131D01*
X003456Y003533D01*
X003302Y003686D01*
X002987Y003686D01*
X002800Y003874D01*
X002649Y003914D01*
X002672Y004001D01*
X002759Y004024D01*
X002800Y003874D01*
X002672Y004001D01*
X002594Y003956D01*
X002672Y003821D01*
X002750Y003956D01*
X002672Y004001D01*
X002594Y003956D01*
X002672Y003821D01*
X002594Y003956D01*
X002672Y004001D02*
X002750Y003956D01*
X002750Y003956D01*
X002672Y003821D01*
X002672Y003821D01*
X002672Y003821D01*
X002672Y004001D01*
X002672Y003821D02*
X002672Y003777D01*
X002743Y003706D01*
X002672Y003588D02*
X002416Y003332D01*
X001562Y002859D02*
X001215Y002859D01*
X000905Y002859D01*
X000897Y002209D02*
X000688Y001971D01*
X000658Y001818D01*
X000570Y001836D01*
X000658Y001819D01*
X000687Y001973D01*
X000540Y001920D01*
X000570Y001836D01*
X000657Y001813D01*
X000697Y001963D01*
X000546Y001923D01*
X000570Y001836D01*
X000541Y001921D01*
X000688Y001971D01*
X000570Y001836D01*
X000554Y001836D01*
X000507Y001883D01*
X000475Y001820D01*
X000507Y001914D01*
X000684Y001970D01*
X000664Y001816D01*
X000653Y001851D02*
X000704Y001981D01*
X000687Y001973D01*
X000507Y001883D01*
X000487Y001851D02*
X000653Y001851D01*
X000897Y001809D02*
X000897Y001694D01*
X000574Y001371D01*
X000574Y001162D01*
X000716Y001021D01*
X000936Y001021D01*
X001011Y001096D01*
X001231Y001096D01*
X001420Y001285D01*
X001562Y001285D01*
X001562Y001442D02*
X001397Y001442D01*
X001204Y001249D01*
X000994Y001249D01*
X000859Y001171D01*
X000814Y001249D01*
X000859Y001327D01*
X000994Y001249D01*
X000814Y001249D01*
X001078Y001450D02*
X001050Y001536D01*
X001078Y001450D01*
X001166Y001431D01*
X001078Y001450D01*
X001078Y001462D01*
X001199Y001583D01*
X001166Y001431D01*
X001199Y001583D01*
X001050Y001536D01*
X001050Y001536D01*
X001199Y001583D01*
X001199Y001583D01*
X001199Y001583D01*
X001204Y001588D01*
X001550Y001588D01*
X001562Y001599D01*
X001562Y001757D02*
X001708Y001757D01*
X001883Y001582D01*
X001974Y001455D01*
X001901Y001403D01*
X001819Y001440D01*
X001883Y001582D01*
X001901Y001564D01*
X001901Y001403D01*
X001199Y001583D02*
X001166Y001431D01*
X003700Y002871D02*
X003748Y002823D01*
X003884Y002899D01*
X003928Y002820D01*
X003882Y002743D01*
X003748Y002823D01*
X003751Y002820D01*
X003928Y002820D01*
D16*
X000905Y002459D02*
X000897Y002459D01*
X000897Y002209D01*
M02*
