G75*
%MOIN*%
%OFA0B0*%
%FSLAX24Y24*%
%IPPOS*%
%LPD*%
%AMOC8*
5,1,8,0,0,1.08239X$1,22.5*
%
%ADD10R,0.0984X0.0984*%
%ADD11R,0.0118X0.0315*%
%ADD12R,0.0315X0.0118*%
%ADD13R,0.0197X0.0197*%
%ADD14R,0.0140X0.0420*%
%ADD15R,0.0420X0.0140*%
%ADD16C,0.0079*%
%ADD17C,0.0060*%
%ADD18C,0.0240*%
D10*
X001271Y002536D03*
D11*
X001271Y003285D03*
X001074Y003285D03*
X000877Y003285D03*
X001468Y003285D03*
X001664Y003285D03*
X001664Y001788D03*
X001468Y001788D03*
X001271Y001788D03*
X001074Y001788D03*
X000877Y001788D03*
D12*
X000523Y002143D03*
X000523Y002340D03*
X000523Y002536D03*
X000523Y002733D03*
X000523Y002930D03*
X002019Y002930D03*
X002019Y002733D03*
X002019Y002536D03*
X002019Y002340D03*
X002019Y002143D03*
D13*
X002279Y003372D03*
X002621Y003364D03*
X002991Y003419D03*
X002621Y003764D03*
X002279Y003772D03*
X001928Y003965D03*
X001928Y003565D03*
X002991Y003819D03*
X003022Y000737D03*
X002622Y000737D03*
D14*
X002824Y001522D03*
X003074Y001522D03*
X003334Y001522D03*
X003584Y001522D03*
X003584Y002922D03*
X003334Y002922D03*
X003074Y002922D03*
X002824Y002922D03*
D15*
X002504Y002602D03*
X002504Y002352D03*
X002504Y002092D03*
X002504Y001842D03*
X003904Y001842D03*
X003904Y002092D03*
X003904Y002352D03*
X003904Y002602D03*
D16*
X000876Y000933D02*
X000871Y000940D01*
X000875Y000940D01*
X000890Y000936D01*
X000890Y000936D01*
X000890Y000936D01*
X000951Y000971D01*
X000989Y000987D01*
X001004Y001002D01*
X001053Y001030D01*
X001295Y001030D01*
X001381Y001116D01*
X001497Y001232D01*
X001562Y001168D01*
X001673Y001168D01*
X001720Y001145D01*
X001725Y001140D01*
X001776Y001119D01*
X001798Y001109D01*
X001852Y001084D01*
X001852Y001084D01*
X001878Y001093D01*
X001962Y001093D01*
X002076Y001140D01*
X002163Y001227D01*
X002210Y001341D01*
X002210Y001464D01*
X002163Y001578D01*
X002157Y001584D01*
X002185Y001612D01*
X002215Y001582D01*
X002564Y001582D01*
X002564Y001233D01*
X002642Y001156D01*
X002642Y001056D01*
X002704Y000993D01*
X002714Y000984D01*
X002714Y000975D01*
X002632Y000975D01*
X002632Y000747D01*
X002612Y000747D01*
X002612Y000727D01*
X002632Y000727D01*
X002632Y000499D01*
X002739Y000499D01*
X002755Y000504D01*
X002647Y000459D01*
X002172Y000397D01*
X001698Y000459D01*
X001256Y000642D01*
X000876Y000933D01*
X000898Y000916D02*
X002409Y000916D01*
X002412Y000921D02*
X002394Y000890D01*
X002384Y000854D01*
X002384Y000747D01*
X002612Y000747D01*
X002612Y000975D01*
X002505Y000975D01*
X002470Y000966D01*
X002438Y000947D01*
X002412Y000921D01*
X002384Y000839D02*
X000999Y000839D01*
X001100Y000762D02*
X002384Y000762D01*
X002384Y000727D02*
X002384Y000621D01*
X002394Y000585D01*
X002412Y000553D01*
X002438Y000527D01*
X002470Y000509D01*
X002505Y000499D01*
X002612Y000499D01*
X002612Y000727D01*
X002384Y000727D01*
X002384Y000685D02*
X001200Y000685D01*
X001340Y000607D02*
X002388Y000607D01*
X002435Y000530D02*
X001526Y000530D01*
X001744Y000453D02*
X002600Y000453D01*
X002612Y000530D02*
X002632Y000530D01*
X002632Y000607D02*
X002612Y000607D01*
X002612Y000685D02*
X002632Y000685D01*
X002632Y000762D02*
X002612Y000762D01*
X002612Y000839D02*
X002632Y000839D01*
X002632Y000916D02*
X002612Y000916D01*
X002704Y000994D02*
X000996Y000994D01*
X001336Y001071D02*
X002642Y001071D01*
X002642Y001148D02*
X002084Y001148D01*
X002161Y001225D02*
X002572Y001225D01*
X002564Y001303D02*
X002194Y001303D01*
X002210Y001380D02*
X002564Y001380D01*
X002564Y001457D02*
X002210Y001457D01*
X002181Y001534D02*
X002564Y001534D01*
X002186Y001611D02*
X002185Y001611D01*
X001714Y001148D02*
X001413Y001148D01*
X001490Y001225D02*
X001504Y001225D01*
X002504Y002611D02*
X002504Y002811D01*
X002504Y002611D01*
X002504Y002611D01*
X002504Y002616D02*
X002504Y002616D01*
X002504Y002693D02*
X002504Y002693D01*
X002504Y002770D02*
X002504Y002770D01*
X002504Y002811D02*
X002564Y002811D01*
X002564Y003076D01*
X002444Y003076D01*
X002436Y003084D01*
X002349Y003084D01*
X002366Y003068D01*
X002366Y002811D01*
X002504Y002811D01*
X002564Y002847D02*
X002366Y002847D01*
X002366Y002925D02*
X002564Y002925D01*
X002564Y003002D02*
X002366Y003002D01*
X002354Y003079D02*
X002441Y003079D01*
X002516Y003754D02*
X002611Y003754D01*
X002611Y003774D01*
X002383Y003774D01*
X002383Y003782D01*
X002288Y003782D01*
X002269Y003782D01*
X002269Y004010D01*
X002166Y004010D01*
X002166Y004061D01*
X002172Y004062D01*
X002631Y004002D01*
X002631Y003774D01*
X002611Y003774D01*
X002611Y004002D01*
X002504Y004002D01*
X002469Y003992D01*
X002457Y003985D01*
X002431Y004000D01*
X002395Y004010D01*
X002288Y004010D01*
X002288Y003782D01*
X002288Y003762D01*
X002516Y003762D01*
X002516Y003754D01*
X002611Y003774D02*
X002631Y003774D01*
X002631Y003851D02*
X002611Y003851D01*
X002611Y003929D02*
X002631Y003929D01*
X002631Y004002D02*
X002631Y004002D01*
X002600Y004006D02*
X002409Y004006D01*
X002288Y004006D02*
X002269Y004006D01*
X002269Y003929D02*
X002288Y003929D01*
X002288Y003851D02*
X002269Y003851D01*
X002288Y003774D02*
X002383Y003774D01*
X001918Y003955D02*
X001690Y003955D01*
X001690Y003848D01*
X001700Y003813D01*
X001704Y003805D01*
X001683Y003784D01*
X001574Y003784D01*
X001445Y003656D01*
X001445Y003631D01*
X001408Y003631D01*
X001133Y003631D01*
X001083Y003581D01*
X001074Y003581D01*
X001074Y003572D01*
X001074Y003572D01*
X001074Y003581D01*
X000996Y003581D01*
X000975Y003576D01*
X000954Y003581D01*
X000949Y003581D01*
X001256Y003817D01*
X001690Y003997D01*
X001690Y003975D01*
X001918Y003975D01*
X001918Y003955D01*
X001690Y003929D02*
X001526Y003929D01*
X001564Y003774D02*
X001200Y003774D01*
X001100Y003697D02*
X001486Y003697D01*
X001340Y003851D02*
X001690Y003851D01*
X001122Y003620D02*
X000999Y003620D01*
X001022Y003285D02*
X000877Y003285D01*
X000877Y003285D01*
X000877Y003285D01*
X000691Y003285D01*
X000691Y003285D01*
X000877Y003285D01*
X001022Y003285D01*
X001022Y003285D01*
X003904Y002602D02*
X003904Y002352D01*
X003904Y002352D01*
X003904Y002392D01*
X003904Y002602D01*
X003904Y002602D01*
X003904Y002538D02*
X003904Y002538D01*
X003904Y002461D02*
X003904Y002461D01*
X003904Y002384D02*
X003904Y002384D01*
X003904Y002352D02*
X003904Y002142D01*
X003904Y002101D01*
X003904Y002101D01*
X003904Y002352D01*
X003904Y002352D01*
X003904Y002307D02*
X003904Y002307D01*
X003904Y002229D02*
X003904Y002229D01*
X003904Y002152D02*
X003904Y002152D01*
D17*
X003904Y002092D02*
X003904Y002352D01*
X003904Y002602D01*
X003905Y002642D01*
X003845Y002786D01*
X003928Y002820D01*
X004000Y002765D01*
X003905Y002642D01*
X003908Y002799D01*
X003928Y002820D01*
X003620Y003168D02*
X003591Y003144D01*
X003604Y003174D01*
X003594Y003330D01*
X003684Y003336D01*
X003595Y003322D01*
X003620Y003168D01*
X003741Y003266D01*
X003684Y003336D01*
X003734Y003261D01*
X003604Y003174D01*
X003659Y003302D01*
X003684Y003336D01*
X003594Y003341D01*
X003586Y003185D01*
X003725Y003255D01*
X003684Y003336D01*
X003712Y003245D01*
X003620Y003168D01*
X003586Y003185D02*
X003586Y003261D01*
X003684Y003336D01*
X003586Y003185D02*
X003586Y002924D01*
X003584Y002922D01*
X003338Y002890D02*
X003338Y002639D01*
X003355Y002622D01*
X003500Y002565D01*
X003468Y002481D01*
X003379Y002468D01*
X003355Y002622D01*
X003468Y002509D01*
X003468Y002481D01*
X003471Y002225D02*
X003019Y002225D01*
X002865Y002072D01*
X002865Y001930D01*
X002790Y001855D01*
X002522Y001855D01*
X002504Y001842D01*
X002504Y002092D02*
X002019Y002143D01*
X002019Y002340D02*
X002504Y002352D01*
X002504Y002602D02*
X002455Y002653D01*
X002360Y002777D01*
X002432Y002832D01*
X002515Y002797D01*
X002455Y002653D01*
X002432Y002677D01*
X002432Y002832D01*
X002824Y002922D02*
X002869Y002963D01*
X002869Y003297D01*
X002991Y003419D01*
X003055Y003418D01*
X003192Y003493D01*
X003235Y003414D01*
X003189Y003337D01*
X003055Y003418D01*
X003235Y003414D01*
X002936Y003764D02*
X002621Y003764D01*
X002621Y003828D01*
X002585Y003980D01*
X002672Y004001D01*
X002734Y003936D01*
X002621Y003828D01*
X002621Y003950D01*
X002672Y004001D01*
X002621Y003772D02*
X002279Y003772D01*
X002279Y003768D01*
X001928Y003965D01*
X001854Y003965D01*
X001703Y003926D01*
X001680Y004013D01*
X001744Y004076D01*
X001854Y003965D01*
X001728Y003965D01*
X001680Y004013D01*
X001664Y003565D02*
X001928Y003565D01*
X001932Y003135D01*
X001854Y003090D01*
X001932Y002955D01*
X002010Y003090D01*
X001932Y003135D01*
X002010Y003090D01*
X002010Y003090D01*
X001932Y002955D01*
X001854Y003090D01*
X001932Y003135D01*
X002010Y003181D01*
X001930Y003315D01*
X001854Y003179D01*
X001932Y003135D01*
X002010Y003181D01*
X001930Y003315D01*
X001932Y003372D02*
X002279Y003372D01*
X002279Y003364D01*
X002621Y003364D01*
X002621Y003764D02*
X002621Y003772D01*
X002936Y003764D02*
X002991Y003819D01*
X003074Y002922D02*
X003078Y002521D01*
X003121Y002477D01*
X003185Y002540D01*
X003121Y002477D01*
X003034Y002502D01*
X003076Y002652D01*
X003185Y002540D01*
X003076Y002652D01*
X003322Y002906D02*
X003338Y002890D01*
X003322Y002906D02*
X003334Y002922D01*
X003471Y002225D02*
X003578Y002119D01*
X003578Y001914D01*
X003651Y001842D01*
X003904Y001842D01*
X003584Y001522D02*
X003587Y001211D01*
X003608Y001057D01*
X003519Y001044D01*
X003464Y001115D01*
X003519Y001044D01*
X003608Y001057D01*
X003587Y001211D01*
X003464Y001115D01*
X003587Y001211D01*
X003588Y001113D01*
X003519Y001044D01*
X003608Y001057D02*
X003608Y001057D01*
X003179Y001011D02*
X003101Y001056D01*
X003023Y001011D01*
X003101Y000876D01*
X003179Y001011D01*
X003101Y001056D02*
X003069Y001140D01*
X002924Y001084D01*
X003045Y000986D01*
X003101Y001056D01*
X003101Y000876D01*
X003101Y000817D01*
X003022Y000737D01*
X002952Y001056D02*
X003101Y001056D01*
X002952Y001056D02*
X002924Y001084D01*
X002861Y001147D01*
X002861Y001522D01*
X002824Y001522D01*
X003074Y001522D02*
X003094Y001537D01*
X003086Y001537D01*
X003086Y001723D01*
X003014Y001861D01*
X003094Y001903D01*
X003169Y001854D01*
X003086Y001723D01*
X003086Y001903D01*
X003094Y001903D01*
X003284Y001967D02*
X003369Y001997D01*
X003438Y001939D01*
X003336Y001820D01*
X003284Y001967D01*
X003338Y001966D02*
X003369Y001997D01*
X003338Y001966D02*
X003336Y001820D01*
X003334Y001522D01*
X003338Y001522D01*
X002622Y000737D02*
X002622Y000660D01*
X002621Y000504D01*
X002531Y000505D01*
X002486Y000583D01*
X002622Y000660D01*
X002622Y000596D01*
X002531Y000505D01*
X001863Y001321D02*
X001901Y001403D01*
X001849Y001476D01*
X001721Y001387D01*
X001863Y001321D01*
X001885Y001387D02*
X001721Y001387D01*
X001653Y001387D01*
X001468Y001572D01*
X001468Y001788D01*
X001290Y001769D02*
X001290Y001336D01*
X001204Y001249D01*
X000994Y001249D01*
X000859Y001171D01*
X000814Y001249D01*
X000859Y001327D01*
X000994Y001249D01*
X000814Y001249D01*
X000759Y001497D02*
X000625Y001497D01*
X000570Y001552D01*
X000570Y001656D01*
X000492Y001791D01*
X000570Y001836D01*
X000648Y001791D01*
X000570Y001656D01*
X000570Y001836D01*
X000645Y001792D02*
X000491Y001792D01*
X000550Y001659D01*
X000566Y001659D02*
X000645Y001792D01*
X000877Y001788D02*
X000877Y001615D01*
X000759Y001497D01*
X000999Y001493D02*
X001078Y001450D01*
X001155Y001497D01*
X001074Y001630D01*
X000999Y001493D01*
X001078Y001450D01*
X001074Y001454D01*
X001074Y001630D01*
X001155Y001497D01*
X001074Y001630D02*
X000999Y001493D01*
X000999Y001493D01*
X001074Y001630D02*
X001074Y001630D01*
X001074Y001788D01*
X001271Y001789D02*
X001279Y001787D01*
X001285Y001783D01*
X001289Y001777D01*
X001291Y001769D01*
X001664Y001788D02*
X001692Y001816D01*
X001772Y001816D01*
X001907Y001894D01*
X001952Y001816D01*
X001907Y001738D01*
X001952Y001816D01*
X001907Y001894D01*
X001772Y001816D01*
X001907Y001738D01*
X001907Y001738D01*
X001772Y001816D01*
X001907Y001738D01*
X001952Y001816D01*
X001907Y001894D01*
X001772Y001816D01*
X001772Y001816D01*
X001952Y001816D01*
X001772Y001816D02*
X001772Y001816D01*
X001901Y001403D02*
X001885Y001387D01*
X001932Y002930D02*
X001932Y002955D01*
X001932Y002955D01*
X001932Y003135D01*
X001854Y003090D02*
X001932Y002955D01*
X001932Y002955D01*
X001932Y002930D02*
X002019Y002930D01*
X001664Y003285D02*
X001664Y003565D01*
X001928Y003565D02*
X001932Y003372D01*
X001140Y003570D02*
X001062Y003615D01*
X000984Y003570D01*
X001062Y003615D01*
X001140Y003570D01*
X001062Y003435D01*
X001062Y003435D01*
X001062Y003435D01*
X001062Y003296D01*
X001074Y003285D01*
X001062Y003435D02*
X000984Y003570D01*
X001062Y003435D01*
X001140Y003570D01*
X001140Y003570D01*
X001062Y003615D02*
X001062Y003435D01*
X000984Y003570D01*
D18*
X001062Y003615D03*
X001680Y004013D03*
X001932Y003135D03*
X002432Y002832D03*
X003121Y002477D03*
X003468Y002481D03*
X003369Y001997D03*
X003094Y001903D03*
X002464Y001285D03*
X001952Y001816D03*
X001901Y001403D03*
X001078Y001450D03*
X000814Y001249D03*
X000570Y001836D03*
X002531Y000505D03*
X003101Y001056D03*
X003519Y001044D03*
X003928Y002820D03*
X003684Y003336D03*
X003235Y003414D03*
X002672Y004001D03*
M02*
