G75*
%MOIN*%
%OFA0B0*%
%FSLAX24Y24*%
%IPPOS*%
%LPD*%
%AMOC8*
5,1,8,0,0,1.08239X$1,22.5*
%
%ADD10C,0.0050*%
D10*
X000125Y002229D02*
X000127Y002319D01*
X000133Y002409D01*
X000143Y002498D01*
X000157Y002587D01*
X000174Y002675D01*
X000196Y002762D01*
X000221Y002849D01*
X000250Y002934D01*
X000283Y003018D01*
X000319Y003100D01*
X000359Y003180D01*
X000403Y003259D01*
X000450Y003336D01*
X000500Y003410D01*
X000554Y003483D01*
X000610Y003552D01*
X000670Y003620D01*
X000733Y003684D01*
X000798Y003746D01*
X000866Y003805D01*
X000936Y003861D01*
X001009Y003914D01*
X001084Y003963D01*
X001162Y004009D01*
X001241Y004052D01*
X001322Y004091D01*
X001404Y004127D01*
X001488Y004158D01*
X001574Y004187D01*
X001660Y004211D01*
X001748Y004232D01*
X001836Y004248D01*
X001925Y004261D01*
X002015Y004270D01*
X002105Y004275D01*
X002194Y004276D01*
X002284Y004273D01*
X002374Y004266D01*
X002463Y004255D01*
X002552Y004240D01*
X002640Y004222D01*
X002727Y004199D01*
X002813Y004173D01*
X002898Y004143D01*
X002981Y004109D01*
X003063Y004072D01*
X003143Y004031D01*
X003221Y003987D01*
X003298Y003939D01*
X003372Y003888D01*
X003443Y003833D01*
X003512Y003776D01*
X003579Y003716D01*
X003643Y003652D01*
X003704Y003586D01*
X003762Y003518D01*
X003817Y003447D01*
X003869Y003373D01*
X003918Y003298D01*
X003963Y003220D01*
X004005Y003140D01*
X004043Y003059D01*
X004078Y002976D01*
X004109Y002891D01*
X004136Y002806D01*
X004160Y002719D01*
X004179Y002631D01*
X004195Y002543D01*
X004207Y002453D01*
X004215Y002364D01*
X004219Y002274D01*
X004219Y002184D01*
X004215Y002094D01*
X004207Y002005D01*
X004195Y001915D01*
X004179Y001827D01*
X004160Y001739D01*
X004136Y001652D01*
X004109Y001567D01*
X004078Y001482D01*
X004043Y001399D01*
X004005Y001318D01*
X003963Y001238D01*
X003918Y001160D01*
X003869Y001085D01*
X003817Y001011D01*
X003762Y000940D01*
X003704Y000872D01*
X003643Y000806D01*
X003579Y000742D01*
X003512Y000682D01*
X003443Y000625D01*
X003372Y000570D01*
X003298Y000519D01*
X003221Y000471D01*
X003143Y000427D01*
X003063Y000386D01*
X002981Y000349D01*
X002898Y000315D01*
X002813Y000285D01*
X002727Y000259D01*
X002640Y000236D01*
X002552Y000218D01*
X002463Y000203D01*
X002374Y000192D01*
X002284Y000185D01*
X002194Y000182D01*
X002105Y000183D01*
X002015Y000188D01*
X001925Y000197D01*
X001836Y000210D01*
X001748Y000226D01*
X001660Y000247D01*
X001574Y000271D01*
X001488Y000300D01*
X001404Y000331D01*
X001322Y000367D01*
X001241Y000406D01*
X001162Y000449D01*
X001084Y000495D01*
X001009Y000544D01*
X000936Y000597D01*
X000866Y000653D01*
X000798Y000712D01*
X000733Y000774D01*
X000670Y000838D01*
X000610Y000906D01*
X000554Y000975D01*
X000500Y001048D01*
X000450Y001122D01*
X000403Y001199D01*
X000359Y001278D01*
X000319Y001358D01*
X000283Y001440D01*
X000250Y001524D01*
X000221Y001609D01*
X000196Y001696D01*
X000174Y001783D01*
X000157Y001871D01*
X000143Y001960D01*
X000133Y002049D01*
X000127Y002139D01*
X000125Y002229D01*
M02*
