G75*
%MOIN*%
%OFA0B0*%
%FSLAX24Y24*%
%IPPOS*%
%LPD*%
%AMOC8*
5,1,8,0,0,1.08239X$1,22.5*
%
%ADD10R,0.0167X0.0128*%
%ADD11R,0.0128X0.0167*%
%ADD12R,0.0197X0.0197*%
%ADD13C,0.0060*%
%ADD14C,0.0240*%
%ADD15C,0.0100*%
%ADD16C,0.0050*%
D10*
X001296Y001694D03*
X001296Y001891D03*
X001296Y002088D03*
X001296Y002285D03*
X001296Y002482D03*
X001296Y002679D03*
X003068Y002679D03*
X003077Y002482D03*
X003079Y002285D03*
X003077Y002088D03*
X003077Y001891D03*
X003077Y001694D03*
D11*
X002876Y001493D03*
X002679Y001493D03*
X002482Y001493D03*
X002285Y001493D03*
X002088Y001493D03*
X001891Y001493D03*
X001694Y001493D03*
X001498Y001493D03*
X001498Y002881D03*
X001694Y002881D03*
X001891Y002881D03*
X002088Y002881D03*
X002285Y002881D03*
X002482Y002881D03*
X002679Y002881D03*
X002876Y002881D03*
D12*
X003545Y002883D03*
X003545Y003283D03*
X003521Y001712D03*
X003521Y001312D03*
X000934Y001235D03*
X000573Y001556D03*
X000934Y001635D03*
X000573Y001956D03*
D13*
X000704Y001235D02*
X000934Y001235D01*
X000935Y001234D01*
X001368Y001234D01*
X001682Y001234D01*
X001794Y001234D01*
X002076Y001234D01*
X002206Y001234D01*
X002411Y001234D01*
X002611Y001234D01*
X002824Y001234D01*
X003042Y001017D01*
X003175Y000936D01*
X003129Y000859D01*
X003039Y000861D01*
X003042Y001017D01*
X003129Y000929D01*
X003129Y000859D01*
X003254Y001169D02*
X003209Y001247D01*
X003254Y001325D01*
X003389Y001247D01*
X003254Y001169D01*
X003209Y001247D02*
X003389Y001247D01*
X003455Y001247D01*
X003521Y001312D01*
X003503Y001694D02*
X003521Y001712D01*
X003503Y001694D02*
X003077Y001694D01*
X002876Y001493D02*
X002876Y001291D01*
X002880Y001291D01*
X002824Y001234D01*
X002679Y001300D02*
X002676Y001300D01*
X002611Y001234D01*
X002679Y001300D02*
X002679Y001493D01*
X002483Y001491D02*
X002483Y001307D01*
X002411Y001234D01*
X002285Y001313D02*
X002206Y001234D01*
X002285Y001313D02*
X002285Y001492D01*
X002285Y001493D01*
X002482Y001493D02*
X002483Y001491D01*
X002164Y001877D02*
X002088Y001801D01*
X002088Y001493D01*
X002088Y001492D01*
X002088Y001246D01*
X002076Y001234D01*
X001894Y001335D02*
X001794Y001234D01*
X001894Y001335D02*
X001894Y001490D01*
X001891Y001493D01*
X001697Y001491D02*
X001697Y001249D01*
X001682Y001234D01*
X001498Y001364D02*
X001368Y001234D01*
X001498Y001364D02*
X001498Y001493D01*
X001498Y001493D01*
X001694Y001493D02*
X001697Y001491D01*
X001296Y001694D02*
X001094Y001694D01*
X000994Y001694D01*
X000934Y001635D01*
X001094Y001694D02*
X001094Y001891D01*
X001094Y002088D01*
X001094Y002287D01*
X001094Y002482D01*
X001296Y002482D01*
X001296Y002287D02*
X001094Y002287D01*
X001094Y002482D02*
X001094Y002679D01*
X001094Y002681D01*
X001094Y002679D02*
X001296Y002679D01*
X000827Y002679D01*
X000573Y002425D01*
X000573Y002548D01*
X000483Y002675D01*
X000557Y002727D01*
X000639Y002689D01*
X000573Y002548D01*
X000573Y002710D01*
X000557Y002727D01*
X000573Y002425D02*
X000573Y001956D01*
X000633Y001956D01*
X000777Y002017D01*
X000812Y001934D01*
X000758Y001862D01*
X000633Y001956D01*
X000791Y001956D01*
X000812Y001934D01*
X001094Y001891D02*
X001296Y001891D01*
X001296Y002088D02*
X001094Y002088D01*
X001296Y002285D02*
X001296Y002287D01*
X001823Y002065D02*
X001901Y002020D01*
X001979Y002065D01*
X001901Y002200D01*
X001823Y002065D01*
X001901Y002020D02*
X001901Y002200D01*
X001901Y002871D01*
X001900Y002871D02*
X001899Y002876D01*
X001896Y002879D01*
X001891Y002880D01*
X001891Y002881D02*
X001891Y003053D01*
X001688Y003053D01*
X001694Y003046D01*
X001694Y002881D01*
X001498Y002881D02*
X001486Y002892D01*
X001486Y003199D01*
X001816Y003529D01*
X001937Y003627D01*
X001994Y003557D01*
X001962Y003473D01*
X001816Y003529D01*
X001845Y003557D01*
X001994Y003557D01*
X002092Y003282D02*
X002013Y003238D01*
X002088Y003102D01*
X002169Y003235D01*
X002092Y003282D01*
X002088Y003278D01*
X002088Y003102D01*
X002088Y002881D01*
X002088Y002707D01*
X002039Y002658D01*
X002039Y002233D01*
X002164Y002108D01*
X002164Y001877D01*
X002400Y002077D02*
X002478Y002032D01*
X002555Y002077D01*
X002478Y002212D01*
X002400Y002077D01*
X002478Y002032D02*
X002478Y002212D01*
X002478Y002443D01*
X002678Y002644D01*
X002678Y002880D01*
X002679Y002881D01*
X002876Y002881D02*
X003468Y002881D01*
X003562Y002786D01*
X003662Y002667D01*
X003593Y002609D01*
X003508Y002640D01*
X003562Y002786D01*
X003566Y002782D01*
X003566Y002636D01*
X003593Y002609D01*
X003545Y002883D02*
X002878Y002883D01*
X002876Y002881D01*
X002363Y002595D02*
X002285Y002550D01*
X002207Y002595D01*
X002285Y002730D01*
X002363Y002595D01*
X002285Y002551D02*
X002285Y002730D01*
X002285Y002881D01*
X002092Y002877D02*
X002088Y002881D01*
X002285Y002551D02*
X002285Y002550D01*
X003160Y003457D02*
X003116Y003535D01*
X003161Y003613D01*
X003296Y003533D01*
X003160Y003457D01*
X003116Y003535D02*
X003294Y003535D01*
X003296Y003533D01*
X003545Y003283D01*
X000704Y001235D02*
X000573Y001366D01*
X000573Y001556D01*
D14*
X000812Y001934D03*
X000557Y002727D03*
X000921Y002995D03*
X001901Y002020D03*
X002285Y002550D03*
X002478Y002032D03*
X003209Y001247D03*
X003129Y000859D03*
X003593Y002609D03*
X003116Y003535D03*
X002092Y003282D03*
X001994Y003557D03*
D15*
X002340Y003900D02*
X002258Y003981D01*
X002300Y003983D01*
X002743Y003899D01*
X003151Y003707D01*
X003381Y003517D01*
X003355Y003502D01*
X003327Y003474D01*
X003307Y003440D01*
X003297Y003401D01*
X003297Y003283D01*
X003297Y003165D01*
X003305Y003134D01*
X003293Y003121D01*
X003076Y003121D01*
X003026Y003172D01*
X003297Y003172D01*
X003297Y003270D02*
X002707Y003270D01*
X002707Y003172D02*
X002707Y003532D01*
X002340Y003900D01*
X002378Y003861D02*
X002823Y003861D01*
X003033Y003763D02*
X002477Y003763D01*
X002575Y003664D02*
X003203Y003664D01*
X003322Y003566D02*
X002674Y003566D01*
X002707Y003467D02*
X003323Y003467D01*
X003297Y003369D02*
X002707Y003369D01*
X002707Y003172D02*
X003026Y003172D01*
X003297Y003283D02*
X003545Y003283D01*
X003545Y003283D01*
X003297Y003283D01*
X002425Y003960D02*
X002280Y003960D01*
X001142Y002679D02*
X001062Y002679D01*
X001014Y002679D01*
X000986Y002667D02*
X001062Y002699D01*
X001062Y002679D01*
X001062Y002595D01*
X001066Y002580D01*
X001062Y002566D01*
X001062Y002482D01*
X001142Y002482D01*
X001142Y002482D01*
X001062Y002482D01*
X000418Y002482D01*
X000400Y002412D02*
X000513Y002849D01*
X000594Y002997D01*
X000594Y002930D01*
X000644Y002809D01*
X000736Y002717D01*
X000856Y002667D01*
X000986Y002667D01*
X001062Y002679D02*
X001142Y002679D01*
X001142Y002679D01*
X001066Y002581D02*
X000444Y002581D01*
X000469Y002679D02*
X000828Y002679D01*
X000675Y002778D02*
X000494Y002778D01*
X000527Y002876D02*
X000616Y002876D01*
X000594Y002975D02*
X000581Y002975D01*
X001062Y002482D02*
X001062Y002398D01*
X001066Y002383D01*
X001062Y002369D01*
X001062Y002285D01*
X001062Y002201D01*
X001066Y002187D01*
X000743Y002187D01*
X000730Y002194D02*
X000692Y002204D01*
X000573Y002204D01*
X000455Y002204D01*
X000417Y002194D01*
X000400Y002184D01*
X000400Y002412D01*
X000400Y002384D02*
X001066Y002384D01*
X001062Y002285D02*
X000400Y002285D01*
X000400Y002187D02*
X000404Y002187D01*
X000573Y002187D02*
X000573Y002187D01*
X000573Y002204D02*
X000573Y001956D01*
X000573Y001956D01*
X000573Y002204D01*
X000573Y002088D02*
X000573Y002088D01*
X000573Y001990D02*
X000573Y001990D01*
X000574Y001956D02*
X000822Y001956D01*
X000822Y002074D01*
X000812Y002112D01*
X000792Y002146D01*
X000764Y002174D01*
X000730Y002194D01*
X000818Y002088D02*
X001062Y002088D01*
X001062Y002004D01*
X001066Y001990D01*
X001062Y001975D01*
X001062Y001891D01*
X000822Y001891D01*
X000822Y001884D02*
X000822Y001956D01*
X000574Y001956D01*
X000574Y001956D01*
X000822Y001990D02*
X001066Y001990D01*
X001062Y002088D02*
X001142Y002088D01*
X001142Y002088D01*
X001142Y002088D01*
X001062Y002088D01*
X001062Y002172D01*
X001066Y002187D01*
X001062Y002285D02*
X001142Y002285D01*
X001142Y002285D01*
X001142Y002285D01*
X001062Y002285D01*
X001142Y002482D02*
X001142Y002482D01*
X001296Y002482D02*
X001296Y002482D01*
X001296Y002482D01*
X001296Y002499D01*
X001296Y002641D01*
X001296Y002641D01*
X001296Y002482D01*
X001296Y002285D01*
X001296Y002088D01*
X001296Y002088D01*
X001296Y001891D01*
X001296Y001891D01*
X001296Y001732D01*
X001296Y001732D01*
X001296Y001891D01*
X001296Y001891D01*
X001296Y001891D01*
X001296Y001908D01*
X001296Y002088D01*
X001296Y002088D01*
X001296Y002088D01*
X001296Y002105D01*
X001296Y002285D01*
X001296Y002285D01*
X001296Y002285D01*
X001296Y002302D01*
X001296Y002482D01*
X001296Y002482D01*
X001296Y002384D02*
X001296Y002384D01*
X001296Y002285D02*
X001296Y002285D01*
X001296Y002187D02*
X001296Y002187D01*
X001296Y001990D02*
X001296Y001990D01*
X001142Y001891D02*
X001142Y001891D01*
X001062Y001891D01*
X001062Y001881D01*
X001053Y001884D01*
X000934Y001884D01*
X000822Y001884D01*
X000934Y001884D02*
X000934Y001635D01*
X000934Y001635D01*
X000934Y001884D01*
X000934Y001793D02*
X000934Y001793D01*
X000934Y001694D02*
X000934Y001694D01*
X001062Y001891D02*
X001142Y001891D01*
X001142Y001891D01*
X001296Y001793D02*
X001296Y001793D01*
X001296Y002581D02*
X001296Y002581D01*
X003147Y001423D02*
X003147Y001323D01*
X003117Y001293D01*
X003117Y001277D01*
X003142Y001252D01*
X003144Y001252D01*
X003191Y001204D01*
X003277Y001152D01*
X003287Y001148D01*
X003283Y001156D01*
X003272Y001194D01*
X003272Y001312D01*
X003521Y001312D01*
X003521Y001064D01*
X003579Y001064D01*
X003499Y000954D01*
X003456Y000919D01*
X003456Y000924D01*
X003407Y001045D01*
X003388Y001063D01*
X003387Y001068D01*
X003403Y001064D01*
X003521Y001064D01*
X003521Y001312D01*
X003521Y001312D01*
X003521Y001312D01*
X003272Y001312D01*
X003272Y001431D01*
X003279Y001455D01*
X003247Y001423D01*
X003147Y001423D01*
X003147Y001399D02*
X003272Y001399D01*
X003272Y001300D02*
X003124Y001300D01*
X003195Y001202D02*
X003272Y001202D01*
X003423Y001005D02*
X003536Y001005D01*
X003521Y001103D02*
X003521Y001103D01*
X003521Y001202D02*
X003521Y001202D01*
X003521Y001300D02*
X003521Y001300D01*
D16*
X002482Y002881D02*
X002474Y002888D01*
X002474Y003436D01*
X002107Y003803D01*
X001551Y003803D01*
X000923Y003175D01*
X001002Y003044D01*
X000921Y002995D01*
X000841Y003046D01*
X000923Y003175D01*
X000921Y003173D01*
X000921Y002995D01*
M02*
