G75*
%MOIN*%
%OFA0B0*%
%FSLAX24Y24*%
%IPPOS*%
%LPD*%
%AMOC8*
5,1,8,0,0,1.08239X$1,22.5*
%
%ADD10C,0.0180*%
%ADD11C,0.0050*%
D10*
X000947Y000985D03*
X000768Y001235D03*
X000505Y001852D03*
X000640Y002965D03*
X001828Y003897D03*
X002237Y003820D03*
X003248Y003665D03*
X003940Y002628D03*
X003317Y002560D03*
X003173Y001865D03*
X002360Y002620D03*
X002089Y002612D03*
X002162Y001789D03*
X002354Y001498D03*
X002333Y001127D03*
X002215Y000509D03*
X001863Y000505D03*
X003258Y001006D03*
D11*
X003411Y000800D02*
X001067Y000800D01*
X001065Y000801D02*
X001161Y000896D01*
X001161Y001073D01*
X001075Y001159D01*
X001083Y001162D01*
X001252Y001107D01*
X001259Y001098D01*
X001310Y001089D01*
X001359Y001073D01*
X001369Y001078D01*
X001544Y001046D01*
X001552Y001037D01*
X001603Y001035D01*
X001654Y001025D01*
X001663Y001032D01*
X001842Y001023D01*
X001850Y001016D01*
X001902Y001020D01*
X001953Y001017D01*
X001962Y001024D01*
X002121Y001037D01*
X002245Y000913D01*
X002422Y000913D01*
X002547Y001039D01*
X002547Y001124D01*
X002548Y001126D01*
X002716Y001186D01*
X002727Y001183D01*
X002773Y001206D01*
X002822Y001224D01*
X002826Y001234D01*
X002985Y001315D01*
X002996Y001313D01*
X003039Y001342D01*
X003085Y001366D01*
X003088Y001376D01*
X003235Y001478D01*
X003246Y001477D01*
X003285Y001512D01*
X003327Y001541D01*
X003329Y001552D01*
X003482Y001690D01*
X003516Y001705D01*
X003526Y001729D01*
X003545Y001747D01*
X003547Y001785D01*
X003560Y001820D01*
X003550Y001844D01*
X003551Y001869D01*
X003526Y001898D01*
X003500Y001955D01*
X003503Y001968D01*
X003476Y002009D01*
X003455Y002055D01*
X003443Y002060D01*
X003422Y002091D01*
X003423Y002105D01*
X003390Y002141D01*
X003362Y002183D01*
X003349Y002186D01*
X003324Y002214D01*
X003323Y002227D01*
X003284Y002258D01*
X003250Y002295D01*
X003237Y002296D01*
X003208Y002320D01*
X003204Y002333D01*
X003161Y002357D01*
X003122Y002389D01*
X003109Y002387D01*
X003077Y002406D01*
X003071Y002418D01*
X003025Y002436D01*
X002981Y002461D01*
X002969Y002457D01*
X002933Y002471D01*
X002926Y002482D01*
X002877Y002492D01*
X002831Y002510D01*
X002819Y002505D01*
X002782Y002512D01*
X002773Y002522D01*
X002723Y002525D01*
X002674Y002535D01*
X002663Y002528D01*
X002626Y002530D01*
X002615Y002538D01*
X002574Y002534D01*
X002574Y002708D01*
X002449Y002833D01*
X002418Y002833D01*
X002420Y002850D01*
X002413Y002860D01*
X002564Y003357D01*
X002606Y003346D01*
X002650Y003326D01*
X002664Y003331D01*
X002673Y003329D01*
X002683Y003318D01*
X002731Y003314D01*
X002777Y003302D01*
X002790Y003309D01*
X002800Y003309D01*
X002811Y003299D01*
X002859Y003304D01*
X002907Y003301D01*
X002919Y003311D01*
X002928Y003312D01*
X002941Y003304D01*
X002988Y003318D01*
X003035Y003323D01*
X003045Y003334D01*
X003054Y003337D01*
X003068Y003332D01*
X003111Y003354D01*
X003158Y003367D01*
X003165Y003380D01*
X003173Y003385D01*
X003188Y003382D01*
X003227Y003411D01*
X003270Y003433D01*
X003275Y003447D01*
X003280Y003451D01*
X003336Y003451D01*
X003461Y003576D01*
X003461Y003577D01*
X003495Y003553D01*
X003812Y003164D01*
X004012Y002703D01*
X004080Y002206D01*
X004012Y001709D01*
X004012Y001709D01*
X003812Y001248D01*
X003495Y000859D01*
X003085Y000569D01*
X002612Y000401D01*
X002395Y000387D01*
X002429Y000421D01*
X002429Y000597D01*
X002304Y000722D01*
X002127Y000722D01*
X002002Y000597D01*
X002002Y000421D01*
X002041Y000382D01*
X001619Y000469D01*
X001174Y000700D01*
X001065Y000801D01*
X001112Y000848D02*
X003479Y000848D01*
X003525Y000897D02*
X001161Y000897D01*
X001161Y000945D02*
X002213Y000945D01*
X002165Y000994D02*
X001161Y000994D01*
X001161Y001042D02*
X001547Y001042D01*
X001593Y001188D02*
X002120Y001188D01*
X002120Y001186D02*
X001899Y001168D01*
X001621Y001183D01*
X001346Y001233D01*
X001080Y001319D01*
X000901Y001404D01*
X000856Y001448D01*
X000813Y001448D01*
X000594Y001590D01*
X000487Y001681D01*
X000437Y001859D01*
X000491Y001942D01*
X000623Y002095D01*
X000776Y002227D01*
X000837Y002266D01*
X001891Y002314D01*
X001901Y002307D01*
X001951Y002317D01*
X001989Y002319D01*
X001993Y002317D01*
X001999Y002320D01*
X002001Y002320D01*
X002002Y002321D01*
X002038Y002335D01*
X002080Y002343D01*
X002082Y002342D01*
X002084Y002344D01*
X002086Y002344D01*
X002087Y002346D01*
X002123Y002368D01*
X002162Y002383D01*
X002164Y002383D01*
X002166Y002384D01*
X002168Y002385D01*
X002169Y002387D01*
X002177Y002394D01*
X002307Y002335D01*
X002436Y002370D01*
X002570Y002384D01*
X002704Y002377D01*
X002835Y002349D01*
X002961Y002302D01*
X003077Y002235D01*
X003182Y002150D01*
X003272Y002051D01*
X003345Y001938D01*
X003400Y001816D01*
X003192Y001628D01*
X002963Y001470D01*
X002714Y001343D01*
X002497Y001265D01*
X002460Y001302D01*
X002567Y001409D01*
X002567Y001586D01*
X002442Y001711D01*
X002265Y001711D01*
X002140Y001586D01*
X002140Y001409D01*
X002227Y001322D01*
X002120Y001215D01*
X002120Y001186D01*
X002141Y001236D02*
X001337Y001236D01*
X001300Y001091D02*
X001143Y001091D01*
X001154Y001139D02*
X001095Y001139D01*
X001186Y001285D02*
X002189Y001285D01*
X002216Y001333D02*
X001050Y001333D01*
X000948Y001382D02*
X002168Y001382D01*
X002140Y001430D02*
X000875Y001430D01*
X000766Y001479D02*
X002140Y001479D01*
X002140Y001527D02*
X000692Y001527D01*
X000617Y001576D02*
X002140Y001576D01*
X002179Y001624D02*
X000554Y001624D01*
X000497Y001673D02*
X002227Y001673D01*
X002481Y001673D02*
X003241Y001673D01*
X003295Y001721D02*
X000476Y001721D01*
X000462Y001770D02*
X003349Y001770D01*
X003399Y001818D02*
X000449Y001818D01*
X000442Y001867D02*
X003377Y001867D01*
X003355Y001915D02*
X000474Y001915D01*
X000510Y001964D02*
X003328Y001964D01*
X003297Y002012D02*
X000552Y002012D01*
X000594Y002061D02*
X003263Y002061D01*
X003219Y002109D02*
X000640Y002109D01*
X000696Y002158D02*
X003172Y002158D01*
X003112Y002206D02*
X000752Y002206D01*
X000820Y002255D02*
X003042Y002255D01*
X002957Y002303D02*
X001645Y002303D01*
X001579Y002449D02*
X000533Y002449D01*
X000539Y002442D02*
X000492Y002491D01*
X000455Y002547D01*
X000443Y002574D01*
X000546Y002940D01*
X000807Y003369D01*
X001113Y003656D01*
X001153Y003685D01*
X001377Y003812D01*
X001614Y003912D01*
X001615Y003912D01*
X001615Y003808D01*
X001740Y003683D01*
X001917Y003683D01*
X002023Y003790D01*
X002023Y003732D01*
X002148Y003607D01*
X002325Y003607D01*
X002450Y003732D01*
X002450Y003909D01*
X002330Y004029D01*
X002342Y004029D01*
X002541Y004016D01*
X002616Y004009D01*
X003085Y003843D01*
X003308Y003685D01*
X003301Y003674D01*
X003231Y003599D01*
X003149Y003538D01*
X003057Y003493D01*
X002959Y003464D01*
X002857Y003453D01*
X002755Y003461D01*
X002656Y003487D01*
X002563Y003529D01*
X002479Y003588D01*
X002263Y002876D01*
X002264Y002825D01*
X002147Y002708D01*
X002147Y002565D01*
X002113Y002535D01*
X002057Y002501D01*
X001997Y002478D01*
X001933Y002465D01*
X000593Y002403D01*
X000539Y002442D01*
X000488Y002497D02*
X002046Y002497D01*
X002125Y002546D02*
X000456Y002546D01*
X000449Y002594D02*
X002147Y002594D01*
X002147Y002643D02*
X000462Y002643D01*
X000476Y002691D02*
X002147Y002691D01*
X002178Y002740D02*
X000490Y002740D01*
X000503Y002788D02*
X002227Y002788D01*
X002264Y002837D02*
X000517Y002837D01*
X000530Y002885D02*
X002266Y002885D01*
X002280Y002934D02*
X000544Y002934D01*
X000571Y002982D02*
X002295Y002982D01*
X002310Y003031D02*
X000601Y003031D01*
X000630Y003079D02*
X002325Y003079D01*
X002339Y003128D02*
X000660Y003128D01*
X000689Y003176D02*
X002354Y003176D01*
X002369Y003225D02*
X000719Y003225D01*
X000748Y003273D02*
X002383Y003273D01*
X002398Y003322D02*
X000778Y003322D01*
X000807Y003370D02*
X002413Y003370D01*
X002428Y003419D02*
X000859Y003419D01*
X000911Y003467D02*
X002442Y003467D01*
X002457Y003516D02*
X000963Y003516D01*
X001015Y003564D02*
X002472Y003564D01*
X002514Y003564D02*
X003183Y003564D01*
X003243Y003613D02*
X002331Y003613D01*
X002379Y003661D02*
X003288Y003661D01*
X003273Y003710D02*
X002428Y003710D01*
X002450Y003758D02*
X003204Y003758D01*
X003136Y003807D02*
X002450Y003807D01*
X002450Y003855D02*
X003050Y003855D01*
X002913Y003904D02*
X002450Y003904D01*
X002407Y003952D02*
X002777Y003952D01*
X002640Y004001D02*
X002358Y004001D01*
X002045Y003710D02*
X001943Y003710D01*
X001992Y003758D02*
X002023Y003758D01*
X002094Y003661D02*
X001121Y003661D01*
X001067Y003613D02*
X002142Y003613D01*
X002553Y003322D02*
X002679Y003322D01*
X002539Y003273D02*
X003723Y003273D01*
X003762Y003225D02*
X002524Y003225D01*
X002509Y003176D02*
X003802Y003176D01*
X003827Y003128D02*
X002494Y003128D01*
X002480Y003079D02*
X003848Y003079D01*
X003869Y003031D02*
X002465Y003031D01*
X002450Y002982D02*
X003890Y002982D01*
X003912Y002934D02*
X002435Y002934D01*
X002421Y002885D02*
X003933Y002885D01*
X003954Y002837D02*
X002418Y002837D01*
X002494Y002788D02*
X003975Y002788D01*
X003996Y002740D02*
X003440Y002740D01*
X003405Y002774D02*
X003228Y002774D01*
X003103Y002649D01*
X003103Y002472D01*
X003228Y002347D01*
X003405Y002347D01*
X003530Y002472D01*
X003530Y002649D01*
X003405Y002774D01*
X003488Y002691D02*
X004013Y002691D01*
X004020Y002643D02*
X003530Y002643D01*
X003530Y002594D02*
X004027Y002594D01*
X004033Y002546D02*
X003530Y002546D01*
X003530Y002497D02*
X004040Y002497D01*
X004047Y002449D02*
X003507Y002449D01*
X003458Y002400D02*
X004053Y002400D01*
X004060Y002352D02*
X003410Y002352D01*
X003289Y002255D02*
X004073Y002255D01*
X004067Y002303D02*
X003229Y002303D01*
X003224Y002352D02*
X003171Y002352D01*
X003175Y002400D02*
X003087Y002400D01*
X003127Y002449D02*
X003003Y002449D01*
X003103Y002497D02*
X002865Y002497D01*
X002825Y002352D02*
X002369Y002352D01*
X002270Y002352D02*
X002097Y002352D01*
X002574Y002546D02*
X003103Y002546D01*
X003103Y002594D02*
X002574Y002594D01*
X002574Y002643D02*
X003103Y002643D01*
X003146Y002691D02*
X002574Y002691D01*
X002543Y002740D02*
X003194Y002740D01*
X003331Y002206D02*
X004080Y002206D01*
X004073Y002158D02*
X003379Y002158D01*
X003419Y002109D02*
X004067Y002109D01*
X004060Y002061D02*
X003442Y002061D01*
X003474Y002012D02*
X004053Y002012D01*
X004047Y001964D02*
X003502Y001964D01*
X003518Y001915D02*
X004040Y001915D01*
X004033Y001867D02*
X003551Y001867D01*
X003559Y001818D02*
X004027Y001818D01*
X004020Y001770D02*
X003546Y001770D01*
X003522Y001721D02*
X004013Y001721D01*
X003996Y001673D02*
X003463Y001673D01*
X003409Y001624D02*
X003975Y001624D01*
X003954Y001576D02*
X003355Y001576D01*
X003307Y001527D02*
X003933Y001527D01*
X003912Y001479D02*
X003248Y001479D01*
X003166Y001430D02*
X003890Y001430D01*
X003869Y001382D02*
X003096Y001382D01*
X003026Y001333D02*
X003848Y001333D01*
X003827Y001285D02*
X002926Y001285D01*
X002831Y001236D02*
X003802Y001236D01*
X003762Y001188D02*
X002736Y001188D01*
X002584Y001139D02*
X003723Y001139D01*
X003683Y001091D02*
X002547Y001091D01*
X002547Y001042D02*
X003644Y001042D01*
X003604Y000994D02*
X002502Y000994D01*
X002453Y000945D02*
X003565Y000945D01*
X003342Y000751D02*
X001119Y000751D01*
X001171Y000703D02*
X002107Y000703D01*
X002059Y000654D02*
X001262Y000654D01*
X001356Y000606D02*
X002010Y000606D01*
X002002Y000557D02*
X001450Y000557D01*
X001543Y000509D02*
X002002Y000509D01*
X002002Y000460D02*
X001663Y000460D01*
X001897Y000412D02*
X002011Y000412D01*
X002324Y000703D02*
X003273Y000703D01*
X003205Y000654D02*
X002372Y000654D01*
X002421Y000606D02*
X003136Y000606D01*
X003050Y000557D02*
X002429Y000557D01*
X002429Y000509D02*
X002913Y000509D01*
X002777Y000460D02*
X002429Y000460D01*
X002420Y000412D02*
X002640Y000412D01*
X002550Y001285D02*
X002478Y001285D01*
X002491Y001333D02*
X002687Y001333D01*
X002790Y001382D02*
X002540Y001382D01*
X002567Y001430D02*
X002885Y001430D01*
X002975Y001479D02*
X002567Y001479D01*
X002567Y001527D02*
X003045Y001527D01*
X003116Y001576D02*
X002567Y001576D01*
X002529Y001624D02*
X003186Y001624D01*
X003024Y003322D02*
X003683Y003322D01*
X003644Y003370D02*
X003159Y003370D01*
X003241Y003419D02*
X003604Y003419D01*
X003565Y003467D02*
X003352Y003467D01*
X003401Y003516D02*
X003525Y003516D01*
X003479Y003564D02*
X003449Y003564D01*
X003103Y003516D02*
X002593Y003516D01*
X002731Y003467D02*
X002970Y003467D01*
X001714Y003710D02*
X001196Y003710D01*
X001281Y003758D02*
X001665Y003758D01*
X001617Y003807D02*
X001366Y003807D01*
X001478Y003855D02*
X001615Y003855D01*
X001615Y003904D02*
X001594Y003904D01*
M02*
