G75*
%MOIN*%
%OFA0B0*%
%FSLAX24Y24*%
%IPPOS*%
%LPD*%
%AMOC8*
5,1,8,0,0,1.08239X$1,22.5*
%
%ADD10R,0.0180X0.0340*%
%ADD11R,0.0591X0.0710*%
%ADD12R,0.0257X0.0257*%
%ADD13R,0.0257X0.0257*%
%ADD14R,0.0414X0.0147*%
%ADD15R,0.0395X0.0257*%
%ADD16C,0.0240*%
D10*
X000870Y001654D03*
X001070Y001654D03*
X001270Y001654D03*
X001270Y002754D03*
X001070Y002754D03*
X000870Y002754D03*
D11*
X001070Y002204D03*
D12*
G36*
X000603Y003158D02*
X000768Y003353D01*
X000963Y003188D01*
X000798Y002993D01*
X000603Y003158D01*
G37*
G36*
X000860Y003464D02*
X001025Y003659D01*
X001220Y003494D01*
X001055Y003299D01*
X000860Y003464D01*
G37*
G36*
X001520Y003450D02*
X001355Y003255D01*
X001160Y003420D01*
X001325Y003615D01*
X001520Y003450D01*
G37*
G36*
X001777Y003756D02*
X001612Y003561D01*
X001417Y003726D01*
X001582Y003921D01*
X001777Y003756D01*
G37*
D13*
X000510Y002505D03*
X000510Y002105D03*
X001343Y001293D03*
X001343Y000893D03*
D14*
X001719Y001104D03*
X001719Y001261D03*
X001719Y001419D03*
X001719Y001576D03*
X001719Y001734D03*
X001719Y001891D03*
X001719Y002049D03*
X001719Y002206D03*
X001719Y002364D03*
X001719Y002521D03*
X001719Y002679D03*
X001719Y002836D03*
X001719Y002993D03*
X001719Y003151D03*
X001719Y003308D03*
X002754Y003308D03*
X002754Y003151D03*
X002754Y002993D03*
X002754Y002836D03*
X002754Y002679D03*
X002754Y002521D03*
X002754Y002364D03*
X002754Y002206D03*
X002754Y002049D03*
X002754Y001891D03*
X002754Y001734D03*
X002754Y001576D03*
X002754Y001419D03*
X002754Y001261D03*
X002754Y001104D03*
D15*
X002528Y000789D03*
X001945Y000789D03*
X001945Y003623D03*
X002528Y003623D03*
D16*
X000768Y001235D03*
X002215Y000509D03*
M02*
