G75*
%MOIN*%
%OFA0B0*%
%FSLAX24Y24*%
%IPPOS*%
%LPD*%
%AMOC8*
5,1,8,0,0,1.08239X$1,22.5*
%
%ADD10C,0.0000*%
D10*
X000268Y002206D02*
X000270Y002294D01*
X000276Y002382D01*
X000286Y002470D01*
X000300Y002558D01*
X000317Y002644D01*
X000339Y002730D01*
X000364Y002814D01*
X000394Y002898D01*
X000426Y002980D01*
X000463Y003060D01*
X000503Y003139D01*
X000547Y003216D01*
X000594Y003291D01*
X000644Y003363D01*
X000698Y003434D01*
X000754Y003501D01*
X000814Y003567D01*
X000876Y003629D01*
X000942Y003689D01*
X001009Y003745D01*
X001080Y003799D01*
X001152Y003849D01*
X001227Y003896D01*
X001304Y003940D01*
X001383Y003980D01*
X001463Y004017D01*
X001545Y004049D01*
X001629Y004079D01*
X001713Y004104D01*
X001799Y004126D01*
X001885Y004143D01*
X001973Y004157D01*
X002061Y004167D01*
X002149Y004173D01*
X002237Y004175D01*
X002325Y004173D01*
X002413Y004167D01*
X002501Y004157D01*
X002589Y004143D01*
X002675Y004126D01*
X002761Y004104D01*
X002845Y004079D01*
X002929Y004049D01*
X003011Y004017D01*
X003091Y003980D01*
X003170Y003940D01*
X003247Y003896D01*
X003322Y003849D01*
X003394Y003799D01*
X003465Y003745D01*
X003532Y003689D01*
X003598Y003629D01*
X003660Y003567D01*
X003720Y003501D01*
X003776Y003434D01*
X003830Y003363D01*
X003880Y003291D01*
X003927Y003216D01*
X003971Y003139D01*
X004011Y003060D01*
X004048Y002980D01*
X004080Y002898D01*
X004110Y002814D01*
X004135Y002730D01*
X004157Y002644D01*
X004174Y002558D01*
X004188Y002470D01*
X004198Y002382D01*
X004204Y002294D01*
X004206Y002206D01*
X004204Y002118D01*
X004198Y002030D01*
X004188Y001942D01*
X004174Y001854D01*
X004157Y001768D01*
X004135Y001682D01*
X004110Y001598D01*
X004080Y001514D01*
X004048Y001432D01*
X004011Y001352D01*
X003971Y001273D01*
X003927Y001196D01*
X003880Y001121D01*
X003830Y001049D01*
X003776Y000978D01*
X003720Y000911D01*
X003660Y000845D01*
X003598Y000783D01*
X003532Y000723D01*
X003465Y000667D01*
X003394Y000613D01*
X003322Y000563D01*
X003247Y000516D01*
X003170Y000472D01*
X003091Y000432D01*
X003011Y000395D01*
X002929Y000363D01*
X002845Y000333D01*
X002761Y000308D01*
X002675Y000286D01*
X002589Y000269D01*
X002501Y000255D01*
X002413Y000245D01*
X002325Y000239D01*
X002237Y000237D01*
X002149Y000239D01*
X002061Y000245D01*
X001973Y000255D01*
X001885Y000269D01*
X001799Y000286D01*
X001713Y000308D01*
X001629Y000333D01*
X001545Y000363D01*
X001463Y000395D01*
X001383Y000432D01*
X001304Y000472D01*
X001227Y000516D01*
X001152Y000563D01*
X001080Y000613D01*
X001009Y000667D01*
X000942Y000723D01*
X000876Y000783D01*
X000814Y000845D01*
X000754Y000911D01*
X000698Y000978D01*
X000644Y001049D01*
X000594Y001121D01*
X000547Y001196D01*
X000503Y001273D01*
X000463Y001352D01*
X000426Y001432D01*
X000394Y001514D01*
X000364Y001598D01*
X000339Y001682D01*
X000317Y001768D01*
X000300Y001854D01*
X000286Y001942D01*
X000276Y002030D01*
X000270Y002118D01*
X000268Y002206D01*
M02*
