G75*
%MOIN*%
%OFA0B0*%
%FSLAX24Y24*%
%IPPOS*%
%LPD*%
%AMOC8*
5,1,8,0,0,1.08239X$1,22.5*
%
%ADD10R,0.0098X0.0266*%
%ADD11R,0.0559X0.0240*%
%ADD12R,0.0197X0.0197*%
%ADD13R,0.0197X0.0197*%
%ADD14R,0.0197X0.0236*%
%ADD15R,0.0327X0.0197*%
%ADD16R,0.0531X0.0846*%
%ADD17R,0.0236X0.0472*%
%ADD18R,0.0315X0.0709*%
%ADD19C,0.0050*%
%ADD20C,0.0180*%
%ADD21C,0.0098*%
D10*
X000701Y001847D03*
X000898Y001847D03*
X001095Y001847D03*
X001095Y002565D03*
X000898Y002565D03*
X000701Y002565D03*
D11*
X000898Y002206D03*
D12*
X001480Y002296D03*
X001480Y001896D03*
X001187Y001528D03*
X001187Y001128D03*
X003315Y002825D03*
X003613Y002823D03*
X003613Y003223D03*
X003315Y003225D03*
X003411Y002042D03*
X003811Y002042D03*
D13*
G36*
X001688Y003797D02*
X001562Y003647D01*
X001412Y003773D01*
X001538Y003923D01*
X001688Y003797D01*
G37*
G36*
X001431Y003490D02*
X001305Y003340D01*
X001155Y003466D01*
X001281Y003616D01*
X001431Y003490D01*
G37*
D14*
X001321Y003110D03*
X000966Y003110D03*
D15*
X001849Y003218D03*
X001849Y003592D03*
X001849Y002844D03*
X002939Y002844D03*
X002939Y003218D03*
X002939Y003592D03*
D16*
X002394Y003218D03*
D17*
X002433Y002206D03*
X002040Y002206D03*
D18*
X001528Y000986D03*
X002945Y000986D03*
D19*
X000992Y000938D02*
X000947Y000985D01*
X000956Y001049D01*
X001090Y001031D01*
X000992Y000938D01*
X000947Y000985D02*
X001044Y000985D01*
X001090Y001031D01*
X001187Y001128D01*
X001187Y001528D02*
X001115Y001540D01*
X001095Y001847D01*
X001095Y002198D02*
X001068Y002206D01*
X000898Y002206D01*
X001095Y002535D02*
X001095Y002565D01*
X000898Y002565D02*
X000898Y003042D01*
X000918Y003061D02*
X000966Y003110D01*
X000951Y003108D01*
X000936Y003103D01*
X000924Y003095D01*
X000913Y003084D01*
X000905Y003072D01*
X000900Y003057D01*
X000898Y003042D01*
X000705Y002963D02*
X000701Y002828D01*
X000598Y002915D01*
X000640Y002965D01*
X000705Y002963D01*
X000640Y002955D02*
X000640Y002965D01*
X000640Y002955D02*
X000701Y002894D01*
X000701Y002828D01*
X000701Y002565D01*
X001321Y003110D02*
X001394Y003184D01*
X001326Y003183D01*
X001326Y003393D02*
X001294Y003449D01*
X001293Y003478D01*
X001550Y003785D02*
X001600Y003783D01*
X001848Y003593D02*
X001849Y003592D01*
X002178Y003792D02*
X002237Y003820D01*
X002295Y003792D01*
X002237Y003670D01*
X002178Y003792D01*
X002237Y003820D02*
X002237Y003670D01*
X002237Y003380D01*
X002388Y003228D01*
X002378Y003218D01*
X002394Y003218D02*
X002237Y003375D01*
X002245Y003218D02*
X002394Y003218D01*
X002546Y003218D01*
X002433Y003105D01*
X002061Y002671D02*
X002089Y002612D01*
X002061Y002553D01*
X001939Y002612D01*
X002061Y002671D01*
X002089Y002612D02*
X001939Y002612D01*
X001849Y002612D01*
X001849Y002844D01*
X002040Y002296D02*
X002040Y002206D01*
X002047Y002199D01*
X002053Y002191D01*
X002057Y002182D01*
X002058Y002172D01*
X002057Y002162D01*
X002053Y002153D01*
X002053Y001898D02*
X002056Y001895D01*
X002183Y001850D01*
X002162Y001789D01*
X002100Y001767D01*
X002056Y001895D01*
X002162Y001789D01*
X002326Y001556D02*
X002354Y001498D01*
X002326Y001439D01*
X002204Y001498D01*
X002326Y001556D01*
X002354Y001498D02*
X002204Y001498D01*
X001879Y001498D01*
X001480Y001896D01*
X000721Y001805D02*
X000701Y001847D01*
X000680Y001806D01*
X000701Y001847D02*
X000700Y001850D01*
X000699Y001851D01*
X000696Y001852D01*
X000655Y001852D01*
X000533Y001794D01*
X000505Y001852D01*
X000533Y001911D01*
X000655Y001852D01*
X000505Y001852D01*
X002939Y003592D02*
X002939Y003664D01*
X002940Y003664D01*
X003248Y003665D01*
X003219Y003723D01*
X003098Y003664D01*
X003220Y003606D01*
X003248Y003665D01*
X003315Y003225D02*
X003315Y003218D01*
X003613Y003223D02*
X003613Y003225D01*
X003611Y002825D02*
X003613Y002823D01*
X003316Y002710D02*
X003375Y002589D01*
X003317Y002560D01*
X003258Y002588D01*
X003316Y002710D01*
X003317Y002560D01*
X003317Y002823D02*
X003315Y002825D01*
X003315Y002825D01*
X003294Y001955D02*
X003231Y001835D01*
X003173Y001865D01*
X003161Y001929D01*
X003294Y001955D01*
X003173Y001865D01*
D20*
X003173Y001865D03*
X003317Y002560D03*
X003940Y002628D03*
X003248Y003665D03*
X002237Y003820D03*
X001828Y003897D03*
X000640Y002965D03*
X000505Y001852D03*
X000768Y001235D03*
X000947Y000985D03*
X001863Y000505D03*
X002215Y000509D03*
X002333Y001127D03*
X002354Y001498D03*
X002162Y001789D03*
X002089Y002612D03*
X002360Y002620D03*
X003258Y001006D03*
D21*
X003097Y001789D02*
X003044Y001789D01*
X003144Y001893D01*
X003173Y001865D01*
X003183Y001826D01*
X003044Y001789D01*
X002312Y001789D01*
X002173Y001750D01*
X002162Y001789D01*
X002173Y001828D01*
X002312Y001789D01*
X002162Y001789D01*
X002053Y001898D02*
X002053Y002154D01*
X002040Y002296D02*
X001711Y002296D01*
X001711Y002505D01*
X001551Y002665D01*
X001550Y003785D01*
X001848Y003593D02*
X002046Y003792D01*
X002046Y003930D01*
X002119Y004011D01*
X002385Y004011D01*
X002568Y003818D01*
X002786Y003818D01*
X002939Y003664D01*
X002939Y003218D02*
X003307Y003218D01*
X003315Y003225D01*
X003332Y003243D01*
X003613Y003243D01*
X003633Y003223D01*
X003857Y002999D01*
X003857Y002753D01*
X003966Y002659D01*
X003940Y002628D01*
X003901Y002616D01*
X003857Y002753D01*
X003857Y002711D01*
X003940Y002628D01*
X003759Y002372D02*
X003570Y002560D01*
X003467Y002560D01*
X003328Y002521D01*
X003317Y002560D01*
X003328Y002600D01*
X003467Y002560D01*
X003317Y002560D01*
X003316Y002710D02*
X003315Y002825D01*
X003317Y002823D02*
X003613Y002823D01*
X003613Y003223D02*
X003633Y003223D01*
X002939Y003218D02*
X002939Y002844D01*
X002433Y003218D02*
X002394Y003218D01*
X002360Y003218D02*
X002360Y002770D01*
X002400Y002631D01*
X002360Y002620D01*
X002321Y002609D01*
X002360Y002470D01*
X002400Y002609D01*
X002360Y002620D01*
X002321Y002631D01*
X002360Y002770D01*
X002360Y002620D01*
X002360Y002470D01*
X002360Y002206D01*
X002433Y002206D01*
X003097Y001789D02*
X003173Y001865D01*
X003294Y001955D02*
X003411Y002042D01*
X003759Y002095D02*
X003759Y002372D01*
X003759Y002095D02*
X003811Y002042D01*
X002360Y003218D02*
X001849Y003218D01*
X002245Y003218D01*
X002237Y003375D02*
X002237Y003380D01*
X001326Y003393D02*
X001326Y003183D01*
X001095Y002535D02*
X001095Y002198D01*
X000898Y002206D02*
X000898Y001847D01*
X000898Y001418D01*
X001187Y001128D01*
X001480Y002296D02*
X001711Y002296D01*
M02*
